<?xml version="1.0" standalone="no"?><!DOCTYPE svg PUBLIC "-//W3C//DTD SVG 1.1//EN" "http://www.w3.org/Graphics/SVG/1.1/DTD/svg11.dtd"><svg t="1691830167324" class="icon" viewBox="0 0 1024 1024" version="1.1" xmlns="http://www.w3.org/2000/svg" p-id="1473" xmlns:xlink="http://www.w3.org/1999/xlink" width="200" height="200"><path d="M219.282286 913.737143h585.435428c89.581714 0 134.582857-44.580571 134.582857-132.864V257.572571c0-88.283429-45.001143-132.845714-134.582857-132.845714H219.282286c-89.142857 0-134.582857 44.141714-134.582857 132.845714v523.300572c0 88.704 45.44 132.845714 134.582857 132.845714z m-5.997715-69.010286c-38.144 0-59.574857-20.150857-59.574857-59.995428V380.580571c0-39.424 21.430857-59.995429 59.574857-59.995428h597.010286c38.125714 0 59.977143 20.571429 59.977143 59.995428v404.150858c0 39.862857-21.851429 59.977143-59.977143 59.977142H213.284571z m214.710858-370.285714h25.289142c14.994286 0 20.150857-4.297143 20.150858-19.291429v-25.289143c0-14.994286-5.138286-19.712-20.150858-19.712h-25.289142c-14.994286 0-19.712 4.717714-19.712 19.712v25.289143c0 14.994286 4.717714 19.291429 19.712 19.291429z m142.72 0h24.868571c15.414857 0 20.132571-4.297143 20.132571-19.291429v-25.289143c0-14.994286-4.717714-19.712-20.150857-19.712h-24.850285c-14.994286 0-20.150857 4.717714-20.150858 19.712v25.289143c0 14.994286 5.156571 19.291429 20.150858 19.291429z m142.281142 0h25.289143c14.994286 0 20.150857-4.297143 20.150857-19.291429v-25.289143c0-14.994286-5.156571-19.712-20.150857-19.712h-25.289143c-14.994286 0-20.132571 4.717714-20.132571 19.712v25.289143c0 14.994286 5.138286 19.291429 20.132571 19.291429zM285.714286 614.582857h25.289143c14.994286 0 20.150857-4.278857 20.150857-19.291428v-25.289143c0-14.994286-5.156571-19.273143-20.150857-19.273143h-25.289143c-14.994286 0-20.132571 4.278857-20.132572 19.273143v25.289143c0 14.994286 5.12 19.291429 20.132572 19.291428z m142.281143 0h25.289142c14.994286 0 20.150857-4.278857 20.150858-19.291428v-25.289143c0-14.994286-5.138286-19.273143-20.150858-19.273143h-25.289142c-14.994286 0-19.712 4.278857-19.712 19.273143v25.289143c0 14.994286 4.717714 19.291429 19.712 19.291428z m155.154285 34.669714a66.596571 66.596571 0 1 0 0-133.193142 66.596571 66.596571 0 0 0 0 133.193142z m129.846857-34.669714h25.289143c14.994286 0 20.150857-4.278857 20.150857-19.291428v-25.289143c0-14.994286-5.156571-19.273143-20.150857-19.273143h-25.289143c-14.994286 0-20.132571 4.278857-20.132571 19.273143v25.289143c0 14.994286 5.138286 19.291429 20.132571 19.291428z m-427.282285 140.562286h25.289143c14.994286 0 20.150857-4.699429 20.150857-19.712v-25.289143c0-14.994286-5.156571-19.273143-20.150857-19.273143h-25.289143c-14.994286 0-20.132571 4.278857-20.132572 19.273143v25.289143c0 14.994286 5.12 19.712 20.132572 19.712z m142.281143 0h25.289142c14.994286 0 20.150857-4.699429 20.150858-19.712v-25.289143c0-14.994286-5.138286-19.273143-20.150858-19.273143h-25.289142c-14.994286 0-19.712 4.278857-19.712 19.273143v25.289143c0 14.994286 4.717714 19.712 19.712 19.712z m142.72 0h24.868571c15.414857 0 20.132571-4.699429 20.132571-19.712v-25.289143c0-14.994286-4.717714-19.273143-20.150857-19.273143h-24.850285c-14.994286 0-20.150857 4.278857-20.150858 19.273143v25.289143c0 14.994286 5.156571 19.712 20.150858 19.712z" p-id="1474" fill="#ff8800"></path></svg>