<?xml version="1.0" standalone="no"?><!DOCTYPE svg PUBLIC "-//W3C//DTD SVG 1.1//EN" "http://www.w3.org/Graphics/SVG/1.1/DTD/svg11.dtd"><svg t="1742021208903" class="icon" viewBox="0 0 1024 1024" version="1.1" xmlns="http://www.w3.org/2000/svg" p-id="1460" xmlns:xlink="http://www.w3.org/1999/xlink" width="512" height="512"><path d="M753.6128 222.4128h24.0128c19.1488 0 33.5872-14.4384 33.5872-32V57.6a32.768 32.768 0 0 0-33.5872-33.5872h-24.064a32.768 32.768 0 0 0-33.536 33.5872v131.2256a32.768 32.768 0 0 0 33.5872 33.5872z m-502.4256 0h24.0128c19.2 0 33.5872-14.4384 33.5872-32V57.6a32.768 32.768 0 0 0-33.5872-33.5872h-24.0128a32.768 32.768 0 0 0-33.5872 33.5872v131.2256a32.768 32.768 0 0 0 33.5872 33.5872z" fill="#97C6FF" p-id="1461"></path><path d="M928 134.4H859.136v56.0128c0 41.5744-33.5872 76.8-79.9744 76.8h-24.0128c-43.2128 0-79.9744-33.6384-79.9744-76.8V134.4h-320v56.0128c0 41.5744-33.6384 76.8-80.0256 76.8h-24.0128c-43.1616 0-79.9744-33.6384-79.9744-76.8V134.4H105.6256c-38.4 0-68.8128 28.8256-68.8128 67.2256v731.136c0 38.4 30.4128 67.2256 68.8128 67.2256h820.736c38.4 0 68.864-28.7744 70.4512-67.1744V201.5744c0-38.4-30.4128-67.1744-68.8128-67.1744zM105.5744 932.8128V355.1744h820.8384q0 577.6384 1.536 577.6384H105.6768z" fill="#58A3FF" p-id="1462"></path><path d="M358.4 547.9936V460.8h289.3824v100.8128L512 870.4H403.8144l144.384-322.4064H358.4z" fill="#FFA100" p-id="1463"></path></svg>