<?xml version="1.0" standalone="no"?><!DOCTYPE svg PUBLIC "-//W3C//DTD SVG 1.1//EN" "http://www.w3.org/Graphics/SVG/1.1/DTD/svg11.dtd"><svg t="1716947667863" class="icon" viewBox="0 0 1024 1024" version="1.1" xmlns="http://www.w3.org/2000/svg" p-id="7911" xmlns:xlink="http://www.w3.org/1999/xlink" width="512" height="512"><path d="M305.748596 481.355913l206.153336 325.503991 206.153336-325.503991h10.84124a217.649416 217.649416 0 0 1 216.994576 216.994576v216.994576a108.824708 108.824708 0 0 1-108.509414 108.509415H186.397941a108.824708 108.824708 0 0 1-108.509415-108.509415v-216.994576a217.649416 217.649416 0 0 1 216.994577-216.994576h10.84124z m233.268563 0l51.368561 54.254707-78.508041 162.739869-78.508041-162.739869 51.36856-54.254707h54.254708zM511.901932 0a216.994576 216.994576 0 1 1-216.994576 216.994576A217.649416 217.649416 0 0 1 511.901932 0z" fill="#FFB77A" p-id="7912"></path></svg>