<?xml version="1.0" standalone="no"?><!DOCTYPE svg PUBLIC "-//W3C//DTD SVG 1.1//EN" "http://www.w3.org/Graphics/SVG/1.1/DTD/svg11.dtd"><svg t="1735879100858" class="icon" viewBox="0 0 1117 1024" version="1.1" xmlns="http://www.w3.org/2000/svg" p-id="27506" xmlns:xlink="http://www.w3.org/1999/xlink" width="558.5" height="512"><path d="M465.454545 930.909091c257.210182 0 465.454545-208.244364 465.454546-465.454546S722.664727 0 465.454545 0 0 208.244364 0 465.454545s208.244364 465.454545 465.454545 465.454546z m0-832.884364A366.964364 366.964364 0 0 1 832.884364 465.454545 366.964364 366.964364 0 0 1 465.454545 832.884364 366.964364 366.964364 0 0 1 98.024727 465.454545 366.964364 366.964364 0 0 1 465.454545 98.024727z" fill="#3E7DFF" p-id="27507"></path><path d="M649.960727 443.857455c3.909818-1.117091 7.726545-2.327273 10.798546-6.144 18.897455-14.336 18.990545-48.686545 5.213091-73.076364-44.962909-77.730909-109.102545-135.261091-179.106909-156.765091-23.272727-7.168-43.380364 10.426182-45.056 39.470545-1.675636 29.137455 14.894545 55.482182 36.305454 63.301819 47.476364 16.942545 92.811636 54.458182 121.949091 108.450909 14.149818 18.618182 34.443636 29.509818 49.896727 24.762182z" fill="#F18D00" p-id="27508"></path><path d="M1063.284364 1024c29.602909 0 53.806545-24.203636 53.806545-53.713455a53.061818 53.061818 0 0 0-16.104727-37.608727L832.139636 664.203636a54.644364 54.644364 0 0 0-75.310545 5.399273 56.413091 56.413091 0 0 0 0 69.818182l268.846545 268.474182a53.061818 53.061818 0 0 0 37.608728 16.104727z" fill="#3E7DFF" p-id="27509"></path></svg>