<?xml version="1.0" standalone="no"?><!DOCTYPE svg PUBLIC "-//W3C//DTD SVG 1.1//EN" "http://www.w3.org/Graphics/SVG/1.1/DTD/svg11.dtd"><svg t="1735878643737" class="icon" viewBox="0 0 1102 1024" version="1.1" xmlns="http://www.w3.org/2000/svg" p-id="3470" xmlns:xlink="http://www.w3.org/1999/xlink" width="551" height="512"><path d="M1050.269538 0H52.499692C23.512615 0 0 22.921846 0 51.2v921.6c0 28.278154 23.512615 51.2 52.499692 51.2h997.769846c28.987077 0 52.499692-22.921846 52.499693-51.2V51.2c0-28.278154-23.512615-51.2-52.499693-51.2z" fill="#4477EE" p-id="3471"></path><path d="M1063.384615 937.353846c0 26.112-24.142769 47.261538-53.878153 47.261539H93.262769C63.527385 984.615385 39.384615 963.465846 39.384615 937.353846V322.953846C39.384615 296.841846 63.527385 275.692308 93.262769 275.692308h916.243693C1039.241846 275.692308 1063.384615 296.841846 1063.384615 322.953846v614.4zM828.179692 87.709538l49.545846 65.378462 49.506462-65.378462a22.646154 22.646154 0 0 1 31.507692-4.450461 22.134154 22.134154 0 0 1 4.489846 31.192615L895.724308 203.618462a22.528 22.528 0 0 1-35.997539 0l-67.505231-89.16677a22.134154 22.134154 0 0 1 4.489847-31.192615 22.606769 22.606769 0 0 1 31.507692 4.450461z m-220.829538 35.682462c15.714462 0 28.435692 8.822154 28.435692 19.692308s-12.721231 19.692308-28.435692 19.692307H152.221538c-15.675077 0-28.435692-8.822154-28.435692-19.692307s12.760615-19.692308 28.435692-19.692308h455.128616z" fill="#FFFFFF" p-id="3472"></path><path d="M854.961231 616.369231v-49.624616c0-15.635692 9.846154-19.889231 21.149538-8.546461l64.905846 62.424615a13.784615 13.784615 0 0 1 0 19.849846l-64.905846 62.464c-11.264 11.342769-21.149538 7.089231-21.149538-8.546461v-48.206769H247.808v48.206769c0 15.635692-9.846154 19.889231-21.149538 8.546461l-64.905847-62.464a13.784615 13.784615 0 0 1 0-19.849846l64.905847-62.424615c11.264-11.342769 21.149538-7.089231 21.149538 8.507077v49.664h607.153231z" fill="#7ED321" p-id="3473"></path></svg>