<?xml version="1.0" standalone="no"?><!DOCTYPE svg PUBLIC "-//W3C//DTD SVG 1.1//EN" "http://www.w3.org/Graphics/SVG/1.1/DTD/svg11.dtd"><svg t="1735883624709" class="icon" viewBox="0 0 1024 1024" version="1.1" xmlns="http://www.w3.org/2000/svg" p-id="18714" xmlns:xlink="http://www.w3.org/1999/xlink" width="512" height="512"><path d="M156 388h685v304.17A83.83 83.83 0 0 1 757.17 776H239.83A83.83 83.83 0 0 1 156 692.17V388z" fill="#E0E0E0" p-id="18715"></path><path d="M841 386H156v-61.17A83.83 83.83 0 0 1 239.83 241h517.34A83.83 83.83 0 0 1 841 324.83V386z" fill="#F24C36" p-id="18716"></path><path d="M278 171m38.41 0l0 0q38.41 0 38.41 38.41l0 64.18q0 38.41-38.41 38.41l0 0q-38.41 0-38.41-38.41l0-64.18q0-38.41 38.41-38.41Z" fill="#454545" p-id="18717"></path><path d="M642 171m38.41 0l0 0q38.41 0 38.41 38.41l0 64.18q0 38.41-38.41 38.41l0 0q-38.41 0-38.41-38.41l0-64.18q0-38.41 38.41-38.41Z" fill="#454545" p-id="18718"></path><path d="M237 447m30.1 0l63.8 0q30.1 0 30.1 30.1l0 34.8q0 30.1-30.1 30.1l-63.8 0q-30.1 0-30.1-30.1l0-34.8q0-30.1 30.1-30.1Z" fill="#B2B2B2" p-id="18719"></path><path d="M440.5 447m30.1 0l63.8 0q30.1 0 30.1 30.1l0 34.8q0 30.1-30.1 30.1l-63.8 0q-30.1 0-30.1-30.1l0-34.8q0-30.1 30.1-30.1Z" fill="#B2B2B2" p-id="18720"></path><path d="M644 447m30.1 0l63.8 0q30.1 0 30.1 30.1l0 34.8q0 30.1-30.1 30.1l-63.8 0q-30.1 0-30.1-30.1l0-34.8q0-30.1 30.1-30.1Z" fill="#B2B2B2" p-id="18721"></path><path d="M237 609m30.1 0l63.8 0q30.1 0 30.1 30.1l0 34.8q0 30.1-30.1 30.1l-63.8 0q-30.1 0-30.1-30.1l0-34.8q0-30.1 30.1-30.1Z" fill="#B2B2B2" p-id="18722"></path><path d="M440.5 609m30.1 0l63.8 0q30.1 0 30.1 30.1l0 34.8q0 30.1-30.1 30.1l-63.8 0q-30.1 0-30.1-30.1l0-34.8q0-30.1 30.1-30.1Z" fill="#B2B2B2" p-id="18723"></path><path d="M644 609m30.1 0l63.8 0q30.1 0 30.1 30.1l0 34.8q0 30.1-30.1 30.1l-63.8 0q-30.1 0-30.1-30.1l0-34.8q0-30.1 30.1-30.1Z" fill="#B2B2B2" p-id="18724"></path><path d="M733.63 709.63m-139.63 0a139.63 139.63 0 1 0 279.26 0 139.63 139.63 0 1 0-279.26 0Z" fill="#454545" p-id="18725"></path><path d="M733.63 709.63m-110.25 0a110.25 110.25 0 1 0 220.5 0 110.25 110.25 0 1 0-220.5 0Z" fill="#FFFFFF" p-id="18726"></path><path d="M733.62 610.13a7.62 7.62 0 0 0-7.61 7.62v12.55a7.62 7.62 0 1 0 15.23 0v-12.55a7.62 7.62 0 0 0-7.62-7.62zM733.62 781.33A7.62 7.62 0 0 0 726 789v12.5a7.62 7.62 0 1 0 15.23 0V789a7.62 7.62 0 0 0-7.61-7.67zM833.12 709.62a7.62 7.62 0 0 0-7.62-7.62H813a7.62 7.62 0 1 0 0 15.23h12.5a7.62 7.62 0 0 0 7.62-7.61zM661.92 709.62a7.62 7.62 0 0 0-7.62-7.62h-12.55a7.62 7.62 0 1 0 0 15.23h12.55a7.62 7.62 0 0 0 7.62-7.61z" fill="#F7A614" p-id="18727"></path><path d="M733.51 653a7.63 7.63 0 0 0-7.62 7.62V710a7.62 7.62 0 0 0 15.24 0v-49.3a7.62 7.62 0 0 0-7.62-7.7z" fill="#454545" p-id="18728"></path><path d="M741.13 710.41a7.62 7.62 0 0 0-7.62-7.62h-36.75a7.62 7.62 0 0 0 0 15.24h36.75a7.62 7.62 0 0 0 7.62-7.62z" fill="#454545" p-id="18729"></path></svg>