<?xml version="1.0" standalone="no"?><!DOCTYPE svg PUBLIC "-//W3C//DTD SVG 1.1//EN" "http://www.w3.org/Graphics/SVG/1.1/DTD/svg11.dtd"><svg t="1735878735953" class="icon" viewBox="0 0 1024 1024" version="1.1" xmlns="http://www.w3.org/2000/svg" p-id="9268" xmlns:xlink="http://www.w3.org/1999/xlink" width="512" height="512"><path d="M512 512m-512 0a512 512 0 1 0 1024 0 512 512 0 1 0-1024 0Z" fill="#02CCC6" p-id="9269"></path><path d="M812.81024 614.4h-25.6a31.98976 31.98976 0 0 1-31.98976-31.98976v-25.6a31.98976 31.98976 0 0 1 31.98976-31.98976h25.6a31.98976 31.98976 0 0 1 31.98976 31.98976v25.6a31.98976 31.98976 0 0 1-31.98976 31.98976z m0-115.17952h-25.6a31.98976 31.98976 0 0 1-31.98976-31.98976v-25.6a31.98976 31.98976 0 0 1 31.98976-31.98976h25.6a31.98976 31.98976 0 0 1 31.98976 31.98976v25.6a31.98976 31.98976 0 0 1-31.98976 31.98976zM697.58976 614.4h-25.6a31.98976 31.98976 0 0 1-31.98976-31.98976v-25.6a31.98976 31.98976 0 0 1 31.98976-31.98976h25.6a31.98976 31.98976 0 0 1 31.98976 31.98976v25.6a31.98976 31.98976 0 0 1-31.98976 31.98976z m0-115.17952h-25.6a31.98976 31.98976 0 0 1-31.98976-31.98976v-25.6a31.98976 31.98976 0 0 1 31.98976-31.98976h25.6a31.98976 31.98976 0 0 1 31.98976 31.98976v25.6a31.98976 31.98976 0 0 1-31.98976 31.98976z m-89.57952-83.18976a44.81024 44.81024 0 0 1-44.81024-44.81024v-17.69472L492.78976 315.392v394.73152l70.41024-38.83008v-18.39104a44.81024 44.81024 0 0 1 89.62048 0V698.85952a45.54752 45.54752 0 0 1-22.3232 39.1168l-159.744 88.064c-1.14688 0.65536-2.33472 1.024-3.4816 1.59744s-1.8432 0.90112-2.82624 1.26976a44.07296 44.07296 0 0 1-5.57056 1.72032c-0.98304 0.24576-1.92512 0.53248-2.90816 0.69632-1.92512 0.32768-3.8912 0.45056-5.81632 0.57344h-3.2768a41.32864 41.32864 0 0 1-4.87424-0.53248q-2.21184-0.24576-4.42368-0.69632c-0.98304-0.24576-1.92512-0.57344-2.90816-0.90112a55.9104 55.9104 0 0 1-5.77536-2.17088l-1.2288-0.69632a42.3936 42.3936 0 0 1-6.51264-4.096h-0.2048a44.81024 44.81024 0 0 1-15.44192-21.83168 1.18784 1.18784 0 0 0 0-0.32768 43.45856 43.45856 0 0 1-1.67936-7.53664c0-0.90112 0-1.72032-0.24576-2.58048s-0.32768-2.17088-0.32768-3.31776V243.87584a44.31872 44.31872 0 0 1 0-6.88128v-0.24576c0-1.26976 0-2.53952 0.4096-3.8912a44.48256 44.48256 0 0 1 77.824-25.72288l147.6608 80.2816a159.744 159.744 0 0 1 23.67488 64.55296v19.21024a44.81024 44.81024 0 0 1-44.81024 44.81024zM307.2 659.21024a64.02048 64.02048 0 1 1 64.02048-63.97952A63.97952 63.97952 0 0 1 307.2 659.21024z m19.21024-153.6a44.81024 44.81024 0 1 1 44.81024-44.81024 44.81024 44.81024 0 0 1-44.81024 44.81024z m-19.21024-204.8A44.81024 44.81024 0 1 1 352.01024 256 44.81024 44.81024 0 0 1 307.2 300.81024zM230.4 396.82048a44.81024 44.81024 0 1 1 44.81024-44.81024 44.81024 44.81024 0 0 1-44.81024 44.81024z m0 294.37952a51.2 51.2 0 1 1-51.2 51.2 51.2 51.2 0 0 1 51.2-51.2z" fill="#FFFFFF" p-id="9270"></path></svg>