<?xml version="1.0" standalone="no"?><!DOCTYPE svg PUBLIC "-//W3C//DTD SVG 1.1//EN" "http://www.w3.org/Graphics/SVG/1.1/DTD/svg11.dtd"><svg t="1735904220432" class="icon" viewBox="0 0 1024 1024" version="1.1" xmlns="http://www.w3.org/2000/svg" p-id="10242" xmlns:xlink="http://www.w3.org/1999/xlink" width="512" height="512"><path d="M859.776 452.8h-46.464v-144.64c0-51.776-41.344-98.24-98.24-98.24H570.496v-46.528c0-51.712-41.28-98.176-98.176-98.176-51.712 0-98.24 41.28-98.24 98.176v46.528h-144.64c-51.648 0-98.112 41.28-98.112 98.176v144.704h46.464c51.712 0 98.24 41.28 98.24 98.176 0 51.712-41.344 98.24-98.24 98.24h-46.464v144.64c0 51.776 41.28 98.24 98.176 98.24h144.64v-46.464c0-51.712 41.344-98.24 98.24-98.24 51.712 0 98.24 41.28 98.24 98.24v46.336h144.64c51.712 0 98.24-41.28 98.24-98.176v-144.64h46.464a98.112 98.112 0 1 0-0.192-196.352z" fill="#67C33A" p-id="10243"></path></svg>