<?xml version="1.0" standalone="no"?><!DOCTYPE svg PUBLIC "-//W3C//DTD SVG 1.1//EN" "http://www.w3.org/Graphics/SVG/1.1/DTD/svg11.dtd"><svg t="1735878985962" class="icon" viewBox="0 0 1024 1024" version="1.1" xmlns="http://www.w3.org/2000/svg" p-id="21059" xmlns:xlink="http://www.w3.org/1999/xlink" width="512" height="512"><path d="M0 0h1024v1024H0V0z" fill="#202425" opacity=".01" p-id="21060"></path><path d="M204.8 204.8a68.266667 68.266667 0 0 0-68.266667 68.266667v375.466666c0 207.36 168.106667 375.466667 375.466667 375.466667s375.466667-168.106667 375.466667-375.466667V273.066667a68.266667 68.266667 0 1 0-136.533334 0v375.466666a238.933333 238.933333 0 1 1-477.866666 0V273.066667a68.266667 68.266667 0 0 0-68.266667-68.266667z" fill="#FF7744" p-id="21061"></path><path d="M819.2 682.666667a68.266667 68.266667 0 0 1-68.266667-68.266667V273.066667a136.533333 136.533333 0 0 0-273.066666 0v341.333333a68.266667 68.266667 0 1 1-136.533334 0V273.066667a273.066667 273.066667 0 1 1 546.133334 0v341.333333a68.266667 68.266667 0 0 1-68.266667 68.266667z" fill="#FFAA44" p-id="21062"></path><path d="M409.6 273.066667a68.266667 68.266667 0 0 1 68.266667 68.266666v307.2a34.133333 34.133333 0 1 0 68.266666 0v-307.2a68.266667 68.266667 0 1 1 136.533334 0v307.2a170.666667 170.666667 0 0 1-341.333334 0v-307.2a68.266667 68.266667 0 0 1 68.266667-68.266666z" fill="#FF7744" p-id="21063"></path></svg>