<?xml version="1.0" standalone="no"?><!DOCTYPE svg PUBLIC "-//W3C//DTD SVG 1.1//EN" "http://www.w3.org/Graphics/SVG/1.1/DTD/svg11.dtd"><svg t="1710732472420" class="icon" viewBox="0 0 1024 1024" version="1.1" xmlns="http://www.w3.org/2000/svg" p-id="18559" xmlns:xlink="http://www.w3.org/1999/xlink" width="128" height="128"><path d="M512 512m-512 0a512 512 0 1 0 1024 0 512 512 0 1 0-1024 0Z" fill="#D0DDFE" p-id="18560"></path><path d="M512 592m-256 0a256 256 0 1 0 512 0 256 256 0 1 0-512 0Z" fill="#FFFFFF" p-id="18561"></path><path d="M512 384a208 208 0 0 0-147.072 355.072 208 208 0 0 0 294.144-294.144 206.64 206.64 0 0 0-147.072-60.928m0-48a256 256 0 1 1-256 256 256 256 0 0 1 256-256z" fill="#FFFFFF" p-id="18562"></path><path d="M225.136 590.688m59.184 0l-0.016 0q59.184 0 59.184 59.184l0 54.624q0 59.184-59.184 59.184l0.016 0q-59.184 0-59.184-59.184l0-54.624q0-59.184 59.184-59.184Z" fill="#8BACFF" p-id="18563"></path><path d="M792.064 671.904a292.8 292.8 0 0 0-70-355.2l16.176-31.472q8.512 7.456 16.592 15.52a337.392 337.392 0 0 1 71.36 371.2z m-594.256 0A337.392 337.392 0 0 1 269.104 300.752a342.224 342.224 0 0 1 32.16-28.304L320.976 301.616a292.928 292.928 0 0 0-89.024 370.288z" fill="#3075FF" p-id="18564"></path><path d="M680 590.688m59.184 0l-0.016 0q59.184 0 59.184 59.184l0 54.624q0 59.184-59.184 59.184l0.016 0q-59.184 0-59.184-59.184l0-54.624q0-59.184 59.184-59.184Z" fill="#8BACFF" p-id="18565"></path><path d="M197.824 563.376m59.184 0l-0.016 0q59.184 0 59.184 59.184l0 109.248q0 59.184-59.184 59.184l0.016 0q-59.184 0-59.184-59.184l0-109.248q0-59.184 59.184-59.184Z" fill="#216CFF" p-id="18566"></path><path d="M707.2 563.376m59.184 0l-0.016 0q59.184 0 59.184 59.184l0 109.248q0 59.184-59.184 59.184l0.016 0q-59.184 0-59.184-59.184l0-109.248q0-59.184 59.184-59.184Z" fill="#216CFF" p-id="18567"></path><path d="M727.984 331.136l-0.128 0.128a316.8 316.8 0 0 0-431.776-2.672L295.984 328.496a32 32 0 1 1-43.2-47.088 381.056 381.056 0 0 1 518.592 2.672 32 32 0 1 1-43.2 47.088z" fill="#216CFF" p-id="18568"></path><path d="M524 464m28 0l0 0q28 0 28 28l0 248q0 28-28 28l0 0q-28 0-28-28l0-248q0-28 28-28Z" fill="#FFB444" p-id="18569"></path><path d="M604 592m28 0l0 0q28 0 28 28l0 104q0 28-28 28l0 0q-28 0-28-28l0-104q0-28 28-28Z" fill="#FFB444" p-id="18570"></path><path d="M444 544m28 0l0 0q28 0 28 28l0 152q0 28-28 28l0 0q-28 0-28-28l0-152q0-28 28-28Z" fill="#FFB444" p-id="18571"></path><path d="M364 640m28 0l0 0q28 0 28 28l0 40q0 28-28 28l0 0q-28 0-28-28l0-40q0-28 28-28Z" fill="#FFB444" p-id="18572"></path></svg>