<?xml version="1.0" standalone="no"?><!DOCTYPE svg PUBLIC "-//W3C//DTD SVG 1.1//EN" "http://www.w3.org/Graphics/SVG/1.1/DTD/svg11.dtd"><svg t="1716452509894" class="icon" viewBox="0 0 1024 1024" version="1.1" xmlns="http://www.w3.org/2000/svg" p-id="7547" xmlns:xlink="http://www.w3.org/1999/xlink" width="512" height="512"><path d="M288 128h576c19.2 0 32 12.8 32 32v576c0 19.2-12.8 32-32 32H288c-19.2 0-32-12.8-32-32V160c0-19.2 12.8-32 32-32z" fill="#36BD64" p-id="7548"></path><path d="M160 256h576c19.2 0 32 12.8 32 32v576c0 19.2-12.8 32-32 32H160c-19.2 0-32-12.8-32-32V288c0-19.2 12.8-32 32-32z" fill="#BEECD7" p-id="7549"></path><path d="M576 544h-80v-80c0-19.2-12.8-32-32-32s-32 12.8-32 32V544H352c-19.2 0-32 12.8-32 32s12.8 32 32 32h80v80c0 19.2 12.8 32 32 32s32-12.8 32-32V608H576c19.2 0 32-12.8 32-32s-12.8-32-32-32z" fill="#36BD64" p-id="7550"></path></svg>