<?xml version="1.0" standalone="no"?><!DOCTYPE svg PUBLIC "-//W3C//DTD SVG 1.1//EN" "http://www.w3.org/Graphics/SVG/1.1/DTD/svg11.dtd"><svg t="1708314478812" class="icon" viewBox="0 0 1024 1024" version="1.1" xmlns="http://www.w3.org/2000/svg" p-id="13347" xmlns:xlink="http://www.w3.org/1999/xlink" width="128" height="128"><path d="M1018.432 820.672c-3.712 19.968-16.64 32.896-32.64 32.896h-2.688a57.28 57.28 0 0 0-57.152 57.088c0.448 7.488 2.176 14.848 5.12 21.76 7.68 17.856 1.728 38.592-14.08 49.856l-1.6 1.024-66.304 36.48a44.288 44.288 0 0 1-50.688-9.792c-8.512-9.216-31.168-28.352-47.04-28.352-15.552 0-38.592 19.136-46.592 27.904a44.8 44.8 0 0 1-49.152 10.176l-65.536-36.48a41.664 41.664 0 0 1-15.488-50.944c1.408-3.2 5.056-13.44 5.056-21.568a57.28 57.28 0 0 0-57.216-57.088h-2.24c-16.448 0-29.248-12.992-33.088-32.96a335.616 335.616 0 0 1-5.632-52.928c0-22.272 5.056-50.048 5.632-52.992 3.84-19.904 16.64-32.896 32.64-32.896h2.752a57.152 57.152 0 0 0 57.152-56.96 64.192 64.192 0 0 0-5.12-21.888 41.28 41.28 0 0 1 14.208-49.92l1.536-0.896 67.968-37.376 1.28-0.512a45.184 45.184 0 0 1 48.704 10.24c8.32 8.576 30.528 26.688 45.952 26.688 15.168 0 37.312-17.664 45.568-26.304a45.248 45.248 0 0 1 48.832-9.728l66.752 36.864c17.28 12.032 23.36 33.6 15.488 51.072a67.2 67.2 0 0 0-4.928 21.632c0.064 31.488 25.6 56.96 57.088 56.96h2.304c16.448 0 29.248 12.992 33.088 32.96 0.576 3.008 5.632 30.72 5.632 53.056 0 23.424-5.632 52.736-5.568 52.928z m-49.728-87.936a108.992 108.992 0 0 1-94.784-108.032c0.192-11.264 2.176-22.4 5.76-32.96l-47.168-26.24c-6.144 5.632-12.672 10.88-19.52 15.744-20.608 14.464-40.32 21.76-58.816 21.76-18.816 0-38.72-7.296-59.456-22.144a170.56 170.56 0 0 1-19.52-16.192l-49.408 27.136c2.816 8.192 5.888 20.288 5.888 32.96 0 54.72-40.64 100.928-94.848 108.032-1.92 11.52-3.008 23.232-3.264 34.944 0.32 11.648 1.344 23.232 3.2 34.816 54.336 7.04 94.976 53.312 94.912 108.032 0 12.608-3.2 24.768-5.888 33.024l45.696 25.536c6.144-5.952 12.672-11.456 19.52-16.512 20.928-15.296 41.28-23.168 60.288-23.168 19.264 0 39.808 8.064 60.928 23.68 6.912 5.12 13.44 10.816 19.648 16.832l47.808-26.368a108.16 108.16 0 0 1-5.76-32.96c0-54.72 40.512-100.992 94.784-108.096 1.28-8.96 3.264-23.552 3.264-34.944 0-11.328-1.92-25.856-3.264-34.88zM605.248 463.616l-16.384 12.8c-33.472 29.696-97.28 39.68-139.456 42.88l-5.376-0.064c-11.84 0-23.68 0.576-35.52 1.664h-0.512l0.064 0.064c-190.848 18.048-340.608 177.92-340.608 372.096v57.088h418.112c11.008 23.744 24.64 46.08 40.768 66.752H33.728A33.536 33.536 0 0 1 0 983.552v-90.496c0-181.12 109.824-341.632 279.808-409.088l19.264-7.552-16.32-12.8a257.472 257.472 0 0 1-100.48-204.096C182.336 116.48 299.712 0 444.032 0c144.256 0 261.632 116.48 261.76 259.52a257.92 257.92 0 0 1-100.48 204.16z m-161.28-396.8c-107.072 0-194.176 86.464-194.176 192.704 0 106.368 87.104 192.896 194.176 192.896 107.136 0 194.24-86.464 194.24-192.896 0-106.304-87.04-192.768-194.24-192.768z" fill="#516280" p-id="13348"></path><path d="M751.616 669.184c54.656 0 99.328 43.52 100.864 98.112a100.992 100.992 0 0 1-100.864 100.8 100.992 100.992 0 0 1-100.864-100.8 100.928 100.928 0 0 1 100.864-98.112z m0 51.2a48.96 48.96 0 0 0-48.896 46.976 48.896 48.896 0 0 0 97.792 0 48.96 48.96 0 0 0-48.896-46.912z" fill="#5D6FFF" p-id="13349"></path></svg>