<?xml version="1.0" standalone="no"?><!DOCTYPE svg PUBLIC "-//W3C//DTD SVG 1.1//EN" "http://www.w3.org/Graphics/SVG/1.1/DTD/svg11.dtd"><svg t="1697180286998" class="icon" viewBox="0 0 1024 1024" version="1.1" xmlns="http://www.w3.org/2000/svg" p-id="16254" xmlns:xlink="http://www.w3.org/1999/xlink" width="128" height="128"><path d="M414.47619 121.904762a73.142857 73.142857 0 0 1 73.142858 73.142857v292.571429H195.047619a73.142857 73.142857 0 0 1-73.142857-73.142858V195.047619a73.142857 73.142857 0 0 1 73.142857-73.142857h219.428571z m73.142858 414.47619v292.571429a73.142857 73.142857 0 0 1-73.142858 73.142857H195.047619a73.142857 73.142857 0 0 1-73.142857-73.142857v-219.428571a73.142857 73.142857 0 0 1 73.142857-73.142858h292.571429z m231.619047-414.47619a182.857143 182.857143 0 1 1 0 365.714286 182.857143 182.857143 0 0 1 0-365.714286zM828.952381 536.380952a73.142857 73.142857 0 0 1 73.142857 73.142858v219.428571a73.142857 73.142857 0 0 1-73.142857 73.142857h-219.428571a73.142857 73.142857 0 0 1-73.142858-73.142857V536.380952h292.571429z" p-id="16255" fill="#ff8800"></path></svg>