<?xml version="1.0" standalone="no"?><!DOCTYPE svg PUBLIC "-//W3C//DTD SVG 1.1//EN" "http://www.w3.org/Graphics/SVG/1.1/DTD/svg11.dtd"><svg t="1735878846983" class="icon" viewBox="0 0 1024 1024" version="1.1" xmlns="http://www.w3.org/2000/svg" p-id="13005" xmlns:xlink="http://www.w3.org/1999/xlink" width="512" height="512"><path d="M853.262228 0.085326a170.652446 170.652446 0 0 1 170.652446 170.652446v682.609782a170.652446 170.652446 0 0 1-170.652446 170.652446H170.652446a170.652446 170.652446 0 0 1-170.652446-170.652446v-682.609782a170.652446 170.652446 0 0 1 170.652446-170.652446h682.609782z m-134.644779 165.319557H225.261228a19.966336 19.966336 0 0 0-19.966336 20.008999v226.626448c0 11.092409 8.873927 20.051662 19.966336 20.051662h493.313557c11.092409 0 19.966336-8.959253 19.966337-20.051662V298.727106h26.664444v166.642113h-292.455628a33.31989 33.31989 0 0 0-33.319891 33.362553v113.313224h-36.690275a6.698108 6.698108 0 0 0-6.655446 6.655446v189.978835a10.239147 10.239147 0 0 0 0.170653 1.578535c-0.085326 1.706524-0.170652 3.413049-0.170653 5.119573a69.967503 69.967503 0 1 0 139.977669 0c0-1.749188-0.085326-3.413049-0.170653-5.119573 0.085326-0.469294 0.170652-0.981252 0.170653-1.578535v-189.978835a6.698108 6.698108 0 0 0-6.655446-6.655446h-36.690275v-93.346888h292.498291c18.430464 0 33.362553-14.932089 33.362554-33.277226V278.675444a33.31989 33.31989 0 0 0-33.362554-33.277227h-46.63078V185.371219a19.966336 19.966336 0 0 0-20.051663-20.008999z m-235.84168 499.969003v150.003499c0 9.129906-7.466044 16.638613-16.638614 16.638614a16.72394 16.72394 0 0 1-16.638613-16.638614v-150.003499h33.277227z m202.479126-446.640114v159.986668h-426.631114v-159.986668h426.631114z" fill="#FFAD0A" p-id="13006"></path></svg>