<?xml version="1.0" standalone="no"?><!DOCTYPE svg PUBLIC "-//W3C//DTD SVG 1.1//EN" "http://www.w3.org/Graphics/SVG/1.1/DTD/svg11.dtd"><svg t="1735878948331" class="icon" viewBox="0 0 1024 1024" version="1.1" xmlns="http://www.w3.org/2000/svg" p-id="19195" xmlns:xlink="http://www.w3.org/1999/xlink" width="512" height="512"><path d="M718.987589 222.300712m-86.25351 0a86.25351 86.25351 0 1 0 172.50702 0 86.25351 86.25351 0 1 0-172.50702 0Z" fill="#D32F2F" p-id="19196"></path><path d="M293.136928 222.300712m-86.25351 0a86.25351 86.25351 0 1 0 172.507019 0 86.25351 86.25351 0 1 0-172.507019 0Z" fill="#D32F2F" p-id="19197"></path><path d="M367.306612 756.072431c4.791862-8.333672 1.666734-18.959105-6.666938-23.750966-8.333672-4.791862-18.959105-1.666734-23.750966 6.666938l-68.961139 122.921668c-4.791862 8.333672-1.666734 18.959105 6.666938 23.750967 8.333672 4.791862 18.959105 1.666734 23.750966-6.666938l68.961139-122.921669zM681.694405 738.155036c-5.625229-7.708647-16.459003-9.583723-24.375992-3.958495-7.708647 5.625229-9.583723 16.459003-3.958494 24.375992l87.711902 122.088301c5.625229 7.708647 16.459003 9.583723 24.375992 3.958495 7.708647-5.625229 9.583723-16.459003 3.958494-24.375992l-87.711902-122.088301z" fill="#424242" p-id="19198"></path><path d="M512.104171 801.90763c-86.878535 0-165.63174-35.209766-222.509054-92.295422-56.877314-56.877314-92.295422-135.630519-92.295422-222.509054S232.509461 321.471414 289.595117 264.5941c56.877314-56.877314 135.630519-92.295422 222.509054-92.295422v629.608952z" fill="#FFB74D" p-id="19199"></path><path d="M512.104171 172.298678h0.625025c86.670193 0.208342 165.215056 35.418108 222.092371 92.295422C791.698881 321.471414 827.116989 400.224619 827.116989 487.103154s-35.209766 165.63174-92.295422 222.509054c-56.877314 56.877314-135.630519 92.08708-222.509054 92.295422l-0.208342-629.608952z" fill="#FFCC80" p-id="19200"></path><path d="M529.604883 277.094608c0-9.583723-7.916989-17.500712-17.500712-17.500712-9.583723 0-17.500712 7.916989-17.500712 17.500712v227.300916c0 4.791862 2.083418 9.375381 5.208545 12.500509l122.296643 122.296642c6.87528 6.87528 17.917396 6.87528 24.792675 0 6.87528-6.87528 6.87528-17.917396 0-24.792675l-117.296439-117.296439V277.094608z" fill="#424242" p-id="19201"></path></svg>