<?xml version="1.0" standalone="no"?><!DOCTYPE svg PUBLIC "-//W3C//DTD SVG 1.1//EN" "http://www.w3.org/Graphics/SVG/1.1/DTD/svg11.dtd"><svg t="1700286076062" class="icon" viewBox="0 0 1024 1024" version="1.1" xmlns="http://www.w3.org/2000/svg" p-id="39581" xmlns:xlink="http://www.w3.org/1999/xlink" width="128" height="128"><path d="M740.1472 362.2912c5.7344 3.2768 8.704 9.4208 8.704 18.5344l0.4096 155.3408c0 9.728-2.8672 19.3536-8.4992 28.9792-5.7344 9.5232-12.4928 16.5888-20.3776 21.1968-7.8848 4.5056-14.6432 5.3248-20.48 2.3552-5.7344-2.9696-8.6016-9.3184-8.704-19.0464l-0.4096-155.3408c0-9.0112 2.8672-18.5344 8.4992-28.4672 5.7344-9.9328 12.4928-17.1008 20.3776-21.6064 7.8848-4.608 14.6432-5.2224 20.48-1.9456z" fill="#72DD00" p-id="39582"></path><path d="M653.5168 312.0128c-5.7344-3.2768-12.5952-2.6624-20.48 1.9456-7.8848 4.5056-14.6432 11.776-20.3776 21.6064-5.7344 9.9328-8.6016 19.3536-8.4992 28.4672l0.4096 155.3408c0 9.3184 2.6624 15.5648 7.9872 18.6368l86.6304 50.2784c-5.3248-3.072-7.9872-9.3184-7.9872-18.6368l-0.4096-155.3408c0-9.0112 2.8672-18.5344 8.4992-28.4672 5.7344-9.9328 12.4928-17.1008 20.3776-21.6064 7.8848-4.608 14.7456-5.2224 20.48-1.9456l-86.6304-50.2784z" fill="#4F9901" p-id="39583"></path><path d="M707.1744 593.408c-3.072 0-5.9392-0.7168-8.704-2.048-6.8608-3.4816-10.3424-10.8544-10.3424-21.7088l-0.4096-155.3408c0-9.5232 2.9696-19.6608 8.9088-30.0032 5.9392-10.3424 13.2096-18.0224 21.504-22.7328 8.8064-5.12 16.896-5.7344 23.552-1.9456 6.7584 3.8912 10.24 10.9568 10.24 21.1968l0.4096 155.3408c0 10.24-2.9696 20.48-9.0112 30.5152-5.9392 9.9328-13.2096 17.5104-21.504 22.2208-5.2224 2.9696-10.1376 4.5056-14.6432 4.5056z m25.1904-230.0928c-3.2768 0-7.0656 1.2288-11.1616 3.584-7.3728 4.1984-13.824 11.1616-19.2512 20.48-5.4272 9.4208-8.192 18.432-8.0896 26.9312l0.4096 155.3408c0 8.6016 2.3552 13.9264 6.9632 16.2816 1.8432 0.9216 3.7888 1.4336 5.8368 1.4336 3.4816 0 7.3728-1.2288 11.6736-3.6864 7.3728-4.3008 13.824-11.0592 19.2512-20.0704 5.4272-9.0112 8.0896-18.2272 8.0896-27.3408l-0.4096-155.3408c0-7.9872-2.3552-13.1072-7.168-15.872-1.8432-1.2288-3.8912-1.7408-6.144-1.7408z" fill="#1B3302" p-id="39584"></path><path d="M699.1872 591.36c-0.512 0-1.024-0.1024-1.536-0.4096L611.0208 540.672c-6.2464-3.6864-9.5232-10.8544-9.5232-21.2992l-0.4096-155.3408c0-9.5232 2.9696-19.6608 8.9088-30.0032 5.9392-10.3424 13.2096-18.0224 21.504-22.7328 8.8064-5.12 16.896-5.7344 23.552-1.9456l86.6304 50.3808c1.4336 0.8192 1.9456 2.7648 1.1264 4.1984-0.8192 1.4336-2.6624 1.9456-4.1984 1.1264-1.9456-1.1264-3.9936-1.6384-6.2464-1.6384-3.2768 0-7.0656 1.2288-11.1616 3.584-7.3728 4.1984-13.824 11.1616-19.2512 20.48-5.4272 9.4208-8.192 18.432-8.0896 26.9312l0.4096 155.3408c0 7.9872 2.1504 13.312 6.2464 15.872 1.024 0.512 1.7408 1.536 1.7408 2.7648 0 1.536-1.3312 2.8672-3.072 2.9696z m-53.4528-278.4256c-3.2768 0-7.0656 1.2288-11.1616 3.584-7.3728 4.1984-13.824 11.1616-19.2512 20.48-5.4272 9.4208-8.192 18.432-8.0896 26.9312l0.4096 155.3408c0 8.0896 2.2528 13.5168 6.4512 15.9744l75.0592 43.6224c-0.7168-2.7648-1.024-5.8368-1.024-9.216l-0.4096-155.3408c0-9.5232 2.9696-19.6608 8.9088-30.0032 5.9392-10.3424 13.2096-18.0224 21.504-22.7328 2.8672-1.6384 5.7344-2.8672 8.4992-3.584l-74.5472-43.3152c-2.048-1.1264-4.096-1.7408-6.3488-1.7408z" fill="#1B3302" p-id="39585"></path><path d="M479.3344 825.5488l-0.2048-78.2336-86.6304-50.2784 0.2048 78.2336c0 9.3184 2.6624 15.5648 7.9872 18.6368l86.6304 50.2784c-5.3248-3.072-7.9872-9.3184-7.9872-18.6368z" fill="#3E7702" p-id="39586"></path><path d="M487.3216 847.2576c-0.512 0-1.024-0.1024-1.536-0.4096l-86.6304-50.2784c-6.2464-3.6864-9.5232-10.8544-9.5232-21.2992l-0.2048-78.2336c0-1.1264 0.6144-2.1504 1.536-2.6624s2.1504-0.512 3.072 0l86.6304 50.2784c0.9216 0.512 1.536 1.536 1.536 2.6624l0.2048 78.2336c0 8.0896 2.2528 13.5168 6.4512 15.9744 1.4336 0.8192 1.9456 2.7648 1.1264 4.1984-0.6144 1.024-1.6384 1.536-2.6624 1.536zM395.5712 702.464l0.2048 72.8064c0 8.0896 2.2528 13.5168 6.4512 15.9744l75.0592 43.6224c-0.7168-2.7648-1.024-5.8368-1.024-9.216l-0.2048-76.3904-80.4864-46.7968z" fill="#1B3302" p-id="39587"></path><path d="M575.488 770.048l-0.2048-78.2336-86.6304-50.2784 0.2048 78.2336c0 9.3184 2.6624 15.5648 7.9872 18.6368l86.6304 50.2784c-5.3248-3.072-7.9872-9.3184-7.9872-18.6368z" fill="#3E7702" p-id="39588"></path><path d="M439.3984 526.0288l-86.6304-50.3808 232.2432-134.0416 86.6304 50.3808z" fill="#4F9901" p-id="39589"></path><path d="M440.0128 748.032l-0.6144-222.0032-86.6304-50.2784 0.6144 222.0032c0 6.2464 1.8432 10.4448 5.5296 12.4928l86.6304 50.2784c-3.6864-2.048-5.5296-6.2464-5.5296-12.4928z" fill="#3E7702" p-id="39590"></path><path d="M594.3296 369.7664l-86.6304-50.3808 19.0464-10.9568 86.6304 50.2784z" fill="#4F9901" p-id="39591"></path><path d="M613.376 358.7072l-86.6304-50.2784v-22.9376l86.528 50.3808z" fill="#3E7702" p-id="39592"></path><path d="M561.8688 179.6096c-2.1504-1.2288-4.3008-1.1264-6.5536 0.1024-2.2528 1.3312-4.608 3.8912-7.0656 7.68l-28.9792 50.176 86.6304 50.2784 28.9792-50.0736c2.4576-3.7888 4.7104-6.3488 7.0656-7.68 2.2528-1.3312 4.5056-1.3312 6.5536-0.1024l-86.6304-50.3808zM497.2544 425.7792L410.624 375.5008l19.0464-11.0592 86.6304 50.3808z" fill="#4F9901" p-id="39593"></path><path d="M516.3008 414.8224l-86.6304-50.3808v-22.9376l86.528 50.3808z" fill="#3E7702" p-id="39594"></path><path d="M416.768 296.7552l-29.0816-16.5888c-2.1504-1.2288-4.3008-1.1264-6.5536 0.1024-2.2528 1.3312-4.608 3.8912-7.0656 7.68-4.8128 7.68-4.8128 12.9024 0 15.6672l86.6304 50.2784c-4.8128-2.7648-4.9152-7.9872 0-15.6672 2.4576-3.7888 4.7104-6.3488 7.0656-7.68 2.2528-1.3312 4.5056-1.3312 6.5536-0.1024l29.0816 16.5888-86.6304-50.2784z" fill="#4F9901" p-id="39595"></path><path d="M583.4752 791.7568c-0.512 0-1.024-0.1024-1.536-0.4096l-86.6304-50.2784c-6.2464-3.6864-9.5232-10.8544-9.5232-21.2992l-0.2048-78.2336c0-1.1264 0.6144-2.1504 1.536-2.6624s2.1504-0.512 3.072 0l86.6304 50.2784c0.9216 0.512 1.536 1.536 1.536 2.6624l0.2048 78.2336c0 8.0896 2.2528 13.5168 6.4512 15.9744 1.4336 0.8192 1.9456 2.7648 1.1264 4.1984-0.6144 1.024-1.6384 1.536-2.6624 1.536z m-91.7504-144.896l0.2048 72.8064c0 8.0896 2.2528 13.5168 6.4512 15.9744L573.44 779.264c-0.7168-2.7648-1.024-5.8368-1.024-9.216l-0.2048-76.3904-80.4864-46.7968zM439.3984 529.1008c-0.512 0-1.024-0.1024-1.536-0.4096L351.232 478.3104c-0.9216-0.512-1.536-1.536-1.536-2.6624s0.6144-2.1504 1.536-2.6624L583.4752 338.944c0.9216-0.512 2.1504-0.512 3.072 0l86.6304 50.2784c0.9216 0.512 1.536 1.536 1.536 2.6624s-0.6144 2.1504-1.536 2.6624l-232.2432 134.144c-0.512 0.3072-1.024 0.4096-1.536 0.4096z m-80.4864-53.3504l80.4864 46.7968 226.0992-130.56-80.4864-46.7968-226.0992 130.56z" fill="#1B3302" p-id="39596"></path><path d="M445.5424 763.5968c-0.512 0-1.024-0.1024-1.536-0.4096l-0.2048-0.1024-86.4256-50.2784c-4.608-2.6624-6.9632-7.7824-6.9632-15.1552l-0.6144-222.0032c0-1.1264 0.6144-2.1504 1.536-2.6624s2.1504-0.512 3.072 0l86.6304 50.3808c0.9216 0.512 1.536 1.536 1.536 2.6624l0.6144 222.0032c0 5.0176 1.2288 8.192 3.7888 9.728 1.024 0.512 1.7408 1.536 1.7408 2.7648-0.1024 1.6384-1.4336 3.072-3.1744 3.072z m-89.7024-282.5216l0.6144 216.6784c0 5.12 1.3312 8.2944 3.8912 9.8304l76.8 44.6464c-0.2048-1.3312-0.3072-2.6624-0.3072-4.096l-0.6144-220.2624-80.384-46.7968zM594.3296 372.8384c-0.512 0-1.024-0.1024-1.536-0.4096l-86.6304-50.2784c-0.9216-0.512-1.536-1.536-1.536-2.6624s0.6144-2.1504 1.536-2.6624l19.0464-10.9568c0.9216-0.512 2.1504-0.512 3.072 0l86.6304 50.2784c0.9216 0.512 1.536 1.536 1.536 2.6624s-0.6144 2.1504-1.536 2.6624l-19.0464 10.9568c-0.512 0.2048-1.024 0.4096-1.536 0.4096z m-80.4864-53.4528l80.4864 46.7968 12.9024-7.4752-80.4864-46.7968-12.9024 7.4752z" fill="#1B3302" p-id="39597"></path><path d="M613.376 361.7792c-0.512 0-1.024-0.1024-1.536-0.4096l-86.6304-50.2784c-0.9216-0.512-1.536-1.536-1.536-2.6624l-0.1024-22.9376c0-1.1264 0.6144-2.1504 1.536-2.6624s2.1504-0.512 3.072 0l86.6304 50.2784c0.9216 0.512 1.536 1.536 1.536 2.6624l0.1024 22.528v0.4096c0 1.7408-1.3312 3.072-3.072 3.072z m-83.5584-55.0912l80.4864 46.7968v-15.7696L529.8176 290.816v15.872zM605.9008 290.9184c-0.512 0-1.024-0.1024-1.536-0.4096l-86.6304-50.2784c-1.4336-0.8192-1.9456-2.7648-1.1264-4.1984l28.9792-50.0736s0-0.1024 0.1024-0.1024c2.6624-4.3008 5.3248-7.168 8.0896-8.704 3.1744-1.8432 6.5536-1.9456 9.6256-0.2048l86.6304 50.3808c1.4336 0.8192 1.9456 2.7648 1.1264 4.1984-0.8192 1.4336-2.7648 1.9456-4.1984 1.1264-1.2288-0.7168-2.2528-0.6144-3.4816 0.1024-1.2288 0.7168-3.2768 2.4576-5.9392 6.656l-28.8768 50.0736c-0.4096 0.7168-1.1264 1.2288-1.8432 1.4336h-0.9216z m-82.432-54.4768l81.3056 47.2064 27.4432-47.4112s0-0.1024 0.1024-0.1024c2.3552-3.6864 4.608-6.3488 6.9632-7.9872L560.2304 182.272c-1.1264-0.6144-2.1504-0.6144-3.4816 0.2048-1.2288 0.7168-3.2768 2.4576-5.9392 6.656l-27.3408 47.3088zM497.2544 428.8512c-0.512 0-1.024-0.1024-1.536-0.4096l-86.6304-50.2784c-0.9216-0.512-1.536-1.536-1.536-2.6624s0.6144-2.1504 1.536-2.6624l19.0464-10.9568c0.9216-0.512 2.1504-0.512 3.072 0l86.6304 50.2784c0.9216 0.512 1.536 1.536 1.536 2.6624s-0.6144 2.1504-1.536 2.6624l-19.0464 10.9568c-0.512 0.3072-1.024 0.4096-1.536 0.4096zM416.768 375.5008l80.4864 46.7968 12.9024-7.4752-80.4864-46.7968-12.9024 7.4752z" fill="#1B3302" p-id="39598"></path><path d="M516.3008 417.8944c-0.512 0-1.024-0.1024-1.536-0.4096l-86.6304-50.2784c-0.9216-0.512-1.536-1.536-1.536-2.6624l-0.1024-22.9376c0-1.1264 0.6144-2.1504 1.536-2.6624s2.1504-0.512 3.072 0l86.6304 50.2784c0.9216 0.512 1.536 1.536 1.536 2.6624l0.1024 22.528v0.4096c0 1.6384-1.3312 3.072-3.072 3.072z m-83.5584-55.1936l80.4864 46.7968v-15.7696l-80.4864-46.7968v15.7696z" fill="#1B3302" p-id="39599"></path><path d="M460.6976 357.0688c-0.512 0-1.024-0.1024-1.536-0.4096l-0.2048-0.1024-86.4256-50.2784c-2.56-1.4336-4.1984-3.584-4.9152-6.144-0.9216-3.7888 0.3072-8.2944 3.7888-13.824 2.6624-4.3008 5.3248-7.168 8.0896-8.704 3.1744-1.8432 6.5536-1.9456 9.6256-0.2048l29.0816 16.5888 86.6304 50.3808c1.4336 0.8192 1.9456 2.7648 1.1264 4.1984-0.8192 1.4336-2.6624 1.9456-4.1984 1.1264l-29.0816-16.5888c-1.2288-0.7168-2.2528-0.6144-3.4816 0.1024-1.2288 0.7168-3.2768 2.4576-5.9392 6.656-2.4576 3.8912-3.4816 7.0656-3.072 9.0112 0.1024 0.6144 0.512 1.4336 1.8432 2.2528l0.1024 0.1024c1.4336 0.8192 1.9456 2.7648 1.1264 4.1984-0.512 1.024-1.536 1.6384-2.56 1.6384z m-76.1856-74.752c-0.6144 0-1.2288 0.2048-1.9456 0.6144-1.2288 0.7168-3.2768 2.4576-5.9392 6.656-2.4576 3.8912-3.4816 7.0656-2.9696 9.0112 0.1024 0.6144 0.512 1.4336 1.9456 2.3552l78.4384 45.568c0.3072-2.8672 1.6384-6.144 3.9936-9.8304 2.4576-3.8912 4.8128-6.5536 7.2704-8.192l-50.0736-29.0816-29.0816-16.5888c-0.6144-0.3072-1.1264-0.512-1.6384-0.512z" fill="#1B3302" p-id="39600"></path><path d="M440.0128 748.032l-0.6144-222.0032 232.2432-134.0416 0.6144 222.0032c0 6.2464-1.7408 12.4928-5.4272 18.7392-3.584 6.2464-8.0896 10.9568-13.6192 14.1312L633.2416 658.432l0.2048 78.2336c0 9.728-2.8672 19.3536-8.4992 28.9792-5.7344 9.5232-12.4928 16.5888-20.3776 21.1968-7.8848 4.5056-14.6432 5.3248-20.48 2.3552-5.7344-2.9696-8.6016-9.3184-8.704-19.0464l-0.2048-78.2336-38.0928 22.016 0.2048 78.2336c0 9.728-2.8672 19.3536-8.4992 28.9792-5.7344 9.5232-12.4928 16.5888-20.3776 21.1968-7.8848 4.5056-14.6432 5.3248-20.48 2.3552-5.7344-2.9696-8.6016-9.3184-8.704-19.0464l-0.2048-78.2336-19.968 11.4688c-5.4272 3.1744-9.9328 3.6864-13.6192 1.6384-3.584-2.048-5.4272-6.2464-5.4272-12.4928z" fill="#72DD00" p-id="39601"></path><path d="M495.3088 849.408c-3.072 0-5.9392-0.7168-8.704-2.048-6.8608-3.4816-10.3424-10.8544-10.3424-21.7088l-0.2048-72.9088-15.36 8.9088c-6.4512 3.6864-12.0832 4.1984-16.6912 1.6384-4.608-2.6624-7.0656-7.7824-7.0656-15.1552l-0.6144-222.0032c0-1.1264 0.6144-2.1504 1.536-2.6624l232.2432-134.0416c0.9216-0.512 2.1504-0.512 3.072 0 0.9216 0.512 1.536 1.536 1.536 2.6624l0.6144 222.0032c0 6.7584-1.9456 13.6192-5.8368 20.2752-3.8912 6.7584-8.8064 11.8784-14.7456 15.2576l-18.432 10.6496 0.2048 76.3904c0 10.24-2.9696 20.48-9.0112 30.5152-5.9392 9.9328-13.2096 17.5104-21.504 22.2208-8.8064 5.0176-16.6912 5.8368-23.3472 2.4576-6.8608-3.4816-10.3424-10.8544-10.3424-21.7088l-0.2048-72.9088-31.9488 18.432 0.2048 76.3904c0 10.24-2.9696 20.48-9.0112 30.5152-5.9392 10.0352-13.2096 17.5104-21.504 22.2208-5.12 3.072-10.0352 4.608-14.5408 4.608z m-16.1792-105.0624c0.512 0 1.024 0.1024 1.536 0.4096 0.9216 0.512 1.536 1.536 1.536 2.6624l0.2048 78.2336c0 8.6016 2.3552 13.9264 6.9632 16.2816 1.8432 0.9216 3.7888 1.4336 5.8368 1.4336 3.4816 0 7.3728-1.2288 11.6736-3.6864 7.3728-4.3008 13.824-11.0592 19.2512-20.0704 5.4272-9.0112 8.0896-18.2272 8.0896-27.3408l-0.2048-78.2336c0-1.1264 0.6144-2.1504 1.536-2.6624l38.0928-22.016c0.9216-0.512 2.1504-0.512 3.072 0 0.9216 0.512 1.536 1.536 1.536 2.6624l0.3072 78.0288c0 8.6016 2.3552 13.9264 6.9632 16.2816 1.8432 0.9216 3.7888 1.4336 5.8368 1.4336 3.4816 0 7.3728-1.2288 11.6736-3.6864 7.3728-4.3008 13.824-11.0592 19.2512-20.0704 5.4272-9.0112 8.0896-18.2272 8.0896-27.3408l-0.2048-78.2336c0-1.1264 0.6144-2.1504 1.536-2.6624l19.968-11.5712c4.9152-2.8672 9.1136-7.168 12.4928-13.0048 3.2768-5.7344 5.0176-11.5712 5.0176-17.2032l-0.6144-216.6784-226.0992 130.4576 0.6144 220.2624c0 5.12 1.3312 8.2944 3.8912 9.8304 2.6624 1.536 6.144 0.9216 10.5472-1.6384l19.968-11.4688c0.512-0.3072 1.024-0.4096 1.6384-0.4096z" fill="#1B3302" p-id="39602"></path><path d="M391.2704 553.7792c7.8848-4.608 14.7456-5.2224 20.48-1.9456 5.7344 3.2768 8.704 9.4208 8.704 18.5344l0.4096 155.3408c0 9.728-2.8672 19.3536-8.4992 28.9792-5.7344 9.6256-12.4928 16.5888-20.3776 21.1968-7.8848 4.5056-14.6432 5.3248-20.48 2.3552-5.7344-2.9696-8.6016-9.3184-8.704-19.0464l-0.4096-155.3408c0-9.0112 2.8672-18.5344 8.4992-28.4672 5.7344-9.8304 12.4928-17.1008 20.3776-21.6064z" fill="#72DD00" p-id="39603"></path><path d="M325.12 501.5552c-5.7344-3.2768-12.5952-2.6624-20.48 1.9456-7.8848 4.5056-14.6432 11.776-20.3776 21.6064-5.7344 9.9328-8.6016 19.3536-8.4992 28.4672l0.4096 155.3408c0 9.3184 2.6624 15.5648 7.9872 18.6368l86.6304 50.2784c-5.3248-3.072-7.9872-9.3184-7.9872-18.6368l-0.4096-155.3408c0-9.0112 2.8672-18.5344 8.4992-28.4672 5.7344-9.9328 12.4928-17.1008 20.3776-21.6064 7.8848-4.608 14.7456-5.2224 20.48-1.9456l-86.6304-50.2784z" fill="#4F9901" p-id="39604"></path><path d="M378.7776 783.0528c-3.072 0-5.9392-0.7168-8.704-2.048-6.8608-3.4816-10.3424-10.8544-10.3424-21.7088l-0.4096-155.3408c0-9.5232 2.9696-19.6608 8.9088-30.0032 5.9392-10.3424 13.2096-18.0224 21.504-22.7328 8.8064-5.12 16.896-5.7344 23.552-1.9456 6.7584 3.8912 10.24 10.9568 10.24 21.1968l0.4096 155.3408c0 10.24-2.9696 20.48-9.0112 30.5152-5.9392 10.0352-13.2096 17.5104-21.504 22.2208-5.2224 2.9696-10.1376 4.5056-14.6432 4.5056z m25.1904-230.1952c-3.2768 0-7.0656 1.2288-11.1616 3.584-7.3728 4.1984-13.824 11.1616-19.2512 20.48-5.4272 9.4208-8.192 18.432-8.0896 26.9312l0.4096 155.3408c0 8.6016 2.3552 13.9264 6.9632 16.2816 1.8432 0.9216 3.7888 1.4336 5.8368 1.4336 3.4816 0 7.3728-1.2288 11.6736-3.6864 7.3728-4.3008 13.824-11.0592 19.2512-20.0704 5.4272-9.0112 8.0896-18.2272 8.0896-27.3408l-0.3072-155.4432c0-7.9872-2.3552-13.1072-7.168-15.872-1.9456-1.024-3.9936-1.6384-6.2464-1.6384z" fill="#1B3302" p-id="39605"></path><path d="M370.7904 780.9024c-0.512 0-1.024-0.1024-1.536-0.4096L282.624 730.112c-6.2464-3.6864-9.5232-10.8544-9.5232-21.2992l-0.4096-155.3408c0-9.5232 2.9696-19.6608 8.9088-30.0032 5.9392-10.3424 13.2096-18.0224 21.504-22.7328 8.8064-5.12 16.896-5.7344 23.552-1.9456l86.6304 50.3808c1.4336 0.8192 1.9456 2.7648 1.1264 4.1984s-2.6624 1.9456-4.1984 1.1264c-1.9456-1.1264-3.9936-1.6384-6.2464-1.6384-3.2768 0-7.0656 1.2288-11.1616 3.584-7.3728 4.1984-13.824 11.1616-19.2512 20.48-5.4272 9.4208-8.192 18.432-8.0896 26.9312l0.4096 155.3408c0 7.9872 2.1504 13.312 6.2464 15.872 1.024 0.512 1.7408 1.536 1.7408 2.7648 0.1024 1.6384-1.3312 3.072-3.072 3.072 0.1024 0 0.1024 0 0 0z m-53.4528-278.3232c-3.2768 0-7.0656 1.2288-11.1616 3.584-7.3728 4.1984-13.824 11.1616-19.2512 20.48-5.4272 9.4208-8.192 18.432-8.0896 26.9312l0.4096 155.3408c0 8.0896 2.2528 13.5168 6.4512 15.9744l75.0592 43.6224c-0.7168-2.7648-1.024-5.8368-1.024-9.216l-0.4096-155.3408c0-9.5232 2.9696-19.6608 8.9088-30.0032 5.9392-10.3424 13.2096-18.0224 21.504-22.7328 2.8672-1.6384 5.7344-2.8672 8.4992-3.584L323.584 504.2176c-1.9456-1.1264-3.9936-1.6384-6.2464-1.6384z" fill="#1B3302" p-id="39606"></path><path d="M623.2064 289.3824c32.1536 7.8848 48.2304 34.4064 48.3328 79.5648L439.296 503.0912c-0.1024-45.8752 15.4624-90.7264 46.8992-134.5536l-25.4976-14.5408c-4.8128-2.7648-4.9152-7.9872 0-15.6672 2.4576-3.7888 4.7104-6.3488 7.0656-7.68s4.5056-1.3312 6.5536-0.1024l29.0816 16.5888c15.6672-18.8416 32.9728-33.5872 51.712-44.4416 18.1248-10.4448 35.1232-15.36 50.7904-14.7456l28.9792-50.0736c2.4576-3.7888 4.7104-6.3488 7.0656-7.68 2.2528-1.3312 4.5056-1.3312 6.5536-0.1024 4.3008 2.4576 4.3008 7.5776 0 15.6672l-25.2928 43.6224z m-9.8304 69.3248l-0.1024-22.9376-19.0464 10.9568 0.1024 22.9376 19.0464-10.9568m-97.0752 56.1152l-0.1024-22.9376-19.0464 10.9568 0.1024 22.9376 19.0464-10.9568" fill="#72DD00" p-id="39607"></path><path d="M439.296 506.1632c-0.512 0-1.024-0.1024-1.536-0.4096-0.9216-0.512-1.536-1.536-1.536-2.6624-0.1024-45.3632 15.1552-90.3168 45.4656-133.632l-22.528-12.8c-2.56-1.4336-4.3008-3.584-4.9152-6.144-0.9216-3.7888 0.3072-8.2944 3.7888-13.824 2.6624-4.3008 5.3248-7.168 8.0896-8.704 3.1744-1.8432 6.5536-1.9456 9.6256-0.2048l26.9312 15.36c15.4624-18.1248 32.5632-32.5632 50.7904-43.2128 17.8176-10.3424 34.9184-15.4624 50.5856-15.1552l28.0576-48.5376s0-0.1024 0.1024-0.1024c2.6624-4.3008 5.3248-7.168 8.0896-8.704 3.1744-1.8432 6.5536-1.9456 9.6256-0.2048 4.096 2.3552 7.5776 7.68 1.2288 19.7632 0 0 0 0.1024-0.1024 0.1024L627.712 287.5392c30.9248 9.4208 46.6944 36.7616 46.7968 81.5104 0 1.1264-0.6144 2.1504-1.536 2.6624L440.832 505.7536c-0.4096 0.2048-1.024 0.4096-1.536 0.4096z m31.8464-173.4656c-0.6144 0-1.2288 0.2048-1.9456 0.6144-1.2288 0.7168-3.2768 2.4576-5.9392 6.656-2.4576 3.8912-3.4816 7.0656-2.9696 9.0112 0.1024 0.6144 0.512 1.4336 1.9456 2.3552l25.4976 14.5408c0.7168 0.4096 1.3312 1.1264 1.4336 2.048 0.2048 0.8192 0 1.7408-0.512 2.4576-29.5936 41.472-45.1584 84.2752-46.2848 127.488l225.9968-130.4576c-0.512-42.9056-15.5648-67.3792-45.9776-74.8544-0.9216-0.2048-1.7408-0.9216-2.048-1.7408s-0.3072-1.9456 0.2048-2.7648l25.2928-43.8272c3.2768-6.144 3.6864-10.0352 1.1264-11.4688-1.2288-0.7168-2.2528-0.6144-3.4816 0.1024-1.2288 0.7168-3.2768 2.4576-5.9392 6.656l-28.8768 50.0736c-0.6144 1.024-1.6384 1.536-2.7648 1.536-15.1552-0.6144-31.6416 4.1984-49.152 14.336-18.3296 10.5472-35.4304 25.2928-50.8928 43.7248-0.9216 1.1264-2.56 1.4336-3.8912 0.7168l-29.0816-16.5888c-0.7168-0.512-1.2288-0.6144-1.7408-0.6144z m26.112 96.1536c-0.512 0-1.024-0.1024-1.536-0.4096-0.9216-0.512-1.536-1.536-1.536-2.6624l-0.1024-22.9376c0-1.1264 0.6144-2.1504 1.536-2.6624l19.0464-10.9568c0.9216-0.512 2.1504-0.512 3.072 0 0.9216 0.512 1.536 1.536 1.536 2.6624l0.1024 22.9376c0 1.1264-0.6144 2.1504-1.536 2.6624l-19.0464 10.9568c-0.512 0.3072-1.024 0.4096-1.536 0.4096z m2.9696-24.1664v15.872l12.9024-7.4752v-15.872l-12.9024 7.4752z m94.1056-31.8464c-0.512 0-1.024-0.1024-1.536-0.4096-0.9216-0.512-1.536-1.536-1.536-2.6624l-0.1024-22.9376c0-1.1264 0.6144-2.1504 1.536-2.6624l19.0464-10.9568c0.9216-0.512 2.1504-0.512 3.072 0 0.9216 0.512 1.536 1.536 1.536 2.6624l0.1024 22.9376c0 1.1264-0.6144 2.1504-1.536 2.6624l-19.0464 10.9568c-0.512 0.2048-1.024 0.4096-1.536 0.4096z m2.9696-24.2688v15.872l12.9024-7.4752v-15.872l-12.9024 7.4752z" fill="#1B3302" p-id="39608"></path><path d="M439.296 503.0912l-86.6304-50.2784c-0.1024-45.8752 15.4624-90.7264 46.8992-134.5536l86.6304 50.2784c-31.3344 43.8272-47.0016 88.6784-46.8992 134.5536z" fill="#3E7702" p-id="39609"></path><path d="M439.296 506.1632c-0.512 0-1.1264-0.1024-1.536-0.4096l-86.6304-50.2784c-0.9216-0.512-1.536-1.536-1.536-2.6624-0.1024-46.2848 15.872-92.16 47.4112-136.3968 0.9216-1.3312 2.6624-1.6384 3.9936-0.8192l86.6304 50.2784c0.7168 0.4096 1.2288 1.1264 1.4336 2.048 0.2048 0.8192 0 1.7408-0.512 2.4576-30.8224 43.008-46.3872 87.552-46.2848 132.5056v0.4096c0.1024 1.4336-1.2288 2.8672-2.9696 2.8672z m-83.5584-55.1936l80.4864 46.7968c1.024-43.52 16.2816-86.6304 45.4656-128.3072L400.384 322.2528c-29.2864 41.7792-44.3392 85.0944-44.6464 128.7168z" fill="#1B3302" p-id="39610"></path><path d="M503.3984 347.0336L416.768 296.7552c15.6672-18.8416 32.9728-33.5872 51.712-44.4416 18.1248-10.4448 35.1232-15.36 50.7904-14.7456l86.6304 50.2784c-15.7696-0.6144-32.6656 4.3008-50.7904 14.7456-18.8416 10.8544-36.0448 25.7024-51.712 44.4416z" fill="#60BB01" p-id="39611"></path><path d="M503.3984 350.1056c-0.512 0-1.024-0.1024-1.536-0.4096l-86.6304-50.2784c-0.8192-0.4096-1.3312-1.2288-1.4336-2.1504-0.2048-0.9216 0.1024-1.8432 0.7168-2.4576 15.872-19.0464 33.4848-34.2016 52.5312-45.1584 18.5344-10.752 36.2496-15.7696 52.5312-15.1552 0.512 0 1.024 0.2048 1.4336 0.4096l86.6304 50.2784c1.2288 0.7168 1.8432 2.1504 1.4336 3.4816-0.4096 1.3312-1.6384 2.2528-3.072 2.2528-15.1552-0.6144-31.6416 4.1984-49.152 14.336-18.3296 10.5472-35.4304 25.2928-50.8928 43.7248-0.8192 0.7168-1.7408 1.1264-2.56 1.1264z m-81.92-54.1696l81.2032 47.2064c15.4624-18.1248 32.5632-32.5632 50.7904-43.1104 14.5408-8.3968 28.4672-13.312 41.6768-14.7456L518.4512 240.64c-14.848-0.4096-31.1296 4.4032-48.4352 14.336-17.408 10.0352-33.6896 23.7568-48.5376 40.96z" fill="#1B3302" p-id="39612"></path></svg>