<?xml version="1.0" standalone="no"?><!DOCTYPE svg PUBLIC "-//W3C//DTD SVG 1.1//EN" "http://www.w3.org/Graphics/SVG/1.1/DTD/svg11.dtd"><svg t="1734767405451" class="icon" viewBox="0 0 1024 1024" version="1.1" xmlns="http://www.w3.org/2000/svg" p-id="6300" xmlns:xlink="http://www.w3.org/1999/xlink" width="512" height="512"><path d="M1067.8229523 209.54407822v609.10614756c0 26.09789155-4.03895941 50.79768178-11.18481067 74.41005985-1.86413511 6.2137837-4.03895941 12.42756741-6.52447288 18.33066192-36.81666845 92.58537718-127.07187675 157.98545067-232.70619972 157.98545067H207.9906323c-138.25668741 0-250.41548325-112.15879585-250.41548327-250.72617244V209.54407822C-42.26950637 71.13204622 69.88928948-41.02674963 207.9906323-41.02674963h609.41683673c105.63432297 0 195.88953125 65.40007348 232.70619972 157.98545066 2.48551348 5.90309452 4.66033778 12.11687822 6.52447288 18.33066194 7.14585125 23.45703348 11.18481067 48.3121683 11.18481067 74.25471525z" fill="#FFFFFF" p-id="6301"></path><path d="M175.05757867 251.64246282m-57.32215467 0a57.32215467 57.32215467 0 1 0 114.64430933 0 57.32215467 57.32215467 0 1 0-114.64430933 0Z" fill="#FF9528" p-id="6302"></path><path d="M175.05757867 340.18888059c-48.77820208 0-88.54641778-39.7682157-88.54641778-88.54641777s39.7682157-88.54641778 88.54641778-88.54641779 88.54641778 39.7682157 88.54641778 88.54641779-39.7682157 88.54641778-88.54641778 88.54641777z m0-162.02441007c-40.54493867 0-73.4779923 32.93305363-73.4779923 73.4779923 0 40.54493867 32.93305363 73.4779923 73.4779923 73.47799229s73.4779923-32.93305363 73.4779923-73.47799229c-0.15534459-40.54493867-33.08839822-73.4779923-73.4779923-73.4779923z" fill="#FF9528" p-id="6303"></path><path d="M175.05757867 514.1748243m-57.32215467 0a57.32215467 57.32215467 0 1 0 114.64430933 0 57.32215467 57.32215467 0 1 0-114.64430933 0Z" fill="#00A6EF" p-id="6304"></path><path d="M175.05757867 602.72124208c-48.77820208 0-88.54641778-39.7682157-88.54641778-88.54641778s39.7682157-88.54641778 88.54641778-88.54641778 88.54641778 39.7682157 88.54641778 88.54641778-39.7682157 88.54641778-88.54641778 88.54641778z m0-162.02441008c-40.54493867 0-73.4779923 32.93305363-73.4779923 73.4779923 0 40.54493867 32.93305363 73.4779923 73.4779923 73.47799229s73.4779923-32.93305363 73.4779923-73.47799229c-0.15534459-40.54493867-33.08839822-73.4779923-73.4779923-73.4779923z" fill="#00A6EF" p-id="6305"></path><path d="M175.05757867 776.70718578m-57.32215467 0a57.32215467 57.32215467 0 1 0 114.64430933 0 57.32215467 57.32215467 0 1 0-114.64430933 0Z" fill="#3DD347" p-id="6306"></path><path d="M175.05757867 865.25360355c-48.77820208 0-88.54641778-39.7682157-88.54641778-88.54641777s39.7682157-88.54641778 88.54641778-88.54641778 88.54641778 39.7682157 88.54641778 88.54641778-39.7682157 88.54641778-88.54641778 88.54641777z m0-162.02441007c-40.54493867 0-73.4779923 32.93305363-73.4779923 73.4779923 0 40.54493867 32.93305363 73.4779923 73.4779923 73.4779923s73.4779923-32.93305363 73.4779923-73.4779923c-0.15534459-40.54493867-33.08839822-73.4779923-73.4779923-73.4779923z" fill="#3DD347" p-id="6307"></path><path d="M1056.79348622 135.13401837h-685.06965333v-18.33066192h678.54518044c2.48551348 6.05843911 4.66033778 12.27222282 6.52447289 18.33066192zM371.72383289 375.6074477h696.254464V393.93810963H371.72383289zM371.72383289 634.41153897h696.254464v18.33066192H371.72383289zM1056.79348622 893.06028563c-1.86413511 6.2137837-4.03895941 12.42756741-6.52447289 18.33066192H371.72383289v-18.33066192h685.06965333z" fill="#C2C2C7" p-id="6308"></path></svg>