<?xml version="1.0" standalone="no"?><!DOCTYPE svg PUBLIC "-//W3C//DTD SVG 1.1//EN" "http://www.w3.org/Graphics/SVG/1.1/DTD/svg11.dtd"><svg t="1735882753253" class="icon" viewBox="0 0 1365 1024" version="1.1" xmlns="http://www.w3.org/2000/svg" p-id="7739" xmlns:xlink="http://www.w3.org/1999/xlink" width="682.5" height="512"><path d="M426.688016 878.56826v145.43174H42.698691a42.698691 42.698691 0 0 1-42.698691-42.698691v-99.616045c0-189.069802 376.132766-284.415979 564.562088-284.415979 41.759319-0.170795-137.874072 167.677758-137.874072 281.298975z m554.826787-195.986991c-128.096072 0-384.074723 76.259862-384.074723 227.584022v71.136018a42.698691 42.698691 0 0 0 42.698691 42.698691h682.794762a42.698691 42.698691 0 0 0 42.698691-42.698691v-71.136018c-0.042699-151.494955-255.935952-227.370528-384.074723-227.370528z" fill="#595959" p-id="7740"></path><path d="M424.510383 512.384288a256.192144 256.192144 0 1 1 256.192144-256.192144 256.192144 256.192144 0 0 1-256.192144 256.192144z m564.732883 85.397382a215.756484 215.756484 0 0 0 207.686431-203.373864 213.493453 213.493453 0 0 0-208.839296-223.143358h-8.539738a213.493453 213.493453 0 1 0 9.735301 426.55992z m-9.863398 85.397381z" fill="#FFCC8B" p-id="7741"></path></svg>