<?xml version="1.0" standalone="no"?><!DOCTYPE svg PUBLIC "-//W3C//DTD SVG 1.1//EN" "http://www.w3.org/Graphics/SVG/1.1/DTD/svg11.dtd"><svg t="1735883157099" class="icon" viewBox="0 0 1024 1024" version="1.1" xmlns="http://www.w3.org/2000/svg" p-id="11234" xmlns:xlink="http://www.w3.org/1999/xlink" width="512" height="512"><path d="M85.333333 256a128 128 0 0 1 128-128h597.333334a128 128 0 0 1 128 128v576a128 128 0 0 1-128 128H213.333333a128 128 0 0 1-128-128V256z" fill="#E3DCD6" p-id="11235"></path><path d="M85.333333 234.666667a128 128 0 0 1 128-128h597.333334a128 128 0 0 1 128 128v554.666666a128 128 0 0 1-128 128H213.333333a128 128 0 0 1-128-128V234.666667z" fill="#FDF6EF" fill-opacity=".3" p-id="11236"></path><path d="M85.333333 192a128 128 0 0 1 128-128h597.333334a128 128 0 0 1 128 128v533.333333a128 128 0 0 1-128 128H213.333333a128 128 0 0 1-128-128V192z" fill="#FDF6EF" fill-opacity=".3" p-id="11237"></path><path d="M85.333333 192a128 128 0 0 1 128-128h597.333334a128 128 0 0 1 128 128v469.333333a128 128 0 0 1-128 128H213.333333a128 128 0 0 1-128-128V192z" fill="#FDF6EF" p-id="11238"></path><path d="M85.333333 192a128 128 0 0 1 128-128h597.333334a128 128 0 0 1 128 128v384H85.333333V192z" fill="#5F4441" fill-opacity=".1" p-id="11239"></path><path d="M85.333333 192a128 128 0 0 1 128-128h597.333334a128 128 0 0 1 128 128v170.666667H85.333333V192z" fill="#5F4441" p-id="11240"></path><path d="M85.333333 192a128 128 0 0 1 128-128h597.333334a128 128 0 0 1 128 128v128H85.333333V192z" fill="#EF4D43" p-id="11241"></path><path d="M741.845333 725.333333h-204.778666c-5.44 0-9.450667-1.109333-12.032-3.328-2.304-2.474667-3.434667-6.357333-3.434667-11.605333v-71.338667c0-16.042667 1.557333-29.184 4.714667-39.424 3.456-10.496 8.192-19.072 14.208-25.706666a66.773333 66.773333 0 0 1 21.504-15.786667c8.32-3.84 17.344-7.168 27.093333-9.941333l57.664-17.408c4.586667-1.109333 7.594667-2.773333 9.024-4.992 1.706667-2.197333 2.581333-5.525333 2.581333-9.941334 0-4.16-0.853333-6.933333-2.56-8.32-1.749333-1.642667-4.757333-2.474667-9.045333-2.474666h-93.354667c-5.461333 0-9.472-1.109333-12.053333-3.328-2.282667-2.474667-3.434667-6.357333-3.434667-11.605334V441.6c0-5.248 1.152-8.981333 3.434667-11.2 2.581333-2.496 6.613333-3.733333 12.053333-3.733333h126.890667c24.384 0 43.029333 5.952 55.936 17.834666 13.184 11.626667 19.797333 28.629333 19.797333 51.029334v38.997333c0 20.736-6.037333 36.629333-18.069333 47.701333-12.053333 11.050667-28.394667 19.626667-49.066667 25.706667l-58.496 17.834667c-4.288 1.109333-7.296 2.346667-9.024 3.733333-1.429333 1.386667-2.154667 4.288-2.154666 8.725333v8.704h122.602666c5.44 0 9.322667 1.237333 11.605334 3.733334 2.602667 2.218667 3.882667 5.952 3.882666 11.2V710.4c0 5.248-1.28 9.130667-3.861333 11.605333-2.304 2.218667-6.186667 3.328-11.626667 3.328zM472.298667 725.333333h-190.144c-5.461333 0-9.472-1.109333-12.053334-3.328-2.282667-2.474667-3.434667-6.357333-3.434666-11.605333v-50.197333c0-5.248 1.152-8.981333 3.434666-11.2 2.581333-2.474667 6.613333-3.733333 12.053334-3.733334h48.170666v-138.538666H290.773333c-5.44 0-9.450667-1.109333-12.032-3.328-2.304-2.474667-3.456-6.357333-3.456-11.605334V441.6c0-5.248 1.152-8.981333 3.456-11.2 2.56-2.496 6.592-3.733333 12.032-3.733333h124.757334c5.461333 0 9.322667 1.237333 11.605333 3.733333 2.581333 2.218667 3.882667 5.952 3.882667 11.2v203.669333h41.301333c5.44 0 9.322667 1.258667 11.605333 3.733334 2.581333 2.218667 3.882667 5.952 3.882667 11.2V710.4c0 5.248-1.28 9.130667-3.882667 11.605333-2.282667 2.218667-6.165333 3.328-11.605333 3.328z" fill="#5F4441" p-id="11242"></path><path d="M835.733333 274.730667h-27.904c-2.176 0-3.797333-0.469333-4.821333-1.408-0.938667-1.045333-1.386667-2.666667-1.386667-4.864v-22.293334L775.253333 210.453333a37.184 37.184 0 0 1-5.333333-9.386666 44.586667 44.586667 0 0 1-1.216-12.032V155.605333c0-2.218667 0.469333-3.776 1.386667-4.693333 1.024-1.066667 2.645333-1.578667 4.821333-1.578667h26.538667c2.176 0 3.733333 0.512 4.650666 1.557334 1.024 0.938667 1.557333 2.496 1.557334 4.693333v28.586667c0 1.152 0.042667 2.368 0.170666 3.648 0.106667 1.28 0.576 2.496 1.365334 3.669333l7.936 12.522667a7.637333 7.637333 0 0 0 1.706666 2.261333c0.704 0.469333 1.493333 0.704 2.432 0.704h1.706667c0.938667 0 1.685333-0.213333 2.24-0.704a6.357333 6.357333 0 0 0 1.92-2.261333l7.893333-12.522667a7.552 7.552 0 0 0 1.408-3.669333 40.746667 40.746667 0 0 0 0.170667-3.648v-28.586667c0-2.197333 0.448-3.754667 1.365333-4.693333 1.045333-1.045333 2.645333-1.557333 4.821334-1.557334h25.685333c2.176 0 3.733333 0.512 4.650667 1.557334 1.024 0.938667 1.557333 2.496 1.557333 4.693333v33.450667c0 5.333333-0.469333 9.344-1.386667 12.010666a39.509333 39.509333 0 0 1-5.162666 9.408l-26.197334 35.882667v22.122667c0 2.197333-0.512 3.84-1.557333 4.864-0.917333 0.938667-2.453333 1.408-4.650667 1.408zM696.32 185.898667l-8.106667 26.474666h27.072l-8.106666-26.453333a5.930667 5.930667 0 0 0-1.557334-2.282667 2.346667 2.346667 0 0 0-1.706666-0.682666h-4.309334a2.944 2.944 0 0 0-1.92 0.682666 7.68 7.68 0 0 0-1.365333 2.261334z m-9.813333 82.56c0 2.197333-0.512 3.84-1.557334 4.864-0.917333 0.938667-2.474667 1.408-4.650666 1.408h-25.322667c-2.197333 0-3.797333-0.469333-4.821333-1.408-0.917333-1.045333-1.386667-2.666667-1.386667-4.864v-45.973334c0-3.498667 0.512-7.488 1.557333-12.032 1.130667-4.522667 2.858667-9.813333 5.162667-15.850666l14.997333-39.530667a8.341333 8.341333 0 0 1 3.093334-4.352 10.602667 10.602667 0 0 1 5.696-1.386667h46.336a9.386667 9.386667 0 0 1 5.333333 1.386667c1.493333 0.938667 2.602667 2.389333 3.285333 4.352l14.997334 39.530667a121.6 121.6 0 0 1 4.992 15.850666c1.152 4.544 1.706667 8.533333 1.706666 12.032v45.973334c0 2.197333-0.490667 3.84-1.536 4.864-0.917333 0.938667-2.474667 1.408-4.650666 1.408h-26.026667c-2.282667 0-4.010667-0.469333-5.162667-1.408-1.024-1.045333-1.557333-2.666667-1.557333-4.864V244.053333h-30.506667v24.384zM587.072 274.730667h-58.069333c-2.176 0-3.797333-0.469333-4.821334-1.408-0.917333-1.045333-1.386667-2.666667-1.386666-4.864v-112.853334c0-2.218667 0.469333-3.776 1.386666-4.693333 1.024-1.066667 2.645333-1.578667 4.821334-1.578667h58.069333c14.357333 0 24.981333 2.901333 31.872 8.704 7.018667 5.802667 10.517333 14.741333 10.517333 26.816v54.336c0 12.074667-3.498667 21.013333-10.517333 26.816-6.890667 5.824-17.493333 8.725333-31.872 8.725334z m-25.173333-92.138667v59.221333h20.522666c2.773333 0 4.757333-0.704 6.037334-2.090666 1.365333-1.408 2.048-3.541333 2.048-6.442667V190.933333c0-2.901333-0.682667-4.992-2.048-6.272-1.28-1.386667-3.285333-2.090667-6.037334-2.090666h-20.501333zM425.109333 274.730667h-25.856c-2.176 0-3.776-0.469333-4.821333-1.408-0.917333-1.045333-1.365333-2.666667-1.365333-4.864v-112.853334c0-2.218667 0.448-3.776 1.365333-4.693333 1.045333-1.066667 2.645333-1.578667 4.821333-1.578667h17.92a13.013333 13.013333 0 0 1 5.525334 1.045334c1.6 0.704 3.157333 1.92 4.650666 3.648l33.429334 38.677333v-37.12c0-2.197333 0.448-3.754667 1.365333-4.693333 1.045333-1.045333 2.645333-1.557333 4.842667-1.557334H492.8c2.176 0 3.733333 0.512 4.650667 1.557334 1.045333 0.938667 1.557333 2.496 1.557333 4.693333v112.853333c0 2.218667-0.512 3.84-1.557333 4.906667-0.917333 0.917333-2.474667 1.386667-4.650667 1.386667H466.986667c-2.197333 0-3.797333-0.469333-4.842667-1.408-0.917333-1.045333-1.365333-2.666667-1.365333-4.864V247.04l-29.461334-36.053333v57.472c0 2.197333-0.512 3.84-1.557333 4.864-0.917333 0.938667-2.474667 1.408-4.650667 1.408zM370.133333 241.813333c0 5.333333-0.810667 10.218667-2.432 14.613334-1.493333 4.309333-4.245333 8.021333-8.256 11.157333-3.904 3.008-9.301333 5.397333-16.213333 7.146667-6.869333 1.728-15.658667 2.602667-26.346667 2.602666-10.666667 0-19.477333-0.853333-26.368-2.602666-6.890667-1.749333-12.352-4.138667-16.362666-7.146667a25.770667 25.770667 0 0 1-8.277334-11.157333 45.397333 45.397333 0 0 1-2.24-14.613334V155.605333c0-2.218667 0.469333-3.776 1.386667-4.693333 1.024-1.066667 2.645333-1.578667 4.821333-1.578667h27.050667c2.176 0 3.733333 0.512 4.650667 1.557334 1.045333 0.938667 1.557333 2.496 1.557333 4.693333v79.424c0 2.346667 0.853333 4.309333 2.56 5.930667 1.749333 1.493333 5.589333 2.261333 11.562667 2.261333 6.08 0 10.005333-0.746667 11.733333-2.261333a7.850667 7.850667 0 0 0 2.56-5.930667V155.605333c0-2.218667 0.469333-3.776 1.386667-4.693333 1.024-1.066667 2.645333-1.578667 4.821333-1.578667h26.197333c2.176 0 3.733333 0.512 4.650667 1.557334 1.024 0.938667 1.557333 2.496 1.557333 4.693333v86.229333zM209.984 274.730667H155.541333c-2.197333 0-3.797333-0.469333-4.821333-1.408-0.917333-1.045333-1.386667-2.666667-1.386667-4.864v-20.373334c0-2.218667 0.469333-3.776 1.386667-4.693333 1.024-1.066667 2.624-1.578667 4.821333-1.578667h46.336c1.493333 0 2.602667-0.469333 3.285334-1.408a5.824 5.824 0 0 0 1.194666-3.648c0-1.984-0.384-3.413333-1.194666-4.352-0.682667-0.938667-1.792-1.450667-3.285334-1.578666l-25.834666-3.648c-8.042667-1.152-14.528-3.84-19.477334-8C151.744 214.997333 149.333333 208 149.333333 198.250667v-18.282667c0-9.877333 3.157333-17.429333 9.472-22.634667C165.12 152.021333 173.866667 149.333333 185.002667 149.333333h48.234666c2.197333 0 3.733333 0.512 4.672 1.557334 1.024 0.938667 1.536 2.496 1.536 4.693333v20.736c0 2.218667-0.512 3.84-1.536 4.885333-0.938667 0.917333-2.474667 1.386667-4.672 1.386667H193.109333a4.096 4.096 0 0 0-3.456 1.578667 5.397333 5.397333 0 0 0-1.216 3.648c0 1.493333 0.426667 2.773333 1.216 3.84a4.565333 4.565333 0 0 0 3.456 1.728l25.664 3.498666c8.042667 1.152 14.528 3.84 19.477334 8 4.928 4.181333 7.402667 11.157333 7.402666 20.906667v18.282667c0 9.856-3.2 17.472-9.642666 22.826666-6.314667 5.205333-14.997333 7.829333-26.026667 7.829334z" fill="#FFFFFF" fill-opacity=".7" p-id="11243"></path></svg>