<?xml version="1.0" standalone="no"?><!DOCTYPE svg PUBLIC "-//W3C//DTD SVG 1.1//EN" "http://www.w3.org/Graphics/SVG/1.1/DTD/svg11.dtd"><svg t="1715159950701" class="icon" viewBox="0 0 1024 1024" version="1.1" xmlns="http://www.w3.org/2000/svg" p-id="16454" xmlns:xlink="http://www.w3.org/1999/xlink" width="512" height="512"><path d="M0 511.985024a511.959425 511.959425 0 0 0 963.504617 241.349741 512.241017 512.241017 0 0 0 54.935994-316.483543 518.922422 518.922422 0 0 0-16.511517-73.469851 513.904968 513.904968 0 0 0-50.788915-114.607848 513.956167 513.956167 0 0 0-77.130544-98.813109 511.268245 511.268245 0 0 0-189.536856-120.034889A512.317815 512.317815 0 0 0 363.355772 22.040955 512.317815 512.317815 0 0 0 100.758653 206.995545 511.78023 511.78023 0 0 0 0 511.985024z" fill="#3598FE" p-id="16455"></path><path d="M324.393711 655.008041c180.884309 0 327.51682-146.632511 327.516821-327.51682 0-152.13635-103.753765-280.030209-244.344853-316.841932C205.81798 52.478465 47.486611 213.011369 8.985337 415.987832c38.603671 137.903166 165.191968 239.045808 315.408374 239.045808z" fill="#FFFFFF" fill-opacity=".2" p-id="16456"></path><path d="M511.985024 1023.970049c282.769329 0 511.985024-229.215695 511.985025-511.985025 0-31.743072-2.892715-62.846162-8.447753-93.027679a486.667365 486.667365 0 0 0-335.708581-133.704889c-269.713711 0-488.356916 218.617605-488.356915 488.331317 0 54.961592 9.087734 107.824046 25.829644 157.102604A509.604294 509.604294 0 0 0 511.985024 1023.970049z" fill="#FFFFFF" fill-opacity=".15" p-id="16457"></path><path d="M732.522574 756.534671a65.892473 65.892473 0 0 0 65.892472-65.866873 65.892473 65.892473 0 0 0 65.866874 65.866873c-17.049101 0-65.866873 29.515937-65.866874 65.892473a65.892473 65.892473 0 0 0-65.892472-65.892473zM159.688129 247.288767a46.513839 46.513839 0 0 0 46.51384-46.48824c0 25.676049 20.812191 46.48824 46.48824 46.48824-12.031648 0-46.48824 20.83779-46.48824 46.513839A46.513839 46.513839 0 0 0 159.688129 247.288767z" fill="#FFFFFF" fill-opacity=".5" p-id="16458"></path><path d="M206.176369 333.302251a15.513146 15.513146 0 0 0 15.513147-15.487547c0 8.55015 6.937397 15.487547 15.513146 15.487547-4.019082 0-15.513146 6.937397-15.513146 15.513146a15.513146 15.513146 0 0 0-15.513147-15.513146z" fill="#FFFFFF" fill-opacity=".3" p-id="16459"></path><path d="M515.90171 284.612475c127.919458 0 231.596426 102.473803 231.596426 228.857306 0 124.309964-100.221069 225.427006-225.119816 228.806107l-6.47661 0.102397H261.112362l79.844065-78.871293a242.168917 242.168917 0 0 1-15.871536-20.197809 216.979253 216.979253 0 0 1-13.465206-21.810562 218.617605 218.617605 0 0 1-10.905281-23.141723 245.343224 245.343224 0 0 1-6.809401-19.327435 219.667175 219.667175 0 0 1-6.835-29.899925 240.940153 240.940153 0 0 1-2.303932-20.300206 226.399778 226.399778 0 0 1-0.486386-15.359551c0-126.383503 103.676967-228.857306 231.622025-228.857306zM465.906372 435.187271a25.599251 25.599251 0 1 1-51.198502 0 25.599251 25.599251 0 0 1 51.198502 0z m153.595508 0a25.599251 25.599251 0 1 1-51.198503 0 25.599251 25.599251 0 0 1 51.198503 0z m-183.521032 124.07957h-38.65487a129.148222 129.148222 0 0 0 10.649289 21.042585 126.690694 126.690694 0 0 0 88.906199 57.649514 127.637867 127.637867 0 0 0 47.384214-1.740749 120.726069 120.726069 0 0 0 13.746798-3.942285 131.375357 131.375357 0 0 0 21.631367-9.830113 130.94017 130.94017 0 0 0 19.404233-13.618801 125.692323 125.692323 0 0 0 35.429364-49.560151h-38.680469a92.490095 92.490095 0 0 1-79.895263 45.771462 92.771686 92.771686 0 0 1-79.920862-45.771462z" fill="#FFFFFF" p-id="16460"></path></svg>