<?xml version="1.0" standalone="no"?><!DOCTYPE svg PUBLIC "-//W3C//DTD SVG 1.1//EN" "http://www.w3.org/Graphics/SVG/1.1/DTD/svg11.dtd"><svg t="1689758511168" class="icon" viewBox="0 0 1024 1024" version="1.1" xmlns="http://www.w3.org/2000/svg" p-id="14917" xmlns:xlink="http://www.w3.org/1999/xlink" width="200" height="200"><path d="M376.03 871.724c0-70.668 57.24-127.908 127.91-127.908s127.91 57.24 127.91 127.908c0 70.67-57.24 127.91-127.91 127.91s-127.91-57.24-127.91-127.91z" fill="#FFCE54" opacity=".4" p-id="14918"></path><path d="M408.006 871.724c0-52.992 42.938-95.93 95.932-95.93s95.93 42.938 95.93 95.93c0 52.994-42.938 95.934-95.93 95.934-52.994 0-95.932-42.94-95.932-95.934z" fill="#FFCE54" opacity=".6" p-id="14919"></path><path d="M807.72 656.676c19.036 11.196 31.978 31.494 31.978 55.164 0 35.334-28.62 63.956-63.956 63.956-35.334 0-63.954-28.622-63.954-63.956 0-23.67 12.944-43.968 31.976-55.164v-8.792h63.954v8.792z" fill="#E6E9ED" p-id="14920"></path><path d="M791.732 583.932h-31.976l-15.988 15.988v47.964h63.952V599.92zM503.938 743.816h-15.988l-15.99 15.99v47.966h63.956v-47.966l-15.988-15.99zM248.12 615.908h-15.988l-15.988 15.988v47.966h63.954v-47.966l-15.99-15.988z" fill="#AAB2BD" p-id="14921"></path><path d="M232.132 631.896l15.988-15.988h-15.988l-15.988 15.988v47.966h15.988v-31.978z" fill="#FFFFFF" opacity=".4" p-id="14922"></path><path d="M264.108 631.896l-15.988-15.988h15.988l15.99 15.988v47.966h-15.99v-31.978z" opacity=".3" p-id="14923"></path><path d="M487.958 759.806l15.988-15.99h-15.988l-15.99 15.99v47.966h15.99v-31.978z" fill="#FFFFFF" opacity=".4" p-id="14924"></path><path d="M519.936 759.806l-15.99-15.99h15.99l15.98 15.99v47.966h-15.98v-31.978z" opacity=".3" p-id="14925"></path><path d="M759.772 599.92l15.988-15.988h-15.988l-15.988 15.988v47.964h15.988v-31.976z" fill="#FFFFFF" opacity=".4" p-id="14926"></path><path d="M791.748 599.92l-15.988-15.988h15.988l15.972 15.988v47.964h-15.972v-31.976z" opacity=".3" p-id="14927"></path><path d="M184.166 743.816c0-23.67 12.952-43.968 31.978-55.162v-8.792h63.954v8.792c19.026 11.194 31.978 31.492 31.978 55.162 0 35.334-28.622 63.956-63.956 63.956s-63.954-28.622-63.954-63.956z" fill="#E6E9ED" p-id="14928"></path><path d="M200.156 743.816c0-36.646 15.988-55.162 15.988-55.162-19.026 11.194-31.978 31.492-31.978 55.162 0 35.334 28.62 63.956 63.954 63.956 2.74 0 5.348-0.468 7.994-0.812-31.516-3.966-55.958-30.542-55.958-63.144z" fill="#FFFFFF" p-id="14929"></path><path d="M296.086 743.816c0-36.646-15.988-55.162-15.988-55.162 19.026 11.194 31.978 31.492 31.978 55.162 0 35.334-28.622 63.956-63.956 63.956-2.74 0-5.348-0.468-7.994-0.812 31.516-3.966 55.96-30.542 55.96-63.144z" opacity=".3" p-id="14930"></path><path d="M727.78 711.84c0-36.646 15.988-55.164 15.988-55.164-19.018 11.196-31.976 31.494-31.976 55.164 0 35.334 28.634 63.956 63.954 63.956 2.748 0 5.356-0.468 7.996-0.812-31.512-3.968-55.962-30.542-55.962-63.144z" fill="#FFFFFF" p-id="14931"></path><path d="M823.71 711.84c0-36.646-15.99-55.164-15.99-55.164 19.036 11.196 31.978 31.494 31.978 55.164 0 35.334-28.604 63.956-63.956 63.956-2.732 0-5.34-0.468-7.994-0.812 31.528-3.968 55.962-30.542 55.962-63.144z" opacity=".3" p-id="14932"></path><path d="M535.916 816.562c19.034 11.194 31.976 31.492 31.976 55.162 0 35.336-28.62 63.956-63.954 63.956s-63.956-28.62-63.956-63.956c0-23.67 12.952-43.968 31.976-55.162v-8.792h63.956v8.792z" fill="#FFCE54" p-id="14933"></path><path d="M168.176 298.846c-8.314-86.658 49.402-167.56 137.02-185.946 12.156-2.56 24.148-3.842 36.138-3.842 22.226-47.964 66.032-85.056 121.834-96.884 69.544-14.716 138.136 14.068 177.156 67.952 65.876-8.158 127.908 35.014 141.82 100.88 2.544 11.992 3.514 23.826 2.544 35.334 38.066 15.356 68.124 48.926 77.226 92.254 1.124 5.598 2.076 11.196 2.404 16.792h0.156s62.034 68.592 30.056 134.146c-42.69 87.626-147.41 51.962-147.41 51.962-20.298 16.144-44.61 27.824-71.792 33.586-55.476 11.664-106.798-2.888-146.458-37.106-29.41 39.824-168.192 81.388-247.98 15.512v-0.164c-33.57 8.642-70.504 3.52-102.004-16.786-59.794-38.692-76.586-118.158-37.732-177.794 7.514-11.512 16.788-21.582 27.022-29.896z" fill="#AC92EC" p-id="14934"></path><path d="M864.478 325.388h-0.156c-0.328-5.598-1.282-11.196-2.404-16.792-9.104-43.328-39.16-76.898-77.226-92.254 0.968-11.508 0-23.342-2.544-35.334-13.912-65.868-75.946-109.04-141.82-100.88-35.116-48.49-94.184-76.54-156.342-70.964 49.966 4.738 95.338 30.892 124.366 70.964 65.876-8.158 127.908 35.014 141.82 100.88 2.544 11.992 3.512 23.826 2.544 35.334 38.066 15.356 68.124 48.926 77.224 92.254 1.126 5.598 2.078 11.196 2.406 16.792h0.156s62.034 68.592 30.054 134.146c-20.062 41.166-53.758 54.976-83.908 58.202 34.368 3.558 88.156-1.282 115.886-58.202 31.978-65.554-30.056-134.146-30.056-134.146z" opacity=".3" p-id="14935"></path><path d="M210.866 506.542c-59.794-38.692-76.586-118.158-37.732-177.794 7.51-11.516 16.786-21.586 27.02-29.9-8.314-86.658 49.402-167.56 137.018-185.946 12.156-2.56 24.148-3.842 36.138-3.842 22.226-47.964 66.03-85.056 121.834-96.884 6.962-1.476 13.896-2.388 20.814-3.012a174.91 174.91 0 0 0-52.792 3.012c-55.804 11.828-99.608 48.918-121.834 96.884-11.992 0-23.982 1.282-36.138 3.842-87.618 18.384-145.334 99.288-137.02 185.946-10.234 8.314-19.508 18.384-27.02 29.9-38.854 59.636-22.062 139.104 37.732 177.794 26.654 17.176 57.17 23.368 86.266 19.674-18.748-2.342-37.314-8.73-54.286-19.674z" fill="#FFFFFF" opacity=".4" p-id="14936"></path><path d="M455.972 871.724c0-36.644 15.988-55.162 15.988-55.162-19.026 11.194-31.976 31.492-31.976 55.162 0 35.336 28.62 63.956 63.956 63.956 2.74 0 5.348-0.468 7.994-0.81-31.518-3.968-55.962-30.544-55.962-63.146z" fill="#FFFFFF" opacity=".5" p-id="14937"></path><path d="M551.904 871.724c0-36.644-15.988-55.162-15.988-55.162 19.018 11.194 31.976 31.492 31.976 55.162 0 35.336-28.62 63.956-63.954 63.956-2.74 0-5.348-0.468-7.996-0.81 31.518-3.968 55.962-30.544 55.962-63.146z" opacity=".3" p-id="14938"></path><path d="M249.308 535.31c-26.17 0-52.244-7.542-74.752-22.046-30.69-19.862-51.752-50.41-59.324-86.018-7.588-35.662-0.758-72.192 19.228-102.864 7.776-11.92 17.424-22.6 28.674-31.744a7.996 7.996 0 1 1 10.086 12.414c-9.97 8.096-18.502 17.534-25.364 28.058-17.652 27.09-23.678 59.334-16.988 90.81 6.682 31.424 25.28 58.38 52.362 75.908 28.448 18.338 63.322 24.084 95.674 15.754 29.58-7.472 54.984-25.63 71.55-51.136 2.412-3.692 7.362-4.762 11.062-2.35a8 8 0 0 1 2.35 11.062c-18.776 28.894-47.544 49.464-81.012 57.92a134.26 134.26 0 0 1-33.546 4.232zM861.122 374.15a7.998 7.998 0 0 1-7.76-9.892c3.124-12.82 4.136-25.654 2.998-38.144-0.344-5.762-1.344-11.274-2.28-15.942a119.554 119.554 0 0 0-72.386-86.416 119.86 119.86 0 0 0-70.792-6.308c-4.23 0.914-8.556-1.82-9.492-6.16a8 8 0 0 1 6.15-9.486c26.98-5.746 54.71-3.294 80.162 7.136 42.016 16.948 72.682 53.594 82.02 98.008 1.062 5.286 2.186 11.484 2.56 17.97 1.28 13.998 0.14 28.598-3.42 43.134a7.986 7.986 0 0 1-7.76 6.1z" fill="#3A3847" p-id="14939"></path><path d="M784.708 224.336a7.98 7.98 0 0 1-7.98-8.666c0.86-10.312 0.062-21.414-2.404-33-13.038-61.728-70.248-102.418-133.014-94.612-4.326 0.578-8.372-2.568-8.916-6.948a7.984 7.984 0 0 1 6.948-8.916c71.09-8.784 135.856 37.262 150.626 107.158 2.78 13.116 3.686 25.786 2.686 37.662a7.984 7.984 0 0 1-7.946 7.322zM388.084 566.038c-44.274 0-83.394-12.522-112.28-36.378a8 8 0 0 1-1.078-11.258 7.99 7.99 0 0 1 11.256-1.078c43.11 35.616 100.406 34.678 130.688 30.948 51.798-6.372 93.152-27.964 105.77-45.04 2.334-3.06 3.74-5.934 4.152-8.4 0.718-4.364 4.904-7.37 9.198-6.574a7.992 7.992 0 0 1 6.574 9.196c-0.844 5.098-3.248 10.274-7.136 15.366-17.65 23.912-65.634 45.052-116.604 51.314-10.4 1.278-20.604 1.904-30.54 1.904z" fill="#3A3847" p-id="14940"></path><path d="M329.172 225.78a7.988 7.988 0 0 1-7.808-6.324c-8.25-38.668-3.848-78.008 12.718-113.762 24.272-52.384 70.722-89.32 127.432-101.342 70.452-14.926 143.212 12.992 185.292 71.082 14.77 20.454 24.996 43.57 30.414 68.716a7.984 7.984 0 0 1-6.122 9.5c-4.324 0.984-8.57-1.82-9.492-6.128-4.964-22.976-14.302-44.078-27.762-62.712-38.378-53-104.722-78.436-169.02-64.812-51.728 10.96-94.098 44.648-116.238 92.426-15.098 32.578-19.112 68.444-11.592 103.692a7.984 7.984 0 0 1-7.822 9.664zM638.108 557.014c-42.032 0-81.676-14.708-114.458-42.986-0.172-0.148-1.288-1.1-1.452-1.264a7.992 7.992 0 0 1 0.14-11.304c3.052-2.966 7.892-3.03 10.984-0.164 0.406 0.32 1.044 0.866 1.264 1.1 38.378 33.07 87.922 45.624 139.106 34.866 25.512-5.402 48.558-16.192 68.45-32.016 3.436-2.732 8.496-2.178 11.242 1.28a7.988 7.988 0 0 1-1.28 11.226c-21.86 17.402-47.138 29.22-75.12 35.154-13.082 2.748-26.088 4.108-38.876 4.108z" fill="#3A3847" p-id="14941"></path><path d="M199.522 391.1a7.98 7.98 0 0 1-6.504-3.334c-14.356-20-24.326-42.742-29.62-67.584-1.42-6.448-2.458-13.186-3.178-20.564-8.822-91.912 52.798-175.546 143.336-194.54 12.63-2.662 25.34-4.014 37.778-4.014a7.99 7.99 0 0 1 7.994 7.994 7.99 7.99 0 0 1-7.994 7.994c-11.484 0-22.772 1.204-34.49 3.67-82.558 17.324-138.746 93.574-130.712 177.358 0.656 6.73 1.6 12.85 2.888 18.72 4.848 22.718 13.918 43.446 26.988 61.644a7.99 7.99 0 0 1-1.834 11.156 7.926 7.926 0 0 1-4.652 1.5zM795.09 526.442c-28.182 0-50.056-7.208-50.542-7.378a8.006 8.006 0 0 1-4.996-10.132c1.436-4.184 6.042-6.378 10.132-5.004 4.028 1.35 98.586 32.29 137.668-47.896 29.26-60.004-28.214-124.63-28.808-125.278a7.996 7.996 0 0 1 0.578-11.29c3.264-2.974 8.306-2.716 11.29 0.562 2.67 2.966 65.266 73.4 31.304 143.016-25.26 51.868-70.996 63.392-106.626 63.4zM248.12 815.766c-39.674 0-71.948-32.274-71.948-71.95 0-24.092 11.866-46.03 31.978-59.566v-4.388a7.988 7.988 0 0 1 7.994-7.992 7.988 7.988 0 0 1 7.994 7.992v8.792c0 2.824-1.5 5.45-3.944 6.884-17.548 10.336-28.034 28.384-28.034 48.278 0 30.854 25.108 55.96 55.96 55.96 30.854 0 55.96-25.108 55.96-55.96 0-19.892-10.486-37.942-28.036-48.278a7.992 7.992 0 0 1-3.944-6.884v-8.792c0-4.418 3.576-7.992 7.996-7.992s7.994 3.574 7.994 7.992v4.388c20.11 13.538 31.978 35.474 31.978 59.566 0.002 39.676-32.272 71.95-71.948 71.95z" fill="#3A3847" p-id="14942"></path><path d="M280.098 687.858h-63.954a7.99 7.99 0 0 1-7.994-7.996v-47.964c0-2.124 0.842-4.152 2.342-5.652l15.988-15.988a7.988 7.988 0 0 1 5.652-2.342h31.976a7.98 7.98 0 0 1 5.652 2.342l15.99 15.988a7.988 7.988 0 0 1 2.342 5.652v47.964a7.99 7.99 0 0 1-7.994 7.996z m-55.96-15.988h47.964v-36.662l-11.304-11.304h-25.356l-11.304 11.304v36.662z" fill="#3A3847" p-id="14943"></path><path d="M280.098 655.878h-63.954a7.988 7.988 0 0 1-7.994-7.994 7.99 7.99 0 0 1 7.994-7.994h63.954a7.99 7.99 0 0 1 7.994 7.994 7.988 7.988 0 0 1-7.994 7.994zM248.12 719.834a7.978 7.978 0 0 1-5.652-2.342l-15.988-15.988c-3.124-3.124-3.124-8.182 0-11.304s8.182-3.124 11.304 0l10.336 10.336 10.336-10.336c3.124-3.124 8.182-3.124 11.304 0s3.124 8.182 0 11.304l-15.988 15.988a7.97 7.97 0 0 1-5.652 2.342z" fill="#3A3847" p-id="14944"></path><path d="M232.132 751.81a7.988 7.988 0 0 1-7.994-7.994v-47.964a7.988 7.988 0 0 1 7.994-7.994 7.988 7.988 0 0 1 7.994 7.994v47.964a7.988 7.988 0 0 1-7.994 7.994zM264.108 751.81a7.988 7.988 0 0 1-7.994-7.994v-47.964a7.988 7.988 0 0 1 7.994-7.994 7.988 7.988 0 0 1 7.994 7.994v47.964a7.988 7.988 0 0 1-7.994 7.994zM248.12 623.902a7.99 7.99 0 0 1-7.994-7.994v-63.956a7.99 7.99 0 0 1 7.994-7.994 7.99 7.99 0 0 1 7.994 7.994v63.956a7.988 7.988 0 0 1-7.994 7.994zM775.744 783.788c-39.674 0-71.95-32.274-71.95-71.948 0-24.092 11.868-46.044 31.978-59.566v-4.388c0-4.418 3.576-7.994 7.994-7.994s7.994 3.576 7.994 7.994v8.792a7.992 7.992 0 0 1-3.936 6.884c-17.564 10.338-28.042 28.372-28.042 48.28 0 30.854 25.108 55.958 55.958 55.958 30.854 0 55.96-25.106 55.96-55.958 0-19.908-10.476-37.942-28.042-48.28a7.998 7.998 0 0 1-3.934-6.884v-8.792a7.988 7.988 0 0 1 7.992-7.994 7.99 7.99 0 0 1 7.996 7.994v4.388c20.11 13.522 31.976 35.474 31.976 59.566 0.006 39.674-32.268 71.948-71.944 71.948z" fill="#3A3847" p-id="14945"></path><path d="M807.72 655.878h-63.954a7.988 7.988 0 0 1-7.994-7.994V599.92c0-2.126 0.842-4.154 2.342-5.652l15.988-15.988a7.99 7.99 0 0 1 5.652-2.344h31.976a7.98 7.98 0 0 1 5.652 2.344l15.988 15.988a7.982 7.982 0 0 1 2.344 5.652v47.964a7.986 7.986 0 0 1-7.994 7.994z m-55.958-15.988h47.966v-36.662l-11.304-11.302h-25.358l-11.304 11.302v36.662z" fill="#3A3847" p-id="14946"></path><path d="M807.72 623.902h-63.954c-4.418 0-7.994-3.576-7.994-7.994s3.576-7.994 7.994-7.994h63.954c4.42 0 7.996 3.576 7.996 7.994s-3.576 7.994-7.996 7.994zM775.744 687.858a7.97 7.97 0 0 1-5.652-2.344l-15.988-15.988a7.992 7.992 0 1 1 11.304-11.304l10.336 10.338 10.336-10.338a7.992 7.992 0 0 1 11.304 0 7.988 7.988 0 0 1 0 11.304l-15.988 15.988a7.96 7.96 0 0 1-5.652 2.344z" fill="#3A3847" p-id="14947"></path><path d="M759.756 719.834a7.99 7.99 0 0 1-7.994-7.994v-47.966c0-4.418 3.576-7.994 7.994-7.994s7.994 3.576 7.994 7.994v47.966a7.99 7.99 0 0 1-7.994 7.994zM791.732 719.834a7.988 7.988 0 0 1-7.992-7.994v-47.966a7.988 7.988 0 0 1 7.992-7.994 7.99 7.99 0 0 1 7.996 7.994v47.966a7.99 7.99 0 0 1-7.996 7.994zM775.744 591.926a7.99 7.99 0 0 1-7.994-7.994v-31.978a7.99 7.99 0 0 1 7.994-7.994 7.99 7.99 0 0 1 7.996 7.994v31.978a7.99 7.99 0 0 1-7.996 7.994zM503.938 943.674c-39.676 0-71.95-32.274-71.95-71.95 0-24.092 11.866-46.03 31.976-59.566v-4.386a7.99 7.99 0 0 1 7.994-7.994 7.99 7.99 0 0 1 7.996 7.994v8.792c0 2.826-1.5 5.45-3.942 6.884-17.55 10.336-28.036 28.386-28.036 48.278 0 30.854 25.108 55.96 55.96 55.96s55.96-25.108 55.96-55.96c0-19.906-10.476-37.942-28.042-48.278a7.996 7.996 0 0 1-3.936-6.884v-8.792c0-4.418 3.576-7.994 7.994-7.994s7.994 3.576 7.994 7.994v4.386c20.112 13.522 31.976 35.474 31.976 59.566 0.004 39.676-32.268 71.95-71.944 71.95z" fill="#3A3847" p-id="14948"></path><path d="M535.916 815.766H471.96a7.99 7.99 0 0 1-7.994-7.994v-47.964c0-2.126 0.844-4.154 2.342-5.652l15.988-15.99a7.992 7.992 0 0 1 5.652-2.342h31.978c2.124 0 4.152 0.844 5.652 2.342l15.988 15.99a7.99 7.99 0 0 1 2.342 5.652v47.964a7.988 7.988 0 0 1-7.992 7.994z m-55.96-15.988h47.966v-36.662l-11.304-11.304H491.26l-11.304 11.304v36.662z" fill="#3A3847" p-id="14949"></path><path d="M535.916 783.788H471.96a7.988 7.988 0 0 1-7.994-7.992 7.99 7.99 0 0 1 7.994-7.996h63.956a7.99 7.99 0 0 1 7.994 7.996 7.99 7.99 0 0 1-7.994 7.992zM503.938 847.742a7.96 7.96 0 0 1-5.652-2.342l-15.99-15.988a7.992 7.992 0 1 1 11.304-11.304l10.336 10.336 10.336-10.336a7.992 7.992 0 1 1 11.304 11.304l-15.99 15.988a7.95 7.95 0 0 1-5.648 2.342z" fill="#3A3847" p-id="14950"></path><path d="M487.95 879.72a7.99 7.99 0 0 1-7.994-7.996V823.76c0-4.418 3.576-7.994 7.994-7.994s7.994 3.576 7.994 7.994v47.964a7.99 7.99 0 0 1-7.994 7.996zM519.928 879.72a7.992 7.992 0 0 1-7.996-7.996V823.76c0-4.418 3.578-7.994 7.996-7.994s7.994 3.576 7.994 7.994v47.964a7.99 7.99 0 0 1-7.994 7.996zM503.938 751.81a7.99 7.99 0 0 1-7.996-7.994v-191.864a7.99 7.99 0 0 1 7.996-7.994 7.99 7.99 0 0 1 7.994 7.994v191.864a7.988 7.988 0 0 1-7.994 7.994zM647.836 879.72h-47.966a7.988 7.988 0 0 1-7.992-7.996 7.986 7.986 0 0 1 7.992-7.992h47.966a7.988 7.988 0 0 1 7.994 7.992 7.99 7.99 0 0 1-7.994 7.996zM408.006 879.72H360.04a7.99 7.99 0 0 1-7.994-7.996 7.988 7.988 0 0 1 7.994-7.992h47.966a7.988 7.988 0 0 1 7.994 7.992 7.99 7.99 0 0 1-7.994 7.996zM402.252 981.412a7.96 7.96 0 0 1-5.652-2.342 7.986 7.986 0 0 1 0-11.302l33.89-33.898a7.988 7.988 0 0 1 11.304 0 7.988 7.988 0 0 1 0 11.304l-33.888 33.896a7.974 7.974 0 0 1-5.654 2.342zM503.938 1023.618a7.99 7.99 0 0 1-7.996-7.994V967.66a7.99 7.99 0 0 1 7.996-7.996 7.99 7.99 0 0 1 7.994 7.996v47.964a7.99 7.99 0 0 1-7.994 7.994zM605.788 981.412a7.982 7.982 0 0 1-5.636-2.326l-34.052-33.896a7.992 7.992 0 0 1-0.032-11.304c3.124-3.154 8.182-3.124 11.304-0.032l34.052 33.898a7.99 7.99 0 0 1-5.636 13.66z" fill="#3A3847" p-id="14951"></path></svg>