<?xml version="1.0" standalone="no"?><!DOCTYPE svg PUBLIC "-//W3C//DTD SVG 1.1//EN" "http://www.w3.org/Graphics/SVG/1.1/DTD/svg11.dtd"><svg t="1707914884550" class="icon" viewBox="0 0 1575 1024" version="1.1" xmlns="http://www.w3.org/2000/svg" p-id="14954" xmlns:xlink="http://www.w3.org/1999/xlink" width="196.875" height="128"><path d="M1308.416788 1024H373.898634A380.849231 380.849231 0 0 1 0.059865 636.534154C0.059865 422.557538 148.067249 275.692308 354.521403 275.692308a678.281846 678.281846 0 0 1 118.153846 0c63.291077-152.891077 197.789538-275.692308 368.482462-275.692308C1069.746018 0 1260.367557 156.947692 1260.367557 393.846154c0 16.187077 1.693538 63.015385 0 78.769231 13.036308-1.969231 26.348308-1.969231 39.384615 0a277.504 277.504 0 0 1 275.692308 274.628923A272.029538 272.029538 0 0 1 1308.416788 1024z" fill="#7dc5eb" p-id="14955"></path></svg>