<?xml version="1.0" standalone="no"?><!DOCTYPE svg PUBLIC "-//W3C//DTD SVG 1.1//EN" "http://www.w3.org/Graphics/SVG/1.1/DTD/svg11.dtd"><svg t="1691751974505" class="icon" viewBox="0 0 1024 1024" version="1.1" xmlns="http://www.w3.org/2000/svg" p-id="5292" xmlns:xlink="http://www.w3.org/1999/xlink" width="200" height="200"><path d="M801.6896 179.8656v95.7952c0 46.6432-37.8368 84.48-84.48 84.48s-84.48-37.8368-84.48-84.48V179.8144H391.2192v95.8464c0 46.6432-37.8368 84.48-84.48 84.48s-84.48-37.8368-84.48-84.48v-95.744c-83.2512 1.8432-150.1696 69.8368-150.1696 153.4976v437.0432c0 84.8384 68.7616 153.6 153.6 153.6H800.256c84.8384 0 153.6-68.7616 153.6-153.6V333.4144c-0.0512-84.3264-67.9936-152.7808-152.1664-153.5488z" fill="#8C7BFD" p-id="5293"></path><path d="M355.3792 275.6608V146.0224c0-26.8288-21.8112-48.64-48.64-48.64s-48.64 21.8112-48.64 48.64v129.6384c0 26.8288 21.8112 48.64 48.64 48.64s48.64-21.8112 48.64-48.64zM717.2096 97.3824c-26.8288 0-48.64 21.8112-48.64 48.64v129.6384c0 26.8288 21.8112 48.64 48.64 48.64s48.64-21.8112 48.64-48.64V146.0224c0-26.8288-21.8112-48.64-48.64-48.64zM637.2864 455.6288l-193.792 165.0176-51.9168-54.3744a48.4096 48.4096 0 0 0-34.048-15.0528c-12.8512-0.256-25.344 4.5056-34.7136 13.4656a48.50176 48.50176 0 0 0-15.0528 34.048c-0.3072 13.0048 4.5056 25.2928 13.4656 34.7136l83.6608 87.6032a48.80896 48.80896 0 0 0 35.1744 15.0528c11.52 0 22.7328-4.096 31.5392-11.6224l228.7616-194.7648c20.4288-17.408 22.8864-48.128 5.4784-68.5568-17.3568-20.4288-48.128-22.9376-68.5568-5.5296z" fill="#FFFFFF" p-id="5294"></path></svg>