<?xml version="1.0" encoding="UTF-8"?>
<svg width="20px" height="20px" viewBox="0 0 20 20" version="1.1" xmlns="http://www.w3.org/2000/svg" xmlns:xlink="http://www.w3.org/1999/xlink">
    <title>ic_6@2x</title>
    <g id="页面-1" stroke="none" stroke-width="1" fill="none" fill-rule="evenodd">
        <g id="画板" transform="translate(-187.000000, -307.000000)" fill="#FF934A" fill-rule="nonzero">
            <g id="ic_6" transform="translate(187.000000, 307.000000)">
                <path d="M10,20 C4.50657895,20 0,15.5189456 0,9.98352554 C0.0328947368,4.48105437 4.50657895,0 10,0 C15.4934211,0 20,4.48105437 20,10.0164745 C20,15.5189456 15.5263158,20 10,20 Z M10,1.28500824 C5.23026316,1.28500824 1.31578947,5.20593081 1.31578947,10.0164745 C1.31578947,14.8270181 5.23026316,18.7149918 10,18.7149918 C14.7697368,18.7149918 18.6842105,14.7940692 18.6842105,10.0164745 C18.7171053,5.20593081 14.8026316,1.28500824 10,1.28500824 Z" id="形状"></path>
                <path d="M10.1315789,14.8599671 C9.76973684,14.8599671 9.47368421,14.5634267 9.47368421,14.2009885 L9.47368421,6.06260297 C9.47368421,5.70016474 9.76973684,5.40362438 10.1315789,5.40362438 C10.4934211,5.40362438 10.7894737,5.70016474 10.7894737,6.06260297 L10.7894737,14.2009885 C10.7894737,14.5634267 10.4934211,14.8599671 10.1315789,14.8599671 L10.1315789,14.8599671 Z" id="路径"></path>
                <path d="M14.0789474,10.9060956 L6.21710526,10.9060956 C5.85526316,10.9060956 5.55921053,10.6095552 5.55921053,10.247117 C5.55921053,9.88467875 5.85526316,9.58813839 6.21710526,9.58813839 L14.0789474,9.58813839 C14.4407895,9.58813839 14.7368421,9.88467875 14.7368421,10.247117 C14.7368421,10.6095552 14.4407895,10.9060956 14.0789474,10.9060956 L14.0789474,10.9060956 Z" id="路径"></path>
            </g>
        </g>
    </g>
</svg>