<?xml version="1.0" standalone="no"?><!DOCTYPE svg PUBLIC "-//W3C//DTD SVG 1.1//EN" "http://www.w3.org/Graphics/SVG/1.1/DTD/svg11.dtd"><svg t="1710684213143" class="icon" viewBox="0 0 1024 1024" version="1.1" xmlns="http://www.w3.org/2000/svg" p-id="2932" xmlns:xlink="http://www.w3.org/1999/xlink" width="128" height="128"><path d="M936 88h-64a8 8 0 0 1 0-16h64a8 8 0 0 1 0 16z" fill="#263238" p-id="2933"></path><path d="M904 120A8 8 0 0 1 896 112V48a8 8 0 0 1 16 0v64a8 8 0 0 1-8 8zM856 168h-64a8 8 0 0 1 0-16h64a8 8 0 0 1 0 16z" fill="#263238" p-id="2934"></path><path d="M824 200a8 8 0 0 1-8-8V128a8 8 0 0 1 16 0v64a8 8 0 0 1-8 8zM679.648 200h-32a8 8 0 0 1 0-16h32a8 8 0 0 1 0 16zM615.648 200h-240a8 8 0 0 1 0-16h240a8 8 0 0 1 0 16zM408 904h-32a8 8 0 0 1 0-16h32a8 8 0 0 1 0 16zM680 904h-240a8 8 0 0 1 0-16h240a8 8 0 0 1 0 16zM856 984h-16a8 8 0 0 1-8-8v-128a8 8 0 0 1 16 0v120h8c39.696 0 72-32.304 72-72v-56a8 8 0 0 1 16 0V896c0 48.512-39.488 88-88 88z" fill="#263238" p-id="2935"></path><path d="M936 904a8 8 0 0 1-8-8c0-39.696-32.304-72-71.984-72L168 823.968A88.128 88.128 0 0 1 80 736.016V192c0-48.512 39.472-88 88-88H224a8 8 0 0 1 8 8v544a8 8 0 0 1-8 8h-56A72.08 72.08 0 0 0 96 735.984a72.096 72.096 0 0 0 72 71.984l688.016 0.032c29.712 0 56.048 14.816 71.984 37.456V320c0-22.064-17.936-40-40-40H256a8 8 0 0 1 0-16h632c30.88 0 56 25.12 56 56v576a8 8 0 0 1-8 8z m-768-784A72.08 72.08 0 0 0 96 192v493.456a87.952 87.952 0 0 1 72-37.456h48v-528h-48z" fill="#263238" p-id="2936"></path><path d="M647.632 736h-352l176-192z" fill="#4DB6AC" p-id="2937"></path><path d="M647.648 744h-352a8 8 0 0 1-5.904-13.408l176-192a8.24 8.24 0 0 1 11.792 0l176 192a8 8 0 0 1-5.888 13.408z m-333.824-16h315.632l-157.808-172.16-157.824 172.16z" fill="#263238" p-id="2938"></path><path d="M807.632 736h-352l176-192z" fill="#4DB6AC" p-id="2939"></path><path d="M807.648 744h-352a8 8 0 0 1-5.904-13.408l176-192a8.224 8.224 0 0 1 11.776 0l176 192a8 8 0 0 1-5.872 13.408z m-333.824-16h315.632l-157.808-172.16-157.824 172.16zM551.648 552a8 8 0 0 1-8-8V344a8 8 0 0 1 16 0V544a8 8 0 0 1-8 8z" fill="#263238" p-id="2940"></path><path d="M551.632 344h144v96h-144z" fill="#FF5252" p-id="2941"></path><path d="M695.648 448h-144a8 8 0 0 1-8-8v-96a8 8 0 0 1 8-8h144a8 8 0 0 1 8 8v96a8 8 0 0 1-8 8z m-136-16h128v-80h-128v80z" fill="#263238" p-id="2942"></path><path d="M855.648 744h-608a8 8 0 0 1 0-16h608a8 8 0 0 1 0 16z" fill="#263238" p-id="2943"></path></svg>