<?xml version="1.0" standalone="no"?><!DOCTYPE svg PUBLIC "-//W3C//DTD SVG 1.1//EN" "http://www.w3.org/Graphics/SVG/1.1/DTD/svg11.dtd"><svg t="1684048470825" class="icon" viewBox="0 0 1024 1024" version="1.1" xmlns="http://www.w3.org/2000/svg" p-id="3649" xmlns:xlink="http://www.w3.org/1999/xlink" width="200" height="200"><path d="M742.528 42.666667a195.84 195.84 0 0 1 196.053333 189.226666l0.085334 6.314667v417.194667a195.84 195.84 0 0 1-189.781334 195.456l-6.357333 0.085333H215.296l1.365333 2.858667a91.562667 91.562667 0 0 0 76.288 49.194666l5.034667 0.128h483.413333c20.906667 0 38.144 16.384 39.125334 37.205334a39.168 39.168 0 0 1-35.413334 40.832l-3.754666 0.170666H297.941333a169.770667 169.770667 0 0 1-169.813333-163.413333L128 811.861333V238.208a195.84 195.84 0 0 1 189.781333-195.413333L324.138667 42.666667h418.389333z m0 78.208H324.138667a117.546667 117.546667 0 0 0-117.546667 111.786666l-0.128 5.546667v534.528h536.064a117.546667 117.546667 0 0 0 117.162667-106.197333l0.426666-5.589334 0.085334-5.546666V238.208c0-31.104-12.373333-60.928-34.474667-82.944a117.845333 117.845333 0 0 0-83.2-34.389333z m-234.538667 299.861333c20.906667 0 38.186667 16.384 39.210667 37.205333a39.168 39.168 0 0 1-35.413333 40.832l-3.797334 0.213334h-183.893333a39.125333 39.125333 0 0 1-3.754667-78.08l3.797334-0.170667h183.893333z m-74.410666-156.458667a39.168 39.168 0 0 1 3.797333 78.08l-3.84 0.170667H324.181333a39.168 39.168 0 0 1-3.754666-78.037333l3.754666-0.213334h109.44z" fill="#1296db" p-id="3650"></path></svg>