<?xml version="1.0" standalone="no"?><!DOCTYPE svg PUBLIC "-//W3C//DTD SVG 1.1//EN" "http://www.w3.org/Graphics/SVG/1.1/DTD/svg11.dtd"><svg t="1710990809948" class="icon" viewBox="0 0 1024 1024" version="1.1" xmlns="http://www.w3.org/2000/svg" p-id="10027" xmlns:xlink="http://www.w3.org/1999/xlink" width="512" height="512"><path d="M814.3872 916.0192H216.1152c-81.5104 0-147.6096-66.0992-147.6096-147.6096V318.8224c0-81.5104 66.0992-147.6096 147.6096-147.6096h598.272c81.5104 0 147.6096 66.0992 147.6096 147.6096v449.5872c0 81.5104-66.0992 147.6096-147.6096 147.6096z" fill="#CE6302" p-id="10028"></path><path d="M778.0864 916.0192H216.1152c-81.5104 0-147.6096-66.0992-147.6096-147.6096V318.8224c0-81.5104 66.0992-147.6096 147.6096-147.6096h562.0224c81.5104 0 147.6096 66.0992 147.6096 147.6096v449.5872c-0.0512 81.5104-66.1504 147.6096-147.6608 147.6096z" fill="#F68604" p-id="10029"></path><path d="M68.5056 355.5328h857.2416v81.4592H68.5056z" fill="#DB6800" p-id="10030"></path><path d="M816.5376 134.0928H213.9136c-80.3328 0-145.408 72.704-145.408 162.3552v101.632h893.4912V296.448c0-89.6512-65.1264-162.3552-145.4592-162.3552z" fill="#0385DD" p-id="10031"></path><path d="M786.176 171.2128H208.0256c-77.056 0-139.52 62.464-139.52 139.52v87.3472H925.696V310.7328c0-77.056-62.464-139.52-139.52-139.52z" fill="#249CFF" p-id="10032"></path><path d="M457.5744 802.9696a49.84832 49.84832 0 0 1-39.3728-19.456l-75.7248-98.6112a39.87456 39.87456 0 0 1 63.232-48.5888l56.4224 73.472 174.2336-150.016c16.6912-14.3872 41.8816-12.4928 56.2688 4.1984 14.3872 16.6912 12.4928 41.8816-4.1984 56.2688l-198.2464 170.752a50.93376 50.93376 0 0 1-32.6144 11.9808z" fill="#DD6E00" p-id="10033"></path><path d="M457.5744 762.88a49.84832 49.84832 0 0 1-39.3728-19.456l-75.7248-98.6112a39.87456 39.87456 0 0 1 63.232-48.5888l56.4224 73.472 174.2336-150.016c16.6912-14.3872 41.8816-12.4928 56.2688 4.1984 14.3872 16.6912 12.4928 41.8816-4.1984 56.2688l-198.2464 170.752a50.93376 50.93376 0 0 1-32.6144 11.9808z" fill="#FFFFFF" p-id="10034"></path><path d="M317.952 317.5936c-33.5872 0-60.7744-24.4736-60.7744-54.6304V154.3168c0-30.1568 27.1872-54.6304 60.7744-54.6304s60.7744 24.4736 60.7744 54.6304v108.6464c0 30.1568-27.1872 54.6304-60.7744 54.6304zM706.1504 317.5936c-33.5872 0-60.7744-24.4736-60.7744-54.6304V154.3168c0-30.1568 27.1872-54.6304 60.7744-54.6304s60.7744 24.4736 60.7744 54.6304v108.6464c0 30.1568-27.1872 54.6304-60.7744 54.6304z" fill="#FF9100" p-id="10035"></path><path d="M307.0464 317.5936c-27.5456 0-49.8688-22.3232-49.8688-49.8688V168.5504c0-27.5456 22.3232-49.8688 49.8688-49.8688s49.8688 22.3232 49.8688 49.8688v99.1744c-0.0512 27.5456-22.3744 49.8688-49.8688 49.8688zM695.2448 317.5936c-27.5456 0-49.8688-22.3232-49.8688-49.8688V168.5504c0-27.5456 22.3232-49.8688 49.8688-49.8688s49.8688 22.3232 49.8688 49.8688v99.1744c-0.0512 27.5456-22.3744 49.8688-49.8688 49.8688z" fill="#FFD62C" p-id="10036"></path></svg>