<?xml version="1.0" standalone="no"?><!DOCTYPE svg PUBLIC "-//W3C//DTD SVG 1.1//EN" "http://www.w3.org/Graphics/SVG/1.1/DTD/svg11.dtd"><svg t="1702727578790" class="icon" viewBox="0 0 1024 1024" version="1.1" xmlns="http://www.w3.org/2000/svg" p-id="2716" xmlns:xlink="http://www.w3.org/1999/xlink" width="128" height="128"><path d="M948.46 406.34h-160V161.2c0-22.48-18.3-40.78-40.78-40.78H75.54c-22.48 0-40.78 18.3-40.78 40.78v415.66c0 22.48 18.3 40.78 40.78 40.78h160V862.8c0 22.48 18.3 40.78 40.78 40.78h672.14c22.48 0 40.78-18.3 40.78-40.78V447.12c0-22.48-18.3-40.78-40.78-40.78zM54.76 161.2c0-11.46 9.32-20.78 20.78-20.78h672.14c11.46 0 20.78 9.32 20.78 20.78v59.9H54.76V161.2z m0 79.9h713.7v95.4H54.76v-95.4z m180.78 206.02v150.52h-160c-11.46 0-20.78-9.32-20.78-20.78V356.5h713.7v49.84H276.32c-22.48 0-40.78 18.3-40.78 40.78zM969.24 862.8c0 11.46-9.32 20.78-20.78 20.78H276.32c-11.46 0-20.78-9.32-20.78-20.78V447.12c0-11.46 9.32-20.78 20.78-20.78h672.14c11.46 0 20.78 9.32 20.78 20.78V862.8z" fill="#23130D" p-id="2717"></path><path d="M768.46 161.2v59.9H54.76V161.2c0-11.46 9.32-20.78 20.78-20.78h672.14c11.46 0 20.78 9.32 20.78 20.78z" fill="#E1E1E5" p-id="2718"></path><path d="M54.76 241.1h713.7v95.4H54.76z" fill="#636368" p-id="2719"></path><path d="M758.46 251.1v75.4H64.76v-75.4h693.7m10-10H54.76v95.4h713.7v-95.4z" fill="#231F20" opacity=".2" p-id="2720"></path><path d="M768.46 356.5v49.84H276.32c-7 0-13.6 1.78-19.36 4.9-12.74 6.9-21.42 20.4-21.42 35.88v150.52h-160c-11.46 0-20.78-9.32-20.78-20.78V356.5h713.7z" fill="#E1E1E5" p-id="2721"></path><path d="M768.46 356.5v49.84H276.32c-7 0-13.6 1.78-19.36 4.9-12.74 6.9-21.42 20.4-21.42 35.88v150.52h-160c-10.84 0-19.76-8.32-20.7-18.92 0.6 0.06 1.24 0.08 1.86 0.08h160v-150.52c0-15.48 8.68-28.98 21.42-35.88 5.76-3.12 12.36-4.9 19.36-4.9h492.14v-31h18.84z" fill="#231F20" opacity=".2" p-id="2722"></path><path d="M389.46 612.52v39.84h14v-39.84h-14z m0 0v39.84h14v-39.84h-14z m52.7 0h-38.7v39.84h16.26c5.52 0 10 4.48 10 10s-4.48 10-10 10h-30.26v60.36h70.5V608.4a40.29 40.29 0 0 1-17.8 4.12z m-52.7 140.2v56.08h70.5v-56.08h-70.5z m0-140.2v39.84h14v-39.84h-14z m52.7 0h-38.7v39.84h16.26c5.52 0 10 4.48 10 10s-4.48 10-10 10h-30.26v60.36h70.5V608.4a40.29 40.29 0 0 1-17.8 4.12z m-52.7 140.2v56.08h70.5v-56.08h-70.5z m0-140.2v39.84h14v-39.84h-14z m559-186.18H276.32c-11.46 0-20.78 9.32-20.78 20.78V862.8c0 11.46 9.32 20.78 20.78 20.78h672.14c11.46 0 20.78-9.32 20.78-20.78V447.12c0-11.46-9.32-20.78-20.78-20.78z m-651.58 80.44c0-11.78 5.04-22.36 13.04-29.82 0.38-0.38 0.76-0.74 1.16-1.04 7.14-6.16 16.42-9.92 26.58-9.92h104.5c6.38 0 12.42 1.46 17.8 4.1 13.6 6.62 22.98 20.56 22.98 36.68v64.96c0 16.1-9.38 30.06-22.98 36.66a40.29 40.29 0 0 1-17.8 4.12h-104.5c-10.08 0-19.3-3.7-26.42-9.78-0.56-0.4-1.08-0.88-1.56-1.4-7.86-7.44-12.8-17.94-12.8-29.6v-64.96z m10 145.58h112.84c5.52 0 10 4.48 10 10s-4.48 10-10 10h-112.84c-5.52 0-10-4.48-10-10s4.48-10 10-10z m222.48 176.44H306.88c-5.52 0-10-4.48-10-10s4.48-10 10-10h222.48c5.52 0 10 4.48 10 10s-4.48 10-10 10z m0-76.08H306.88c-5.52 0-10-4.48-10-10s4.48-10 10-10h222.48c5.52 0 10 4.48 10 10s-4.48 10-10 10z m56.42-80.36h-112.84c-5.52 0-10-4.48-10-10s4.48-10 10-10h112.84c5.52 0 10 4.48 10 10s-4.48 10-10 10z m43.22-10c0-5.52 4.48-10 10-10h112.84c5.52 0 10 4.48 10 10s-4.48 10-10 10H639c-5.52 0-10-4.48-10-10z m298.9 156.44c0 5.52-4.46 10-10 10H695.42c-5.52 0-10-4.48-10-10v-76.08c0-5.52 4.48-10 10-10h222.48c5.54 0 10 4.48 10 10v76.08z m-10-146.44h-112.84c-5.52 0-10-4.48-10-10s4.48-10 10-10h112.84c5.54 0 10 4.48 10 10s-4.46 10-10 10z m0-123.1H639c-5.52 0-10-4.48-10-10s4.48-10 10-10h278.9c5.54 0 10 4.48 10 10s-4.46 10-10 10z m-528.44 63.26v39.84h14v-39.84h-14z m0 140.2v56.08h70.5v-56.08h-70.5z m52.7-140.2h-38.7v39.84h16.26c5.52 0 10 4.48 10 10s-4.48 10-10 10h-30.26v60.36h70.5V608.4a40.29 40.29 0 0 1-17.8 4.12z m-52.7 0v39.84h14v-39.84h-14z m0 140.2v56.08h70.5v-56.08h-70.5z m0-140.2v39.84h14v-39.84h-14z" fill="#3594BF" p-id="2723"></path><path d="M948.46 434.34a12.796 12.796 0 0 1 12.78 12.78V862.8a12.796 12.796 0 0 1-12.78 12.78H276.32a12.796 12.796 0 0 1-12.78-12.78V447.12a12.796 12.796 0 0 1 12.78-12.78h672.14m-642.432 35.374a19.432 19.432 0 0 0-1.664 1.488c-9.842 9.23-15.484 22.188-15.484 35.578v64.96c0 13.412 5.368 25.918 15.12 35.238a18.32 18.32 0 0 0 2.274 2.04 48.744 48.744 0 0 0 31.384 11.502h43.8v23.84h-74.58c-9.926 0-18 8.074-18 18s8.074 18 18 18h74.58v44.36h-74.58c-9.926 0-18 8.074-18 18s8.074 18 18 18h74.58v40.08h-74.58c-9.926 0-18 8.074-18 18s8.074 18 18 18h222.48c9.926 0 18-8.074 18-18s-8.074-18-18-18h-61.4v-40.08h61.4c9.926 0 18-8.074 18-18s-8.074-18-18-18h-61.4v-45.06c1.582 0.456 3.252 0.7 4.98 0.7h112.84c9.926 0 18-8.074 18-18s-8.074-18-18-18h-112.84c-1.728 0-3.398 0.244-4.98 0.7v-31.958c14.106-8.826 22.98-24.55 22.98-41.362v-64.96c0-18.812-10.53-35.622-27.456-43.862-6.65-3.264-13.824-4.918-21.324-4.918h-104.5a48.718 48.718 0 0 0-31.63 11.714M639 557.26h278.9c9.926 0 18-8.074 18-18s-8.074-18-18-18H639c-9.926 0-18 8.074-18 18s8.074 18 18 18m166.06 123.1h112.84c9.926 0 18-8.074 18-18s-8.074-18-18-18h-112.84c-9.926 0-18 8.074-18 18s8.074 18 18 18m-166.06 0h112.84c9.926 0 18-8.074 18-18s-8.074-18-18-18H639c-9.926 0-18 8.074-18 18s8.074 18 18 18m56.42 156.44h222.48c9.926 0 18-8.074 18-18v-76.08c0-9.926-8.074-18-18-18H695.42c-9.926 0-18 8.074-18 18v76.08c0 9.926 8.074 18 18 18m-243.46-76.08v40.08h-54.5v-40.08h54.5m496.5-334.38H276.32c-11.46 0-20.78 9.32-20.78 20.78V862.8c0 11.46 9.32 20.78 20.78 20.78h672.14c11.46 0 20.78-9.32 20.78-20.78V447.12c0-11.46-9.32-20.78-20.78-20.78z m-610.8 186.18c-10.08 0-19.3-3.7-26.42-9.78-0.56-0.4-1.08-0.88-1.56-1.4-7.86-7.44-12.8-17.94-12.8-29.6v-64.96c0-11.78 5.04-22.36 13.04-29.82 0.38-0.38 0.76-0.74 1.16-1.04 7.14-6.16 16.42-9.92 26.58-9.92h104.5c6.38 0 12.42 1.46 17.8 4.1 13.6 6.62 22.98 20.56 22.98 36.68v64.96c0 16.1-9.38 30.06-22.98 36.66v124.32h69.4c5.52 0 10 4.48 10 10s-4.48 10-10 10h-69.4v56.08h69.4c5.52 0 10 4.48 10 10s-4.48 10-10 10H306.88c-5.52 0-10-4.48-10-10s4.48-10 10-10h82.58v-56.08h-82.58c-5.52 0-10-4.48-10-10s4.48-10 10-10h82.58v-60.36h-82.58c-5.52 0-10-4.48-10-10s4.48-10 10-10h82.58v-39.84h-51.8z m301.34-63.26c-5.52 0-10-4.48-10-10s4.48-10 10-10h278.9c5.54 0 10 4.48 10 10s-4.46 10-10 10H639z m166.06 123.1c-5.52 0-10-4.48-10-10s4.48-10 10-10h112.84c5.54 0 10 4.48 10 10s-4.46 10-10 10h-112.84z m-166.06 0c-5.52 0-10-4.48-10-10s4.48-10 10-10h112.84c5.52 0 10 4.48 10 10s-4.48 10-10 10H639z m-166.06 0c-5.52 0-10-4.48-10-10s4.48-10 10-10h112.84c5.52 0 10 4.48 10 10s-4.48 10-10 10h-112.84z m222.48 156.44c-5.52 0-10-4.48-10-10v-76.08c0-5.52 4.48-10 10-10h222.48c5.54 0 10 4.48 10 10v76.08c0 5.52-4.46 10-10 10H695.42zM459.96 608.4a40.29 40.29 0 0 1-17.8 4.12h-38.7 38.7c6.38 0 12.42-1.48 17.8-4.12z m0 0a40.29 40.29 0 0 1-17.8 4.12h-38.7 38.7c6.38 0 12.42-1.48 17.8-4.12v124.32-124.32z m-56.5 4.12h-14 14z m0 0h0.01-0.01z m0 0h-14 14z m0 0h0.01-0.01z m0 0h0.01-0.01z m0 0h0.01-0.01z m0 0h0.01-0.01z m0 0h-14 14z m0 0v39.84-39.84z m0 0v39.84-39.84z m0 0v39.84-39.84z m0 0v39.84-39.84z m0 0h-14 14v39.84-39.84z m-14 0h0.01-0.01z m0 0h0.01-0.01z m0 0h0.01-0.01z m0 0h0.01-0.01z m0 0h0.01-0.01z m0 0h0.01-0.01z m0 0h0.01-0.01z m0 0h0.01-0.01z m0 0h0.01-0.01z m0 0v39.84h14-14v-39.84z m0 0v39.84h14-14v-39.84z m0 0v39.84-39.84z m30.26 39.84h-16.26 16.26z m0 0h-16.26 16.26z m-16.26 0h0.01-0.01z m0 0h0.01-0.01z m0 0h0.01-0.01z m0 0h0.01-0.01z m0 0h0.01-0.01z m0 0h0.01-0.01z m0 0h0.01-0.01z m0 0h0.01-0.01z m0 0h0.01-0.01z m0 0h0.01-0.01z m0 0h0.01-0.01z m0 0h0.01-0.01z m0 0h-14 14z m0 0h0.01-0.01z m0 0h-14 14z m26.26 10h0.01-0.01z m0 0c0 5.52-4.48 10-10 10h-30.26 30.26c5.52 0 10-4.48 10-10z m0 0h0.01-0.01z m0 0c0 5.52-4.48 10-10 10h-30.26 30.26c5.52 0 10-4.48 10-10z m-40.26 10h0.01-0.01z m0 0v60.36h70.5-70.5v-60.36z m70.5 60.36h-70.5 70.5z m0 20h-70.5 70.5z m0 0h-70.5 70.5v56.08-56.08z m0 0h-70.5v56.08h70.5v-56.08z m-70.5 0h0.01-0.01z m0 0h0.01-0.01z m0 0v56.08h70.5-70.5v-56.08z m70.5 56.08h0.01-0.01z m0 0h0.01-0.01z m0 0h-70.5 70.5z" fill="#231F20" opacity=".2" p-id="2724"></path><path d="M429.72 662.36c0 5.52-4.48 10-10 10h-112.84c-5.52 0-10-4.48-10-10s4.48-10 10-10h112.84c5.52 0 10 4.48 10 10zM595.78 662.36c0 5.52-4.48 10-10 10h-112.84c-5.52 0-10-4.48-10-10s4.48-10 10-10h112.84c5.52 0 10 4.48 10 10zM761.84 662.36c0 5.52-4.48 10-10 10H639c-5.52 0-10-4.48-10-10s4.48-10 10-10h112.84c5.52 0 10 4.48 10 10zM927.9 662.36c0 5.52-4.46 10-10 10h-112.84c-5.52 0-10-4.48-10-10s4.48-10 10-10h112.84c5.54 0 10 4.48 10 10zM539.36 742.72c0 5.52-4.48 10-10 10H306.88c-5.52 0-10-4.48-10-10s4.48-10 10-10h222.48c5.52 0 10 4.48 10 10zM539.36 818.8c0 5.52-4.48 10-10 10H306.88c-5.52 0-10-4.48-10-10s4.48-10 10-10h222.48c5.52 0 10 4.48 10 10zM917.9 732.72H695.42c-5.52 0-10 4.48-10 10v76.08c0 5.52 4.48 10 10 10h222.48c5.54 0 10-4.48 10-10v-76.08c0-5.52-4.46-10-10-10z m-10 76.08H705.42v-56.08h202.48v56.08z" fill="#23130D" p-id="2725"></path><path d="M705.42 752.72h202.48v56.08H705.42z" fill="#E1E1E5" p-id="2726"></path><path d="M907.9 752.72v56.08H705.42v-12.46h190.02v-43.62z" fill="#231F20" opacity=".2" p-id="2727"></path><path d="M442.16 466h-104.5c-10.16 0-19.44 3.76-26.58 9.92-0.4 0.3-0.78 0.66-1.16 1.04-8 7.46-13.04 18.04-13.04 29.82v64.96c0 11.66 4.94 22.16 12.8 29.6 0.48 0.52 1 1 1.56 1.4 7.12 6.08 16.34 9.78 26.42 9.78h104.5c22.48 0 40.78-18.3 40.78-40.78v-64.96c0-22.5-18.3-40.78-40.78-40.78z m-125.28 105.74v-64.96c0-3.24 0.76-6.28 2.08-9l54.46 41.48-54.46 41.48a20.66 20.66 0 0 1-2.08-9z m146.06 0c0 11.46-9.32 20.78-20.78 20.78h-104.5c-0.38 0-0.74-0.04-1.1-0.06l56.74-43.2h69.64v22.48z m0-42.48h-69.66l-56.72-43.2c0.36-0.02 0.72-0.06 1.1-0.06h104.5c11.46 0 20.78 9.32 20.78 20.78v22.48z" fill="#23130D" p-id="2728"></path><path d="M373.42 539.26l-4.62 3.52-13.8 10.5-36.04 27.46a20.66 20.66 0 0 1-2.08-9v-64.96c0-3.24 0.76-6.28 2.08-9l20.36 15.5 34.1 25.98zM462.94 549.26v22.48c0 4.94-1.72 9.44-4.6 13-2.98 3.72-7.22 6.4-12.08 7.38-1.32 0.26-2.7 0.4-4.1 0.4h-104.5c-0.38 0-0.74-0.04-1.1-0.06l32.72-24.9 13.8-10.52 5.36-4.08 4.86-3.7h69.64zM462.94 506.78v22.48h-69.66l-41.4-31.54-15.32-11.66c0.36-0.02 0.72-0.06 1.1-0.06h104.5c11.46 0 20.78 9.32 20.78 20.78z" fill="#F9C139" p-id="2729"></path><path d="M321.052 504.4l15.844 12.062 29.924 22.798-0.442 0.336-13.802 10.502-31.522 24.018a16.23 16.23 0 0 1-0.172-2.376v-64.96a16.244 16.244 0 0 1 0.17-2.38m-2.092-6.62c-1.32 2.72-2.08 5.76-2.08 9v64.96c0 3.22 0.76 6.26 2.08 9l36.04-27.46 13.8-10.5 4.62-3.52-34.1-25.98-20.36-15.5zM458.94 553.26v18.48a16.512 16.512 0 0 1-3.722 10.5 16.754 16.754 0 0 1-9.732 5.956 17.2 17.2 0 0 1-3.326 0.324h-93.818l23.362-17.778 13.798-10.518 5.36-4.08 3.786-2.882 64.292-0.002m4-4h-69.64l-4.86 3.7-5.36 4.08-13.8 10.52-32.72 24.9c0.36 0.02 0.72 0.06 1.1 0.06h104.5c1.4 0 2.78-0.14 4.1-0.4 4.86-0.98 9.1-3.66 12.08-7.38 2.88-3.56 4.6-8.06 4.6-13v-22.48zM442.16 490c9.252 0 16.78 7.528 16.78 16.78v18.48h-64.31l-40.328-30.724-5.96-4.536h93.818m0-4h-104.5c-0.38 0-0.74 0.04-1.1 0.06l15.32 11.66 41.4 31.54h69.66v-22.48c0-11.46-9.32-20.78-20.78-20.78z" opacity=".2" p-id="2730"></path><path d="M927.9 539.26c0 5.52-4.46 10-10 10H639c-5.52 0-10-4.48-10-10s4.48-10 10-10h278.9c5.54 0 10 4.48 10 10z" fill="#23130D" p-id="2731"></path><path d="M104.46 241.1h36v95.4h-36zM154.46 241.1h27.66v95.4H154.46zM210.96 241.1h46v95.4h-46z" fill="#FFFFFF" opacity=".2" p-id="2732"></path><path d="M353.46 426.34h36V466h-36zM353.46 612.52h36v39.84h-36zM353.46 672.36h36v60.36h-36zM353.46 752.72h36v56.08h-36zM353.46 828.8h36v54.78h-36zM403.46 426.34h27.68V466h-27.68zM403.46 612.52h27.68v120.2h-27.68v-60.36h16.26c5.52 0 10-4.48 10-10s-4.48-10-10-10h-16.26v-39.84zM403.46 752.72h27.68v56.08h-27.68zM403.46 828.8h27.68v54.78h-27.68zM462.94 662.36c0 5.52 4.48 10 10 10h33.02v60.36h-46V608.4c13.6-6.6 22.98-20.56 22.98-36.66v-64.96c0-16.12-9.38-30.06-22.98-36.68v-43.76h46v226.02h-33.02c-5.52 0-10 4.48-10 10zM459.96 752.72h46v56.08h-46zM459.96 828.8h46v54.78h-46z" fill="#FFFFFF" opacity=".2" p-id="2733"></path><path d="M339.32 513.28l29.48 29.5-13.8 10.5-38.12-38.12v-8.38c0-3.24 0.76-6.28 2.08-9l20.36 15.5zM418.56 592.52h-24.32l-24.96-24.96 13.8-10.52zM340.16 486l11.72 11.72-15.32-11.66c0.36-0.02 0.72-0.06 1.1-0.06h2.5zM446.26 592.12c-1.32 0.26-2.7 0.4-4.1 0.4H428l-39.56-39.56 4.86-3.7h10.12l42.84 42.86zM433.94 529.26h-31.08L359.6 486h31.08zM462.94 558.26v13.48c0 4.94-1.72 9.44-4.6 13l-35.48-35.48h31.08l9 9z" fill="#FFFFFF" opacity=".4" p-id="2734"></path></svg>