<?xml version="1.0" standalone="no"?><!DOCTYPE svg PUBLIC "-//W3C//DTD SVG 1.1//EN" "http://www.w3.org/Graphics/SVG/1.1/DTD/svg11.dtd"><svg t="1695289097272" class="icon" viewBox="0 0 1024 1024" version="1.1" xmlns="http://www.w3.org/2000/svg" p-id="4889" xmlns:xlink="http://www.w3.org/1999/xlink" width="128" height="128"><path d="M129.828571 298.24h763.977143v-18.285714c0-20.114286-16.457143-36.571429-36.571428-36.571429H166.4c-20.114286 0-36.571429 16.457143-36.571429 36.571429v18.285714zM894.171429 865.243429v-18.285715H129.828571v18.285715c0 20.114286 16.457143 36.571429 36.571429 36.571428h691.2c20.114286 0 36.571429-16.457143 36.571429-36.571428z" p-id="4890" fill="#707070"></path><path d="M839.314286 243.2v658.285714h18.285714c20.114286 0 36.571429-16.457143 36.571429-36.571428v-585.142857c0-20.114286-16.457143-36.571429-36.571429-36.571429h-18.285714zM129.828571 279.771429v585.508571c0 20.114286 16.457143 36.571429 36.571429 36.571429h18.285714V243.2h-18.285714c-20.114286 0-36.571429 16.457143-36.571429 36.571429z" p-id="4891" fill="#707070"></path><path d="M134.948571 161.316571c-3.291429 8.045714-5.12 16.091429-5.12 24.868572v111.908571h332.068572l-57.782857-136.777143a65.609143 65.609143 0 0 0-23.771429-28.525714c-5.12-3.291429-10.605714-6.217143-16.457143-7.68-6.217143-1.828571-12.434286-2.925714-18.651428-2.925714H193.828571c-8.777143 0-16.822857 1.828571-24.868571 5.12-7.68 3.291429-14.628571 7.68-20.48 13.531428-5.851429 5.851429-10.24 12.8-13.531429 20.48z m55.222858 16.457143c1.097143-0.365714 2.56-0.731429 3.657142-0.731428h151.405715c1.828571 0 3.291429 0.365714 5.12 1.462857 1.462857 1.097143 2.56 2.56 3.291428 4.022857l25.6 60.342857H184.685714v-56.685714c0-1.097143 0.365714-2.56 0.731429-3.657143s1.097143-1.828571 1.828571-2.925714c1.097143-0.731429 1.828571-1.462857 2.925715-1.828572zM388.096 681.508571h55.222857l-67.657143-217.965714h-62.537143l-67.657142 217.965714h53.394285l12.434286-50.102857h64.365714l12.434286 50.102857z m215.04 0v-43.885714h-84.845714v-174.08h-52.297143v217.965714h137.142857z m175.177143-43.885714v43.885714h-137.142857v-217.965714h52.297143v174.08h84.845714z m-457.142857-46.445714l4.754285-18.651429c5.485714-21.577143 11.337143-46.811429 16.822858-69.851428h1.097142c5.851429 22.308571 11.337143 48.274286 17.188572 69.851428l4.754286 18.651429h-44.617143z" p-id="4892" fill="#707070"></path></svg>