<?xml version="1.0" standalone="no"?><!DOCTYPE svg PUBLIC "-//W3C//DTD SVG 1.1//EN" "http://www.w3.org/Graphics/SVG/1.1/DTD/svg11.dtd"><svg t="1707540725095" class="icon" viewBox="0 0 1024 1024" version="1.1" xmlns="http://www.w3.org/2000/svg" p-id="20035" xmlns:xlink="http://www.w3.org/1999/xlink" width="128" height="128"><path d="M567.9 788c2.8 0 5 3.8 5.1 8.6v62.5c0 4.8-2.2 8.7-5 8.9H66.1c-2.8 0-5-3.8-5.1-8.6v-62.5c0-4.8 2.2-8.7 5-8.9h501.9z m160.9-540.6l211.8 211.8c14.2 14.2 22 33 22 53.1s-7.8 38.9-22 53.1L728.8 777.2c-20.9 20.9-56.1 14.2-68.1-12.5l-0.4-0.8c-6.7-15.8-3.1-34.1 9-46.2l205.4-205.4-205.4-205.4c-12-12-15.6-30-9.2-45.7l0.2-0.5c11.7-27.5 47.4-34.4 68.5-13.3zM567.9 468c2.8 0 5 3.8 5.1 8.6v62.5c0 4.8-2.2 8.7-5 8.9H66.1c-2.8 0-5-3.8-5.1-8.6v-62.5c0-4.8 2.2-8.7 5-8.9h501.9z m0-312c2.8 0 5 3.8 5.1 8.6v62.5c0 4.8-2.2 8.7-5 8.9H66.1c-2.8 0-5-3.8-5.1-8.6v-62.5c0-4.8 2.2-8.7 5-8.9h501.9z" p-id="20036" fill="#ffffff"></path></svg>