<?xml version="1.0" standalone="no"?><!DOCTYPE svg PUBLIC "-//W3C//DTD SVG 1.1//EN" "http://www.w3.org/Graphics/SVG/1.1/DTD/svg11.dtd"><svg t="1695289752293" class="icon" viewBox="0 0 1024 1024" version="1.1" xmlns="http://www.w3.org/2000/svg" p-id="14544" xmlns:xlink="http://www.w3.org/1999/xlink" width="128" height="128"><path d="M512 32c265.088 0 480 214.912 480 480 0 265.088-214.912 480-480 480-265.088 0-480-214.912-480-480C32 246.912 246.912 32 512 32z m0 64C282.24 96 96 282.24 96 512s186.24 416 416 416 416-186.24 416-416S741.76 96 512 96z m254.4 257.6a32 32 0 0 1 0 45.248l-271.552 271.552a32 32 0 0 1-48.704-4.096 33.216 33.216 0 0 1-5.568-4.48l-158.4-158.4a32 32 0 1 1 45.248-45.248l144.576 144.576 249.152-249.152a32 32 0 0 1 45.248 0z" fill="#707070" p-id="14545"></path></svg>