<?xml version="1.0" encoding="UTF-8"?>
<svg width="22px" height="22px" viewBox="0 0 22 22" version="1.1" xmlns="http://www.w3.org/2000/svg" xmlns:xlink="http://www.w3.org/1999/xlink">
    <title>ic_1@2x</title>
    <g id="页面-1" stroke="none" stroke-width="1" fill="none" fill-rule="evenodd">
        <g id="画板" transform="translate(-16.000000, -307.000000)" fill="#FF934A" fill-rule="nonzero">
            <g id="ic_1" transform="translate(16.000000, 307.000000)">
                <path d="M19.130375,10.4988125 C19.1304441,10.1892217 18.9426391,9.91055888 18.6556546,9.79442797 C18.3686701,9.67829705 18.0399232,9.74793234 17.8246707,9.97044725 C17.6094183,10.1929622 17.5507261,10.5238381 17.6763125,10.8068125 C17.725125,11.09075 17.7904375,11.594 17.7904375,12.3509375 C17.7904375,17.0424375 14.3501875,20.4840625 9.65593751,20.4840625 C4.9616875,20.4840625 1.52143752,17.0424375 1.52143749,12.3509375 C1.52143747,7.65943749 4.9616875,4.21850001 9.65593751,4.21850001 C10.406,4.21850001 10.5084375,4.18412501 11.1629375,4.321625 L11.1656875,4.305125 C11.1863125,4.3071875 11.2069375,4.312 11.22825,4.312 C11.6290625,4.312 11.9549375,3.98543751 11.9549375,3.58531251 C11.9549375,3.24018751 11.715,2.95350001 11.3939375,2.87925001 L11.4008125,2.83525001 C10.5758125,2.68812501 10.5386875,2.69762115 9.65593751,2.69762115 C4.3236875,2.69762115 0,7.01868749 0,12.348875 C0,17.681125 4.3236875,22.0020625 9.65593751,22.0020625 C14.9881875,22.0020625 19.311875,17.681125 19.311875,12.348875 C19.311875,11.5121875 19.2438125,11.11825 19.127625,10.5221875 C19.127625,10.5153125 19.130375,10.506375 19.130375,10.4988125 M9.55075001,9.24550001 C9.57893751,9.24825001 9.60437501,9.25512501 9.63462501,9.25512501 C9.90554398,9.25880932 10.157849,9.1176802 10.2964992,8.88489965 C10.4351494,8.65211909 10.4390805,8.36305199 10.3068117,8.12658713 C10.1745429,7.89012227 9.92616898,7.74218429 9.65525001,7.73849999 L9.65593751,7.71787499 C7.11899068,7.74877834 5.07862849,9.8141462 5.07862849,12.3512812 C5.07862849,14.8884163 7.11899068,16.9537841 9.65593751,16.9846875 C12.1987984,16.9847916 14.2666735,14.9356318 14.2896875,12.392875 C14.29175,12.3674375 14.2965625,12.3440625 14.2965625,12.315875 C14.2965625,11.8963112 13.9564388,11.5561875 13.536875,11.5561875 C13.1173112,11.5561875 12.7771875,11.8963112 12.7771875,12.315875 C12.7771875,12.3275625 12.7799375,12.33925 12.7799375,12.3509375 L12.76825,12.3509375 C12.76825,14.2704375 11.5754375,15.46325 9.65593751,15.46325 C7.73643751,15.46325 6.543625,14.2704375 6.543625,12.3509375 C6.543625,10.4665 7.69656249,9.29018749 9.55075001,9.24550001 M22,4.626875 L17.744375,4.263875 L17.38,0 L15.85925,1.53518749 L15.85925,1.53999999 L12.7771875,4.2625 L12.7703125,4.2625 L12.7703125,8.06024999 L8.51881251,11.94325 L9.33418751,13.1195625 L13.9473125,8.87287501 L17.7436875,8.87287501 L17.7436875,8.86875001 L17.7485,8.87356251 L20.835375,5.7894375 L20.8305625,5.784625 L20.835375,5.784625 L22,4.626875 M16.94,7.71581249 L14.29175,7.71581249 L14.29175,5.0689375 L16.2229375,3.13775001 L16.2229375,5.7866875 L18.8711875,5.7866875 L16.94,7.71512499" id="形状"></path>
            </g>
        </g>
    </g>
</svg>