<?xml version="1.0" standalone="no"?><!DOCTYPE svg PUBLIC "-//W3C//DTD SVG 1.1//EN" "http://www.w3.org/Graphics/SVG/1.1/DTD/svg11.dtd"><svg t="1708314109416" class="icon" viewBox="0 0 1223 1024" version="1.1" xmlns="http://www.w3.org/2000/svg" p-id="6121" xmlns:xlink="http://www.w3.org/1999/xlink" width="152.875" height="128"><path d="M153.344 710.257778h739.072l99.370667 89.642666c-2.360889 0.284444-4.664889 0.739556-7.111111 0.739556H332.529778L117.646222 1024l-10.24-223.36H61.383111C27.448889 800.64 0 773.717333 0 740.423111V220.956444c0-33.237333 27.448889-60.188444 61.297778-60.231111h30.663111v489.315556c0 33.265778 27.491556 60.231111 61.383111 60.231111zM1161.728 0c16.284444 0 31.886222 6.343111 43.406222 17.635556A59.662222 59.662222 0 0 1 1223.111111 60.231111v519.395556c0 15.957333-6.471111 31.288889-17.976889 42.567111a61.994667 61.994667 0 0 1-43.406222 17.635555h-52.437333l-13.383111 193.891556-214.897778-193.877333H238.449778c-33.877333 0-61.397333-27.008-61.397334-60.231112V60.216889C177.038222 26.979556 204.529778 0 238.435556 0h923.292444z m-763.448889 414.08c44.544 0 80.64-35.413333 80.64-79.118222 0-43.704889-36.096-79.132444-80.64-79.132445-28.814222 0-55.438222 15.075556-69.845333 39.566223a77.838222 77.838222 0 0 0 0 79.132444c14.407111 24.462222 41.031111 39.552 69.831111 39.552z m301.795556 0c44.544 0 80.64-35.413333 80.64-79.118222 0-43.704889-36.096-79.132444-80.64-79.132445-28.814222 0-55.438222 15.075556-69.831111 39.566223a77.838222 77.838222 0 0 0 0 79.132444c14.392889 24.462222 41.016889 39.552 69.831111 39.552z m301.795555 0c44.558222 0 80.654222-35.413333 80.654222-79.118222 0-43.704889-36.096-79.132444-80.64-79.132445-28.814222 0-55.438222 15.075556-69.845333 39.566223a77.838222 77.838222 0 0 0 0 79.132444c14.407111 24.462222 41.031111 39.552 69.831111 39.552z" fill="#C4A9D6" p-id="6122"></path></svg>