<svg xmlns="http://www.w3.org/2000/svg" width="24" height="24" viewBox="0 0 24 24">
  <g id="专注" transform="translate(-77.162 -77.161)">
    <path id="路径_2" data-name="路径 2" d="M118.391,102.456a11.288,11.288,0,0,0-13.662-1.756l1.216,1.217,1.242,1.242a7.956,7.956,0,1,1-4.029,4.029l-1.242-1.242-1.217-1.216a11.268,11.268,0,1,0,17.692-2.273Z" transform="translate(-20.524 -20.525)" fill="#f69149"/>
    <path id="路径_3" data-name="路径 3" d="M187.892,191.917l-3.362-3.362a5.544,5.544,0,1,0,4.026-4.026l3.362,3.362a2.847,2.847,0,0,1-4.026,4.026Z" transform="translate(-100.005 -100.005)" fill="#f69149"/>
    <path id="路径_4" data-name="路径 4" d="M89.835,88.494,82.46,81.119l.176-1.728a.919.919,0,0,0-.264-.743l-1.284-1.284a.694.694,0,0,0-.982,0l-.7.7-1.34,1.34-.7.7a.694.694,0,0,0,0,.982l1.284,1.284a.919.919,0,0,0,.743.264l1.728-.176,7.374,7.374a.948.948,0,1,0,1.34-1.34Z" transform="translate(0 0)" fill="#f69149"/>
  </g>
</svg>
