<?xml version="1.0" standalone="no"?><!DOCTYPE svg PUBLIC "-//W3C//DTD SVG 1.1//EN" "http://www.w3.org/Graphics/SVG/1.1/DTD/svg11.dtd"><svg t="1647265635227" class="icon" viewBox="0 0 1024 1024" version="1.1" xmlns="http://www.w3.org/2000/svg" p-id="6725" xmlns:xlink="http://www.w3.org/1999/xlink" width="96" height="96"><defs><style type="text/css"></style></defs><path d="M608 240s144 16 160 176c0 0-128-16-176-112" fill="#06535B" p-id="6726"></path><path d="M512 939.08V1008l-273.276-0.064A60 60 0 0 1 176 948v-29.736a60 60 0 0 1 50.876-59.302L368 832h288l136.274 12.02A60 60 0 0 1 848 903.868V948a60 60 0 0 1-60 60H560v-63.468z" fill="#0F8CA8" p-id="6727"></path><path d="M880 576m-48 0a48 48 0 1 0 96 0 48 48 0 1 0-96 0Z" fill="#F69038" p-id="6728"></path><path d="M198.71 288.024L253.422 272l-16.026 54.71 16.026 54.712-54.712-16.026L144 381.422l16.024-54.712L144 272z" fill="#90E3F5" p-id="6729"></path><path d="M144 560h32v32H144z" fill="#F69038" p-id="6730"></path><path d="M832 272h32v32h-32z" fill="#90E3F5" p-id="6731"></path><path d="M512 912h48l16-32s128 32 144 64l-208 16zM512 528a96 96 0 0 0 96-96h-48v-96h-96v96h-48a96 96 0 0 0 96 96z" fill="#FFBE92" p-id="6732"></path><path d="M656 432h-48a96 96 0 0 1-192 0h-48v208l32 64-32 128h288l-32-128 32-64z" fill="#90E3F5" p-id="6733"></path><path d="M368 432h-20a60 60 0 0 0-60 60v212l-112 80s-48-48-80-32l16 48-80 48 16.436 21.914a60 60 0 0 0 77.416 16.286L336 768l32-128zM656 432h20a60 60 0 0 1 60 60v212l112 80s48-48 80-32l-16 48 80 48-16.436 21.914a60 60 0 0 1-77.416 16.294L688 768l-32-128z" fill="#FFBE92" p-id="6734"></path><path d="M303 879.918l207.99-16.064 2.464 31.904-207.99 16.064zM752 912h96v-8.132A59.788 59.788 0 0 0 843.044 880H752z" fill="#076372" p-id="6735"></path><path d="M560 336h-96v56.482a280.356 280.356 0 0 0 96-28.644z" fill="#232626" opacity=".2" p-id="6736"></path><path d="M416 251.332A143.642 143.642 0 0 1 368 144c0-79.53 64.47-128 144-128s144 48.47 144 128a143.642 143.642 0 0 1-48 107.332" fill="#076372" p-id="6737"></path><path d="M512 352c-56.8 0-96-55.2-96-112V160l192-32v112c0 56.8-39.2 112-96 112z" fill="#FFBE92" p-id="6738"></path><path d="M544 192h32v32h-32zM448 192h32v32h-32z" fill="#843F0C" p-id="6739"></path><path d="M519.726 16.16Q515.888 16 512 16c-79.53 0-144 48.47-144 128a143.428 143.428 0 0 0 13.31 60.504c19.126-91.904 97.92-159.13 138.416-188.344z" fill="#FAFCFC" opacity=".3" p-id="6740"></path></svg>