<?xml version="1.0" standalone="no"?><!DOCTYPE svg PUBLIC "-//W3C//DTD SVG 1.1//EN" "http://www.w3.org/Graphics/SVG/1.1/DTD/svg11.dtd"><svg t="1661152966428" class="icon" viewBox="0 0 1024 1024" version="1.1" xmlns="http://www.w3.org/2000/svg" p-id="3321" xmlns:xlink="http://www.w3.org/1999/xlink" width="96" height="96"><defs><style type="text/css">@font-face { font-family: feedback-iconfont; src: url("//at.alicdn.com/t/font_1031158_u69w8yhxdu.woff2?t=1630033759944") format("woff2"), url("//at.alicdn.com/t/font_1031158_u69w8yhxdu.woff?t=1630033759944") format("woff"), url("//at.alicdn.com/t/font_1031158_u69w8yhxdu.ttf?t=1630033759944") format("truetype"); }
</style></defs><path d="M692.122 153.6c6.81 0 12.595 2.662 17.305 7.424a25.14 25.14 0 0 1 7.373 17.562 27.29 27.29 0 0 1-5.786 16.435L489.472 398.899v446.515c0 13.824-11.06 24.986-24.678 24.986a22.835 22.835 0 0 1-14.183-4.762c-2.713-2.048-25.446-13.67-50.585-26.214l-16.896-8.448c-28.16-13.978-54.324-26.829-54.324-26.829a25.14 25.14 0 0 1-7.372-17.51V398.336l-213.71-204.34a24.934 24.934 0 0 1 19.457-40.396h564.94z m184.37 589.312c24.73 0 45.108 22.63 45.108 51.2s-20.378 51.2-45.056 51.2H659.456a42.547 42.547 0 0 1-31.334-14.746 54.784 54.784 0 0 1-13.722-36.454c0-28.57 20.378-51.2 45.056-51.2h217.088z m0-165.427c24.73 0 45.108 22.63 45.108 51.2s-20.378 51.2-45.056 51.2H659.456c-24.678 0-45.056-22.63-45.056-51.2s20.378-51.2 45.056-51.2h217.088z m-0.153-165.376c24.832 0 45.261 22.579 45.261 51.2 0 28.518-20.48 51.2-45.26 51.2H659.097c-25.088 0-45.67-23.86-44.647-51.917 0-28.416 20.275-50.534 44.647-50.534h217.241z" p-id="3322" fill="#1296db"></path></svg>