<?xml version="1.0" standalone="no"?><!DOCTYPE svg PUBLIC "-//W3C//DTD SVG 1.1//EN" "http://www.w3.org/Graphics/SVG/1.1/DTD/svg11.dtd"><svg t="1706836950859" class="icon" viewBox="0 0 1024 1024" version="1.1" xmlns="http://www.w3.org/2000/svg" p-id="6857" xmlns:xlink="http://www.w3.org/1999/xlink" width="128" height="128"><path d="M943.692 535.978c0 238.486-193.206 431.694-431.692 431.694S80.308 774.464 80.308 535.978C80.308 297.5 273.514 104.294 512 104.294s431.692 193.206 431.692 431.684z" fill="#FFCE54" opacity=".5" p-id="6858"></path><path d="M887.732 535.978c0 207.416-168.178 375.732-375.732 375.732-207.556 0-375.732-168.316-375.732-375.732C136.268 328.58 304.444 160.254 512 160.254c207.554 0 375.732 168.326 375.732 375.724z" fill="#FFCE54" opacity=".4" p-id="6859"></path><path d="M831.772 535.978c0 176.468-143.102 319.772-319.772 319.772-176.672 0-319.772-143.302-319.772-319.772 0-176.452 143.1-319.764 319.772-319.764 176.67 0 319.772 143.314 319.772 319.764z" fill="#FFCE54" opacity=".6" p-id="6860"></path><path d="M647.902 927.7l-31.976 31.976H408.074l-31.978-31.976v-111.92h271.806z" fill="#AAB2BD" p-id="6861"></path><path d="M408.074 815.78h-31.978v111.92l31.978 31.976h31.976l-31.976-31.976z" fill="#FFFFFF" opacity=".4" p-id="6862"></path><path d="M615.926 815.78h31.976v111.92l-31.976 31.976h-31.978l31.978-31.976z" opacity=".3" p-id="6863"></path><path d="M775.81 535.978c0-145.7-118.118-263.812-263.81-263.812s-263.812 118.112-263.812 263.812c0 95.932 51.354 179.624 127.908 225.808v53.992h271.806v-53.992c76.556-46.184 127.908-129.876 127.908-225.808z" fill="#E6E9ED" p-id="6864"></path><path d="M512 272.166c5.402 0 10.696 0.446 16.004 0.804-138.214 8.306-247.838 122.702-247.838 263.008 0 142.336 95.93 225.808 95.93 225.808-76.554-46.186-127.908-129.876-127.908-225.808 0-145.7 118.118-263.812 263.812-263.812z" fill="#FFFFFF" p-id="6865"></path><path d="M512.016 272.166c-5.402 0-10.696 0.446-16.004 0.804 138.214 8.306 247.838 122.702 247.838 263.008 0 142.336-95.932 225.808-95.932 225.808 76.554-46.186 127.908-129.876 127.908-225.808 0-145.7-118.118-263.812-263.81-263.812z" fill="#FFFFFF" p-id="6866"></path><path d="M440.05 959.676s15.988 31.978 71.95 31.978c55.958 0 71.948-31.978 71.948-31.978h-143.898z" fill="#656D78" p-id="6867"></path><path d="M472.028 959.676h-31.976s15.988 31.978 71.95 31.978c5.776 0 11.04-0.406 15.988-1.032-43.002-5.308-55.962-30.946-55.962-30.946z" fill="#FFFFFF" opacity=".4" p-id="6868"></path><path d="M551.97 959.676h31.976s-15.988 31.978-71.948 31.978c-5.778 0-11.04-0.406-15.99-1.032 43.004-5.308 55.962-30.946 55.962-30.946z" opacity=".3" p-id="6869"></path><path d="M376.096 799.792h271.806v15.988H376.096z" opacity=".2" p-id="6870"></path><path d="M512.014 535.978m-167.88 0a167.88 167.88 0 1 0 335.76 0 167.88 167.88 0 1 0-335.76 0Z" fill="#ED5565" p-id="6871"></path><path d="M376.112 535.978c0-87.32 66.688-159.004 151.892-167.068-5.262-0.492-10.586-0.804-15.988-0.804-92.716 0-167.88 75.158-167.88 167.872s75.166 167.88 167.88 167.88c5.402 0 10.726-0.312 15.988-0.812-85.206-8.056-151.892-79.754-151.892-167.068z" fill="#FFFFFF" opacity=".4" p-id="6872"></path><path d="M647.902 535.978c0-87.32-66.686-159.004-151.892-167.068 5.262-0.492 10.586-0.804 15.99-0.804 92.714 0 167.878 75.158 167.878 167.872S604.714 703.86 512 703.86c-5.402 0-10.728-0.312-15.99-0.812 85.206-8.058 151.892-79.756 151.892-167.07z" opacity=".2" p-id="6873"></path><path d="M623.936 535.978c0 61.798-50.106 111.92-111.92 111.92-61.8 0-111.92-50.122-111.92-111.92s50.12-111.912 111.92-111.912c61.814 0 111.92 50.114 111.92 111.912z" fill="#FFCE54" p-id="6874"></path><path d="M567.974 535.978c0 30.884-25.042 55.96-55.958 55.96-30.9 0-55.96-25.076-55.96-55.96 0-30.892 25.06-55.952 55.96-55.952 30.916 0.002 55.958 25.06 55.958 55.952z" fill="#ED5565" p-id="6875"></path><path d="M848.948 153.776l-79.102 79.1-0.016 45.248 85.862-85.876z" fill="#656D78" p-id="6876"></path><path d="M894.226 199l-79.1 79.1-45.25 0.016 85.878-85.86z" fill="#656D78" p-id="6877"></path><path d="M512 711.948c-46.904 0-91.06-18.33-124.35-51.62-33.274-33.29-51.604-77.446-51.62-124.35 0-46.904 18.33-91.076 51.62-124.356 57.944-57.952 146.972-68.474 216.518-25.538a7.99 7.99 0 0 1 2.592 11 7.988 7.988 0 0 1-10.992 2.6c-63.206-38.988-144.13-29.456-196.812 23.242-30.26 30.268-46.936 70.418-46.936 113.052 0.016 42.626 16.676 82.786 46.936 113.044 30.276 30.26 70.418 46.936 113.044 46.936h0.016c42.64 0 82.784-16.676 113.058-46.936 52.698-52.682 62.236-133.592 23.218-196.79a7.996 7.996 0 0 1 2.608-11 7.966 7.966 0 0 1 10.992 2.6c42.938 69.536 32.446 158.566-25.514 216.494-33.288 33.29-77.458 51.62-124.364 51.62 0.002 0.002 0.002 0.002-0.014 0.002z" fill="#3A3847" p-id="6878"></path><path d="M512.016 655.77c-30.698 0-61.378-11.68-84.736-35.04-46.716-46.748-46.716-122.78 0-169.496 38.348-38.356 97.852-46.216 144.662-19.112a7.986 7.986 0 0 1 2.92 10.922 8.014 8.014 0 0 1-10.93 2.912c-40.55-23.49-92.106-16.66-125.348 16.582-40.488 40.486-40.488 106.384 0 146.886 40.488 40.472 106.378 40.472 146.88 0 33.258-33.29 40.064-84.854 16.536-125.434a7.99 7.99 0 0 1 2.904-10.93 8.02 8.02 0 0 1 10.93 2.904c27.152 46.842 19.314 106.384-19.064 144.764-23.378 23.362-54.072 35.01-84.754 35.042z" fill="#3A3847" p-id="6879"></path><path d="M512 599.872c-16.364 0-32.726-6.246-45.172-18.674-24.92-24.952-24.92-65.494 0-90.412 14.38-14.404 34.132-21.016 54.304-18.114 4.374 0.632 7.402 4.684 6.778 9.056s-4.592 7.4-9.056 6.776c-15.098-2.21-29.932 2.772-40.72 13.584-18.69 18.69-18.69 49.098 0 67.804 18.69 18.674 49.09 18.642 67.78 0 10.804-10.836 15.754-25.702 13.568-40.784a8.002 8.002 0 0 1 6.762-9.048c4.386-0.546 8.432 2.404 9.056 6.776 2.918 20.104-3.67 39.902-18.082 54.362-12.476 12.428-28.84 18.674-45.218 18.674zM615.926 967.672H408.074a7.982 7.982 0 0 1-5.652-2.344l-31.978-31.976a7.988 7.988 0 0 1-2.342-5.652v-111.92a7.98 7.98 0 0 1 7.994-7.994h271.806a7.978 7.978 0 0 1 7.994 7.994v111.92a7.992 7.992 0 0 1-2.342 5.652l-31.976 31.976a7.99 7.99 0 0 1-5.652 2.344z m-204.542-15.99h201.232l27.292-27.292v-100.616H384.09v100.616l27.294 27.292z" fill="#3A3847" p-id="6880"></path><path d="M360.108 871.738a7.988 7.988 0 0 1-7.978-7.588c-0.234-4.402 3.154-8.15 7.556-8.4l303.784-15.988c4.374-0.562 8.166 3.154 8.4 7.558a7.98 7.98 0 0 1-7.556 8.398l-303.784 15.988c-0.142 0.032-0.282 0.032-0.422 0.032zM360.108 919.706a7.99 7.99 0 0 1-7.978-7.588c-0.234-4.404 3.154-8.15 7.556-8.4l303.784-15.988c4.374-0.532 8.166 3.154 8.4 7.556s-3.152 8.182-7.556 8.4l-303.784 15.988c-0.142 0.032-0.282 0.032-0.422 0.032zM647.902 823.774H376.096a8 8 0 0 1-7.994-7.994v-49.56c-80.176-50.122-127.908-135.84-127.908-230.242 0-149.892 121.928-271.83 271.806-271.83 149.876 0 271.804 121.936 271.804 271.83 0 94.402-47.73 180.152-127.908 230.242v49.558a8 8 0 0 1-7.994 7.996z m-263.812-15.988h255.818v-46.03c0-2.81 1.468-5.402 3.856-6.872 77.68-46.81 124.052-128.658 124.052-218.906 0-141.07-114.762-255.84-255.816-255.84-141.056 0-255.818 114.77-255.818 255.84 0 90.248 46.374 172.096 124.052 218.938a7.98 7.98 0 0 1 3.856 6.84v46.03zM512 999.648c-60.208 0-78.352-34.914-79.1-36.412a7.982 7.982 0 0 1 3.576-10.71 7.94 7.94 0 0 1 10.696 3.53c0.702 1.31 15.254 27.606 64.83 27.606 49.76 0 64.234-26.514 64.828-27.636 2.044-3.874 6.838-5.434 10.742-3.436s5.48 6.744 3.53 10.648c-0.752 1.496-18.894 36.41-79.102 36.41zM168.26 543.972H8.36a7.998 7.998 0 0 1-7.994-7.994 7.986 7.986 0 0 1 7.994-8.002h159.9a7.988 7.988 0 0 1 7.996 8.002 8 8 0 0 1-7.996 7.994zM1015.64 543.972h-159.886a8 8 0 0 1 0-15.996h159.886a8 8 0 0 1 0 15.996zM46.708 736.71a8.01 8.01 0 0 1-7.386-4.934 8.01 8.01 0 0 1 4.326-10.46l147.722-61.208a8 8 0 0 1 10.446 4.34 7.988 7.988 0 0 1-4.324 10.43l-147.724 61.208c-1 0.438-2.048 0.624-3.06 0.624zM829.586 412.402a7.98 7.98 0 0 1-7.386-4.934 8 8 0 0 1 4.326-10.446l147.708-61.176a8.008 8.008 0 0 1 10.446 4.326 8 8 0 0 1-4.324 10.446l-147.708 61.174a7.994 7.994 0 0 1-3.062 0.61zM155.878 900.094a7.97 7.97 0 0 1-5.652-2.342 7.988 7.988 0 0 1 0-11.304l113.06-113.076a7.992 7.992 0 1 1 11.304 11.304l-113.06 113.076a7.974 7.974 0 0 1-5.652 2.342zM643.56 226.378a7.998 7.998 0 0 1-7.384-11.054l61.176-147.708a7.992 7.992 0 1 1 14.772 6.122l-61.176 147.708a8.012 8.012 0 0 1-7.388 4.932zM512.016 200.21a7.99 7.99 0 0 1-7.996-7.994V32.346a7.99 7.99 0 0 1 7.996-7.994 7.99 7.99 0 0 1 7.994 7.994v159.872a7.99 7.99 0 0 1-7.994 7.992zM380.468 226.378a7.98 7.98 0 0 1-7.386-4.934l-61.174-147.708a8 8 0 0 1 4.324-10.446 8.006 8.006 0 0 1 10.446 4.324l61.174 147.708a8 8 0 0 1-7.384 11.056zM868.12 900.094a7.978 7.978 0 0 1-5.652-2.342l-113.074-113.076a7.992 7.992 0 1 1 11.304-11.304l113.074 113.076a7.988 7.988 0 0 1 0 11.304 7.974 7.974 0 0 1-5.652 2.342zM268.954 300.888a7.966 7.966 0 0 1-5.652-2.342L150.258 185.502a7.988 7.988 0 0 1 0-11.304 7.988 7.988 0 0 1 11.304 0l113.044 113.044a7.992 7.992 0 0 1-5.652 13.646zM977.292 736.71c-1.032 0-2.06-0.188-3.06-0.626l-147.738-61.208a7.988 7.988 0 0 1-4.326-10.43c1.688-4.09 6.386-6.058 10.448-4.34l147.738 61.208a8.012 8.012 0 0 1 4.324 10.46 8.038 8.038 0 0 1-7.386 4.936zM194.446 412.402a7.938 7.938 0 0 1-3.06-0.608L43.678 350.62a8 8 0 0 1-4.326-10.446 8.006 8.006 0 0 1 10.446-4.326l147.708 61.176a8 8 0 0 1 4.324 10.446 8.012 8.012 0 0 1-7.384 4.932z" fill="#3A3847" p-id="6881"></path><path d="M512.046 543.972a7.97 7.97 0 0 1-5.652-2.342 7.988 7.988 0 0 1 0-11.304L866.09 170.608a7.988 7.988 0 0 1 11.304 0 7.988 7.988 0 0 1 0 11.304l-359.698 359.72a7.964 7.964 0 0 1-5.65 2.34z" fill="#3A3847" p-id="6882"></path><path d="M769.83 286.118a7.986 7.986 0 0 1-7.992-7.986 7.992 7.992 0 0 1 7.976-8.002l41.94-0.032 65.954-65.96-23.374-4.012a7.982 7.982 0 0 1-6.528-9.228c0.75-4.348 4.902-7.284 9.226-6.526l38.598 6.62c2.954 0.5 5.372 2.608 6.278 5.458s0.14 5.958-1.966 8.072l-79.224 79.224a7.988 7.988 0 0 1-5.652 2.342l-45.236 0.03z" fill="#3A3847" p-id="6883"></path><path d="M769.83 286.118a7.994 7.994 0 0 1-7.992-7.994l0.016-45.25c0-2.124 0.842-4.154 2.34-5.652l79.102-79.1a7.974 7.974 0 0 1 8.056-1.966 7.986 7.986 0 0 1 5.464 6.236l6.744 38.472a7.992 7.992 0 0 1-6.496 9.26c-4.324 0.718-8.492-2.146-9.258-6.496l-4.09-23.326-65.876 65.882-0.016 41.938a8 8 0 0 1-7.994 7.996z" fill="#3A3847" p-id="6884"></path></svg>