<?xml version="1.0" encoding="UTF-8"?>
<svg width="13px" height="15px" viewBox="0 0 13 15" version="1.1" xmlns="http://www.w3.org/2000/svg" xmlns:xlink="http://www.w3.org/1999/xlink">
    <title>t_05@2x</title>
    <g id="页面-1" stroke="none" stroke-width="1" fill="none" fill-rule="evenodd">
        <g id="画板" transform="translate(-18.000000, -390.000000)" fill-rule="nonzero">
            <g id="t_05" transform="translate(18.000000, 390.736842)">
                <path d="M6.5,0.263157895 C2.91014648,0.263157895 0,3.17330438 0,6.76315789 C0,10.3530114 2.91014648,13.2631579 6.5,13.2631579 C10.0898535,13.2631579 13,10.3530114 13,6.76315789 C13,3.17330438 10.0898535,0.263157895 6.5,0.263157895 Z" id="形状结合" fill="#FF934A"></path>
                <path d="M6.25172319,8.72326344 C6.03221816,8.9372507 5.67560835,8.9372507 5.45610332,8.72326344 L3.66462877,6.9702225 C3.44512374,6.75623524 3.44512374,6.40507451 3.66462877,6.19111778 C3.8841338,5.97716105 4.24074361,5.97713052 4.46024864,6.19111778 L5.8539247,7.55459492 L8.53975136,4.92364834 C8.75925639,4.70966108 9.1158662,4.70966108 9.33537123,4.92364834 C9.55487626,5.1376356 9.55487626,5.48879632 9.33537123,5.70275305 L6.25176898,8.72326344 L6.25172319,8.72326344 Z" id="路径" fill="#FFFFFF"></path>
            </g>
        </g>
    </g>
</svg>