<svg xmlns="http://www.w3.org/2000/svg" width="24" height="27.79" viewBox="0 0 24 27.79">
  <path id="清单icon" d="M150.421,46.45h-2.753l.059.1a3.609,3.609,0,0,1,.483,1.794,1.9,1.9,0,0,1-1.895,1.895H133.684a1.9,1.9,0,0,1-1.895-1.895,3.609,3.609,0,0,1,.483-1.794l.059-.1h-2.753A1.581,1.581,0,0,0,128,48.029V68.871a1.581,1.581,0,0,0,1.579,1.579h20.842A1.581,1.581,0,0,0,152,68.871V48.029a1.581,1.581,0,0,0-1.579-1.579Zm-12.5,16.236-2.526,2.526a.632.632,0,0,1-.893,0l-1.263-1.263a.632.632,0,0,1,.893-.893l.816.817,2.08-2.08a.632.632,0,0,1,.893.893Zm0-5.053-2.526,2.526a.632.632,0,0,1-.893,0L133.237,58.9a.632.632,0,0,1,.893-.893l.817.817,2.08-2.08a.632.632,0,1,1,.893.893Zm0-5.053-2.526,2.526a.632.632,0,0,1-.893,0l-1.263-1.263a.632.632,0,0,1,.893-.893l.817.817,2.08-2.08a.632.632,0,1,1,.893.893Zm8.4,11.553H140a.632.632,0,1,1,0-1.263h6.316a.632.632,0,0,1,0,1.263Zm0-5.053H140a.632.632,0,1,1,0-1.263h6.316a.632.632,0,0,1,0,1.263Zm0-5.053H140a.632.632,0,1,1,0-1.263h6.316a.632.632,0,0,1,0,1.263Zm-13.263-5.684a2.768,2.768,0,0,1,1.136-2.118,6.767,6.767,0,0,1,2.285-1.166,3.79,3.79,0,0,1,7.052,0,6.765,6.765,0,0,1,2.285,1.166,2.768,2.768,0,0,1,1.136,2.118.632.632,0,0,1-.632.632H133.684A.632.632,0,0,1,133.052,48.344Z" transform="translate(-128 -42.66)" fill="#f69149"/>
</svg>
