<?xml version="1.0" standalone="no"?><!DOCTYPE svg PUBLIC "-//W3C//DTD SVG 1.1//EN" "http://www.w3.org/Graphics/SVG/1.1/DTD/svg11.dtd"><svg t="1709624253007" class="icon" viewBox="0 0 1024 1024" version="1.1" xmlns="http://www.w3.org/2000/svg" p-id="4341" xmlns:xlink="http://www.w3.org/1999/xlink" width="128" height="128"><path d="M319.112963 70.142577a57.16093 57.16093 0 0 0 4.149783 21.123335 64.586859 64.586859 0 0 0 8.79879 15.319878 73.323246 73.323246 0 0 0 6.989109 7.831547 59.844249 59.844249 0 0 1 12.948573 36.443213c0 24.961105-16.162315 33.416679-40.561795 45.460412l-243.589183-0.842437A64.742866 64.742866 0 0 0 2.886965 260.689412l2.402506 694.823556a65.834914 65.834914 0 0 0 65.366893 65.678908l232.543894 0.811236a59.969055 59.969055 0 0 0 72.387204-59.282625 61.279513 61.279513 0 0 0-22.777008-47.394898 84.243729 84.243729 0 0 1-20.405703-54.696021 82.839667 82.839667 0 0 1 83.026875-83.463694 84.243729 84.243729 0 0 1 83.557299 84.118923 83.089278 83.089278 0 0 1-19.688072 54.196799 60.936297 60.936297 0 0 0 25.491529 107.207946 60.249867 60.249867 0 0 0 24.39948 0l232.824706 0.90484a64.742866 64.742866 0 0 0 64.898873-65.117282l-0.842438-239.90742c8.455574-34.321519 21.840967-58.783402 52.137508-58.658597a57.909763 57.909763 0 0 1 31.201381 9.360415 69.953497 69.953497 0 0 0 10.421262 8.14356 62.402762 62.402762 0 0 0 10.109247 5.241832 56.162486 56.162486 0 0 0 20.99853 4.180985c38.471303 0 69.547879-39.438546 69.36067-88.362311a81.529209 81.529209 0 0 0-69.984698-88.861534 55.912875 55.912875 0 0 0-20.967328 4.024979 62.80838 62.80838 0 0 0-15.195073 8.736386 72.449607 72.449607 0 0 0-7.737942 6.957908 58.408986 58.408986 0 0 1-36.162401 12.761365c-24.212272 0-33.042263-15.850302-44.836385-39.719358l-0.811235-238.78417a65.834914 65.834914 0 0 0-65.366894-65.678907l-228.487714-0.780035c-35.600776-8.705185-61.435519-22.246585-61.560325-53.510368a58.003368 58.003368 0 0 1 9.142005-31.201382 69.267066 69.267066 0 0 0 8.018754-10.421261 61.341915 61.341915 0 0 0 5.148228-10.109247 56.661708 56.661708 0 0 0 4.024979-21.092134A81.342001 81.342001 0 0 0 407.132059 0.469893a80.000341 80.000341 0 0 0-88.019096 69.672684z" fill="#ff8800" p-id="4342"></path></svg>