<?xml version="1.0" standalone="no"?><!DOCTYPE svg PUBLIC "-//W3C//DTD SVG 1.1//EN" "http://www.w3.org/Graphics/SVG/1.1/DTD/svg11.dtd"><svg t="1699756723344" class="icon" viewBox="0 0 1024 1024" version="1.1" xmlns="http://www.w3.org/2000/svg" p-id="5971" xmlns:xlink="http://www.w3.org/1999/xlink" width="128" height="128"><path d="M676.181333 497.322667l-181.376 259.712c-6.570667 8.576-15.146667 13.141333-24.746666 13.141333a29.056 29.056 0 0 1-13.141334-2.56 32.938667 32.938667 0 0 1-19.2-35.328l29.824-173.312-93.482666-0.512a32.853333 32.853333 0 0 1-28.8-17.706667 30.634667 30.634667 0 0 1 2.517333-33.792l181.376-239.488 1.536-2.048a32.298667 32.298667 0 0 1 20.736-11.605333h4.010667c16.682667 0 31.317333 14.634667 31.317333 32.341333 0 2.517333-0.469333 5.034667-0.981333 7.552l-29.312 152.064h93.482666c13.098667 0 22.698667 6.101333 28.8 17.706667a30.72 30.72 0 0 1-2.56 33.834667M512 128a384 384 0 0 0-384 384 384 384 0 1 0 384-384" fill="#ff8700" p-id="5972"></path></svg>