<?xml version="1.0" standalone="no"?><!DOCTYPE svg PUBLIC "-//W3C//DTD SVG 1.1//EN" "http://www.w3.org/Graphics/SVG/1.1/DTD/svg11.dtd"><svg t="1730860807316" class="icon" viewBox="0 0 1024 1024" version="1.1" xmlns="http://www.w3.org/2000/svg" p-id="9407" xmlns:xlink="http://www.w3.org/1999/xlink" width="512" height="512"><path d="M492.885902 0l19.057778 0.056889v0.853333a481.564444 481.564444 0 0 1 292.579556 121.002667l2.503111 2.275555c2.844444 2.56 5.688889 5.176889 8.476444 7.850667l-10.979555-10.069333a486.513778 486.513778 0 0 1 40.618666 40.618666A481.735111 481.735111 0 0 1 967.11168 483.612444a481.678222 481.678222 0 0 1-118.784 317.44l-3.185778 3.640889a485.944889 485.944889 0 0 1-40.618666 40.618667l11.434666-10.467556c-2.958222 2.787556-5.973333 5.575111-8.988444 8.248889l-2.446222 2.218667a481.507556 481.507556 0 0 1-292.636445 121.059556l0.056889 0.796444h-18.944l-18.887111 0.056889H455.11168v-0.853333a481.507556 481.507556 0 0 1-288.597333-117.589334l-3.982223-3.470222a488.561778 488.561778 0 0 1-40.561777-40.732444l10.808889 11.946666A481.905778 481.905778 0 0 1 0.000569 483.555556c0-129.365333 50.858667-246.897778 133.632-333.710223l-11.662222 12.8a464.042667 464.042667 0 0 1 40.618666-40.732444A481.621333 481.621333 0 0 1 455.11168 0.910222L455.11168 0 492.885902 0z m-191.715555 771.185778l-17.749334 6.712889a537.6 537.6 0 0 0-71.338666 34.816 424.049778 424.049778 0 0 0 186.311111 89.088 598.983111 598.983111 0 0 1-97.166222-130.616889z m364.657777 0l-7.168 12.8a599.608889 599.608889 0 0 1-89.884444 117.816889 424.96 424.96 0 0 0 186.254222-88.974223 526.677333 526.677333 0 0 0-89.144889-41.642666zM455.11168 740.352a539.875556 539.875556 0 0 0-97.848889 14.165333 541.696 541.696 0 0 0 97.848889 123.221334z m57.002667 0v137.386667a542.72 542.72 0 0 0 97.905777-123.221334 537.372444 537.372444 0 0 0-97.848888-14.165333z m397.255111-228.295111l-170.382222 0.056889a594.375111 594.375111 0 0 1-47.900445 207.758222c37.546667 13.824 73.386667 31.402667 106.951111 52.224a425.016889 425.016889 0 0 0 111.331556-259.982222z m-851.512889 0a425.016889 425.016889 0 0 0 111.388444 260.096c33.564444-20.878222 69.347556-38.456889 106.894223-52.337778a593.464889 593.464889 0 0 1-47.843556-207.701333H57.79968z m397.312 0l-169.927111 0.056889a537.6 537.6 0 0 0 45.511111 190.520889A587.662222 587.662222 0 0 1 455.11168 683.406222V512.056889z m56.888889 0v171.349333c42.894222 2.048 84.48 8.533333 124.472889 19.114667 26.055111-58.595556 41.984-122.88 45.511111-190.407111L512.000569 512.056889z m-342.812445-316.871111l-8.874666 9.955555a424.846222 424.846222 0 0 0-102.513778 250.083556L228.238791 455.111111c3.413333-73.500444 20.195556-143.530667 47.843556-207.758222a587.093333 587.093333 0 0 1-106.951111-52.224z m161.450667 69.575111l-5.518222 12.8c-22.755556 55.182222-36.693333 114.972444-39.936 177.607111H455.11168V283.875556a596.593778 596.593778 0 0 1-124.472889-19.114667z m467.228444-69.688889l-2.048 1.365333c-32.995556 20.252444-68.039111 37.432889-104.789333 51.029334 27.704889 64.170667 44.373333 134.200889 47.900445 207.644444l170.382222 0.113778a425.016889 425.016889 0 0 0-111.502222-260.152889z m-161.393777 69.575111l-7.736889 2.104889a596.764444 596.764444 0 0 1-116.679111 17.066667L512.000569 455.168h169.927111a537.6 537.6 0 0 0-45.511111-190.520889zM455.11168 89.543111a542.72 542.72 0 0 0-97.905778 123.107556c31.573333 7.68 64.284444 12.515556 97.848889 14.222222V89.543111z m56.888889 0l0.056889 137.329778a540.16 540.16 0 0 0 97.848889-14.108445 541.411556 541.411556 0 0 0-97.848889-123.221333zM398.393458 65.422222l-8.931556 1.934222A424.96 424.96 0 0 0 221.867236 146.602667l-9.841778 7.964444c28.216889 16.384 58.026667 30.378667 89.201778 41.528889a597.788444 597.788444 0 0 1 97.109333-130.616889z m170.439111 0l4.721778 4.835556c35.953778 37.546667 67.128889 79.758222 92.387555 125.667555a528.497778 528.497778 0 0 0 89.144889-41.415111 424.220444 424.220444 0 0 0-186.254222-89.088z" fill="#FCAB58" p-id="9408"></path></svg>