<?xml version="1.0" standalone="no"?><!DOCTYPE svg PUBLIC "-//W3C//DTD SVG 1.1//EN" "http://www.w3.org/Graphics/SVG/1.1/DTD/svg11.dtd"><svg t="1715936633654" class="icon" viewBox="0 0 1024 1024" version="1.1" xmlns="http://www.w3.org/2000/svg" p-id="2928" xmlns:xlink="http://www.w3.org/1999/xlink" width="512" height="512"><path d="M512 921.6a416.9728 416.9728 0 0 1-358.4-412.7744V366.592a102.4 102.4 0 0 1 51.2-88.8832l256-146.2272a102.4 102.4 0 0 1 101.5808 0L819.2 277.7088a102.4 102.4 0 0 1 51.2 88.8832v142.1312A416.8704 416.8704 0 0 1 512 921.6z" fill="#2A44A1" p-id="2929"></path><path d="M483.84 121.9584a99.328 99.328 0 0 0-22.6304 9.5232L204.8 277.7088a102.4 102.4 0 0 0-51.2 88.8832v145.5104a256 256 0 0 0 330.1376-390.144z" fill="#FFBA40" p-id="2930"></path><path d="M512 806.1952A297.8816 297.8816 0 0 1 256 512V392.192a42.5984 42.5984 0 0 1 21.504-36.9664l213.2992-121.9584a42.9056 42.9056 0 0 1 42.3936 0L746.496 355.2256A42.5984 42.5984 0 0 1 768 392.192v119.1936a297.7792 297.7792 0 0 1-256 294.8096z" fill="#3D60F6" p-id="2931"></path><path d="M477.9008 609.28a25.2928 25.2928 0 0 1-18.5344-7.9872l-68.3008-71.68a25.6 25.6 0 1 1 37.0688-35.2256l49.7664 52.224 117.9648-123.904a25.6 25.6 0 0 1 37.0688 35.2256l-136.4992 143.36a25.4976 25.4976 0 0 1-18.5344 7.9872z" fill="#FFFFFF" p-id="2932"></path><path d="M768 716.8a51.2 51.2 0 0 0-27.5456 94.208 418.5088 418.5088 0 0 0 64.512-78.2336A51.2 51.2 0 0 0 768 716.8z" fill="#36C196" p-id="2933"></path></svg>