<?xml version="1.0" standalone="no"?><!DOCTYPE svg PUBLIC "-//W3C//DTD SVG 1.1//EN" "http://www.w3.org/Graphics/SVG/1.1/DTD/svg11.dtd"><svg t="1693130239012" class="icon" viewBox="0 0 1024 1024" version="1.1" xmlns="http://www.w3.org/2000/svg" p-id="4877" xmlns:xlink="http://www.w3.org/1999/xlink" width="200" height="200"><path d="M938.24 772.394667H609.557333c-47.317333 0-85.781333-38.250667-85.781333-85.248V470.4c0-46.997333 38.485333-85.226667 85.781333-85.226667H938.24c47.296 0 85.76 38.229333 85.76 85.226667v216.746667c0 46.997333-38.464 85.248-85.76 85.248zM609.557333 427.84c-23.765333 0-43.114667 19.093333-43.114666 42.56v216.746667c0 23.488 19.349333 42.581333 43.114666 42.581333H938.24c23.744 0 43.093333-19.114667 43.093333-42.581333V470.4c0-23.466667-19.328-42.56-43.093333-42.56H609.557333z" p-id="4878" fill="#ffffff"></path><path d="M923.114667 427.861333a21.333333 21.333333 0 0 1-21.333334-21.333333V315.52c0-69.845333-57.365333-126.677333-127.914666-126.677333-20.202667 0-39.530667 4.522667-57.429334 13.461333-43.477333 21.717333-70.485333 65.088-70.485333 113.216v91.008a21.333333 21.333333 0 1 1-42.666667 0V315.52c0-64.405333 36.053333-122.410667 94.101334-151.402667a172.117333 172.117333 0 0 1 76.48-17.941333c94.058667 0 170.581333 75.968 170.581333 169.344v91.008a21.333333 21.333333 0 0 1-21.333333 21.333333zM824.341333 556.224a50.218667 50.218667 0 0 0-50.410666-50.005333 50.176 50.176 0 0 0-50.432 50.005333 50.133333 50.133333 0 0 0 31.637333 46.378667v79.168h37.568v-79.168a50.090667 50.090667 0 0 0 31.637333-46.378667z" p-id="4879" fill="#ffffff"></path><path d="M682.794667 1024H112.448C50.453333 1024 0 973.909333 0 912.341333V111.68C0 50.090667 50.453333 0 112.448 0h570.368c61.994667 0 112.448 50.090667 112.448 111.68v55.808a21.333333 21.333333 0 1 1-42.666667 0V111.68C752.576 73.621333 721.301333 42.666667 682.816 42.666667H112.448C73.962667 42.666667 42.666667 73.621333 42.666667 111.68v800.661333C42.666667 950.378667 73.962667 981.333333 112.448 981.333333h570.346667c38.464 0 69.76-30.954667 69.76-68.992v-161.28a21.333333 21.333333 0 1 1 42.666666 0v161.28C795.2 973.909333 744.768 1024 682.794667 1024z" p-id="4880" fill="#ffffff"></path><path d="M679.317333 834.133333H115.925333a21.333333 21.333333 0 0 1-21.333333-21.333333V126.037333a21.333333 21.333333 0 0 1 21.333333-21.333333h563.392a21.333333 21.333333 0 0 1 21.333334 21.333333v75.050667a21.333333 21.333333 0 1 1-42.666667 0V147.370667H137.258667V791.466667h520.725333v-40.405334a21.333333 21.333333 0 1 1 42.666667 0V812.8a21.333333 21.333333 0 0 1-21.333334 21.333333zM439.018667 930.176h-82.794667a21.333333 21.333333 0 1 1 0-42.666667h82.794667a21.333333 21.333333 0 1 1 0 42.666667z" p-id="4881" fill="#ffffff"></path></svg>