<?xml version="1.0" standalone="no"?><!DOCTYPE svg PUBLIC "-//W3C//DTD SVG 1.1//EN" "http://www.w3.org/Graphics/SVG/1.1/DTD/svg11.dtd"><svg t="1689921476585" class="icon" viewBox="0 0 1024 1024" version="1.1" xmlns="http://www.w3.org/2000/svg" p-id="1758" xmlns:xlink="http://www.w3.org/1999/xlink" width="200" height="200"><path d="M705.122 101.804h-6.59c-21.288 0-38.608 17.32-38.608 38.606v611.808c0 21.288 17.32 38.606 38.608 38.606h6.59c21.288 0 38.608-17.32 38.608-38.606V140.41c0-21.286-17.32-38.606-38.608-38.606z m26.642 650.414c0 14.69-11.952 26.64-26.642 26.64h-6.59c-14.69 0-26.64-11.95-26.64-26.64V140.41c0-14.69 11.952-26.64 26.64-26.64h6.59c14.69 0 26.642 11.95 26.642 26.64v611.808z" fill="#4B555F" p-id="1759"></path><path d="M704.216 128.638h-4.78a12.678 12.678 0 0 0-12.678 12.678v610c0 7 5.676 12.676 12.676 12.676h4.784a12.678 12.678 0 0 0 12.678-12.678V141.316a12.68 12.68 0 0 0-12.68-12.678z" fill="#F58E70" p-id="1760"></path><path d="M45.202 273.332h-6.594C17.318 273.332 0 290.65 0 311.938v281.458c0 21.288 17.318 38.606 38.608 38.606h6.594c21.284 0 38.604-17.32 38.604-38.606V311.938c0-21.288-17.32-38.606-38.604-38.606z m26.636 320.064c0 14.69-11.952 26.64-26.636 26.64h-6.594c-14.69 0-26.64-11.95-26.64-26.64V311.938c0-14.688 11.952-26.638 26.64-26.638h6.594c14.686 0 26.636 11.95 26.636 26.638v281.458z" fill="#4B555F" p-id="1761"></path><path d="M44.296 300.166h-4.784a12.68 12.68 0 0 0-12.68 12.68v279.644a12.68 12.68 0 0 0 12.68 12.68h4.784a12.678 12.678 0 0 0 12.678-12.678V312.844a12.678 12.678 0 0 0-12.678-12.678z" fill="#F58E70" p-id="1762"></path><path d="M71.838 297.372v297.886l600.052 161.47V135.9L71.838 297.372z m588.086 443.742L83.806 586.086V306.542l576.118-155.03v589.602z" fill="#4B555F" p-id="1763"></path><path d="M98.674 317.938v256.752l546.384 147.03V170.91z" fill="#71CBDF" p-id="1764"></path><path d="M155.38 605.346l93.006 316.85h102.78V658.03L155.38 605.346z m183.82 304.884h-81.854L172.87 622.444l166.33 44.758v243.028z" fill="#4B555F" p-id="1765"></path><path d="M194.598 643.686l73.876 251.676h55.862V678.596z" fill="#F58E70" p-id="1766"></path><path d="M798.884 391.532c-16.338-16.338-38.054-25.336-61.15-25.336h-5.982v172.932h5.982c23.096 0 44.812-8.998 61.146-25.332 16.342-16.294 25.34-37.998 25.34-61.114 0-23.094-8.998-44.81-25.336-61.15z m-8.46 113.798c-12.66 12.658-29.064 20.204-46.706 21.598V378.4c17.646 1.394 34.046 8.938 46.706 21.596 14.078 14.08 21.83 32.792 21.83 52.688 0 19.912-7.752 38.606-21.83 52.646z" fill="#4B555F" p-id="1767"></path><path d="M779.912 410.508a59.48 59.48 0 0 0-21.33-13.746v111.8a59.566 59.566 0 0 0 21.35-13.768c11.26-11.222 17.458-26.178 17.458-42.11 0-15.928-6.206-30.906-17.478-42.176z" fill="#71CBDF" p-id="1768"></path><path d="M1024 442.98l-4.2-11.206-81.566 30.586 21.172-49.4-102.838 36.506 4.004 11.278 77.058-27.358-21.436 50.02zM976.912 235.596l-76.046 75.922-1.36-64.534-92.402 89.052 8.306 8.616 72.706-70.072 1.376 65.202 95.874-95.716zM882.64 618.48l54.332-34.954-124.216-32.198-3 11.582 97.752 25.34-54.894 35.318 131.712 31.67 2.796-11.634zM486.344 119.124l-11.128 26.638-23.836-16.092-11.068 26.48-23.422-16.216-11.134 26.652-23.964-16.132-10.63 26.374-23.366-16.154-11.128 26.638-23.836-16.092-11.07 26.482-23.416-16.218-11.14 26.654-23.958-16.13-13.428 33.28 11.096 4.478 7.902-19.582 23.802 16.026 11.062-26.472 23.424 16.218 11.132-26.646 23.836 16.092 11.068-26.484 23.528 16.264 10.7-26.55 23.802 16.026 11.062-26.47 23.424 16.214 11.128-26.642 23.836 16.092 11.068-26.486 17.376 12.008 6.802-9.844z" fill="#4B555F" p-id="1769"></path></svg>