<?xml version="1.0" standalone="no"?><!DOCTYPE svg PUBLIC "-//W3C//DTD SVG 1.1//EN" "http://www.w3.org/Graphics/SVG/1.1/DTD/svg11.dtd"><svg t="1717396239015" class="icon" viewBox="0 0 1280 1024" version="1.1" xmlns="http://www.w3.org/2000/svg" p-id="9735" xmlns:xlink="http://www.w3.org/1999/xlink" width="640" height="512"><path d="M886.153846 862.523077c-41.353846-92.553846-96.492308-173.292308-157.538461-232.369231-19.692308-17.723077-23.630769-49.230769-9.846154-72.861538 35.446154-57.107692 57.107692-128 53.169231-202.83077C764.061538 183.138462 630.153846 43.323077 468.676923 39.384615 293.415385 35.446154 151.630769 185.107692 151.630769 370.215385c0 68.923077 19.692308 131.938462 53.169231 185.107692 13.784615 23.630769 9.846154 53.169231-9.846154 70.892308-61.046154 59.076923-114.215385 139.815385-155.569231 230.4C7.876923 925.538462 53.169231 1004.307692 124.061538 1004.307692h677.415385c68.923077 0 116.184615-76.8 84.676923-141.784615z" fill="#F7D11E" p-id="9736"></path><path d="M813.292308 1024H129.969231c-41.353846 0-80.738462-23.630769-102.4-61.046154-21.661538-37.415385-23.630769-84.676923-5.907693-124.061538 45.292308-96.492308 100.430769-181.169231 163.446154-240.246154 9.846154-9.846154 11.815385-25.6 5.907693-37.415385-37.415385-59.076923-59.076923-129.969231-59.076923-200.861538C131.938462 161.476923 285.538462 0 472.615385 0h7.876923c177.230769 3.938462 322.953846 153.6 332.8 340.676923 3.938462 78.769231-15.753846 155.569231-57.107693 220.553846-7.876923 11.815385-3.938462 27.569231 5.907693 37.415385 63.015385 61.046154 120.123077 145.723077 165.415384 242.215384 17.723077 39.384615 15.753846 84.676923-5.907692 120.123077-25.6 39.384615-64.984615 63.015385-108.307692 63.015385zM472.615385 53.169231c-159.507692 0-289.476923 137.846154-289.476923 305.230769 0 61.046154 17.723077 120.123077 49.230769 171.323077 21.661538 33.476923 15.753846 78.769231-13.784616 108.307692-57.107692 55.138462-110.276923 133.907692-151.630769 224.492308-9.846154 23.630769-9.846154 51.2 3.938462 72.861538s35.446154 35.446154 59.076923 35.446154h683.323077c25.6 0 47.261538-13.784615 61.046154-35.446154 11.815385-21.661538 13.784615-47.261538 3.938461-68.923077-41.353846-90.584615-94.523077-169.353846-153.6-226.461538-29.538462-27.569231-35.446154-74.830769-13.784615-108.307692 35.446154-55.138462 53.169231-120.123077 49.230769-187.076923-7.876923-157.538462-133.907692-287.507692-283.569231-289.476923l-3.938461-1.969231z" fill="#885F44" p-id="9737"></path><path d="M1201.230769 862.523077c-41.353846-92.553846-96.492308-173.292308-157.538461-232.369231-19.692308-17.723077-23.630769-49.230769-9.846154-72.861538 35.446154-57.107692 57.107692-128 53.169231-202.83077C1079.138462 183.138462 945.230769 43.323077 783.753846 39.384615c-175.261538-3.938462-317.046154 145.723077-317.046154 330.83077 0 68.923077 19.692308 131.938462 53.169231 185.107692 13.784615 23.630769 9.846154 53.169231-9.846154 70.892308-61.046154 59.076923-114.215385 139.815385-155.569231 230.4-31.507692 68.923077 13.784615 147.692308 84.676924 147.692307h677.415384c68.923077 0 116.184615-76.8 84.676923-141.784615z" fill="#FFFFFF" p-id="9738"></path><path d="M1148.061538 1024H464.738462c-41.353846 0-80.738462-23.630769-102.4-61.046154-21.661538-37.415385-23.630769-84.676923-5.907693-124.061538 45.292308-96.492308 100.430769-181.169231 163.446154-240.246154 9.846154-9.846154 11.815385-25.6 5.907692-37.415385-37.415385-59.076923-59.076923-129.969231-59.076923-200.861538C466.707692 161.476923 620.307692 0 807.384615 0h7.876923c177.230769 3.938462 322.953846 153.6 332.8 340.676923 3.938462 78.769231-15.753846 155.569231-57.107692 220.553846-7.876923 11.815385-3.938462 27.569231 5.907692 37.415385 63.015385 61.046154 120.123077 145.723077 165.415385 242.215384 17.723077 39.384615 15.753846 84.676923-5.907692 120.123077-25.6 39.384615-64.984615 63.015385-108.307693 63.015385zM807.384615 53.169231c-159.507692 0-289.476923 137.846154-289.476923 305.230769 0 61.046154 17.723077 120.123077 49.23077 171.323077 21.661538 33.476923 15.753846 78.769231-13.784616 108.307692-57.107692 55.138462-110.276923 133.907692-151.630769 224.492308-9.846154 23.630769-9.846154 51.2 3.938461 72.861538s35.446154 35.446154 59.076924 35.446154h683.323076c25.6 0 47.261538-13.784615 61.046154-35.446154 11.815385-21.661538 13.784615-47.261538 3.938462-68.923077-41.353846-90.584615-94.523077-169.353846-153.6-226.461538-29.538462-27.569231-35.446154-74.830769-13.784616-108.307692 35.446154-55.138462 53.169231-120.123077 49.23077-187.076923-7.876923-157.538462-133.907692-287.507692-283.569231-289.476923l-3.938462-1.969231z" fill="#885F44" p-id="9739"></path></svg>