<?xml version="1.0" standalone="no"?><!DOCTYPE svg PUBLIC "-//W3C//DTD SVG 1.1//EN" "http://www.w3.org/Graphics/SVG/1.1/DTD/svg11.dtd"><svg t="1707975441631" class="icon" viewBox="0 0 1024 1024" version="1.1" xmlns="http://www.w3.org/2000/svg" p-id="37948" xmlns:xlink="http://www.w3.org/1999/xlink" width="128" height="128"><path d="M512 0c286.72 0 512 225.28 512 512s-225.28 512-512 512-512-225.28-512-512 225.28-512 512-512z m286.72 317.44c-10.24-20.48-40.96-20.48-51.2 0l-307.2 276.48-102.4-92.16c-20.48-30.72-40.96-40.96-51.2-51.2l-10.24-10.24c-20.48-10.24-40.96 0-51.2 10.24-10.24 20.48-10.24 40.96 10.24 61.44l30.72 30.72L409.6 665.6c10.24 10.24 40.96 10.24 51.2 0l327.68-296.96 10.24-10.24c10.24-10.24 10.24-30.72 0-40.96z" fill="#00B050" p-id="37949"></path></svg>