<?xml version="1.0" standalone="no"?><!DOCTYPE svg PUBLIC "-//W3C//DTD SVG 1.1//EN" "http://www.w3.org/Graphics/SVG/1.1/DTD/svg11.dtd"><svg t="1737788694428" class="icon" viewBox="0 0 1068 1024" version="1.1" xmlns="http://www.w3.org/2000/svg" p-id="5160" xmlns:xlink="http://www.w3.org/1999/xlink" width="534" height="512"><path d="M900.50003 177.716457l10.003498-155.115963a21.180245 21.180245 0 0 0-34.518242-17.783995l-37.173491 30.133992a30.874992 30.874992 0 0 0-0.92625 0.80275l-160.98221 141.592716a12.349997 12.349997 0 0 0-4.075499 7.903998l-18.463246 159.500211-137.208466 117.139721 24.699994-122.88247a191.424953 191.424953 0 0 0-228.845444 188.460954 191.424953 191.424953 0 0 0 190.869203 192.227703 191.424953 191.424953 0 0 0 190.992703-192.227703H582.302358l133.379967-121.64747 169.441959 4.322499a12.349997 12.349997 0 0 0 8.768498-3.272749l161.35271-151.287463 3.02575-2.717a30.874992 30.874992 0 0 0-18.833746-53.598987l-127.451969-8.397998a12.349997 12.349997 0 0 1-11.485497-13.152746z" fill="#226AE5" p-id="5161"></path><path d="M816.890551 524.319122c-93.180727 207.479949-196.858952 311.219924-311.096424 311.219924-171.973708 0-311.034674-140.048966-311.034675-313.195924 0-173.146958 139.060966-313.195924 311.034675-313.195923 14.325997 0 35.444491 2.099499 63.231984 6.360248l38.593741-185.249954C563.777362 23.897244 529.197371 20.686245 503.879877 20.686245 226.375445 20.686245 0 246.07369 0 522.343122c0 276.948682 226.375445 501.656878 503.879877 501.656878 273.181933 0 494.432129-215.816197 503.879877-483.193632V526.789121l-190.869203-2.469999z" fill="#226AE5" fill-opacity=".4" p-id="5162"></path></svg>