<?xml version="1.0" standalone="no"?><!DOCTYPE svg PUBLIC "-//W3C//DTD SVG 1.1//EN" "http://www.w3.org/Graphics/SVG/1.1/DTD/svg11.dtd"><svg t="1705764298269" class="icon" viewBox="0 0 1026 1024" version="1.1" xmlns="http://www.w3.org/2000/svg" p-id="11022" xmlns:xlink="http://www.w3.org/1999/xlink" width="128.25" height="128"><path d="M943.708293 887.694855H593.81257q-15.994502 0-31.989004-7.005592T537.831813 863.703102q-14.011184-11.995876-19.001468-26.00706t-7.005592-31.989004L513.84006 81.955828q-2.015307-18.009809 4.990285-32.980663t16.986161-24.983412q11.995876-11.995876 26.00706-18.009809t34.004311-6.013933h345.897098q19.993127 0 34.004311 6.013933t26.00706 18.009809q10.012558 10.012558 16.986161 24.983412t4.990285 32.980663l2.015307 723.75121q-2.015307 18.009809-7.005592 31.989004t-19.001468 26.00706q-7.997251 10.012558-23.991753 16.986161t-31.989004 7.005592zM593.81257 34.004311q-7.997251 0-18.009809 3.998625t-14.011184 10.012559q-7.997251 6.013933-11.004217 15.002842t-4.990285 19.001469l2.015307 723.75121q-2.015307 10.012558 3.006967 19.001468t8.98891 15.002843q7.997251 6.013933 15.994502 10.012558t19.993127 3.998626h345.897098q11.995876 0 19.993127-3.998626t15.994502-10.012558q3.998625-6.013933 8.98891-15.002843t3.006967-19.001468l2.015307-723.75121q-2.015307-10.012558-4.990285-19.001469t-11.004217-15.002842q-3.998625-6.013933-14.011184-10.012559t-18.009809-3.998625H593.780581zM991.691799 135.953266H545.829064q-3.998625 0-10.012558-4.990285t-3.998625-11.004217q-2.015307-7.997251 3.998625-12.987535T545.829064 101.980944h445.862735q3.998625 0 10.012558 4.990285t3.998626 12.987535q2.015307 6.013933-3.998626 11.004217t-10.012558 4.990285z m-2.015307 613.805005H547.812382q-7.997251 0-11.995876-4.990285t-6.013933-11.004217q2.015307-7.997251 6.013933-12.987536t11.995876-4.990284h441.86411q7.997251 0 11.995876 4.990284t6.013933 12.987536q-2.015307 6.013933-6.013933 11.004217t-11.995876 4.990285zM803.756402 1023.648121H76.006566q-14.011184 0-28.982038-7.997251t-23.000093-19.993127q-11.995876-14.011184-16.986161-30.005686t-7.005592-31.989004l2.015307-339.883165q-2.015307-18.009809 4.990285-32.980663t15.002842-24.983412q11.995876-11.995876 24.983412-18.009809t30.997345-6.013933h433.866858q10.012558 0 14.011184 4.990285t6.013933 12.987536q-2.015307 6.013933-6.013933 11.004217t-14.011184 4.990284H78.021873q-10.012558 0-16.986161 3.998626t-15.002843 10.012558q-3.998625 6.013933-7.997251 14.011184t-2.015307 19.993127L34.005004 933.663053l3.998625 19.993128 10.012558 18.009809q3.998625 7.997251 12.987536 12.987535t15.002843 4.990285h727.749836q7.997251 0 18.009809-4.990285t14.011184-12.987535q10.012558-7.997251 14.011183-18.009809t6.013933-19.993128l-2.015307-46.000187q2.015307-7.997251 6.013932-12.987536t11.995877-4.990284q6.013933 0 11.995876 4.990284t3.998626 12.987536l2.015307 46.000187q-2.015307 18.009809-7.997251 34.004311t-19.993127 27.990379q-10.012558 11.995876-26.99872 19.993127t-30.997344 7.997251z m-683.764956-17.97782q-6.013933 0-11.995876-4.990285t-3.998626-11.004217l-2.015307-443.847428q2.015307-6.013933 6.013933-11.004217t14.011183-4.990284q3.998625 0 10.012558 4.990284t3.998626 11.004217l2.015307 443.847428q-2.015307 6.013933-6.013933 11.004217t-11.995876 4.990285z m615.788323 0q-10.012558 0-14.011184-4.990285t-6.013933-11.004217l2.015308-101.980944q-2.015307-7.997251 3.998625-12.987536t11.995876-4.990284q7.997251 0 11.995877 4.990284t6.013933 12.987536l-2.015308 101.980944q2.015307 6.013933-3.998625 11.004217t-10.012558 4.990285z" p-id="11023"></path></svg>