<?xml version="1.0" encoding="UTF-8"?>
<svg width="18px" height="21px" viewBox="0 0 18 21" version="1.1" xmlns="http://www.w3.org/2000/svg" xmlns:xlink="http://www.w3.org/1999/xlink">
    <title>ic_5@2x</title>
    <g id="页面-1" stroke="none" stroke-width="1" fill="none" fill-rule="evenodd">
        <g id="画板" transform="translate(-154.000000, -307.000000)" fill="#FF934A" fill-rule="nonzero">
            <g id="ic_5" transform="translate(154.000000, 307.000000)">
                <path d="M1.38461538,9.69230769 C1.42334622,12.0789988 2.71093926,14.2705347 4.77692308,15.4661538 L9,18.36 L13.2230769,15.4315385 C15.2796242,14.2432613 16.5659815,12.0669548 16.6153846,9.69230769 L16.6153846,4.36153846 C13.915629,4.31160254 11.2814121,3.52133747 9,2.07692308 C6.71814269,3.52036113 4.08420528,4.31054235 1.38461538,4.36153846 L1.38461538,9.69230769 Z M0,2.86615385 C4.00153846,2.86615385 7.00153846,1.91076923 9,0 C10.9938462,1.91076923 13.9938462,2.86615385 18,2.86615385 L18,9.73384615 C17.9811078,12.6498487 16.4678144,15.352345 13.9915385,16.8923077 L9,20.0769231 L4.00846154,16.8923077 C1.53218559,15.352345 0.0188921803,12.6498487 0,9.73384615 L0,2.86615385 Z" id="形状"></path>
                <g id="编组-8" transform="translate(7.000000, 6.000000)">
                    <path d="M2,0 C3.1045695,0 4,0.916202007 4,2.04639446 C4,2.7775008 3.61880218,3.45307092 3,3.8186241 L3.024,3.802 L3.01846532,6.95538994 C3.01682397,7.5331164 2.55888388,8 1.9958966,8 L1.99425525,8 C1.72320328,7.99955555 1.46344976,7.88884108 1.27224922,7.69226012 C1.08104869,7.49567916 0.974097329,7.2293696 0.974963941,6.95203106 L0.979540681,3.8063726 C0.372806271,3.4381096 0,2.76940886 0,2.04639446 C0,0.916202007 0.8954305,0 2,0 Z" id="形状结合"></path>
                </g>
            </g>
        </g>
    </g>
</svg>