<?xml version="1.0" standalone="no"?><!DOCTYPE svg PUBLIC "-//W3C//DTD SVG 1.1//EN" "http://www.w3.org/Graphics/SVG/1.1/DTD/svg11.dtd"><svg t="1707451378070" class="icon" viewBox="0 0 1024 1024" version="1.1" xmlns="http://www.w3.org/2000/svg" p-id="17547" xmlns:xlink="http://www.w3.org/1999/xlink" width="128" height="128"><path d="M223.488 170.666667H186.197333A15.509333 15.509333 0 0 0 170.666667 186.176v651.648c0 8.618667 6.997333 15.509333 15.530666 15.509333h37.290667a15.509333 15.509333 0 0 0 15.530667-15.509333V186.261333A15.466667 15.466667 0 0 0 223.488 170.666667z m614.314667 73.066666c-183.509333 147.797333-367.018667-175.018667-550.613334-27.306666-8.554667 6.869333-15.552 20.629333-15.552 29.162666v417.6c0 8.618667 6.997333 8.725333 15.552 1.834667 183.488-147.797333 367.104 175.146667 550.613334 27.328 8.64-6.869333 15.530667-20.629333 15.530666-29.162667V245.589333c0.085333-8.533333-6.890667-8.746667-15.530666-1.856z" fill="#f4ea2a" p-id="17548"></path></svg>