<?xml version="1.0" standalone="no"?><!DOCTYPE svg PUBLIC "-//W3C//DTD SVG 1.1//EN" "http://www.w3.org/Graphics/SVG/1.1/DTD/svg11.dtd"><svg t="1665469265463" class="icon" viewBox="0 0 1024 1024" version="1.1" xmlns="http://www.w3.org/2000/svg" p-id="3613" xmlns:xlink="http://www.w3.org/1999/xlink" width="96" height="96"><path d="M926.95226 849.86H167.17426c-24.69 0-44.706-20.016-44.706-44.706V483.64l424.594-18 424.594 18V805.156c0 24.69-20.014 44.704-44.704 44.704z" fill="#F6E080" p-id="3614"></path><path d="M926.95226 830.544H167.17426c-24.69 0-44.706-20.016-44.706-44.706v37.316c0 24.69 20.016 44.706 44.706 44.706h321.212l58.678-18 58.678 18h321.212c24.69 0 44.706-20.016 44.706-44.706v-37.316c-0.004 24.69-20.018 44.706-44.708 44.706z" fill="#ECCD61" p-id="3615"></path><path d="M1001.64826 367.518H838.26026l-291.198-18-291.198 18H92.47826c-12.344 0-22.352 10.008-22.352 22.352v53.416c0 12.344 10.008 22.352 22.352 22.352h909.17c12.344 0 22.352-10.008 22.352-22.352v-53.416c0-12.344-10.008-22.352-22.352-22.352z" fill="#F6E080" p-id="3616"></path><path d="M1001.64826 446.324H92.47826c-12.344 0-22.352-10.008-22.352-22.352v37.318c0 12.346 10.008 22.352 22.352 22.352h909.17c12.344 0 22.352-10.008 22.352-22.352v-37.318c0 12.344-10.008 22.352-22.352 22.352z" fill="#ECCD61" p-id="3617"></path><path d="M605.74026 830.544l-58.678 18-58.678-18V483.64l58.678-18 58.678 18z" fill="#DC4955" p-id="3618"></path><path d="M488.38426 830.544h117.356v37.318h-117.356z" fill="#D82F3C" p-id="3619"></path><path d="M178.61626 657.868a15.55 15.55 0 0 1-8.236-28.748c90.52-56.388 144.524-126.972 173.892-176.256 31.95-53.618 42.53-94.42 42.634-94.826a15.56 15.56 0 0 1 18.882-11.256 15.54 15.54 0 0 1 11.274 18.852c-0.452 1.798-11.46 44.734-45.404 102.02-31.158 52.584-88.516 127.86-184.832 187.86a15.51 15.51 0 0 1-8.21 2.354z" fill="#CF8151" p-id="3620"></path><path d="M94.48026 797.056L3.03626 705.61a10.366 10.366 0 0 1 0-14.66l112.102-112.102a10.366 10.366 0 0 1 14.66 0l91.444 91.444-51.534 81.444z" fill="#E7ECF1" p-id="3621"></path><path d="M221.24226 670.292L94.48026 797.056l20.658 20.658a10.366 10.366 0 0 0 14.66 0l112.102-112.102a10.366 10.366 0 0 0 0-14.66z" fill="#C6D0DA" p-id="3622"></path><path d="M594.69026 330.202l-18-26.706 18-24.968s161.654-187.754 225.654-98.164c35.146 49.198 32.994 111.034 26.67 149.838l-126.162 18z" fill="#DC4955" p-id="3623"></path><path d="M838.26026 367.518H594.69026l-18-18.658 18-18.658h252.324c-3.674 22.54-8.754 37.316-8.754 37.316z" fill="#D82F3C" p-id="3624"></path><path d="M499.43426 330.202l18-26.706-18-24.968S337.78026 90.774 273.78026 180.364c-35.146 49.198-32.994 111.034-26.67 149.838l126.162 18z" fill="#DC4955" p-id="3625"></path><path d="M255.86426 367.518h243.57l18-18.658-18-18.658H247.11226c3.672 22.54 8.752 37.316 8.752 37.316z" fill="#D82F3C" p-id="3626"></path><path d="M594.69026 330.202l-47.628 18-47.628-18v-51.674h95.256z" fill="#C42D41" p-id="3627"></path><path d="M499.43426 330.202h95.254v37.318h-95.254z" fill="#B72D47" p-id="3628"></path><path d="M625.53426 367.518h-156.942v78.806l78.47 18 78.472-18z" fill="#DC4955" p-id="3629"></path><path d="M468.59226 446.324h156.942v37.318h-156.942z" fill="#D82F3C" p-id="3630"></path><path d="M107.20626 646.358a15.58 15.58 0 0 0 0 22.032l44.8 44.8a15.53 15.53 0 0 0 11.016 4.564 15.58 15.58 0 0 0 11.016-26.596l-44.8-44.8a15.582 15.582 0 0 0-22.032 0zM91.41626 684.182a15.58 15.58 0 1 0-22.032 22.032l44.798 44.798a15.53 15.53 0 0 0 11.016 4.564 15.58 15.58 0 0 0 11.016-26.596z" fill="#808B95" p-id="3631"></path></svg>