<?xml version="1.0" standalone="no"?><!DOCTYPE svg PUBLIC "-//W3C//DTD SVG 1.1//EN" "http://www.w3.org/Graphics/SVG/1.1/DTD/svg11.dtd"><svg t="1700483989950" class="icon" viewBox="0 0 1024 1024" version="1.1" xmlns="http://www.w3.org/2000/svg" p-id="4185" xmlns:xlink="http://www.w3.org/1999/xlink" width="128" height="128"><path d="M828.458667 284.970667C872.405333 331.648 896 384 896 468.864c0 149.333333-104.832 283.178667-257.28 349.354667l-38.101333-58.794667c142.293333-76.970667 170.112-176.853333 181.205333-239.829333-22.912 11.861333-52.906667 16-82.304 13.269333-76.970667-7.125333-137.642667-70.314667-137.642667-148.864a149.333333 149.333333 0 0 1 149.333334-149.333333c45.781333 0 89.557333 20.906667 117.248 50.304z m-426.666667 0C445.738667 331.648 469.333333 384 469.333333 468.864c0 149.333333-104.832 283.178667-257.28 349.354667l-38.101333-58.794667c142.293333-76.970667 170.112-176.853333 181.205333-239.829333-22.912 11.861333-52.906667 16-82.304 13.269333C195.882667 525.738667 135.253333 462.549333 135.253333 384a149.333333 149.333333 0 0 1 149.333334-149.333333c45.781333 0 89.557333 20.906667 117.248 50.304h-0.042667z" p-id="4186" fill="#ffffff"></path></svg>