<?xml version="1.0" standalone="no"?><!DOCTYPE svg PUBLIC "-//W3C//DTD SVG 1.1//EN" "http://www.w3.org/Graphics/SVG/1.1/DTD/svg11.dtd"><svg t="1716947915524" class="icon" viewBox="0 0 1024 1024" version="1.1" xmlns="http://www.w3.org/2000/svg" p-id="13327" xmlns:xlink="http://www.w3.org/1999/xlink" width="512" height="512"><path d="M896 896H640c-35.392 0-64-28.608-64-64s28.608-64 64-64h256c35.392 0 64 28.608 64 64s-28.608 64-64 64z m-448-64a192 192 0 0 0 192 192H128a64 64 0 0 1-64-64c0-128 123.712-247.424 250.176-294.656C241.152 620.224 192 540.096 192 448v-64c0-141.376 114.624-256 256-256s256 114.624 256 256v64c0 79.296-37.632 148.224-94.4 195.072C518.08 657.728 448 736.384 448 832z" p-id="13328" fill="#d81e06"></path></svg>