<svg xmlns="http://www.w3.org/2000/svg" width="24" height="22.211" viewBox="0 0 24 22.211">
  <path id="重复" d="M38.623,36.941a.788.788,0,0,0,.809.765h.626a.787.787,0,0,0,.808-.764v-5.83a.787.787,0,0,0-.809-.765H33.793a.788.788,0,0,0-.809.764V31.7a.788.788,0,0,0,.809.765h2.327a10.864,10.864,0,0,0-4.387,10.773A11,11,0,0,0,43.56,52.505l.17-.012v-2.1l-.191.009a9.091,9.091,0,0,1-9.6-7.539,8.914,8.914,0,0,1,4.68-9.446V36.94ZM51.106,50.417a11.194,11.194,0,0,0-7.57-20.068l-.17.012V32.5l.191-.009a9.09,9.09,0,0,1,4.214,17.422V45.928a.784.784,0,0,0-.8-.766h-.619a.784.784,0,0,0-.8.766v5.839a.783.783,0,0,0,.8.766H52.54a.784.784,0,0,0,.8-.766v-.585a.784.784,0,0,0-.8-.766H51.106Z" transform="translate(-31.548 -30.322)" fill="#f69149"/>
</svg>
