<?xml version="1.0" standalone="no"?><!DOCTYPE svg PUBLIC "-//W3C//DTD SVG 1.1//EN" "http://www.w3.org/Graphics/SVG/1.1/DTD/svg11.dtd"><svg t="1676864449315" class="icon" viewBox="0 0 1024 1024" version="1.1" xmlns="http://www.w3.org/2000/svg" p-id="6144" xmlns:xlink="http://www.w3.org/1999/xlink" width="200" height="200"><path d="M769.045307 255.024278c-68.645426-68.604494-159.878291-106.400309-256.972653-106.400309-97.060593 0-188.304713 37.795814-256.922511 106.408495-68.642356 68.63417-106.443287 159.89671-106.443287 256.968559-0.017396 97.086176 37.753859 188.326203 106.388029 257.002328 68.608587 68.569702 159.861918 106.371656 256.909208 106.371656 97.094362 0 188.377368-37.826514 257.040191-106.443287C910.696468 627.26828 910.718981 396.744 769.045307 255.024278L769.045307 255.024278 769.045307 255.024278zM729.923288 729.808678c-58.204633 58.196447-135.597281 90.279143-217.919195 90.279143-82.264609 0-159.635767-32.066323-217.802538-90.208535-58.166771-58.179051-90.192162-135.554302-90.179882-217.877239 0-82.309634 32.041764-159.693072 90.229001-217.856773 58.179051-58.166771 135.52565-90.196255 217.819934-90.196255 82.297354 0 159.660326 32.029484 217.85268 90.200348C850.018503 414.274258 850.018503 609.725742 729.923288 729.808678L729.923288 729.808678 729.923288 729.808678zM669.096944 601.052199l-125.606743-72.640414L543.490202 330.311984c0-16.718777-13.561877-30.281677-30.28577-30.281677-16.71059 0-30.273491 13.5629-30.273491 30.281677L482.930941 542.283724c0 11.232832 13.960966 20.650319 23.042809 25.859971 2.511193 3.78214 9.41544 7.205099 13.626345 9.627265l124.911918 75.708286c14.468526 8.353248 30.15888 3.38919 38.516222-11.085476 8.357342-14.477736 0.576121-32.980135-13.931291-41.337477l0 0L669.096944 601.052199zM669.096944 601.052199" fill="#d81e06" p-id="6145"></path></svg>