<?xml version="1.0" standalone="no"?><!DOCTYPE svg PUBLIC "-//W3C//DTD SVG 1.1//EN" "http://www.w3.org/Graphics/SVG/1.1/DTD/svg11.dtd"><svg t="1705831327982" class="icon" viewBox="0 0 1024 1024" version="1.1" xmlns="http://www.w3.org/2000/svg" p-id="6369" xmlns:xlink="http://www.w3.org/1999/xlink" width="128" height="128"><path d="M494.933333 0h-409.6C37.546667 0 0 37.546667 0 85.333333V136.533333h580.266667V85.333333C580.266667 37.546667 542.72 0 494.933333 0z m-204.8 102.4h-34.133333c-10.24 0-17.066667-6.826667-17.066667-17.066667s6.826667-17.066667 17.066667-17.066666h34.133333c10.24 0 17.066667 6.826667 17.066667 17.066666s-6.826667 17.066667-17.066667 17.066667z m136.533334 0c-6.826667 0-17.066667-6.826667-17.066667-17.066667s6.826667-17.066667 17.066667-17.066666 17.066667 6.826667 17.066666 17.066666-6.826667 17.066667-17.066666 17.066667zM0 170.666667h580.266667v682.666666H0zM0 938.666667C0 986.453333 37.546667 1024 85.333333 1024h409.6c47.786667 0 85.333333-37.546667 85.333334-85.333333V887.466667H0v51.2z m426.666667-17.066667h68.266666c10.24 0 17.066667 6.826667 17.066667 17.066667s-6.826667 17.066667-17.066667 17.066666h-68.266666c-10.24 0-17.066667-6.826667-17.066667-17.066666s6.826667-17.066667 17.066667-17.066667z m-341.333334 0h68.266667c10.24 0 17.066667 6.826667 17.066667 17.066667s-6.826667 17.066667-17.066667 17.066666h-68.266667c-10.24 0-17.066667-6.826667-17.066666-17.066666s6.826667-17.066667 17.066666-17.066667zM921.6 409.6h-34.133333v614.4h34.133333c58.026667 0 102.4-44.373333 102.4-102.4V512c0-58.026667-44.373333-102.4-102.4-102.4z m0 290.133333c0-10.24 6.826667-17.066667 17.066667-17.066666s17.066667 6.826667 17.066666 17.066666v34.133334c0 10.24-6.826667 17.066667-17.066666 17.066666s-17.066667-6.826667-17.066667-17.066666v-34.133334z m17.066667 187.733334c-10.24 0-17.066667-6.826667-17.066667-17.066667s6.826667-17.066667 17.066667-17.066667 17.066667 6.826667 17.066666 17.066667-6.826667 17.066667-17.066666 17.066667zM614.4 426.666667v512c0 20.48-6.826667 40.96-17.066667 58.026666-3.413333 6.826667-3.413333 10.24 0 17.066667s10.24 10.24 13.653334 10.24H853.333333V409.6h-221.866666c-10.24 0-17.066667 6.826667-17.066667 17.066667zM904.533333 358.4c3.413333 0 10.24-3.413333 13.653334-6.826667l68.266666-68.266666c6.826667-6.826667 6.826667-17.066667 0-23.893334s-17.066667-6.826667-23.893333 0L921.6 300.373333C918.186667 146.773333 808.96 34.133333 665.6 34.133333c-10.24 0-17.066667 6.826667-17.066667 17.066667s6.826667 17.066667 17.066667 17.066667c122.88 0 218.453333 98.986667 221.866667 228.693333-10.24-10.24-23.893333-20.48-37.546667-37.546667-6.826667-6.826667-17.066667-6.826667-23.893333 0-6.826667 6.826667-6.826667 17.066667 0 23.893334 27.306667 27.306667 58.026667 54.613333 64.853333 64.853333 0 6.826667 6.826667 10.24 13.653333 10.24z" fill="#e8b96e" p-id="6370"></path></svg>