<?xml version="1.0" standalone="no"?><!DOCTYPE svg PUBLIC "-//W3C//DTD SVG 1.1//EN" "http://www.w3.org/Graphics/SVG/1.1/DTD/svg11.dtd"><svg t="1707566108839" class="icon" viewBox="0 0 1024 1024" version="1.1" xmlns="http://www.w3.org/2000/svg" p-id="12566" xmlns:xlink="http://www.w3.org/1999/xlink" width="128" height="128"><path d="M891.733333 797.866667c-29.866667-21.333333-59.733333-46.933333-85.333333-68.266667-4.266667 0-4.266667-4.266667-8.533333-4.266667s-4.266667 4.266667-4.266667 8.533334v34.133333c0 8.533333 0 8.533333-8.533333 8.533333H247.466667c-8.533333 0-8.533333-4.266667-8.533334-8.533333v-187.733333-298.666667c0-4.266667 0-8.533333 8.533334-8.533333h38.4c4.266667 0 8.533333 0 8.533333-4.266667v-8.533333c-34.133333-25.6-55.466667-55.466667-81.066667-85.333334-4.266667-4.266667-8.533333-4.266667-12.8 0L132.266667 264.533333c-4.266667 0-4.266667 4.266667-4.266667 8.533334s4.266667 4.266667 8.533333 4.266666H170.666667c12.8 0 12.8 0 12.8 8.533334v512c0 21.333333 8.533333 29.866667 29.866666 29.866666h576c4.266667 0 8.533333 0 8.533334 8.533334v34.133333c0 4.266667 0 8.533333 4.266666 8.533333 4.266667 4.266667 8.533333 0 8.533334-4.266666 29.866667-21.333333 55.466667-46.933333 85.333333-68.266667 0 0 4.266667 0-4.266667-8.533333z m-128-281.6c-4.266667 4.266667-8.533333 4.266667-8.533333 8.533333-38.4 29.866667-76.8 55.466667-115.2 85.333333-4.266667 4.266667-8.533333 4.266667-12.8 4.266667-25.6-8.533333-55.466667-12.8-81.066667-21.333333-4.266667 0-8.533333 0-12.8 4.266666-25.6 34.133333-51.2 68.266667-76.8 98.133334-4.266667 4.266667-8.533333 8.533333-12.8 0-29.866667-38.4-64-76.8-93.866666-115.2-4.266667-4.266667-8.533333-4.266667-12.8 0-21.333333 21.333333-46.933333 42.666667-68.266667 64-4.266667 4.266667-4.266667 8.533333-4.266667 12.8v81.066666c0 17.066667 0 17.066667 17.066667 17.066667h477.866667c8.533333 0 8.533333 0 8.533333-8.533333v-89.6c-4.266667-46.933333-4.266667-93.866667-4.266667-140.8zM260.266667 469.333333V593.066667c4.266667 0 4.266667-4.266667 8.533333-4.266667l64-64c4.266667-4.266667 8.533333-4.266667 12.8 0l93.866667 115.2c4.266667 4.266667 8.533333 4.266667 8.533333 0 21.333333-29.866667 46.933333-55.466667 68.266667-85.333333 4.266667-8.533333 8.533333-8.533333 17.066666-4.266667 29.866667 8.533333 59.733333 12.8 89.6 21.333333 4.266667 0 8.533333 0 12.8-4.266666 38.4-29.866667 81.066667-59.733333 119.466667-89.6 4.266667-4.266667 4.266667-4.266667 4.266667-12.8V332.8c-4.266667 0-4.266667 4.266667-8.533334 4.266667-38.4 29.866667-81.066667 64-119.466666 93.866666-4.266667 4.266667-8.533333 4.266667-12.8 4.266667-29.866667-8.533333-59.733333-17.066667-89.6-21.333333-4.266667 0-8.533333 0-12.8 4.266666-4.266667 4.266667-8.533333 12.8-12.8 17.066667-21.333333 25.6-38.4 51.2-55.466667 76.8-4.266667 4.266667-4.266667 4.266667-8.533333 0l-4.266667-4.266667c-29.866667-42.666667-59.733333-81.066667-89.6-119.466666-4.266667-4.266667-8.533333-4.266667-12.8 0-21.333333 25.6-46.933333 46.933333-68.266667 68.266666-4.266667 4.266667-4.266667 8.533333-4.266666 12.8z" p-id="12567" fill="#ffffff"></path></svg>