<?xml version="1.0" standalone="no"?><!DOCTYPE svg PUBLIC "-//W3C//DTD SVG 1.1//EN" "http://www.w3.org/Graphics/SVG/1.1/DTD/svg11.dtd"><svg t="1703551247895" class="icon" viewBox="0 0 1024 1024" version="1.1" xmlns="http://www.w3.org/2000/svg" p-id="23800" xmlns:xlink="http://www.w3.org/1999/xlink" width="128" height="128"><path d="M742.4 153.6h102.4a25.6 25.6 0 0 1 0-51.2h51.2a25.6 25.6 0 0 1 0 51.2H358.4v614.4a51.2 51.2 0 0 0 51.2 51.2h233.6256a102.4 102.4 0 1 1 0 51.2H396.8C347.3408 870.4 307.2 824.576 307.2 768V153.6H128a25.6 25.6 0 0 1 0-51.2h614.4a25.6 25.6 0 0 1 0 51.2z m-99.1744 307.2a102.4 102.4 0 1 1 0 51.2H358.4V460.8h284.8256z m99.1744 76.8a51.2 51.2 0 1 0 0-102.4 51.2 51.2 0 0 0 0 102.4z m0 358.4a51.2 51.2 0 1 0 0-102.4 51.2 51.2 0 0 0 0 102.4z" fill="#9DA7B2" p-id="23801"></path></svg>