<?xml version="1.0" standalone="no"?><!DOCTYPE svg PUBLIC "-//W3C//DTD SVG 1.1//EN" "http://www.w3.org/Graphics/SVG/1.1/DTD/svg11.dtd"><svg t="1726055877263" class="icon" viewBox="0 0 1097 1024" version="1.1" xmlns="http://www.w3.org/2000/svg" p-id="5262" xmlns:xlink="http://www.w3.org/1999/xlink" width="548.5" height="512"><path d="M576 173.714286H1005.714286c45.714286 0 82.285714 45.714286 82.285714 91.428571v667.428572c0 54.857143-36.571429 91.428571-82.285714 91.428571H82.285714c-45.714286 0-82.285714-45.714286-82.285714-91.428571V265.142857c0-54.857143 36.571429-91.428571 82.285714-91.428571h429.714286v-45.714286C521.142857 54.857143 566.857143 0 630.857143 0c18.285714 0 27.428571 18.285714 27.428571 36.571429s-9.142857 27.428571-27.428571 27.428571c-27.428571 0-54.857143 27.428571-54.857143 64v45.714286z m438.857143 777.142857c9.142857 0 27.428571-9.142857 27.428571-27.428572V265.142857c0-18.285714-9.142857-27.428571-27.428571-27.428571H82.285714c-9.142857 0-27.428571 9.142857-27.428571 27.428571v667.428572c0 18.285714 9.142857 27.428571 27.428571 27.428571h932.571429zM201.142857 320h-36.571428c-27.428571 0-45.714286 18.285714-45.714286 45.714286v36.571428c0 27.428571 18.285714 45.714286 45.714286 45.714286h36.571428c27.428571 0 45.714286-18.285714 45.714286-45.714286V365.714286c0-27.428571-18.285714-45.714286-45.714286-45.714286z m146.285714 128h36.571429c27.428571 0 45.714286-18.285714 45.714286-45.714286V365.714286c0-27.428571-18.285714-45.714286-45.714286-45.714286h-36.571429c-27.428571 0-45.714286 18.285714-45.714285 45.714286v36.571428c0 27.428571 18.285714 45.714286 45.714285 45.714286z m182.857143 0h36.571429c27.428571 0 45.714286-18.285714 45.714286-45.714286V365.714286c0-27.428571-18.285714-45.714286-45.714286-45.714286h-36.571429c-27.428571 0-45.714286 18.285714-45.714285 45.714286v36.571428c0 27.428571 18.285714 45.714286 45.714285 45.714286z m182.857143 0h36.571429c27.428571 0 45.714286-18.285714 45.714285-45.714286V365.714286c0-27.428571-18.285714-45.714286-45.714285-45.714286h-36.571429c-27.428571 0-45.714286 18.285714-45.714286 45.714286v36.571428c0 27.428571 18.285714 45.714286 45.714286 45.714286z m182.857143-128h36.571429c27.428571 0 45.714286 18.285714 45.714285 45.714286v256c0 27.428571-18.285714 45.714286-45.714285 45.714285H713.142857c-27.428571-9.142857-45.714286-27.428571-45.714286-54.857142v-36.571429c0-27.428571 18.285714-45.714286 45.714286-45.714286h137.142857V365.714286c0-27.428571 18.285714-45.714286 45.714286-45.714286zM201.142857 530.285714h-36.571428c-27.428571 0-45.714286 18.285714-45.714286 45.714286v36.571429c0 27.428571 18.285714 45.714286 45.714286 45.714285h36.571428c27.428571 0 45.714286-18.285714 45.714286-45.714285v-36.571429c0-27.428571-18.285714-45.714286-45.714286-45.714286z m146.285714 128h36.571429c27.428571 0 45.714286-18.285714 45.714286-45.714285v-36.571429c0-27.428571-18.285714-45.714286-45.714286-45.714286h-36.571429c-27.428571 0-45.714286 18.285714-45.714285 45.714286v36.571429c0 27.428571 18.285714 45.714286 45.714285 45.714285z m182.857143 0h36.571429c27.428571 0 45.714286-18.285714 45.714286-45.714285v-36.571429c0-27.428571-18.285714-45.714286-45.714286-45.714286h-36.571429c-27.428571 0-45.714286 18.285714-45.714285 45.714286v36.571429c0 27.428571 18.285714 45.714286 45.714285 45.714285z m-329.142857 82.285715h-36.571428c-27.428571 0-45.714286 18.285714-45.714286 45.714285V822.857143c0 27.428571 18.285714 45.714286 45.714286 45.714286h36.571428c27.428571 0 45.714286-18.285714 45.714286-45.714286v-36.571429c0-27.428571-18.285714-45.714286-45.714286-45.714285z m548.571429 0H347.428571c-27.428571 0-45.714286 18.285714-45.714285 45.714285V822.857143c0 27.428571 18.285714 45.714286 45.714285 45.714286h402.285715c27.428571 0 45.714286-18.285714 45.714285-45.714286v-36.571429c0-27.428571-18.285714-45.714286-45.714285-45.714285z m182.857143 0h-36.571429c-27.428571 0-45.714286 18.285714-45.714286 45.714285V822.857143c0 27.428571 18.285714 45.714286 45.714286 45.714286h36.571429c27.428571 0 45.714286-18.285714 45.714285-45.714286v-36.571429c0-27.428571-18.285714-45.714286-45.714285-45.714285z" fill="#758A99" p-id="5263"></path><path d="M393.142857 448h-54.857143c-18.285714 0-36.571429-18.285714-36.571428-36.571429v-64c0-18.285714 18.285714-36.571429 36.571428-36.571428h54.857143c18.285714 0 36.571429 18.285714 36.571429 36.571428v64c0 27.428571-18.285714 36.571429-36.571429 36.571429zM210.285714 877.714286h-54.857143c-18.285714 0-36.571429-18.285714-36.571428-36.571429v-64c0-18.285714 18.285714-36.571429 36.571428-36.571428h54.857143c18.285714 0 36.571429 18.285714 36.571429 36.571428v64c0 18.285714-9.142857 36.571429-36.571429 36.571429z" fill="#F2BE45" p-id="5264"></path></svg>