<?xml version="1.0" standalone="no"?><!DOCTYPE svg PUBLIC "-//W3C//DTD SVG 1.1//EN" "http://www.w3.org/Graphics/SVG/1.1/DTD/svg11.dtd"><svg t="1710563882704" class="icon" viewBox="0 0 1024 1024" version="1.1" xmlns="http://www.w3.org/2000/svg" p-id="13620" xmlns:xlink="http://www.w3.org/1999/xlink" width="128" height="128"><path d="M80 616h864V880H80z" fill="#40C4FF" p-id="13621"></path><path d="M944 984H80a8 8 0 0 1-8-8v-96a8 8 0 0 1 8-8h864a8 8 0 0 1 8 8v96a8 8 0 0 1-8 8z m-856-16h848v-80h-848v80z" fill="#263238" p-id="13622"></path><path d="M280 848V560h-112v288" fill="#FFFFFF" p-id="13623"></path><path d="M280 856a8 8 0 0 1-8-8V568h-96V848a8 8 0 0 1-16 0V560a8 8 0 0 1 8-8h112a8 8 0 0 1 8 8v288a8 8 0 0 1-8 8z" fill="#263238" p-id="13624"></path><path d="M472 848V680h-112V848" fill="#FFFFFF" p-id="13625"></path><path d="M472 856a8 8 0 0 1-8-8V688h-96v160a8 8 0 0 1-16 0V680a8 8 0 0 1 8-8h112a8 8 0 0 1 8 8V848a8 8 0 0 1-8 8z" fill="#263238" p-id="13626"></path><path d="M664 848V520h-112V848" fill="#FFFFFF" p-id="13627"></path><path d="M664 856a8 8 0 0 1-8-8V528h-96v320a8 8 0 0 1-16 0V520a8 8 0 0 1 8-8h112a8 8 0 0 1 8 8V848a8 8 0 0 1-8 8z" fill="#263238" p-id="13628"></path><path d="M856 848V440h-112V848" fill="#FFFFFF" p-id="13629"></path><path d="M856 856a8 8 0 0 1-8-8V448h-96v400a8 8 0 0 1-16 0V440a8 8 0 0 1 8-8h112a8 8 0 0 1 8 8V848a8 8 0 0 1-8 8zM416 520a8 8 0 0 1-5.12-1.856l-187.408-156.176-139.024 92.688a8 8 0 1 1-8.864-13.312l144-96a7.984 7.984 0 0 1 9.568 0.512L416 501.6l186.88-155.728 193.088-112.768a7.904 7.904 0 0 1 8.464 0.256l120 80a8 8 0 0 1-8.864 13.312l-115.84-77.232-187.68 109.488-190.928 159.216a8 8 0 0 1-5.12 1.856z" fill="#263238" p-id="13630"></path><path d="M608 350.48m-40 0a40 40 0 1 0 80 0 40 40 0 1 0-80 0Z" fill="#FFD740" p-id="13631"></path><path d="M608 398.48c-26.464 0-48-21.536-48-48s21.536-48 48-48 48 21.536 48 48-21.536 48-48 48z m0-80c-17.648 0-32 14.352-32 32s14.352 32 32 32 32-14.352 32-32-14.352-32-32-32z" fill="#263238" p-id="13632"></path><path d="M416 512m-40 0a40 40 0 1 0 80 0 40 40 0 1 0-80 0Z" fill="#FFD740" p-id="13633"></path><path d="M416 560c-26.464 0-48-21.536-48-48s21.536-48 48-48 48 21.536 48 48-21.536 48-48 48z m0-80c-17.648 0-32 14.352-32 32s14.352 32 32 32 32-14.352 32-32-14.352-32-32-32z" fill="#263238" p-id="13634"></path><path d="M224 352m-40 0a40 40 0 1 0 80 0 40 40 0 1 0-80 0Z" fill="#FFD740" p-id="13635"></path><path d="M224 400c-26.464 0-48-21.536-48-48s21.536-48 48-48 48 21.536 48 48-21.536 48-48 48z m0-80c-17.648 0-32 14.352-32 32s14.352 32 32 32 32-14.352 32-32-14.352-32-32-32z" fill="#263238" p-id="13636"></path><path d="M800 240m-40 0a40 40 0 1 0 80 0 40 40 0 1 0-80 0Z" fill="#FF5252" p-id="13637"></path><path d="M800 288c-26.464 0-48-21.536-48-48s21.536-48 48-48 48 21.536 48 48-21.536 48-48 48z m0-80c-17.648 0-32 14.352-32 32s14.352 32 32 32 32-14.352 32-32-14.352-32-32-32z" fill="#263238" p-id="13638"></path><path d="M384 88h-64a8 8 0 0 1 0-16h64a8 8 0 0 1 0 16z" fill="#263238" p-id="13639"></path><path d="M352 120a8 8 0 0 1-8-8V48a8 8 0 0 1 16 0v64a8 8 0 0 1-8 8z" fill="#263238" p-id="13640"></path><path d="M512 208h-64a8 8 0 0 1 0-16h64a8 8 0 0 1 0 16z" fill="#263238" p-id="13641"></path><path d="M480 240a8 8 0 0 1-8-8v-64a8 8 0 0 1 16 0v64a8 8 0 0 1-8 8z" fill="#263238" p-id="13642"></path></svg>