<?xml version="1.0" standalone="no"?><!DOCTYPE svg PUBLIC "-//W3C//DTD SVG 1.1//EN" "http://www.w3.org/Graphics/SVG/1.1/DTD/svg11.dtd"><svg t="1707975168077" class="icon" viewBox="0 0 1040 1024" version="1.1" xmlns="http://www.w3.org/2000/svg" p-id="33517" xmlns:xlink="http://www.w3.org/1999/xlink" width="130" height="128"><path d="M381.644172 0L0 179.042945v138.208589c0 273.276074 127.214724 502.576687 381.644172 687.90184C629.791411 819.828221 753.865031 590.527607 753.865031 317.251534v-138.208589L381.644172 0z" fill="#96ADFA" p-id="33518"></path><path d="M757.006135 326.674847l256 122.503067v97.374233c0 185.325153-84.809816 340.809816-251.288344 464.883436l-4.711656 3.141104-4.711656-3.141104C581.104294 887.361963 494.723926 731.877301 494.723926 546.552147v-69.104294-17.276074-4.711656-6.282209l262.282209-122.503067z" fill="#2A3C85" p-id="33519"></path><path d="M757.006135 1024l-9.423313-6.282209c-172.760736-125.644172-260.711656-284.269939-260.711656-471.165644v-102.085889l270.134969-125.644172 263.852761 125.644172v102.085889c0 186.895706-86.380368 345.521472-254.429448 471.165644l-9.423313 6.282209zM502.576687 453.889571v92.662576c0 182.184049 84.809816 336.09816 254.429448 458.601227C921.91411 882.650307 1005.153374 728.736196 1005.153374 546.552147v-92.662576l-248.147239-119.361964L502.576687 453.889571z" fill="#FAFAFA" p-id="33520"></path><path d="M753.865031 336.09816c-4.711656 180.613497-62.822086 340.809816-175.901841 482.159509-50.257669-81.668712-75.386503-172.760736-75.386503-271.705522v-92.662576l251.288344-117.791411z" fill="#6581E1" p-id="33521"></path><path d="M340.809816 472.736196c-28.269939-14.134969-47.116564-42.404908-47.116564-75.386503 0-45.546012 37.693252-83.239264 83.239263-83.239264s83.239264 37.693252 83.239264 83.239264c0 32.981595-18.846626 62.822086-47.116564 75.386503l26.699386 133.496933h-125.644172l26.699387-133.496933z" p-id="33522"></path><path d="M340.809816 472.736196c-28.269939-14.134969-47.116564-42.404908-47.116564-75.386503 0-45.546012 37.693252-83.239264 83.239263-83.239264s83.239264 37.693252 83.239264 83.239264c0 32.981595-18.846626 62.822086-47.116564 75.386503l26.699386 133.496933h-125.644172l26.699387-133.496933z" fill="#FFFFFF" p-id="33523"></path></svg>