<?xml version="1.0" standalone="no"?><!DOCTYPE svg PUBLIC "-//W3C//DTD SVG 1.1//EN" "http://www.w3.org/Graphics/SVG/1.1/DTD/svg11.dtd"><svg t="1697962613955" class="icon" viewBox="0 0 1024 1024" version="1.1" xmlns="http://www.w3.org/2000/svg" p-id="8433" xmlns:xlink="http://www.w3.org/1999/xlink" width="128" height="128"><path d="M128 128m32 0l544 0q32 0 32 32l0 704q0 32-32 32l-544 0q-32 0-32-32l0-704q0-32 32-32Z" fill="#64B5F6" p-id="8434"></path><path d="M192 896H160a32 32 0 0 1-32-32V160a32 32 0 0 1 32-32h32a32 32 0 0 0-32 32v704a32 32 0 0 0 32 32z" opacity=".1" p-id="8435"></path><path d="M736 160v704a32 32 0 0 1-32 32h-32a32 32 0 0 0 32-32V160a32 32 0 0 0-32-32h32a32 32 0 0 1 32 32z" fill="#FFFFFF" opacity=".19" p-id="8436"></path><path d="M224 288a32 32 0 0 1-32 32H128V256h64a32 32 0 0 1 32 32zM224 416a32 32 0 0 1-32 32H128v-64h64a32 32 0 0 1 32 32zM224 544a32 32 0 0 1-32 32H128v-64h64a32 32 0 0 1 32 32zM224 672a32 32 0 0 1-32 32H128v-64h64a32 32 0 0 1 32 32zM224 800a32 32 0 0 1-32 32H128v-64h64a32 32 0 0 1 32 32z" opacity=".1" p-id="8437"></path><path d="M192 288H96a32 32 0 0 1 0-64h96a32 32 0 0 1 0 64zM192 416H96a32 32 0 0 1 0-64h96a32 32 0 0 1 0 64zM192 544H96a32 32 0 0 1 0-64h96a32 32 0 0 1 0 64zM192 672H96a32 32 0 0 1 0-64h96a32 32 0 0 1 0 64zM192 800H96a32 32 0 0 1 0-64h96a32 32 0 0 1 0 64z" fill="#1565C0" p-id="8438"></path><path d="M960 160v96h-192V160a32 32 0 0 1 32-32h128a32 32 0 0 1 32 32z" fill="#E57373" p-id="8439"></path><path d="M832 128a32 32 0 0 0-32 32v96h-32V160a32 32 0 0 1 32-32z" opacity=".1" p-id="8440"></path><path d="M960 160v96h-32V160a32 32 0 0 0-32-32h32a32 32 0 0 1 32 32z" fill="#FFFFFF" opacity=".19" p-id="8441"></path><path d="M960 256v480a32 32 0 0 1-3.52 14.4l-64 128a32 32 0 0 1-56.96 0l-64-128A32 32 0 0 1 768 736V256z" fill="#64B5F6" p-id="8442"></path><path d="M880 891.52a32 32 0 0 1-16 4.48 32 32 0 0 1-28.48-17.6l-64-128A32 32 0 0 1 768 736V256h32v480a32 32 0 0 0 3.52 14.4l64 128a27.52 27.52 0 0 0 12.48 13.12z" opacity=".1" p-id="8443"></path><path d="M960 256v480a32 32 0 0 1-3.52 14.4l-64 128A32 32 0 0 1 864 896a32 32 0 0 1-16-4.48 27.52 27.52 0 0 0 12.48-13.12l64-128A32 32 0 0 0 928 736V256z" fill="#FFFFFF" opacity=".19" p-id="8444"></path><path d="M768 288h192v64h-192z" opacity=".1" p-id="8445"></path><path d="M768 256h192v64h-192z" fill="#FFFFFF" p-id="8446"></path><path d="M288 288m32 0l288 0q32 0 32 32l0 192q0 32-32 32l-288 0q-32 0-32-32l0-192q0-32 32-32Z" opacity=".1" p-id="8447"></path><path d="M288 256m32 0l288 0q32 0 32 32l0 192q0 32-32 32l-288 0q-32 0-32-32l0-192q0-32 32-32Z" fill="#FFB74D" p-id="8448"></path><path d="M352 512h-32a32 32 0 0 1-32-32V288a32 32 0 0 1 32-32h32a32 32 0 0 0-32 32v192a32 32 0 0 0 32 32z" opacity=".1" p-id="8449"></path><path d="M640 288v192a32 32 0 0 1-32 32h-32a32 32 0 0 0 32-32V288a32 32 0 0 0-32-32h32a32 32 0 0 1 32 32z" fill="#FFFFFF" opacity=".19" p-id="8450"></path><path d="M416 672h-96a32 32 0 0 1 0-64h96a32 32 0 0 1 0 64z" opacity=".1" p-id="8451"></path><path d="M512 640m-32 0a32 32 0 1 0 64 0 32 32 0 1 0-64 0Z" opacity=".1" p-id="8452"></path><path d="M608 640m-32 0a32 32 0 1 0 64 0 32 32 0 1 0-64 0Z" opacity=".1" p-id="8453"></path><path d="M608 800h-96a32 32 0 0 1 0-64h96a32 32 0 0 1 0 64z" opacity=".1" p-id="8454"></path><path d="M416 768m-32 0a32 32 0 1 0 64 0 32 32 0 1 0-64 0Z" opacity=".1" p-id="8455"></path><path d="M320 768m-32 0a32 32 0 1 0 64 0 32 32 0 1 0-64 0Z" opacity=".1" p-id="8456"></path><path d="M416 640h-96a32 32 0 0 1 0-64h96a32 32 0 0 1 0 64z" fill="#FFFFFF" p-id="8457"></path><path d="M512 608m-32 0a32 32 0 1 0 64 0 32 32 0 1 0-64 0Z" fill="#FFFFFF" p-id="8458"></path><path d="M608 608m-32 0a32 32 0 1 0 64 0 32 32 0 1 0-64 0Z" fill="#FFFFFF" p-id="8459"></path><path d="M608 768h-96a32 32 0 0 1 0-64h96a32 32 0 0 1 0 64z" fill="#FFFFFF" p-id="8460"></path><path d="M416 736m-32 0a32 32 0 1 0 64 0 32 32 0 1 0-64 0Z" fill="#FFFFFF" p-id="8461"></path><path d="M320 736m-32 0a32 32 0 1 0 64 0 32 32 0 1 0-64 0Z" fill="#FFFFFF" p-id="8462"></path></svg>