<?xml version="1.0" standalone="no"?><!DOCTYPE svg PUBLIC "-//W3C//DTD SVG 1.1//EN" "http://www.w3.org/Graphics/SVG/1.1/DTD/svg11.dtd"><svg t="1679472966022" class="icon" viewBox="0 0 1024 1024" version="1.1" xmlns="http://www.w3.org/2000/svg" p-id="3735" xmlns:xlink="http://www.w3.org/1999/xlink" width="200" height="200"><path d="M464 960a400 400 0 1 1 0-800 16 16 0 0 1 16 16v768a16 16 0 0 1-16 16z m-16-768a368 368 0 0 0-76 724A364.8 364.8 0 0 0 448 928z" p-id="3736" fill="#ffffff"></path><path d="M464 896a334.88 334.88 0 0 1-100.8-16 316 316 0 0 1-54.56-22.72 335.04 335.04 0 0 1-142.56-142.56A321.28 321.28 0 0 1 144 660.8a335.04 335.04 0 0 1 0-201.6 316 316 0 0 1 22.72-54.56 335.04 335.04 0 0 1 142.56-142.56A321.28 321.28 0 0 1 363.2 240a334.88 334.88 0 0 1 100.8-16 16 16 0 0 1 16 16v640a16 16 0 0 1-16 16z m-16-640a299.36 299.36 0 0 0-75.2 13.44 291.04 291.04 0 0 0-49.12 20.48 302.88 302.88 0 0 0-129.12 129.12 285.76 285.76 0 0 0-20.64 49.28 305.76 305.76 0 0 0 0 182.4 291.04 291.04 0 0 0 20.48 49.12 302.88 302.88 0 0 0 129.12 129.12 285.76 285.76 0 0 0 49.28 20.64 299.36 299.36 0 0 0 75.2 14.4z" p-id="3737" fill="#ffffff"></path><path d="M560 960h-96a16 16 0 0 1-16-16V592a16 16 0 0 1 32 0v336h64v-62.72a16 16 0 0 1 11.2-15.2 291.04 291.04 0 0 0 49.12-20.48A16 16 0 0 1 624 832l44.48 44.48 113.12-113.12L736 720a16 16 0 0 1-2.72-18.88 291.04 291.04 0 0 0 20.48-49.12 16 16 0 0 1 15.2-11.2H832V480h-62.72a16 16 0 0 1-15.2-11.2 291.04 291.04 0 0 0-20.48-49.12 16 16 0 0 1 2.4-18.88l44.48-44.48-112.8-113.12L624 288a16 16 0 0 1-18.88 2.72 291.04 291.04 0 0 0-49.12-20.48 16 16 0 0 1-11.2-16V192H480v336a16 16 0 0 1-32 0V176a16 16 0 0 1 16-16h96a16 16 0 0 1 16 16v67.2a328.64 328.64 0 0 1 32 13.6l44.16-44.16a16 16 0 0 1 11.36-4.64h6.72a16 16 0 0 1 11.36 4.64l132.32 132.32a16 16 0 0 1 0 22.72l-48 48A328.64 328.64 0 0 1 780.8 448H848a16 16 0 0 1 16 16v192a16 16 0 0 1-16 16h-67.2a328.64 328.64 0 0 1-13.6 32l48 48a16 16 0 0 1 0 22.72l-132.32 132.32a16 16 0 0 1-11.36 4.64h-6.72a16 16 0 0 1-11.36-4.64L608.8 864a328.64 328.64 0 0 1-32 13.6V944A16 16 0 0 1 560 960z" p-id="3738" fill="#ffffff"></path><path d="M611.84 292.32a16 16 0 0 1-7.52-1.92 291.04 291.04 0 0 0-49.12-20.48 16 16 0 0 1-11.2-16V176a16 16 0 0 1 16-16h96a16 16 0 0 1 16 16v56.32a16 16 0 0 1-4.64 11.36L624 288a16 16 0 0 1-12.16 4.32zM576 243.2a328.64 328.64 0 0 1 32 13.6l32-32V192h-64zM656 960h-96a16 16 0 0 1-16-16v-78.72a16 16 0 0 1 11.2-15.2 291.04 291.04 0 0 0 49.12-20.48A16 16 0 0 1 624 832l44.16 44a16 16 0 0 1 4.64 11.36V944A16 16 0 0 1 656 960z m-80-32h64v-33.6l-32-31.2a328.64 328.64 0 0 1-32 13.6zM768 240h-0.96a16 16 0 0 1 0-32 16 16 0 0 1 16 16 16 16 0 0 1-15.04 16z" p-id="3739" fill="#ffffff"></path><path d="M767.04 912h-96a16 16 0 0 1-14.72-9.92 16 16 0 0 1 3.36-17.44l121.12-120.96L736 720a16 16 0 0 1-2.72-18.88 291.04 291.04 0 0 0 20.48-49.12 16 16 0 0 1 15.2-11.2H832V480h-62.72a16 16 0 0 1-15.2-11.2 291.04 291.04 0 0 0-20.48-49.12 16 16 0 0 1 2.4-18.88l44.48-44.48-121.12-120.96a16 16 0 0 1-3.36-17.44 16 16 0 0 1 14.72-9.92h96a16 16 0 0 1 11.36 4.64l132.32 132.32a16 16 0 0 1 0 22.72l-48 48a328.64 328.64 0 0 1 14.4 32.32H944a16 16 0 0 1 16 16v192a16 16 0 0 1-16 16h-67.2a328.64 328.64 0 0 1-13.6 32l48 48a16 16 0 0 1 0 22.72l-132.32 132.32a16 16 0 0 1-11.84 4.96z m-57.44-32h50.88l116.32-116.32L832 720a16 16 0 0 1-2.72-18.88c4.8-9.12 9.12-18.56 13.12-28.32H780.8a328.64 328.64 0 0 1-13.6 32l48 48a16 16 0 0 1 0 22.72zM864 480v160h64V480h-64z m-83.2-32h61.92c-4-9.76-8.32-19.2-13.12-28.32a16 16 0 0 1 2.4-18.88l44.48-44.48L760.48 240h-50.88l105.12 104.96a16 16 0 0 1 0 22.72l-48 48A328.64 328.64 0 0 1 780.8 448z" p-id="3740" fill="#ffffff"></path><path d="M671.04 240h-6.72a16 16 0 0 1 0-32h6.72a16 16 0 0 1 0 32zM896 368h-96a16 16 0 0 1 0-32h96a16 16 0 0 1 0 32zM896 784h-96a16 16 0 0 1 0-32h96a16 16 0 0 1 0 32zM768 912h-0.96a16 16 0 0 1 0-32 16 16 0 0 1 16 16 16 16 0 0 1-15.04 16zM864 480h-16a16 16 0 0 1 0-32h16a16 16 0 0 1 0 32zM864 672h-16a16 16 0 0 1 0-32h16a16 16 0 0 1 0 32z" p-id="3741" fill="#ffffff"></path><path d="M768 912h-0.96a16 16 0 0 1 0-32 16 16 0 0 1 16 16 16 16 0 0 1-15.04 16zM671.04 912h-6.72a16 16 0 0 1 0-32h6.72a16 16 0 0 1 0 32zM464 720a16 16 0 0 1 0-32 128 128 0 0 0 0-256 16 16 0 0 1 0-32 160 160 0 0 1 0 320z" p-id="3742" fill="#ffffff"></path><path d="M464 608a48 48 0 0 1 0-96 16 16 0 0 1 16 16v64a16 16 0 0 1-16 16z" p-id="3743" fill="#ffffff"></path><path d="M464 576a16 16 0 0 1-11.36-4.64l-160-160a16 16 0 0 1 22.72-22.72l160 160a16 16 0 0 1 0 22.72A16 16 0 0 1 464 576z" p-id="3744" fill="#ffffff"></path><path d="M360 680a16 16 0 0 1-11.36-4.64 16 16 0 0 1 0-22.72l104-104a16 16 0 0 1 22.72 22.72l-104 104a16 16 0 0 1-11.36 4.64z" p-id="3745" fill="#ffffff"></path></svg>