<?xml version="1.0" encoding="UTF-8"?>
<svg width="15px" height="12px" viewBox="0 0 15 12" version="1.1" xmlns="http://www.w3.org/2000/svg" xmlns:xlink="http://www.w3.org/1999/xlink">
    <title>t_09 2@2x</title>
    <g id="页面-1" stroke="none" stroke-width="1" fill="none" fill-rule="evenodd">
        <g id="画板" transform="translate(-22.000000, -593.000000)" fill-rule="nonzero">
            <g id="t_09" transform="translate(22.000000, 593.000000)">
                <path d="M11.9701987,7.08609273 C11.9701987,6.81015454 11.8763797,6.5728477 11.683223,6.36313467 L6.03200882,0.722958063 C5.83333333,0.524282566 5.55739513,0.353200894 5.2262693,0.20971303 C4.88410594,0.0662251656 4.58057394,8.8817842e-16 4.30463575,8.8817842e-16 L1.01545253,8.8817842e-16 C0.739514338,8.8817842e-16 0.5022075,0.104856523 0.303532003,0.30353202 C0.104856507,0.502207516 0,0.739514354 0,1.01545255 L0,4.29359824 C0,4.56953644 0.0662251656,4.88410598 0.20971303,5.2152318 C0.353200894,5.55739517 0.513245033,5.82229583 0.722958063,6.02097132 L6.37417219,11.6721854 C6.57284768,11.8708609 6.81015452,11.9591612 7.08609272,11.9591612 C7.36203091,11.9591612 7.59933775,11.8653422 7.80905078,11.6721854 L11.683223,7.79801326 C11.8653422,7.59933776 11.9701987,7.36203091 11.9701987,7.08609273 L11.9701987,7.08609273 L11.9701987,7.08609273 Z" id="路径" fill="#FF934A"></path>
                <path d="M3.23951435,3.25055189 C3.04083886,3.44922738 2.80353202,3.54304637 2.52759382,3.54304637 C2.25165563,3.54304637 2.01434879,3.44922738 1.81567329,3.25055189 C1.6169978,3.05187639 1.52317881,2.81456955 1.52317881,2.53863136 C1.52317881,2.26269316 1.6169978,2.02538632 1.81567329,1.82671083 C2.01434879,1.62803533 2.25165563,1.53421634 2.52759382,1.53421634 C2.80353202,1.53421634 3.04083886,1.62803533 3.23951435,1.82671083 C3.43818985,2.02538632 3.52649007,2.26269316 3.52649007,2.53863136 C3.54304636,2.82008831 3.43818985,3.05187639 3.23951435,3.25055189 L3.23951435,3.25055189 L3.23951435,3.25055189 Z" id="路径" fill="#FFFFFF"></path>
                <path d="M14.7130243,6.35761591 L9.06181015,0.722958063 C8.86313465,0.524282566 8.58719646,0.353200894 8.25607063,0.20971303 C7.91390728,0.0662251817 7.61037528,1.61682543e-08 7.33443709,1.61682543e-08 L5.55739515,1.61682543e-08 C5.83333334,1.61682543e-08 6.14790288,0.0662251817 6.47902871,0.209713046 C6.82119207,0.35320091 7.08609273,0.513245049 7.28476823,0.722958079 L12.9359824,6.35761591 C13.1346578,6.56732894 13.2284768,6.80463578 13.2284768,7.08057397 C13.2284768,7.35651217 13.1346578,7.59381901 12.9359824,7.7924945 L9.23289184,11.5066225 C9.39293599,11.6666667 9.53642384,11.7825607 9.65231788,11.8598234 C9.76821192,11.9370861 9.92825608,11.9646799 10.115894,11.9646799 C10.3918322,11.9646799 10.6291391,11.8708609 10.8388521,11.6721854 L14.7130243,7.78697571 C14.9116998,7.58830022 15,7.35099338 15,7.07505518 C15,6.79911699 14.906181,6.5728477 14.7130243,6.35761591 L14.7130243,6.35761591 L14.7130243,6.35761591 Z" id="路径" fill="#FCBF28"></path>
            </g>
        </g>
    </g>
</svg>