<?xml version="1.0" encoding="UTF-8"?>
<svg width="16px" height="18px" viewBox="0 0 16 18" version="1.1" xmlns="http://www.w3.org/2000/svg" xmlns:xlink="http://www.w3.org/1999/xlink">
    <title>tab_5备份@2x</title>
    <g id="页面-1" stroke="none" stroke-width="1" fill="none" fill-rule="evenodd">
        <g id="画板" transform="translate(-324.000000, -251.000000)" fill="#FF9E43" fill-rule="nonzero">
            <path d="M332.003636,260.818182 C329.508182,260.818182 327.503636,258.613182 327.503636,255.909091 C327.503636,253.205 329.508182,251 332.003636,251 C334.499091,251 336.503636,253.205 336.503636,255.909091 C336.503636,258.613182 334.499091,260.818182 332.003636,260.818182 Z M324.64,265.522727 C324.64,263.602283 326.196828,262.045455 328.117273,262.045455 L335.89,262.045455 C337.810445,262.045455 339.367273,263.602283 339.367273,265.522727 C339.367273,267.443172 337.810445,269 335.89,269 L328.117273,269 C326.197763,268.997746 324.642254,267.442237 324.64,265.522727 L324.64,265.522727 Z" id="tab_5备份"></path>
        </g>
    </g>
</svg>