<?xml version="1.0" standalone="no"?><!DOCTYPE svg PUBLIC "-//W3C//DTD SVG 1.1//EN" "http://www.w3.org/Graphics/SVG/1.1/DTD/svg11.dtd"><svg t="1707916005533" class="icon" viewBox="0 0 1024 1024" version="1.1" xmlns="http://www.w3.org/2000/svg" p-id="27903" xmlns:xlink="http://www.w3.org/1999/xlink" width="128" height="128"><path d="M102.4 808.96h51.2V1024H102.4v-215.04z m0-460.8h51.2v271.36H102.4V348.16zM102.4 0h51.2v163.84H102.4V0z" fill="#B4D8FF" p-id="27904"></path><path d="M122.88 394.24C56.32 394.24 0 343.04 0 276.48S56.32 153.6 122.88 153.6s122.88 56.32 122.88 122.88-56.32 117.76-122.88 117.76z m0-51.2c35.84 0 66.56-30.72 66.56-66.56s-30.72-66.56-66.56-66.56-66.56 25.6-66.56 66.56 25.6 66.56 66.56 66.56z m0 512c-66.56 0-122.88-56.32-122.88-122.88s56.32-122.88 122.88-122.88 122.88 56.32 122.88 122.88-56.32 122.88-122.88 122.88z m0-56.32c35.84 0 66.56-30.72 66.56-66.56S158.72 665.6 122.88 665.6s-66.56 30.72-66.56 66.56 25.6 66.56 66.56 66.56zM419.84 133.12h537.6c46.08 0 66.56 20.48 66.56 66.56s-20.48 66.56-66.56 66.56H419.84c-46.08 0-66.56-20.48-66.56-66.56s20.48-66.56 66.56-66.56zM419.84 619.52h537.6c46.08 0 66.56 20.48 66.56 66.56s-20.48 66.56-66.56 66.56H419.84c-46.08 0-66.56-20.48-66.56-66.56-5.12-46.08 20.48-66.56 66.56-66.56z" fill="#2C9CFA" p-id="27905"></path><path d="M419.84 322.56H768c46.08 0 66.56 20.48 66.56 66.56s-20.48 66.56-66.56 66.56H419.84c-46.08 0-66.56-20.48-66.56-66.56s20.48-66.56 66.56-66.56zM419.84 808.96H768c46.08 0 66.56 20.48 66.56 66.56s-20.48 66.56-66.56 66.56H419.84c-46.08 0-66.56-20.48-66.56-66.56s20.48-66.56 66.56-66.56z" fill="#B4D8FF" p-id="27906"></path></svg>