<?xml version="1.0" encoding="UTF-8"?>
<svg width="20px" height="16px" viewBox="0 0 20 16" version="1.1" xmlns="http://www.w3.org/2000/svg" xmlns:xlink="http://www.w3.org/1999/xlink">
    <title>ic_7@2x</title>
    <g id="页面-1" stroke="none" stroke-width="1" fill="none" fill-rule="evenodd">
        <g id="画板" transform="translate(-255.000000, -309.000000)" fill-rule="nonzero">
            <g id="ic_7" transform="translate(255.000000, 309.000000)">
                <path d="M15.9602649,9.44812364 C15.9602649,9.08020605 15.8351729,8.76379693 15.5776306,8.48417956 L8.04267843,0.963944084 C7.77777777,0.699043421 7.40986018,0.470934525 6.96835907,0.279617373 C6.51214126,0.0883002208 6.10743192,1.18423789e-15 5.73951433,1.18423789e-15 L1.35393671,1.18423789e-15 C0.986019117,1.18423789e-15 0.66961,0.139808697 0.404709338,0.404709359 C0.139808676,0.669610022 0,0.986019139 0,1.35393673 L0,5.72479766 C0,6.09271525 0.0883002208,6.5121413 0.279617373,6.95364241 C0.470934525,7.40986022 0.684326711,7.7630611 0.963944084,8.02796177 L8.49889625,15.5629139 C8.76379691,15.8278146 9.08020603,15.9455482 9.44812362,15.9455482 C9.81604121,15.9455482 10.1324503,15.8204562 10.4120677,15.5629139 L15.5776306,10.397351 C15.8204562,10.1324504 15.9602649,9.81604121 15.9602649,9.44812364 L15.9602649,9.44812364 L15.9602649,9.44812364 Z" id="路径" fill="#FF934A"></path>
                <path d="M4.31935247,4.33406918 C4.05445181,4.59896985 3.73804269,4.72406183 3.3701251,4.72406183 C3.00220751,4.72406183 2.68579839,4.59896985 2.42089773,4.33406918 C2.15599706,4.06916852 2.03090508,3.7527594 2.03090508,3.38484181 C2.03090508,3.01692422 2.15599706,2.7005151 2.42089773,2.43561444 C2.68579839,2.17071377 3.00220751,2.04562179 3.3701251,2.04562179 C3.73804269,2.04562179 4.05445181,2.17071377 4.31935247,2.43561444 C4.58425313,2.7005151 4.70198675,3.01692422 4.70198675,3.38484181 C4.72406181,3.76011775 4.58425313,4.06916852 4.31935247,4.33406918 L4.31935247,4.33406918 L4.31935247,4.33406918 Z" id="路径" fill="#FFFFFF"></path>
                <path d="M19.6173657,8.47682121 L12.0824135,0.963944084 C11.8175129,0.699043421 11.4495953,0.470934525 11.0080942,0.279617373 C10.5518764,0.0883002423 10.147167,2.15576724e-08 9.77924945,2.15576724e-08 L7.4098602,2.15576724e-08 C7.77777779,2.15576724e-08 8.19720384,0.0883002423 8.63870494,0.279617394 C9.09492276,0.470934547 9.44812364,0.684326732 9.7130243,0.963944105 L17.2479765,8.47682121 C17.5128771,8.75643859 17.6379691,9.0728477 17.6379691,9.4407653 C17.6379691,9.80868289 17.5128771,10.125092 17.2479765,10.3899927 L12.3105225,15.3421634 C12.5239147,15.5555556 12.7152318,15.710081 12.8697572,15.8130979 C13.0242826,15.9161148 13.2376748,15.9529066 13.4878587,15.9529066 C13.8557763,15.9529066 14.1721854,15.8278146 14.4518028,15.5629139 L19.6173657,10.3826343 C19.8822664,10.1177336 20,9.8013245 20,9.43340691 C20,9.06548932 19.874908,8.76379693 19.6173657,8.47682121 L19.6173657,8.47682121 L19.6173657,8.47682121 Z" id="路径" fill="#FCBF28"></path>
            </g>
        </g>
    </g>
</svg>