<?xml version="1.0" standalone="no"?><!DOCTYPE svg PUBLIC "-//W3C//DTD SVG 1.1//EN" "http://www.w3.org/Graphics/SVG/1.1/DTD/svg11.dtd"><svg t="1679472301196" class="icon" viewBox="0 0 1024 1024" version="1.1" xmlns="http://www.w3.org/2000/svg" p-id="3546" xmlns:xlink="http://www.w3.org/1999/xlink" width="200" height="200"><path d="M158.72 464a320 320 0 0 0 0 192 300.32 300.32 0 0 0 21.6 51.84 318.08 318.08 0 0 0 135.84 135.84A300.32 300.32 0 0 0 368 865.28a317.76 317.76 0 0 0 96 14.72v64a382.4 382.4 0 0 1-195.04-53.28 382.72 382.72 0 0 1-135.68-135.68 384 384 0 0 1 0-390.08 382.72 382.72 0 0 1 135.68-135.68A382.4 382.4 0 0 1 464 176v64a317.76 317.76 0 0 0-96 14.72 300.32 300.32 0 0 0-51.84 21.6 318.08 318.08 0 0 0-135.84 135.84A300.32 300.32 0 0 0 158.72 464zM769.28 656a300.32 300.32 0 0 1-21.6 51.84l55.68 55.84-87.68 87.68L671.04 896h-6.72l-8.32-8.32-44.16-44A300.32 300.32 0 0 1 560 865.28V944h-96V704a144 144 0 0 0 0-288V176h96v78.72a300.32 300.32 0 0 1 51.84 21.6L656 232.32l8.32-8.32h6.72l44.64 44.64 87.68 87.68-55.68 55.84A300.32 300.32 0 0 1 769.28 464H848v192z" fill="#1B45AF" p-id="3547"></path><path d="M656 176v56.32l-44.16 44A300.32 300.32 0 0 0 560 254.72V176zM656 887.68V944h-96v-78.72a300.32 300.32 0 0 0 51.84-21.6zM865.28 656a300.32 300.32 0 0 1-21.6 51.84l55.68 55.84L767.04 896h-96l44.64-44.64 87.68-87.68-55.68-55.84A300.32 300.32 0 0 0 769.28 656H848V464h-78.72a300.32 300.32 0 0 0-21.6-51.84l55.68-55.84-87.68-87.68L671.04 224h96l128 128 4.32 4.32-55.68 55.84A300.32 300.32 0 0 1 865.28 464H944v192zM608 560a144 144 0 0 1-144 144V416a144 144 0 0 1 144 144z" fill="#0A2872" p-id="3548"></path><path d="M464 240v640a317.76 317.76 0 0 1-96-14.72 300.32 300.32 0 0 1-51.84-21.6 318.08 318.08 0 0 1-135.84-135.84A300.32 300.32 0 0 1 158.72 656a320 320 0 0 1 0-192 300.32 300.32 0 0 1 21.6-51.84 318.08 318.08 0 0 1 135.84-135.84A300.32 300.32 0 0 1 368 254.72a317.76 317.76 0 0 1 96-14.72z" fill="#CEE6F4" p-id="3549"></path><path d="M464 960A400 400 0 0 1 76.64 460c3.52-13.12 6.88-23.68 10.4-33.6a16 16 0 1 1 30.08 11.2 309.44 309.44 0 0 0-9.44 30.56A368 368 0 0 0 448 928V192A368 368 0 0 0 147.04 373.12c-3.52 5.92-6.88 12.16-10.08 18.24a16 16 0 0 1-28.48-14.72c3.52-6.72 7.2-13.28 11.04-19.84A400 400 0 0 1 464 160a16 16 0 0 1 16 16v768a16 16 0 0 1-16 16z" fill="#0D182D" p-id="3550"></path><path d="M464 896a336 336 0 0 1-50.4-3.84 16 16 0 0 1 4.8-32A265.12 265.12 0 0 0 448 864V256a299.36 299.36 0 0 0-75.2 13.44 291.04 291.04 0 0 0-49.12 20.48 302.88 302.88 0 0 0-129.12 129.12 285.76 285.76 0 0 0-20.64 49.28 305.76 305.76 0 0 0 0 182.4 291.04 291.04 0 0 0 20.48 49.12 302.88 302.88 0 0 0 129.12 129.12 285.76 285.76 0 0 0 49.28 20.64 16 16 0 0 1 11.2 20.48 16 16 0 0 1-20.8 9.92 316 316 0 0 1-54.56-22.72 335.04 335.04 0 0 1-142.56-142.56A321.28 321.28 0 0 1 144 660.8a335.04 335.04 0 0 1 0-201.6 316 316 0 0 1 22.72-54.56 335.04 335.04 0 0 1 142.56-142.56A321.28 321.28 0 0 1 363.2 240a334.88 334.88 0 0 1 100.8-16 16 16 0 0 1 16 16v640a16 16 0 0 1-16 16z" fill="#0D182D" p-id="3551"></path><path d="M464 544a16 16 0 0 1-16-16V176a16 16 0 0 1 16-16h96a16 16 0 0 1 16 16v67.2a328.64 328.64 0 0 1 32 13.6l44.16-44.16a16 16 0 0 1 11.36-4.64h6.72a16 16 0 0 1 11.36 4.64l48 48a16 16 0 0 1-22.72 22.72l-40-40.16L624 288a16 16 0 0 1-18.88 2.72 291.04 291.04 0 0 0-49.12-20.48 16 16 0 0 1-11.2-16V192H480v336a16 16 0 0 1-16 16zM560 960h-96a16 16 0 0 1-16-16V592a16 16 0 0 1 32 0v336h64v-62.72a16 16 0 0 1 11.2-15.2 291.04 291.04 0 0 0 49.12-20.48A16 16 0 0 1 624 832l44.48 44.48 113.12-113.12L736 720a16 16 0 0 1-2.72-18.88 291.04 291.04 0 0 0 20.48-49.12 16 16 0 0 1 15.2-11.2H832V480h-62.72a16 16 0 0 1-15.2-11.2 291.04 291.04 0 0 0-20.48-49.12 16 16 0 0 1 2.4-18.88l44.48-44.48-25.12-24.96a16 16 0 0 1 22.72-22.72l36.32 36.32a16 16 0 0 1 0 22.72l-48 48a328.64 328.64 0 0 1 14.4 32.32H848a16 16 0 0 1 16 16v192a16 16 0 0 1-16 16h-67.2a328.64 328.64 0 0 1-13.6 32l48 48a16 16 0 0 1 0 22.72l-132.32 132.32a16 16 0 0 1-11.36 4.64h-6.72a16 16 0 0 1-11.36-4.64L608.8 864a328.64 328.64 0 0 1-32 13.6V944A16 16 0 0 1 560 960z" fill="#0D182D" p-id="3552"></path><path d="M611.84 292.32a16 16 0 0 1-7.52-1.92 291.04 291.04 0 0 0-49.12-20.48 16 16 0 0 1-11.2-16V176a16 16 0 0 1 16-16h96a16 16 0 0 1 16 16v56.32a16 16 0 0 1-4.64 11.36L624 288a16 16 0 0 1-12.16 4.32zM576 243.2a328.64 328.64 0 0 1 32 13.6l32-32V192h-64zM656 960h-96a16 16 0 0 1-16-16v-78.72a16 16 0 0 1 11.2-15.2 291.04 291.04 0 0 0 49.12-20.48A16 16 0 0 1 624 832l44.16 44a16 16 0 0 1 4.64 11.36V944A16 16 0 0 1 656 960z m-80-32h64v-33.6l-32-31.2a328.64 328.64 0 0 1-32 13.6zM768 240h-0.96a16 16 0 0 1 0-32 16 16 0 0 1 16 16 16 16 0 0 1-15.04 16z" fill="#0D182D" p-id="3553"></path><path d="M767.04 912h-96a16 16 0 0 1-14.72-9.92 16 16 0 0 1 3.36-17.44l121.12-120.96L736 720a16 16 0 0 1-2.72-18.88 291.04 291.04 0 0 0 20.48-49.12 16 16 0 0 1 15.2-11.2H832V480h-62.72a16 16 0 0 1-15.2-11.2 291.04 291.04 0 0 0-20.48-49.12 16 16 0 0 1 2.4-18.88l44.48-44.48-25.12-24.96a16 16 0 0 1 22.72-22.72l36.32 36.32a16 16 0 0 1 0 22.72l-48 48a328.64 328.64 0 0 1 14.4 32.32H848a16 16 0 0 1 16 16v192a16 16 0 0 1-16 16h-67.2a328.64 328.64 0 0 1-13.6 32l48 48a16 16 0 0 1 0 22.72L709.6 880h50.88l27.2-27.36a16 16 0 0 1 22.72 22.72l-32 32a16 16 0 0 1-11.36 4.64z" fill="#0D182D" p-id="3554"></path><path d="M831.04 848a16 16 0 0 1-11.36-4.64 16 16 0 0 1 0-22.72l57.12-56.96L832 720a16 16 0 0 1-2.72-18.88 291.04 291.04 0 0 0 20.48-49.12 16 16 0 0 1 15.2-11.2H928V480h-62.72a16 16 0 0 1-15.2-11.2 291.04 291.04 0 0 0-20.48-49.12 16 16 0 0 1 2.4-18.88l44.48-44.48L760.48 240h-50.88l20.8 20.64a16 16 0 0 1-22.72 22.72l-48-48a16 16 0 0 1-3.68-17.44 16 16 0 0 1 14.72-9.92h96a16 16 0 0 1 11.36 4.64l132.32 132.32a16 16 0 0 1 0 22.72l-48 48a328.64 328.64 0 0 1 14.4 32.32H944a16 16 0 0 1 16 16v192a16 16 0 0 1-16 16h-67.2a328.64 328.64 0 0 1-13.6 32l48 48a16 16 0 0 1 0 22.72l-68.32 68.32a16 16 0 0 1-11.84 4.96z" fill="#0D182D" p-id="3555"></path><path d="M671.04 240h-6.72a16 16 0 0 1 0-32h6.72a16 16 0 0 1 0 32zM896 368h-96a16 16 0 0 1 0-32h96a16 16 0 0 1 0 32zM896 784h-96a16 16 0 0 1 0-32h96a16 16 0 0 1 0 32zM768 912h-0.96a16 16 0 0 1 0-32 16 16 0 0 1 16 16 16 16 0 0 1-15.04 16zM864 480h-16a16 16 0 0 1 0-32h16a16 16 0 0 1 0 32zM864 672h-16a16 16 0 0 1 0-32h16a16 16 0 0 1 0 32z" fill="#0D182D" p-id="3556"></path><path d="M768 912h-0.96a16 16 0 0 1 0-32 16 16 0 0 1 16 16 16 16 0 0 1-15.04 16zM671.04 912h-6.72a16 16 0 0 1 0-32h6.72a16 16 0 0 1 0 32zM554.24 464a16 16 0 0 1-10.08-3.52A128 128 0 0 0 464 432a16 16 0 0 1 0-32 160 160 0 0 1 100.32 35.52 16 16 0 0 1-10.08 28.48zM464 720a16 16 0 0 1 0-32 128 128 0 0 0 114.72-184.8 16 16 0 0 1 28.48-14.4A160 160 0 0 1 464 720z" fill="#0D182D" p-id="3557"></path><path d="M464 576a16 16 0 0 1-11.36-4.64l-160-160a16 16 0 0 1 22.72-22.72l160 160a16 16 0 0 1 0 22.72A16 16 0 0 1 464 576z" fill="#1B45AF" p-id="3558"></path><path d="M360 680a16 16 0 0 1-11.36-4.64 16 16 0 0 1 0-22.72l104-104a16 16 0 0 1 22.72 22.72l-104 104a16 16 0 0 1-11.36 4.64z" fill="#1B45AF" p-id="3559"></path><path d="M464 608a48 48 0 0 1 0-96 16 16 0 0 1 16 16v64a16 16 0 0 1-16 16z" fill="#0D182D" p-id="3560"></path></svg>