<?xml version="1.0" encoding="UTF-8"?>
<svg width="20px" height="21px" viewBox="0 0 20 21" version="1.1" xmlns="http://www.w3.org/2000/svg" xmlns:xlink="http://www.w3.org/1999/xlink">
    <title>tab_4备份@2x</title>
    <g id="页面-1" stroke="none" stroke-width="1" fill="none" fill-rule="evenodd">
        <g id="画板" transform="translate(-253.000000, -248.000000)">
            <g id="tab_4备份" transform="translate(253.000000, 248.636719)">
                <path d="M13.6522613,0.976884422 C13.6522613,0.438190955 14.0904523,0 14.6291457,0 C15.1678392,0 15.6060302,0.438190955 15.6060302,0.976884422 L15.6060302,3.71457286 C15.6060302,4.25326633 15.1678392,4.68743719 14.6331658,4.68743719 L14.6291457,4.68743719 C14.0904523,4.68743719 13.6522613,4.24924623 13.6522613,3.71055276 L13.6522613,0.976884422 L13.6522613,0.976884422 Z M4.40603015,0.976884422 C4.40603015,0.438190955 4.84422111,0 5.38291457,0 C5.92160804,0 6.35979899,0.438190955 6.35979899,0.976884422 L6.35979899,3.71457286 C6.35979899,4.25326633 5.92160804,4.68743719 5.38693467,4.68743719 L5.38291457,4.68743719 C4.84422111,4.68743719 4.40603015,4.24924623 4.40603015,3.71055276 L4.40603015,0.976884422 L4.40603015,0.976884422 Z M20,16.1728643 C20,18.0180905 18.3115578,19.5296482 16.2492462,19.5296482 L3.75075377,19.5296482 C1.68844221,19.5296482 0,18.0180905 0,16.1728643 L0,4.98492462 C0,3.13969849 1.68844221,1.6281407 3.75075377,1.6281407 L4.0040201,1.6281407 L4.0040201,3.71055276 C4.0040201,4.47035176 4.62311558,5.08944724 5.38291457,5.08944724 L5.38693467,5.08944724 C5.75276382,5.08944724 6.09849246,4.94472362 6.35979899,4.68743719 C6.62110553,4.42613065 6.76180905,4.08040201 6.76180905,3.71457286 L6.76180905,1.6281407 L13.2502513,1.6281407 L13.2502513,3.71055276 C13.2502513,4.47035176 13.8693467,5.08944724 14.6291457,5.08944724 L14.6331658,5.08944724 C15.3929648,5.08944724 16.0080402,4.47437186 16.0080402,3.71457286 L16.0080402,1.6281407 L16.2452261,1.6281407 C18.3075377,1.6281407 19.9959799,3.13969849 20,4.98492462 L20,16.1728643 Z" id="形状结合" fill="#FEA63C" fill-rule="nonzero"></path>
                <text id="30" font-family="AlibabaSansThai-Bold, Alibaba Sans Thai" font-size="10" font-weight="bold" fill="#FFFFFF">
                    <tspan x="4.1" y="15">30</tspan>
                </text>
            </g>
        </g>
    </g>
</svg>