<?xml version="1.0" encoding="UTF-8"?>
<svg width="16px" height="18px" viewBox="0 0 16 18" version="1.1" xmlns="http://www.w3.org/2000/svg" xmlns:xlink="http://www.w3.org/1999/xlink">
    <title>tab_5@2x</title>
    <g id="页面-1" stroke="none" stroke-width="1" fill="none" fill-rule="evenodd" opacity="0.200000003">
        <g id="画板" transform="translate(-324.000000, -198.000000)" fill="#000000" fill-rule="nonzero">
            <path d="M332.003636,207.818182 C329.508182,207.818182 327.503636,205.613182 327.503636,202.909091 C327.503636,200.205 329.508182,198 332.003636,198 C334.499091,198 336.503636,200.205 336.503636,202.909091 C336.503636,205.613182 334.499091,207.818182 332.003636,207.818182 Z M324.64,212.522727 C324.64,210.602283 326.196828,209.045455 328.117273,209.045455 L335.89,209.045455 C337.810445,209.045455 339.367273,210.602283 339.367273,212.522727 C339.367273,214.443172 337.810445,216 335.89,216 L328.117273,216 C326.197763,215.997746 324.642254,214.442237 324.64,212.522727 L324.64,212.522727 Z" id="tab_5"></path>
        </g>
    </g>
</svg>