<?xml version="1.0" standalone="no"?><!DOCTYPE svg PUBLIC "-//W3C//DTD SVG 1.1//EN" "http://www.w3.org/Graphics/SVG/1.1/DTD/svg11.dtd"><svg t="1715757148452" class="icon" viewBox="0 0 1024 1024" version="1.1" xmlns="http://www.w3.org/2000/svg" p-id="6697" xmlns:xlink="http://www.w3.org/1999/xlink" width="512" height="512"><path d="M804.571429 512a146.285714 146.285714 0 0 1 146.285714 146.285714h-73.142857a73.142857 73.142857 0 0 0-145.773715-8.557714L731.428571 658.285714v73.142857h256a36.571429 36.571429 0 0 1 36.571429 36.571429v219.428571a36.571429 36.571429 0 0 1-36.571429 36.571429h-365.714285a36.571429 36.571429 0 0 1-36.571429-36.571429v-219.428571a36.571429 36.571429 0 0 1 36.571429-36.571429H658.285714V658.285714a146.285714 146.285714 0 0 1 146.285715-146.285714z m146.212571 438.784v-146.285714h-292.571429v146.285714h292.571429z" fill="#1476BB" p-id="6698"></path><path d="M914.285714 658.285714m-73.142857 0a73.142857 73.142857 0 1 0 146.285714 0 73.142857 73.142857 0 1 0-146.285714 0Z" fill="#1476BB" p-id="6699"></path><path d="M475.428571 877.714286a36.571429 36.571429 0 1 1 0 73.142857h-146.285714a36.571429 36.571429 0 1 1 0-73.142857h146.285714z m438.857143-804.571429a36.571429 36.571429 0 0 1 36.571429 36.571429v292.571428a36.571429 36.571429 0 1 1-73.142857 0V146.212571L146.285714 146.285714v585.142857h329.142857a36.571429 36.571429 0 1 1 0 73.142858h-365.714285a36.571429 36.571429 0 0 1-36.571429-36.571429v-658.285714a36.571429 36.571429 0 0 1 36.571429-36.571429h804.571428z" fill="#4C5D7C" p-id="6700"></path></svg>