<?xml version="1.0" standalone="no"?><!DOCTYPE svg PUBLIC "-//W3C//DTD SVG 1.1//EN" "http://www.w3.org/Graphics/SVG/1.1/DTD/svg11.dtd"><svg t="1705999032784" class="icon" viewBox="0 0 1024 1024" version="1.1" xmlns="http://www.w3.org/2000/svg" p-id="34949" xmlns:xlink="http://www.w3.org/1999/xlink" width="128" height="128"><path d="M448 789.333333h128c25.6 0 42.666667-21.333333 42.666667-42.666666v-469.333334c0-25.6-17.066667-42.666667-42.666667-42.666666h-128c-25.6 0-42.666667 17.066667-42.666667 42.666666v469.333334c0 21.333333 17.066667 42.666667 42.666667 42.666666z m-256 0h128c25.6 0 42.666667-21.333333 42.666667-42.666666v-469.333334c0-25.6-17.066667-42.666667-42.666667-42.666666h-128c-21.333333 0-42.666667 17.066667-42.666667 42.666666v469.333334c0 21.333333 21.333333 42.666667 42.666667 42.666666z m469.333333-512v469.333334c0 21.333333 17.066667 42.666667 42.666667 42.666666h128c21.333333 0 42.666667-21.333333 42.666667-42.666666v-469.333334c0-25.6-21.333333-42.666667-42.666667-42.666666h-128c-25.6 0-42.666667 17.066667-42.666667 42.666666z" fill="#8DD28A" p-id="34950"></path></svg>