<?xml version="1.0" standalone="no"?><!DOCTYPE svg PUBLIC "-//W3C//DTD SVG 1.1//EN" "http://www.w3.org/Graphics/SVG/1.1/DTD/svg11.dtd"><svg t="1721796215660" class="icon" viewBox="0 0 1732 1024" version="1.1" xmlns="http://www.w3.org/2000/svg" p-id="43268" xmlns:xlink="http://www.w3.org/1999/xlink" width="866" height="512"><path d="M1706.723118 430.589681a1035.179657 1035.179657 0 0 0-1680.53249 0 139.775247 139.775247 0 0 0 0 162.893893 1035.258426 1035.258426 0 0 0 1680.571874 0 139.735863 139.735863 0 0 0-0.039384-162.893893zM866.378104 873.703603A361.70636 361.70636 0 1 1 1230.565682 511.997243a363.006045 363.006045 0 0 1-364.187578 361.70636z" fill="#1296db" p-id="43269"></path><path d="M900.445613 279.708032a281.047102 281.047102 0 0 0-35.052119-2.205526 21.858344 21.858344 0 0 0-21.188809 27.569082 118.15321 118.15321 0 0 1-94.798259 148.361047 117.680597 117.680597 0 0 1-77.54789-14.217769 21.661422 21.661422 0 0 0-32.137673 12.445471 235.006735 235.006735 0 1 0 441.774852-36.430573 223.506489 223.506489 0 0 0-181.050102-135.521732z" fill="#1296db" p-id="43270"></path></svg>