<?xml version="1.0" standalone="no"?><!DOCTYPE svg PUBLIC "-//W3C//DTD SVG 1.1//EN" "http://www.w3.org/Graphics/SVG/1.1/DTD/svg11.dtd"><svg t="1735792827705" class="icon" viewBox="0 0 1024 1024" version="1.1" xmlns="http://www.w3.org/2000/svg" p-id="5844" xmlns:xlink="http://www.w3.org/1999/xlink" width="512" height="512"><path d="M220.2 833H804c10.8 0 19.4 8.8 19.4 19.4 0 10.8-8.8 19.4-19.4 19.4H220.2c-10.8 0-19.4-8.8-19.4-19.4-0.2-10.6 8.6-19.4 19.4-19.4z" fill="#e6e6e6" p-id="5845"></path><path d="M803.8 833h-39c10.8 0 19.4 8.8 19.4 19.4 0 10.8-8.8 19.4-19.4 19.4h39c10.8 0 19.4-8.8 19.4-19.4 0.2-10.6-8.6-19.4-19.4-19.4zM220.2 872h39c-10.8 0-19.4-8.8-19.4-19.4 0-10.8 8.8-19.4 19.4-19.4h-39c-10.8 0-19.4 8.8-19.4 19.4-0.2 10.6 8.6 19.4 19.4 19.4z" fill="#e6e6e6" p-id="5846"></path><path d="M803.8 881.8H220.2c-16 0-29.2-13-29.2-29.2 0-16 13-29.2 29.2-29.2H804c16 0 29.2 13 29.2 29.2-0.2 16-13.2 29.2-29.4 29.2z m-583.6-39c-5.4 0-9.8 4.4-9.8 9.8s4.4 9.8 9.8 9.8H804c5.4 0 9.8-4.4 9.8-9.8s-4.4-9.8-9.8-9.8H220.2z" fill="#e6e6e6" p-id="5847"></path><path d="M220.2 677.4H804c10.8 0 19.4 8.8 19.4 19.4 0 10.8-8.8 19.4-19.4 19.4H220.2c-10.8 0-19.4-8.8-19.4-19.4-0.2-10.6 8.6-19.4 19.4-19.4z" fill="#e6e6e6" p-id="5848"></path><path d="M803.8 677.4h-39c10.8 0 19.4 8.8 19.4 19.4 0 10.8-8.8 19.4-19.4 19.4h39c10.8 0 19.4-8.8 19.4-19.4 0.2-10.6-8.6-19.4-19.4-19.4zM220.2 716.4h39c-10.8 0-19.4-8.8-19.4-19.4 0-10.8 8.8-19.4 19.4-19.4h-39c-10.8 0-19.4 8.8-19.4 19.4-0.2 10.6 8.6 19.4 19.4 19.4z" fill="#e6e6e6" p-id="5849"></path><path d="M803.8 726.2H220.2c-16 0-29.2-13-29.2-29.2 0-16 13-29.2 29.2-29.2H804c16 0 29.2 13 29.2 29.2-0.2 16-13.2 29.2-29.4 29.2z m-583.6-39c-5.4 0-9.8 4.4-9.8 9.8s4.4 9.8 9.8 9.8H804c5.4 0 9.8-4.4 9.8-9.8s-4.4-9.8-9.8-9.8H220.2z" fill="#e6e6e6" p-id="5850"></path><path d="M239.6 716.4h544.8v116.6H239.6z" fill="#e6e6e6" p-id="5851"></path><path d="M745.4 716.4h39v116.6h-39z" fill="#e6e6e6" p-id="5852"></path><path d="M239.6 716.4h39v116.6h-39z" fill="#e6e6e6" p-id="5853"></path><path d="M745.4 716.4h39v116.6h-39z" fill="#e6e6e6" p-id="5854"></path><path d="M784.4 842.8H239.6c-5.4 0-9.8-4.4-9.8-9.8v-116.6c0-5.4 4.4-9.8 9.8-9.8h544.8c5.4 0 9.8 4.4 9.8 9.8v116.6c0 5.4-4.4 9.8-9.8 9.8z m-535-19.4h525.4v-97.2H249.4v97.2z" fill="#e6e6e6" p-id="5855"></path><path d="M239.6 677.4L161.8 288.2l233.4 155.6L512 210.4l116.8 233.4 233.4-155.6-77.8 389.2z" fill="#e6e6e6" p-id="5856"></path><path d="M603.8 472.2l29.2-19.6L512 210.4l-19.4 38.8zM817.4 318.2l-71.8 359.2h38.8l77.8-389.2z" fill="#e6e6e6" p-id="5857"></path><path d="M206.6 318.2l71.8 359.2h-38.8L161.8 288.2z" fill="#e6e6e6" p-id="5858"></path><path d="M784.4 687.2H239.6c-4.6 0-8.6-3.2-9.6-7.8L152.2 290.2c-0.8-3.8 0.8-7.8 4.2-10 3.2-2.2 7.6-2.2 10.8 0l224.4 149.6L503.2 206c1.6-3.2 5-5.4 8.8-5.4 3.6 0 7 2 8.8 5.4l111.8 223.6L857 280c3.2-2.2 7.6-2.2 10.8 0 3.2 2.2 4.8 6.2 4.2 10l-78 389.4c-1 4.6-5 7.8-9.6 7.8z m-536.8-19.4h528.8L848 309.4 634 452c-2.4 1.6-5.2 2-7.8 1.4-2.6-0.8-5-2.6-6.2-5l-108-216-108 216c-1.2 2.4-3.6 4.4-6.2 5-2.6 0.8-5.6 0.2-7.8-1.4L176 309.4l71.6 358.4z" fill="#e6e6e6" p-id="5859"></path><path d="M794.2 643.6H230c-2.6 0-4.8-2.2-4.8-4.8 0-2.6 2.2-4.8 4.8-4.8h564.2c2.6 0 4.8 2.2 4.8 4.8 0 2.6-2.2 4.8-4.8 4.8z" fill="#e6e6e6" p-id="5860"></path><path d="M512 541.2m-38.8 0a38.8 38.8 0 1 0 77.6 0 38.8 38.8 0 1 0-77.6 0Z" fill="#e6e6e6" p-id="5861"></path><path d="M512 541.2c-14.4 0-27-7.8-33.6-19.4-3.4 5.8-5.2 12.4-5.2 19.4 0 21.4 17.4 38.8 38.8 38.8s38.8-17.4 38.8-38.8c0-7-2-13.8-5.2-19.4-6.6 11.6-19.2 19.4-33.6 19.4z" fill="#e6e6e6" p-id="5862"></path><path d="M512 589.8c-26.8 0-48.6-21.8-48.6-48.6s21.8-48.6 48.6-48.6 48.6 21.8 48.6 48.6-21.8 48.6-48.6 48.6z m0-77.8c-16 0-29.2 13-29.2 29.2 0 16 13 29.2 29.2 29.2 16 0 29.2-13 29.2-29.2 0-16-13-29.2-29.2-29.2z" fill="#e6e6e6" p-id="5863"></path><path d="M512 181.2m-29.2 0a29.2 29.2 0 1 0 58.4 0 29.2 29.2 0 1 0-58.4 0Z" fill="#e6e6e6" p-id="5864"></path><path d="M512 181.2c-10.8 0-20.2-5.8-25.2-14.6-2.4 4.2-4 9.2-4 14.6 0 16.2 13 29.2 29.2 29.2s29.2-13 29.2-29.2c0-5.4-1.4-10.2-4-14.6-5 8.8-14.4 14.6-25.2 14.6z" fill="#e6e6e6" p-id="5865"></path><path d="M512 220.2c-21.4 0-39-17.4-39-39s17.4-39 39-39c21.4 0 39 17.4 39 39s-17.6 39-39 39z m0-58.4c-10.8 0-19.4 8.8-19.4 19.4s8.8 19.4 19.4 19.4 19.4-8.8 19.4-19.4-8.6-19.4-19.4-19.4z" fill="#e6e6e6" p-id="5866"></path><path d="M161.8 259m-29.2 0a29.2 29.2 0 1 0 58.4 0 29.2 29.2 0 1 0-58.4 0Z" fill="#e6e6e6" p-id="5867"></path><path d="M161.8 259c-10.8 0-20.2-5.8-25.2-14.6-2.4 4.2-4 9.2-4 14.6 0 16.2 13 29.2 29.2 29.2s29.2-13 29.2-29.2c0-5.4-1.4-10.2-4-14.6-5 8.8-14.4 14.6-25.2 14.6z" fill="#e6e6e6" p-id="5868"></path><path d="M161.8 298c-21.4 0-39-17.4-39-39 0-21.4 17.4-39 39-39s39 17.4 39 39c-0.2 21.6-17.6 39-39 39z m0-58.4c-10.8 0-19.4 8.8-19.4 19.4 0 10.8 8.8 19.4 19.4 19.4 10.8 0 19.4-8.8 19.4-19.4 0-10.6-8.8-19.4-19.4-19.4z" fill="#e6e6e6" p-id="5869"></path><path d="M862.2 259m-29.2 0a29.2 29.2 0 1 0 58.4 0 29.2 29.2 0 1 0-58.4 0Z" fill="#e6e6e6" p-id="5870"></path><path d="M862.2 259c-10.8 0-20.2-5.8-25.2-14.6-2.4 4.2-4 9.2-4 14.6 0 16.2 13 29.2 29.2 29.2s29.2-13 29.2-29.2c0-5.4-1.4-10.2-4-14.6-5 8.8-14.4 14.6-25.2 14.6z" fill="#e6e6e6" p-id="5871"></path><path d="M862.2 298c-21.4 0-39-17.4-39-39 0-21.4 17.4-39 39-39 21.4 0 39 17.4 39 39s-17.4 39-39 39z m0-58.4c-10.8 0-19.4 8.8-19.4 19.4 0 10.8 8.8 19.4 19.4 19.4 10.8 0 19.4-8.8 19.4-19.4 0.2-10.6-8.6-19.4-19.4-19.4z" fill="#e6e6e6" p-id="5872"></path><path d="M336.8 774.8m-19.4 0a19.4 19.4 0 1 0 38.8 0 19.4 19.4 0 1 0-38.8 0Z" fill="#e6e6e6" p-id="5873"></path><path d="M336.8 774.6c-7.2 0-13.4-4-16.8-9.8-1.6 2.8-2.6 6.2-2.6 9.8 0 10.8 8.8 19.4 19.4 19.4 10.8 0 19.4-8.8 19.4-19.4 0-3.6-1-6.8-2.6-9.8-3.2 6-9.6 9.8-16.8 9.8z" fill="#e6e6e6" p-id="5874"></path><path d="M336.8 804c-16 0-29.2-13-29.2-29.2s13-29.2 29.2-29.2c16 0 29.2 13 29.2 29.2s-13 29.2-29.2 29.2z m0-39c-5.4 0-9.8 4.4-9.8 9.8s4.4 9.8 9.8 9.8 9.8-4.4 9.8-9.8-4.4-9.8-9.8-9.8z" fill="#e6e6e6" p-id="5875"></path><path d="M512 774.8m-19.4 0a19.4 19.4 0 1 0 38.8 0 19.4 19.4 0 1 0-38.8 0Z" fill="#e6e6e6" p-id="5876"></path><path d="M512 774.6c-7.2 0-13.4-4-16.8-9.8-1.6 2.8-2.6 6.2-2.6 9.8 0 10.8 8.8 19.4 19.4 19.4 10.8 0 19.4-8.8 19.4-19.4 0-3.6-1-6.8-2.6-9.8-3.4 6-9.6 9.8-16.8 9.8z" fill="#e6e6e6" p-id="5877"></path><path d="M512 804c-16 0-29.2-13-29.2-29.2s13-29.2 29.2-29.2c16 0 29.2 13 29.2 29.2S528 804 512 804z m0-39c-5.4 0-9.8 4.4-9.8 9.8s4.4 9.8 9.8 9.8 9.8-4.4 9.8-9.8-4.4-9.8-9.8-9.8z" fill="#e6e6e6" p-id="5878"></path><path d="M687.2 774.8m-19.4 0a19.4 19.4 0 1 0 38.8 0 19.4 19.4 0 1 0-38.8 0Z" fill="#e6e6e6" p-id="5879"></path><path d="M687.2 774.6c-7.2 0-13.4-4-16.8-9.8-1.6 2.8-2.6 6.2-2.6 9.8 0 10.8 8.8 19.4 19.4 19.4 10.8 0 19.4-8.8 19.4-19.4 0-3.6-1-6.8-2.6-9.8-3.4 6-9.6 9.8-16.8 9.8z" fill="#e6e6e6" p-id="5880"></path><path d="M687.2 804c-16 0-29.2-13-29.2-29.2s13-29.2 29.2-29.2c16 0 29.2 13 29.2 29.2s-13.2 29.2-29.2 29.2z m0-39c-5.4 0-9.8 4.4-9.8 9.8s4.4 9.8 9.8 9.8 9.8-4.4 9.8-9.8c-0.2-5.4-4.6-9.8-9.8-9.8z" fill="#e6e6e6" p-id="5881"></path></svg>