<?xml version="1.0" standalone="no"?><!DOCTYPE svg PUBLIC "-//W3C//DTD SVG 1.1//EN" "http://www.w3.org/Graphics/SVG/1.1/DTD/svg11.dtd"><svg t="1705999269639" class="icon" viewBox="0 0 1024 1024" version="1.1" xmlns="http://www.w3.org/2000/svg" p-id="50574" xmlns:xlink="http://www.w3.org/1999/xlink" width="128" height="128"><path d="M896 618.666667H443.733333c-10.666667 0-21.333333-4.266667-29.866666-12.8l-78.933334-78.933334c-8.533333-8.533333-8.533333-21.333333 0-29.866666L413.866667 418.133333c8.533333-8.533333 19.2-12.8 29.866666-12.8H896c12.8 0 21.333333 8.533333 21.333333 21.333334v170.666666c0 12.8-8.533333 21.333333-21.333333 21.333334z" fill="#3F51B5" p-id="50575"></path><path d="M192 128h42.666667v768h-42.666667z" fill="#CFD8DC" p-id="50576"></path><path d="M149.333333 213.333333a64 64 0 1 0 128 0 64 64 0 0 0-128 0zM149.333333 512a64 64 0 1 0 128 0 64 64 0 0 0-128 0zM149.333333 810.666667a64 64 0 1 0 128 0 64 64 0 0 0-128 0z" fill="#90A4AE" p-id="50577"></path><path d="M725.333333 917.333333h-281.6c-10.666667 0-21.333333-4.266667-29.866666-12.8l-78.933334-78.933333c-8.533333-8.533333-8.533333-21.333333 0-29.866667L413.866667 716.8c8.533333-8.533333 19.2-12.8 29.866666-12.8H725.333333c12.8 0 21.333333 8.533333 21.333334 21.333333v170.666667c0 12.8-8.533333 21.333333-21.333334 21.333333z" fill="#448AFF" p-id="50578"></path><path d="M746.666667 320h-302.933334c-10.666667 0-21.333333-4.266667-29.866666-12.8L334.933333 228.266667c-8.533333-8.533333-8.533333-21.333333 0-29.866667L413.866667 119.466667c8.533333-8.533333 19.2-12.8 29.866666-12.8h302.933334c12.8 0 21.333333 8.533333 21.333333 21.333333v170.666667c0 12.8-8.533333 21.333333-21.333333 21.333333z" fill="#00BCD4" p-id="50579"></path></svg>