<?xml version="1.0" standalone="no"?><!DOCTYPE svg PUBLIC "-//W3C//DTD SVG 1.1//EN" "http://www.w3.org/Graphics/SVG/1.1/DTD/svg11.dtd"><svg t="1707061520307" class="icon" viewBox="0 0 1024 1024" version="1.1" xmlns="http://www.w3.org/2000/svg" p-id="4203" xmlns:xlink="http://www.w3.org/1999/xlink" width="128" height="128"><path d="M599.497 425.632l-62.095-9.032c-4.516-16.37-11.29-32.177-18.628-46.29l38.95-50.804c6.774-6.774 6.774-20.886 0-27.66l-48.546-48.547c-6.774-6.774-20.887-6.774-27.66 0l-53.064 38.95c-14.112-6.774-29.918-14.112-46.289-18.628l-6.774-64.353c0-11.29-9.032-20.887-20.886-20.887h-68.869c-11.29 0-20.886 9.032-20.886 20.887l-9.032 64.353c-16.37 4.516-32.177 11.29-46.29 18.628l-50.804-38.95c-6.774-6.774-20.886-6.774-27.66 0l-48.547 48.547c-6.774 6.774-6.774 20.886 0 27.66l39.515 50.805c-9.032 14.112-14.113 29.918-18.629 46.289l-62.66 6.774c-11.29 0-20.886 9.032-20.886 20.886v69.433c0 11.29 9.032 20.887 20.887 20.887l62.095 6.774c4.516 16.37 11.29 32.176 18.628 48.547l-39.515 48.547c-6.774 6.774-6.774 20.886 0 27.66l48.547 48.547c6.774 6.774 20.887 6.774 27.66 0l48.547-36.692c14.113 9.031 29.919 16.37 48.547 20.886l6.774 62.095c0 11.29 9.032 20.886 20.887 20.886h69.433c11.29 0 20.886-9.032 20.886-20.886l6.774-62.095c16.37-4.516 32.177-11.29 48.547-20.886l48.547 39.514c6.774 6.774 20.887 6.774 27.66 0l48.547-48.546c6.774-6.774 6.774-20.887 0-27.66l-39.515-48.548c9.032-14.112 14.113-29.918 18.629-46.289l62.095-6.774c11.29 0 20.886-9.032 20.886-20.886v-69.998c5.08-15.806-4.516-23.144-15.806-23.144zM320.071 624.335c-80.724 0-145.641-64.917-145.641-145.64 0-80.724 64.353-145.641 145.64-145.641 80.724 0 145.641 64.353 145.641 145.64-2.258 80.724-67.175 145.641-145.64 145.641z m632.238-473.049l-41.773 14.112c-9.032-9.032-16.37-16.37-27.66-23.144l9.031-44.031c2.258-6.774-2.258-16.37-9.032-18.629l-46.288-16.37c-6.774-2.258-16.37 2.258-18.629 9.032l-20.886 41.773c-11.29 0-23.145 0-34.435 2.258l-25.402-36.693c-4.516-6.774-11.29-9.032-18.629-6.774l-44.03 23.145c-6.774 4.516-9.032 11.29-6.774 18.628l14.112 44.031c-9.032 6.774-16.37 16.37-23.144 25.402l-46.29-9.032c-6.773-2.258-16.37 2.258-18.628 9.032l-16.37 46.29c-2.258 6.773 2.258 16.37 9.032 18.628l41.773 20.886c0 11.29 0 23.145 2.258 34.435l-36.693 25.402c-6.774 4.516-9.032 11.29-6.774 18.628l23.145 44.031c4.516 6.774 11.29 9.032 18.628 6.774l41.773-14.112c9.032 9.032 18.628 16.37 27.66 23.144l-9.032 44.031c-2.258 6.774 2.258 16.37 9.032 18.629l46.29 16.37c6.773 2.258 16.37-2.258 18.628-9.032l18.628-39.515c11.29 0 25.403 0 36.693-2.258l25.402 36.693c4.516 6.774 11.29 9.032 18.628 6.774l44.031-23.145c6.774-4.516 9.032-11.29 6.774-18.628l-14.112-41.773c9.032-9.032 16.37-18.629 23.144-27.66l44.031 9.031c6.774 2.258 16.37-2.258 18.629-9.032l16.37-46.288c2.258-6.774-2.258-16.37-9.032-18.629l-39.515-18.628c0-11.29 0-23.145-2.258-36.693l36.693-25.402c6.774-4.516 9.032-11.29 6.774-18.629l-23.145-44.03c-4.516-9.032-11.29-11.29-18.628-9.032zM837.15 368.053c-50.805 25.402-112.9 4.516-138.302-46.289-25.402-50.805-4.516-112.9 46.289-138.302 50.805-25.402 112.9-4.516 138.302 46.289 25.402 50.805 4.516 112.9-46.289 138.302z m69.434 224.106l-39.515 23.144c-9.032-6.774-20.886-11.29-32.176-16.37v-46.29c0-6.773-4.516-14.112-11.29-16.37l-48.547-4.516c-6.774 0-14.112 4.516-16.37 11.29l-11.29 44.031c-11.29 2.258-23.145 4.516-34.435 9.032l-29.918-29.918c-4.516-6.774-14.112-6.774-20.886-2.258l-38.95 29.918c-6.775 4.516-6.775 14.113-2.259 20.887l23.145 39.515c-6.774 9.032-11.29 20.886-16.37 29.918h-46.29c-6.774 0-14.112 4.516-16.37 11.29l-4.516 48.547c0 6.774 4.516 14.112 11.29 16.37l44.03 11.29c2.259 11.29 4.517 23.145 9.033 34.435l-32.177 32.176c-6.774 4.516-6.774 14.113-2.258 20.886l29.919 39.515c4.516 6.774 14.112 6.774 20.886 2.258l39.515-23.144c9.032 6.774 20.886 14.112 32.176 18.628v44.031c0 6.774 4.516 14.113 11.29 16.37l48.547 4.517c6.774 0 14.113-4.516 16.37-11.29l11.29-44.031c11.29-2.258 23.145-4.516 34.435-9.032l32.176 29.918c4.516 6.774 14.113 6.774 20.887 2.258l38.95-29.918c6.774-4.516 6.774-14.113 2.258-20.887l-23.144-36.692c6.774-9.032 14.112-20.886 18.628-32.176h44.031c6.774 0 14.113-4.516 16.37-11.29l4.517-48.547c0-6.774-4.516-14.113-11.29-16.37l-44.031-11.29c-2.258-11.29-4.516-23.145-9.032-34.435l32.176-32.176c6.774-4.516 6.774-14.113 2.258-20.887l-29.918-39.515c-7.339-7.338-16.37-7.338-23.145-2.822zM839.41 827.555c-44.03 34.434-108.384 27.66-145.64-16.37-34.435-44.032-27.661-108.385 16.37-145.641 44.03-34.435 108.384-27.66 145.64 16.37 36.693 44.03 27.66 110.642-16.37 145.64z" p-id="4204"></path></svg>