<svg xmlns="http://www.w3.org/2000/svg" width="24" height="22.923" viewBox="0 0 24 22.923">
  <path id="待办提醒" d="M69.848,85.432l-1.639-1.639a12,12,0,0,0-4.722,9h2.292A9.68,9.68,0,0,1,69.848,85.432ZM85.195,92.79h2.292a11.977,11.977,0,0,0-4.734-9l-1.639,1.639A9.657,9.657,0,0,1,85.195,92.79Zm-2.258.573a7.447,7.447,0,0,0-5.731-7.244V85.34a1.719,1.719,0,0,0-3.438,0v.779a7.447,7.447,0,0,0-5.731,7.244v6.3l-2.292,2.292v1.146H85.229v-1.146l-2.292-2.292Zm-7.45,13.181a2.006,2.006,0,0,0,.458-.046,2.278,2.278,0,0,0,1.65-1.352,2.307,2.307,0,0,0,.183-.894H73.195A2.3,2.3,0,0,0,75.487,106.544Z" transform="translate(-63.487 -83.621)" fill="#f69149"/>
</svg>
