<?xml version="1.0" encoding="UTF-8"?>
<svg width="30px" height="30px" viewBox="0 0 30 30" version="1.1" xmlns="http://www.w3.org/2000/svg" xmlns:xlink="http://www.w3.org/1999/xlink">
    <title>ic_2@2x</title>
    <defs>
        <linearGradient x1="4.58711655%" y1="26.0115132%" x2="76.1866711%" y2="77.262136%" id="linearGradient-1">
            <stop stop-color="#20B2F1" offset="0%"></stop>
            <stop stop-color="#0D84FF" offset="100%"></stop>
        </linearGradient>
    </defs>
    <g id="页面-1" stroke="none" stroke-width="1" fill="none" fill-rule="evenodd">
        <g id="画板" transform="translate(-142.000000, -15.000000)">
            <g id="ic_2" transform="translate(142.000000, 15.000000)">
                <rect id="矩形" fill="#FFFFFF" x="0" y="0" width="30" height="30" rx="5"></rect>
                <g id="编组" transform="translate(7.000000, 7.000000)" fill="url(#linearGradient-1)" fill-rule="nonzero">
                    <path d="M6.41937874,7.20968938 L4.44304327,9.18490703 C4.23331025,9.3945551 4.11547632,9.67894989 4.11547632,9.97549711 C4.11547632,10.2720443 4.23331025,10.5564391 4.44304327,10.7660872 L5.23335389,11.5563978 C5.44300196,11.7661308 5.72739675,11.8839648 6.02394397,11.8839648 C6.32049119,11.8839648 6.60488599,11.7661308 6.81453406,11.5563978 L8.79031062,9.58006233 C9.20960568,9.99933578 9.445165,10.5680056 9.445165,11.160963 C9.445165,11.7539205 9.20960568,12.3225903 8.79031062,12.7418638 L6.02366451,15.5085099 C5.36889185,16.1630848 4.30750529,16.1630848 3.65273263,15.5085099 L0.490931214,12.3467084 C-0.163643738,11.6919358 -0.163643738,10.6305492 0.490931214,9.97577656 L3.25757733,7.20913045 C3.67685077,6.7898354 4.24552056,6.55427608 4.83847803,6.55427608 C5.4314355,6.55427608 6.0001053,6.7898354 6.41937874,7.20913045 L6.41937874,7.20968938 Z M9.58062126,8.79031062 L11.5569567,6.81453406 C11.7666898,6.60488599 11.8845237,6.32049119 11.8845237,6.02394397 C11.8845237,5.72739675 11.7666898,5.44300196 11.5569567,5.23335389 L10.7666461,4.44304327 C10.556998,4.23331025 10.2726032,4.11547632 9.97605603,4.11547632 C9.67950881,4.11547632 9.39511401,4.23331025 9.18546594,4.44304327 L7.20968938,6.41937874 C6.79039433,6.0001053 6.55483501,5.4314355 6.55483501,4.83847803 C6.55483501,4.24552056 6.79039433,3.67685077 7.20968938,3.25757733 L9.97633549,0.490931214 C10.6311082,-0.163643738 11.6924947,-0.163643738 12.3472674,0.490931214 L15.5090688,3.65273263 C16.1636437,4.30750529 16.1636437,5.36889185 15.5090688,6.02366451 L12.7424227,8.79031062 C12.3231492,9.20960567 11.7544794,9.44516499 11.161522,9.44516499 C10.5685645,9.44516499 9.9998947,9.20960567 9.58062126,8.79031062 Z M5.62906812,9.58062126 L9.58062126,5.62906812 C9.79885951,5.41067553 10.1528187,5.41055041 10.3712113,5.62878866 C10.5896039,5.84702692 10.589729,6.20098615 10.3714908,6.41937874 L6.41937874,10.3709319 C6.27820335,10.5122071 6.07238246,10.5674346 5.87944682,10.5158108 C5.68651117,10.4641869 5.53577229,10.3135546 5.48401205,10.1206555 C5.4322518,9.92775637 5.48733381,9.72189649 5.62850921,9.58062126 L5.62906812,9.58062126 Z" id="形状"></path>
                </g>
            </g>
        </g>
    </g>
</svg>