<svg xmlns="http://www.w3.org/2000/svg" width="24" height="24" viewBox="0 0 24 24">
  <g id="日期" transform="translate(0)">
    <path id="路径_7" data-name="路径 7" d="M21.768,98.816h-1.4V101.6a2.112,2.112,0,0,1-4.224,0V98.816H7.848V101.6a2.112,2.112,0,0,1-4.224,0V98.816H2.232A2.21,2.21,0,0,0,0,101v17.316A2.2,2.2,0,0,0,2.232,120.5H21.768A2.21,2.21,0,0,0,24,118.316V101a2.21,2.21,0,0,0-2.232-2.184Zm-5.352,14.7H5.4a.96.96,0,0,1,0-1.92H16.416a.96.96,0,1,1,0,1.92Zm2.232-4.488H5.4a.96.96,0,0,1,0-1.92H18.648a.96.96,0,1,1,0,1.92Z" transform="translate(0 -96.5)" fill="#f69149"/>
    <path id="路径_8" data-name="路径 8" d="M189.224,0a1.309,1.309,0,0,0-1.32,1.284v3.8a1.32,1.32,0,0,0,2.64.012V1.284A1.3,1.3,0,0,0,189.224,0Zm12.528,0a1.3,1.3,0,0,0-1.32,1.284v3.8a1.32,1.32,0,0,0,2.64.012V1.284A1.3,1.3,0,0,0,201.752,0Z" transform="translate(-183.5)" fill="#f69149"/>
  </g>
</svg>
