<svg id="结束时间" xmlns="http://www.w3.org/2000/svg" width="24" height="24.001" viewBox="0 0 24 24.001">
  <path id="路径_11" data-name="路径 11" d="M12,24A12,12,0,0,0,12,0a.945.945,0,0,0-1,1,.944.944,0,0,0,1,1A9.9,9.9,0,0,1,22,12,9.9,9.9,0,0,1,12,22,9.9,9.9,0,0,1,2,12,11.092,11.092,0,0,1,4.6,5.2a.968.968,0,0,0,0-1.4A1.509,1.509,0,0,0,3,4a11.707,11.707,0,0,0-3,8A12.036,12.036,0,0,0,12,24Z" fill="#f69149"/>
  <path id="路径_12" data-name="路径 12" d="M127.68,3a3,3,0,1,1,6,0,3,3,0,1,1-6,0Zm2,0a1,1,0,1,0,2,0,1,1,0,1,0-2,0Zm2,12h6a.945.945,0,0,0,1-1V6a1,1,0,1,0-2,0v7h-5a1,1,0,1,0,0,2Z" transform="translate(-124.68)" fill="#f69149"/>
</svg>
