<?xml version="1.0" standalone="no"?><!DOCTYPE svg PUBLIC "-//W3C//DTD SVG 1.1//EN" "http://www.w3.org/Graphics/SVG/1.1/DTD/svg11.dtd"><svg t="1707915134071" class="icon" viewBox="0 0 1024 1024" version="1.1" xmlns="http://www.w3.org/2000/svg" p-id="16860" xmlns:xlink="http://www.w3.org/1999/xlink" width="128" height="128"><path d="M175.5 128h544.5v768H175.5c-26 0-47.5-21.5-47.5-47.5V175.5c0-26 21.5-47.5 47.5-47.5z" fill="#E0E0E0" p-id="16861"></path><path d="M424 500c44 0 84 18 113 47s47 69 47 113v28.5c0 10-4 19-11 26-6.5 6.5-16 11-26 11H300.5c-10 0-19-4-26-11-6.5-6.5-11-16-11-26v-28.5c0-44 18-84 47-113s69-47 113-47h0.5z" fill="#424242" p-id="16862"></path><path d="M382.5 466.5h83v69.5H382.5z" fill="#E6B575" p-id="16863"></path><path d="M424 299c23.5 0 45.5 4.5 61.5 17 16.5 13 26.5 33.5 26.5 65 0 30.5-9.5 58.5-25 78.5-16 21-38.5 34-63 34-25 0-47-13-63-34-15.5-20-25-48-25-78.5 0-31.5 10-52.5 26.5-65 16-12.5 38-17 61.5-17z" fill="#FFC982" p-id="16864"></path><path d="M424 299c23.5 0 45.5 4.5 61.5 17s26 32.5 26.5 63c-14 10-30.5 16-48 16-25.5 0-48-12-64.5-30.5-15 13.5-34.5 22-55.5 22-2.5 0-5.5 0-8-0.5v-4.5c0-31.5 10-52.5 26.5-65 16-12.5 38-17 61.5-17v-0.5z" fill="#212121" p-id="16865"></path><path d="M414.5 529l9.5 7 9.5-7v196h-19z" fill="#3C3C3C" p-id="16866"></path><path d="M382.5 485l41.5 51-35 55-19.5-79zM465.5 485l-41.5 51 35 55 19.5-79z" fill="#212121" p-id="16867"></path><path d="M720 128h176v153.5h-176z" fill="#F57F17" p-id="16868"></path><path d="M720 589h176v153.5h-176z" fill="#0091EA" p-id="16869"></path><path d="M720 435h176v153.5h-176z" fill="#558B2F" p-id="16870"></path><path d="M720 281.5h176v153.5h-176z" fill="#C0CA33" p-id="16871"></path><path d="M720 742.5h176v153.5h-176z" fill="#00B0FF" p-id="16872"></path><path d="M744 128h-24v153.5h24z" fill="#B66E1F" p-id="16873"></path><path d="M744 589h-24v153.5h24z" fill="#037AB9" p-id="16874"></path><path d="M744 435h-24v154h24z" fill="#417631" p-id="16875"></path><path d="M744 281.5h-24v153.5h24z" fill="#90A433" p-id="16876"></path><path d="M744 742.5h-24v153.5h24z" fill="#0391C8" p-id="16877"></path><path d="M834 229h-11.5l-4.5-12h-21l-4.5 12h-11l20.5-52.5h11l21 52.5z m-19.5-20.5l-7-19.5-7 19.5h14.5-0.5zM786 330h21c4 0 7 0 9.5 0.5 2 0.5 4 1 5.5 2s3 2.5 4 4.5 1.5 4 1.5 6c0 2.5-0.5 4.5-2 6.5s-3 3.5-5.5 4.5c3 1 5.5 2.5 7.5 4.5 1.5 2 2.5 5 2.5 8 0 2.5-0.5 4.5-1.5 7-1 2-2.5 4-4.5 5.5s-4.5 2-7 2.5c-2 0-6 0.5-12.5 0.5h-18V329.5l-0.5 0.5z m10.5 8.5v12h14.5c2 0 3-1 4.5-2 1-1 1.5-2.5 1.5-4s-0.5-3-1.5-4-2-1.5-4-2h-15z m0 21v14h10c4 0 6 0 7-0.5 1.5-0.5 3-1 4-2s1.5-2.5 1.5-4.5c0-1.5-0.5-3-1-4-1-1-2-2-3.5-2.5s-4.5-0.5-9.5-0.5h-8.5zM820.5 517l10 3c-1.5 5.5-4 10-8 12.5-3.5 3-8.5 4-14 4-7 0-12.5-2.5-17-7s-6.5-11-6.5-19.5 2.5-15.5 6.5-20.5c4.5-5 10.5-7 17.5-7 6.5 0 11.5 2 15.5 5.5 2.5 2 4 5.5 5.5 9.5l-10.5 2.5c-0.5-2.5-2-5-4-6.5s-4.5-2.5-7-2.5c-4 0-7 1.5-9.5 4-2.5 3-3.5 7.5-3.5 13.5 0 6.5 1 11.5 3.5 14 2.5 3 5.5 4 9.5 4 3 0 5-1 7-2.5 2-2 3.5-4.5 4.5-8.5l0.5 1.5zM786 637.5h19.5c4.5 0 7.5 0.5 10 1 3 1 5.5 2.5 8 5 2 2.5 4 5 5 8.5s1.5 7.5 1.5 12.5c0 4.5-0.5 8-1.5 11-1.5 4-3 7-5.5 9-2 2-4.5 3-7.5 4-2.5 0.5-5.5 1-9.5 1h-20v-52.5 0.5z m10.5 9v34.5h8c3 0 5 0 6.5-0.5s3-1 4.5-2c1-1 2-2.5 3-5 0.5-2.5 1-5.5 1-9.5s-0.5-7-1-9.5c-0.5-2-1.5-4-3-5s-3-2-5-2.5c-1.5-0.5-4.5-0.5-8.5-0.5h-5.5zM788 843v-52h39v9h-28.5v11.5h26.5v8.5h-26.5v14.5h29.5v8.5z" fill="#004D40" p-id="16878"></path></svg>