<?xml version="1.0" standalone="no"?><!DOCTYPE svg PUBLIC "-//W3C//DTD SVG 1.1//EN" "http://www.w3.org/Graphics/SVG/1.1/DTD/svg11.dtd"><svg t="1708604576177" class="icon" viewBox="0 0 1049 1024" version="1.1" xmlns="http://www.w3.org/2000/svg" p-id="9811" xmlns:xlink="http://www.w3.org/1999/xlink" width="131.125" height="128"><path d="M864 102.4h-422.4c-38.8864 0-70.4 31.8464-70.4 71.1168v497.7664c0 39.2704 31.5136 71.1168 70.4 71.1168h422.4c38.8864 0 70.4-31.8464 70.4-71.1168V173.5168C934.4 134.2464 902.8864 102.4 864 102.4z" fill="#F2ACFF" p-id="9812"></path><path d="M675.2 230.4H195.2C151.0144 230.4 115.2 264.7808 115.2 307.2v537.6c0 42.4192 35.84 76.8 80 76.8h480c44.1856 0 80-34.3808 80-76.8V307.2c0-42.4192-35.84-76.8-80-76.8z" fill="#A46FFF" p-id="9813"></path><path d="M243.2 358.4m25.6 0l102.4 0q25.6 0 25.6 25.6l0 204.8q0 25.6-25.6 25.6l-102.4 0q-25.6 0-25.6-25.6l0-204.8q0-25.6 25.6-25.6Z" fill="#7220FF" fill-opacity=".5" p-id="9814"></path><path d="M448 358.4m25.6 0l153.6 0q25.6 0 25.6 25.6l0 51.2q0 25.6-25.6 25.6l-153.6 0q-25.6 0-25.6-25.6l0-51.2q0-25.6 25.6-25.6Z" fill="#7220FF" opacity=".5" p-id="9815"></path><path d="M448 512m25.6 0l153.6 0q25.6 0 25.6 25.6l0 51.2q0 25.6-25.6 25.6l-153.6 0q-25.6 0-25.6-25.6l0-51.2q0-25.6 25.6-25.6Z" fill="#7220FF" opacity=".5" p-id="9816"></path><path d="M243.2 691.2m25.6 0l358.4 0q25.6 0 25.6 25.6l0 51.2q0 25.6-25.6 25.6l-358.4 0q-25.6 0-25.6-25.6l0-51.2q0-25.6 25.6-25.6Z" fill="#7220FF" p-id="9817"></path></svg>