<?xml version="1.0" standalone="no"?><!DOCTYPE svg PUBLIC "-//W3C//DTD SVG 1.1//EN" "http://www.w3.org/Graphics/SVG/1.1/DTD/svg11.dtd"><svg t="1658465631720" class="icon" viewBox="0 0 1024 1024" version="1.1" xmlns="http://www.w3.org/2000/svg" p-id="2350" xmlns:xlink="http://www.w3.org/1999/xlink" width="96" height="96"><defs><style type="text/css">@font-face { font-family: feedback-iconfont; src: url("//at.alicdn.com/t/font_1031158_u69w8yhxdu.woff2?t=1630033759944") format("woff2"), url("//at.alicdn.com/t/font_1031158_u69w8yhxdu.woff?t=1630033759944") format("woff"), url("//at.alicdn.com/t/font_1031158_u69w8yhxdu.ttf?t=1630033759944") format("truetype"); }
</style></defs><path d="M599.04 559.786667m-179.541333 0a179.541333 179.541333 0 1 0 359.082666 0 179.541333 179.541333 0 1 0-359.082666 0Z" fill="#FBDF83" p-id="2351"></path><path d="M481.28 574.122667h115.029333l-18.090666 120.490666h35.498666l23.552-155.989333h-196.608l23.210667 155.989333h35.84zM463.872 671.061333zM613.717333 671.061333zM599.04 763.221333c0 25.258667-20.48 45.738667-45.738667 45.738667h-30.72c-25.258667 0-45.738667-20.48-45.738666-45.738667v-48.810666c-12.288-4.096-24.234667-9.216-35.157334-15.701334v64.170667c0 44.714667 36.181333 80.896 80.896 80.896h30.72c44.714667 0 80.896-36.181333 80.896-80.896v-63.488c-11.264 6.144-22.869333 11.264-35.157333 15.36v48.469333z" p-id="2352"></path><path d="M538.965333 330.752c-108.544 0-196.949333 88.405333-196.949333 196.949333 0 73.386667 40.277333 137.557333 100.010667 171.349334 11.264 6.485333 22.869333 11.605333 35.157333 15.701333 19.456 6.485333 40.277333 10.24 61.781333 10.24 21.162667 0 41.301333-3.413333 60.416-9.557333 12.288-4.096 24.234667-9.216 35.157334-15.36 60.416-33.792 101.717333-98.304 101.717333-172.373334-0.341333-108.544-88.746667-196.949333-197.290667-196.949333z m74.752 340.309333c-22.528 11.946667-47.786667 18.432-75.093333 18.432-26.965333 0-52.565333-6.826667-74.752-18.432-51.541333-26.965333-87.04-81.237333-87.04-143.36 0-89.088 72.704-161.792 161.792-161.792 89.088 0 161.792 72.704 161.792 161.792 0.341333 62.122667-35.157333 116.053333-86.698667 143.36zM472.405333 739.328h60.757334v35.157333h-60.757334zM571.050667 739.328h60.757333v35.157333h-60.757333zM537.941333 288.085333c-9.898667 0-17.749333-7.850667-17.749333-17.749333V179.2c0-9.898667 7.850667-17.749333 17.749333-17.749333 9.898667 0 17.749333 7.850667 17.749334 17.749333v91.136c0 9.898667-7.850667 17.749333-17.749334 17.749333zM392.192 342.016c-4.437333 0-8.874667-1.706667-12.288-5.12L325.973333 282.965333c-6.826667-6.826667-6.826667-18.090667 0-24.917333s18.090667-6.826667 24.917334 0l53.930666 53.930667c6.826667 6.826667 6.826667 18.090667 0 24.917333-3.413333 3.413333-7.850667 5.12-12.629333 5.12zM305.493333 456.021333c-1.365333 0-3.072-0.341333-4.437333-0.682666L242.346667 439.637333c-9.557333-2.389333-15.018667-12.288-12.288-21.504 2.389333-9.557333 12.288-15.018667 21.504-12.288l58.709333 15.701334c9.557333 2.389333 15.018667 12.288 12.288 21.504-2.048 7.509333-9.216 12.970667-17.066667 12.970666zM693.248 342.016c-4.437333 0-8.874667-1.706667-12.288-5.12-6.826667-6.826667-6.826667-18.090667 0-24.917333l53.930667-53.930667c6.826667-6.826667 18.090667-6.826667 24.917333 0s6.826667 18.090667 0 24.917333l-53.930667 53.930667c-3.754667 3.413333-8.192 5.12-12.629333 5.12zM779.946667 456.021333c-7.850667 0-15.018667-5.12-17.066667-12.970666-2.389333-9.557333 3.072-19.114667 12.288-21.504l58.709333-15.701334c9.557333-2.389333 19.114667 3.072 21.504 12.288 2.389333 9.557333-3.072 19.114667-12.288 21.504l-58.709333 15.701334c-1.365333 0.341333-3.072 0.682667-4.437333 0.682666z" p-id="2353"></path></svg>