<?xml version="1.0" standalone="no"?><!DOCTYPE svg PUBLIC "-//W3C//DTD SVG 1.1//EN" "http://www.w3.org/Graphics/SVG/1.1/DTD/svg11.dtd"><svg t="1647586067970" class="icon" viewBox="0 0 1024 1024" version="1.1" xmlns="http://www.w3.org/2000/svg" p-id="2469" width="400" height="400" xmlns:xlink="http://www.w3.org/1999/xlink"><defs><style type="text/css"></style></defs><path d="M512 512m-414 0a414 414 0 1 0 828 0 414 414 0 1 0-828 0Z" fill="#F0C48A" p-id="2470"></path><path d="M232.854 476.918h558.29v272.36H232.854z" fill="#7BABF1" p-id="2471"></path><path d="M705.514 476.918c0 47.294 38.338 85.632 85.63 85.632v-85.632h-85.63zM791.146 663.648c-47.294 0-85.63 38.338-85.63 85.63h85.63v-85.63zM232.854 562.55c47.294 0 85.63-38.338 85.63-85.632h-85.63v85.632zM232.854 663.648v85.63h85.63c0.002-47.292-38.336-85.63-85.63-85.63z" fill="#E8677D" p-id="2472"></path><path d="M791.146 572.376c-52.636 0-95.458-42.824-95.458-95.458 0-5.426 4.4-9.828 9.828-9.828h85.63c5.426 0 9.828 4.4 9.828 9.828v85.63a9.83 9.83 0 0 1-9.828 9.828z m-75.17-85.63c4.414 33.956 31.386 60.928 65.342 65.344v-65.344h-65.342zM791.146 759.106h-85.63a9.83 9.83 0 0 1-9.828-9.828c0-52.636 42.824-95.458 95.458-95.458 5.426 0 9.828 4.4 9.828 9.828v85.63a9.83 9.83 0 0 1-9.828 9.828z m-75.17-19.654h65.342v-65.344c-33.956 4.416-60.928 31.388-65.342 65.344zM232.854 572.376a9.83 9.83 0 0 1-9.828-9.828v-85.63c0-5.426 4.4-9.828 9.828-9.828h85.63c5.426 0 9.828 4.4 9.828 9.828 0.002 52.636-42.822 95.458-95.458 95.458z m9.828-85.63v65.344c33.956-4.414 60.928-31.386 65.342-65.344h-65.342zM318.486 759.106h-85.632a9.83 9.83 0 0 1-9.828-9.828v-85.63c0-5.426 4.4-9.828 9.828-9.828 52.636 0 95.458 42.824 95.458 95.458a9.826 9.826 0 0 1-9.826 9.828z m-75.804-19.654h65.342c-4.414-33.956-31.386-60.928-65.342-65.344v65.344z" fill="#4C4372" p-id="2473"></path><path d="M791.146 759.106H232.854a9.83 9.83 0 0 1-9.828-9.828v-272.36c0-5.426 4.4-9.828 9.828-9.828h558.29c5.426 0 9.828 4.4 9.828 9.828v272.36a9.826 9.826 0 0 1-9.826 9.828z m-548.464-19.654h538.636V486.746H242.682v252.706z" fill="#4C4372" p-id="2474"></path><path d="M232.854 426.37h558.29v272.36H232.854z" fill="#7BABF1" p-id="2475"></path><path d="M705.514 426.37c0 47.294 38.338 85.63 85.63 85.63v-85.63h-85.63zM791.146 613.1c-47.294 0-85.63 38.338-85.63 85.63h85.63V613.1zM232.854 512c47.294 0 85.63-38.338 85.63-85.63h-85.63V512zM232.854 613.1v85.63h85.63c0.002-47.292-38.336-85.63-85.63-85.63z" fill="#E8677D" p-id="2476"></path><path d="M791.146 521.828c-52.636 0-95.458-42.824-95.458-95.458 0-5.426 4.4-9.828 9.828-9.828h85.63c5.426 0 9.828 4.4 9.828 9.828V512a9.83 9.83 0 0 1-9.828 9.828z m-75.17-85.632c4.414 33.956 31.386 60.928 65.342 65.344v-65.344h-65.342zM791.146 708.558h-85.63a9.83 9.83 0 0 1-9.828-9.828c0-52.636 42.824-95.458 95.458-95.458 5.426 0 9.828 4.4 9.828 9.828v85.63a9.83 9.83 0 0 1-9.828 9.828z m-75.17-19.656h65.342V623.56c-33.956 4.414-60.928 31.386-65.342 65.342zM232.854 521.828a9.83 9.83 0 0 1-9.828-9.828v-85.63c0-5.426 4.4-9.828 9.828-9.828h85.63c5.426 0 9.828 4.4 9.828 9.828 0.002 52.636-42.822 95.458-95.458 95.458z m9.828-85.632v65.344c33.956-4.414 60.928-31.386 65.342-65.344h-65.342zM318.486 708.558h-85.632a9.83 9.83 0 0 1-9.828-9.828V613.1c0-5.426 4.4-9.828 9.828-9.828 52.636 0 95.458 42.824 95.458 95.458a9.828 9.828 0 0 1-9.826 9.828z m-75.804-19.656h65.342c-4.414-33.956-31.386-60.928-65.342-65.344v65.344z" fill="#4C4372" p-id="2477"></path><path d="M791.146 708.558H232.854a9.83 9.83 0 0 1-9.828-9.828v-272.36c0-5.426 4.4-9.828 9.828-9.828h558.29c5.426 0 9.828 4.4 9.828 9.828v272.36a9.828 9.828 0 0 1-9.826 9.828z m-548.464-19.656h538.636V436.196H242.682v252.706z" fill="#4C4372" p-id="2478"></path><path d="M232.854 375.82h558.29v272.36H232.854z" fill="#7BABF1" p-id="2479"></path><path d="M705.514 375.82c0 47.292 38.338 85.632 85.63 85.632V375.82h-85.63zM791.146 562.55c-47.294 0-85.63 38.338-85.63 85.63h85.63v-85.63zM232.854 461.45c47.294 0 85.63-38.338 85.63-85.632h-85.63v85.632zM232.854 562.55v85.63h85.63c0.002-47.292-38.336-85.63-85.63-85.63z" fill="#E8677D" p-id="2480"></path><path d="M791.146 471.278c-52.636 0-95.458-42.824-95.458-95.458 0-5.426 4.4-9.828 9.828-9.828h85.63c5.426 0 9.828 4.4 9.828 9.828v85.63a9.83 9.83 0 0 1-9.828 9.828z m-75.17-85.63c4.414 33.956 31.386 60.928 65.342 65.344v-65.344h-65.342zM791.146 658.008h-85.63a9.83 9.83 0 0 1-9.828-9.828c0-52.636 42.824-95.458 95.458-95.458 5.426 0 9.828 4.4 9.828 9.828v85.63a9.83 9.83 0 0 1-9.828 9.828z m-75.17-19.654h65.342v-65.344c-33.956 4.416-60.928 31.386-65.342 65.344zM232.854 471.278a9.83 9.83 0 0 1-9.828-9.828V375.82c0-5.426 4.4-9.828 9.828-9.828h85.63c5.426 0 9.828 4.4 9.828 9.828 0.002 52.634-42.822 95.458-95.458 95.458z m9.828-85.63v65.344c33.956-4.414 60.928-31.386 65.342-65.344h-65.342zM318.486 658.008h-85.632a9.83 9.83 0 0 1-9.828-9.828v-85.63c0-5.426 4.4-9.828 9.828-9.828 52.636 0 95.458 42.824 95.458 95.458a9.826 9.826 0 0 1-9.826 9.828z m-75.804-19.654h65.342c-4.414-33.956-31.386-60.928-65.342-65.344v65.344z" fill="#4C4372" p-id="2481"></path><path d="M791.146 658.008H232.854a9.83 9.83 0 0 1-9.828-9.828V375.82c0-5.426 4.4-9.828 9.828-9.828h558.29c5.426 0 9.828 4.4 9.828 9.828v272.36a9.826 9.826 0 0 1-9.826 9.828z m-548.464-19.654h538.636V385.648H242.682v252.706z" fill="#4C4372" p-id="2482"></path><path d="M232.854 325.27h558.29v272.36H232.854z" fill="#7BABF1" p-id="2483"></path><path d="M705.514 325.27c0 47.292 38.338 85.632 85.63 85.632v-85.632h-85.63zM791.146 512c-47.294 0-85.63 38.338-85.63 85.63h85.63V512zM232.854 410.9c47.294 0 85.63-38.338 85.63-85.632h-85.63v85.632zM232.854 512v85.63h85.63c0.002-47.292-38.336-85.63-85.63-85.63z" fill="#E8677D" p-id="2484"></path><path d="M791.146 420.73c-52.636 0-95.458-42.824-95.458-95.458 0-5.426 4.4-9.828 9.828-9.828h85.63c5.426 0 9.828 4.4 9.828 9.828v85.63a9.83 9.83 0 0 1-9.828 9.828z m-75.17-85.632c4.414 33.956 31.386 60.928 65.342 65.344v-65.344h-65.342zM791.146 607.458h-85.63a9.83 9.83 0 0 1-9.828-9.828c0-52.636 42.824-95.458 95.458-95.458 5.426 0 9.828 4.4 9.828 9.828v85.63a9.83 9.83 0 0 1-9.828 9.828z m-75.17-19.654h65.342V522.46c-33.956 4.416-60.928 31.388-65.342 65.344zM232.854 420.73a9.83 9.83 0 0 1-9.828-9.828v-85.63c0-5.426 4.4-9.828 9.828-9.828h85.63c5.426 0 9.828 4.4 9.828 9.828 0.002 52.634-42.822 95.458-95.458 95.458z m9.828-85.632v65.344c33.956-4.414 60.928-31.386 65.342-65.344h-65.342zM318.486 607.458h-85.632a9.83 9.83 0 0 1-9.828-9.828V512c0-5.426 4.4-9.828 9.828-9.828 52.636 0 95.458 42.824 95.458 95.458a9.826 9.826 0 0 1-9.826 9.828z m-75.804-19.654h65.342c-4.414-33.956-31.386-60.928-65.342-65.344v65.344z" fill="#4C4372" p-id="2485"></path><path d="M791.146 607.458H232.854a9.83 9.83 0 0 1-9.828-9.828v-272.36c0-5.426 4.4-9.828 9.828-9.828h558.29c5.426 0 9.828 4.4 9.828 9.828v272.36a9.826 9.826 0 0 1-9.826 9.828z m-548.464-19.654h538.636V335.098H242.682v252.706z" fill="#4C4372" p-id="2486"></path><path d="M232.854 274.72h558.29v272.36H232.854z" fill="#D3E6F8" p-id="2487"></path><path d="M705.514 274.72h85.63v272.36h-85.63z" fill="#A4CFF2" p-id="2488"></path><path d="M705.514 274.72c0 47.292 38.338 85.63 85.63 85.63V274.72h-85.63zM791.146 461.45c-47.294 0-85.63 38.338-85.63 85.63h85.63v-85.63z" fill="#E8677D" p-id="2489"></path><path d="M232.854 360.352c47.294 0 85.63-38.338 85.63-85.63h-85.63v85.63zM232.854 461.45v85.63h85.63c0.002-47.292-38.336-85.63-85.63-85.63z" fill="#FD919E" p-id="2490"></path><path d="M791.146 370.178c-52.636 0-95.458-42.824-95.458-95.458 0-5.426 4.4-9.828 9.828-9.828h85.63c5.426 0 9.828 4.4 9.828 9.828v85.63a9.828 9.828 0 0 1-9.828 9.828z m-75.17-85.63c4.414 33.956 31.386 60.928 65.342 65.344v-65.344h-65.342zM791.146 556.908h-85.63a9.83 9.83 0 0 1-9.828-9.828c0-52.636 42.824-95.458 95.458-95.458 5.426 0 9.828 4.4 9.828 9.828v85.63a9.828 9.828 0 0 1-9.828 9.828z m-75.17-19.654h65.342v-65.344c-33.956 4.416-60.928 31.388-65.342 65.344zM232.854 370.178a9.83 9.83 0 0 1-9.828-9.828V274.72c0-5.426 4.4-9.828 9.828-9.828h85.63c5.426 0 9.828 4.4 9.828 9.828 0.002 52.636-42.822 95.458-95.458 95.458z m9.828-85.63v65.344c33.956-4.414 60.928-31.386 65.342-65.344h-65.342zM318.486 556.908h-85.632a9.83 9.83 0 0 1-9.828-9.828v-85.63c0-5.426 4.4-9.828 9.828-9.828 52.636 0 95.458 42.824 95.458 95.458a9.824 9.824 0 0 1-9.826 9.828z m-75.804-19.654h65.342c-4.414-33.956-31.386-60.928-65.342-65.344v65.344z" fill="#4C4372" p-id="2491"></path><path d="M791.146 556.908H232.854a9.83 9.83 0 0 1-9.828-9.828V274.72c0-5.426 4.4-9.828 9.828-9.828h558.29c5.426 0 9.828 4.4 9.828 9.828v272.36a9.824 9.824 0 0 1-9.826 9.828z m-548.464-19.654h538.636V284.548H242.682v252.706z" fill="#4C4372" p-id="2492"></path><path d="M418.63 410.902a93.364 93.364 0 1 0 186.728 0 93.364 93.364 0 1 0-186.728 0Z" fill="#FD919E" p-id="2493"></path><path d="M512 514.094c-56.9 0-103.192-46.292-103.192-103.192 0-56.9 46.292-103.192 103.192-103.192s103.192 46.292 103.192 103.192c0 56.898-46.292 103.192-103.192 103.192z m0-186.73c-46.062 0-83.538 37.476-83.538 83.538S465.936 494.44 512 494.44s83.538-37.474 83.538-83.538-37.476-83.538-83.538-83.538z" fill="#4C4372" p-id="2494"></path><path d="M513.27 353.698a5.42 5.42 0 0 1 5.462 5.462v2.794c7.494 0.89 13.844 3.302 19.686 6.986 2.032 1.144 3.812 3.048 3.812 6.096 0 3.938-3.176 6.986-7.114 6.986-1.27 0-2.54-0.38-3.812-1.144-4.446-2.666-8.762-4.572-13.082-5.588v24.386c19.306 4.826 27.562 12.574 27.562 26.164 0 13.97-10.922 23.242-27.054 24.766v7.62a5.42 5.42 0 0 1-5.462 5.46c-3.048 0-5.588-2.412-5.588-5.46v-7.874c-9.526-1.016-18.29-4.446-26.036-9.906-2.158-1.398-3.43-3.43-3.43-6.098 0-3.938 3.048-6.986 6.986-6.986 1.524 0 3.048 0.508 4.192 1.398 5.97 4.318 11.812 7.24 18.798 8.508v-25.022c-18.544-4.826-27.18-11.812-27.18-26.164 0-13.59 10.796-22.988 26.672-24.258v-2.666c-0.002-3.046 2.54-5.46 5.588-5.46z m-5.08 43.312v-22.482c-8.128 0.764-12.194 5.08-12.194 10.668 0 5.336 2.414 8.638 12.194 11.814z m10.034 17.654v23.116c8.128-0.888 12.574-4.952 12.574-11.05 0-5.588-2.794-9.018-12.574-12.066z" fill="#4C4372" p-id="2495"></path></svg>