<?xml version="1.0" standalone="no"?><!DOCTYPE svg PUBLIC "-//W3C//DTD SVG 1.1//EN" "http://www.w3.org/Graphics/SVG/1.1/DTD/svg11.dtd"><svg t="1701907466675" class="icon" viewBox="0 0 1024 1024" version="1.1" xmlns="http://www.w3.org/2000/svg" p-id="5160" xmlns:xlink="http://www.w3.org/1999/xlink" width="128" height="128"><path d="M226.688 662.592l-44.096-175.168v189.76c0 10.496-2.368 18.368-7.04 23.68a23.808 23.808 0 0 1-18.624 7.808 23.808 23.808 0 0 1-18.368-7.744c-4.8-5.184-7.168-13.12-7.168-23.68v-217.6c0-11.968 3.2-20.032 9.408-24.256a44.864 44.864 0 0 1 25.28-6.272h17.28c10.368 0 17.92 0.96 22.592 2.816 4.672 1.92 8.128 5.248 10.368 10.112 2.304 4.864 4.864 12.8 7.68 23.808l40 150.592 39.936-150.592c2.816-11.008 5.376-18.944 7.68-23.808a18.944 18.944 0 0 1 10.368-10.112c4.672-1.92 12.224-2.816 22.592-2.816h17.28c10.624 0 19.072 2.112 25.28 6.272 6.272 4.224 9.408 12.288 9.408 24.32v217.472c0 10.496-2.368 18.368-7.04 23.68a24 24 0 0 1-18.816 7.808 23.424 23.424 0 0 1-18.24-7.872c-4.736-5.248-7.104-13.12-7.104-23.616V487.424l-44.032 175.168a354.176 354.176 0 0 1-7.04 24.96 34.56 34.56 0 0 1-10.048 14.592 29.248 29.248 0 0 1-20.224 6.528 30.528 30.528 0 0 1-16.512-4.224 30.4 30.4 0 0 1-10.496-10.752 61.568 61.568 0 0 1-5.952-14.528l-4.352-16.64z m402.88 10.24l-13.12-34.432H504.704l-13.12 35.2c-5.12 13.76-9.472 23.04-13.12 27.84-3.648 4.864-9.6 7.232-17.792 7.232a26.112 26.112 0 0 1-18.56-7.68 23.552 23.552 0 0 1-8.064-17.408c0-3.776 0.64-7.68 1.856-11.648 1.28-3.968 3.328-9.6 6.208-16.64l70.272-178.56 7.232-18.432a93.44 93.44 0 0 1 8.96-17.92 36.544 36.544 0 0 1 12.608-11.52 38.528 38.528 0 0 1 19.2-4.48c7.744 0 14.272 1.536 19.456 4.48a37.312 37.312 0 0 1 12.544 11.328c3.2 4.608 5.888 9.6 8.064 14.912 2.176 5.312 4.928 12.416 8.32 21.248l71.808 177.408c5.632 13.44 8.448 23.296 8.448 29.44 0 6.4-2.624 12.16-7.936 17.536a26.24 26.24 0 0 1-19.2 7.936 23.04 23.04 0 0 1-19.136-8.704 58.624 58.624 0 0 1-6.848-12.352 725.12 725.12 0 0 1-6.336-14.72zM519.36 596.608h82.112L560 483.2 519.36 596.48z m444.736 20.672c0 8.704-2.176 18.176-6.464 28.352a103.808 103.808 0 0 1-55.808 53.888 127.36 127.36 0 0 1-50.24 9.216c-14.464 0-27.648-1.344-39.552-4.096a111.104 111.104 0 0 1-32.32-12.8c-9.728-5.888-18.56-13.504-26.752-23.04a136.512 136.512 0 0 1-18.56-28.928 151.04 151.04 0 0 1-11.52-34.24c-2.56-12.16-3.84-24.96-3.84-38.656 0-22.08 3.2-41.92 9.6-59.392 6.464-17.536 15.68-32.512 27.712-44.928 11.968-12.416 26.048-21.888 42.24-28.416 16.064-6.464 33.28-9.728 51.52-9.728 22.208 0 42.048 4.48 59.392 13.312 17.408 8.896 30.72 19.84 39.936 32.896 9.28 13.056 13.888 25.408 13.888 37.056 0 6.4-2.24 11.968-6.72 16.832a21.376 21.376 0 0 1-16.32 7.36c-7.104 0-12.48-1.728-16-5.12a70.08 70.08 0 0 1-11.968-17.408 83.84 83.84 0 0 0-25.6-30.592 62.464 62.464 0 0 0-36.224-10.112c-22.912 0-41.152 8.704-54.656 26.048-13.568 17.408-20.352 42.112-20.352 74.112 0 21.376 3.008 39.168 8.96 53.312 6.016 14.208 14.528 24.768 25.536 31.808a70.4 70.4 0 0 0 38.592 10.496c16 0 29.568-3.968 40.64-11.904 11.008-7.936 19.392-19.584 24.96-35.008a59.328 59.328 0 0 1 8.832-17.664c3.52-4.608 9.152-6.848 16.896-6.848 6.656 0 12.288 2.304 17.088 6.912a23.104 23.104 0 0 1 7.104 17.28z" fill="#2c2c2c" p-id="5161"></path></svg>