<?xml version="1.0" standalone="no"?><!DOCTYPE svg PUBLIC "-//W3C//DTD SVG 1.1//EN" "http://www.w3.org/Graphics/SVG/1.1/DTD/svg11.dtd"><svg t="1647586153865" class="icon" viewBox="0 0 1024 1024" version="1.1" xmlns="http://www.w3.org/2000/svg" p-id="8601" xmlns:xlink="http://www.w3.org/1999/xlink" width="400" height="400"><defs><style type="text/css"></style></defs><path d="M687.865027 1022.007782H336.134973C239.006381 1022.007782 160.269946 943.271346 160.269946 846.142755v-211.035642c0-194.253198 157.472872-351.730054 351.730054-351.730055 194.253198 0 351.730054 157.472872 351.730054 351.730055v211.035642c0 97.128591-78.74042 175.865027-175.865027 175.865027z" fill="#FFEBBE" p-id="8602"></path><path d="M582.345214 662.185339v-102.906024c27.122054 10.4193 43.964265 26.038288 43.964265 40.649214a26.380949 26.380949 0 0 0 52.761898 0c0-43.199253-39.147082-79.541292-96.730147-96.024903v-18.28856a26.380949 26.380949 0 0 0-52.75393 0v9.351471a279.045977 279.045977 0 0 0-35.178584 0v-9.347486a26.380949 26.380949 0 0 0-52.75393 0v18.28856c-57.583066 16.483611-96.726163 52.82565-96.726163 96.024903 0 43.195268 39.143097 79.541292 96.722179 96.024902v102.902039c-27.11807-10.4193-43.964265-26.038288-43.964265-40.649214a26.380949 26.380949 0 0 0-52.757914 0c0 43.199253 39.147082 79.541292 96.726163 96.024903v18.28856a26.380949 26.380949 0 0 0 52.757914 0v-9.347486a279.045977 279.045977 0 0 0 35.1746 0v9.347486a26.380949 26.380949 0 0 0 52.757914 0v-18.28856c57.579082-16.483611 96.726163-52.82565 96.726163-96.024903 0-43.195268-39.147082-79.541292-96.726163-96.024902zM512 547.170615c6.008529 0 11.877603 0.239066 17.5873 0.689307v105.388327a279.045977 279.045977 0 0 0-17.5873-0.557821c-6.008529 0-11.877603-0.239066-17.5873-0.685323V547.859922a225.654537 225.654537 0 0 1 17.5873-0.689307zM397.686537 599.936498c0-14.606942 16.846195-30.229914 43.968249-40.649214v81.302412c-27.126039-10.423284-43.968249-26.042272-43.968249-40.653198z m114.313463 211.039627c-6.008529 0-11.877603-0.239066-17.5873-0.685323v-105.388327c5.773447 0.362584 11.638537 0.553837 17.5873 0.553836 6.008529 0 11.877603 0.239066 17.5873 0.685323v104.149168a226.642677 226.642677 0 0 1-17.5873 0.685323z m70.345214-12.112685V717.557043c27.122054 10.4193 43.964265 26.038288 43.964265 40.649214s-16.838226 30.237883-43.964265 40.653198z" fill="#A0C88C" p-id="8603"></path><path d="M512 265.694132c-67.990412 0-123.107113-55.1167-123.107113-123.103128V19.59944c0-12.626677 12.909572-21.141416 24.516234-16.164856l91.661945 39.282552a17.599253 17.599253 0 0 0 13.857868 0l91.657961-39.286537c11.606661-4.972576 24.520218 3.538179 24.520218 16.168841v122.991564c0 67.990412-55.120685 123.103128-123.107113 123.103128z" fill="#FFEBBE" p-id="8604"></path><path d="M512 283.289401a17.690895 17.690895 0 0 1-7.833401-1.836825c-4.347019-2.163549-42.988078-23.320903-61.989852-99.423627a17.571362 17.571362 0 0 1 12.801992-21.312747c9.351471-2.370739 18.977868 3.366848 21.320716 12.794024 10.028825 40.171082 26.070163 60.778584 35.712498 70.086225 9.550693-9.239907 25.631875-29.847409 35.680623-70.086225 2.36277-9.411237 11.969245-15.164763 21.320716-12.794024a17.571362 17.571362 0 0 1 12.801992 21.312747c-19.001774 76.098739-57.646817 97.260078-61.989852 99.423627a17.655035 17.655035 0 0 1-7.825432 1.836825z" fill="#F5DCAA" p-id="8605"></path><path d="M564.749946 353.618677a17.523549 17.523549 0 0 1-12.43144-5.151875L511.992031 308.140327 471.661572 348.466802a17.583315 17.583315 0 0 1-24.866864 0 17.583315 17.583315 0 0 1 0-24.866864l52.757915-52.761899a17.583315 17.583315 0 0 1 24.870848 0l52.761899 52.761899a17.583315 17.583315 0 0 1-12.435424 30.018739z" fill="#F5DCAA" p-id="8606"></path><path d="M573.551564 300.960374H450.448436a26.376965 26.376965 0 0 1 0-52.757915h123.103128a26.376965 26.376965 0 1 1 0 52.757915z" fill="#B9785F" p-id="8607"></path></svg>