<?xml version="1.0" standalone="no"?><!DOCTYPE svg PUBLIC "-//W3C//DTD SVG 1.1//EN" "http://www.w3.org/Graphics/SVG/1.1/DTD/svg11.dtd"><svg t="1716947774922" class="icon" viewBox="0 0 1024 1024" version="1.1" xmlns="http://www.w3.org/2000/svg" p-id="10691" xmlns:xlink="http://www.w3.org/1999/xlink" width="512" height="512"><path d="M463.8 532.4h96.4c175.8 0 318.3 142.5 318.3 318.3 0 62.3-153.3 89.2-366.5 88.9-212.6-0.3-366.4-27.5-366.4-88.9-0.1-175.9 142.4-318.3 318.2-318.3z" fill="#F5A32B" p-id="10692"></path><path d="M560.2 552.7c164.5 0 297.9 133.4 297.9 297.9 0 46-171.1 68.6-343.2 68.6-174 0-349-23.1-349-68.6 0-164.5 133.4-297.9 297.9-297.9h96.4m0-40.7h-96.4c-186.7 0-338.6 151.9-338.6 338.6 0 72.5 131.1 109.3 389.7 109.3 383.9 0 383.9-82.3 383.9-109.3 0-186.7-151.9-338.6-338.6-338.6z" fill="#353842" p-id="10693"></path><path d="M512 288m-203.6 0a203.6 203.6 0 1 0 407.2 0 203.6 203.6 0 1 0-407.2 0Z" fill="#F9EAD6" p-id="10694"></path><path d="M512 104.8c101.2 0 183.2 82 183.2 183.2s-82 183.2-183.2 183.2-183.2-82-183.2-183.2 82-183.2 183.2-183.2m0-40.7c-123.5 0-224 100.5-224 224s100.5 224 224 224 224-100.5 224-224-100.5-224-224-224z" fill="#353842" p-id="10695"></path></svg>