<?xml version="1.0" encoding="UTF-8"?>
<svg width="18px" height="21px" viewBox="0 0 18 21" version="1.1" xmlns="http://www.w3.org/2000/svg" xmlns:xlink="http://www.w3.org/1999/xlink">
    <title>ic_3@2x</title>
    <g id="页面-1" stroke="none" stroke-width="1" fill="none" fill-rule="evenodd">
        <g id="画板" transform="translate(-88.000000, -307.000000)" fill="#FF934A" fill-rule="nonzero">
            <g id="ic_3" transform="translate(88.000000, 307.000000)">
                <path d="M1.38461538,9.69230769 C1.42334622,12.0789988 2.71093926,14.2705347 4.77692308,15.4661538 L9,18.36 L13.2230769,15.4315385 C15.2796242,14.2432613 16.5659815,12.0669548 16.6153846,9.69230769 L16.6153846,4.36153846 C13.915629,4.31160254 11.2814121,3.52133747 9,2.07692308 C6.71814269,3.52036113 4.08420528,4.31054235 1.38461538,4.36153846 L1.38461538,9.69230769 Z M0,2.86615385 C4.00153846,2.86615385 7.00153846,1.91076923 9,0 C10.9938462,1.91076923 13.9938462,2.86615385 18,2.86615385 L18,9.73384615 C17.9811078,12.6498487 16.4678144,15.352345 13.9915385,16.8923077 L9,20.0769231 L4.00846154,16.8923077 C1.53218559,15.352345 0.0188921803,12.6498487 0,9.73384615 L0,2.86615385 Z" id="形状"></path>
                <path d="M12.3507692,7.98923077 C12.3507693,6.79211621 11.7121163,5.68593672 10.6753846,5.08737943 C9.63865302,4.48882215 8.36134698,4.48882215 7.32461536,5.08737943 C6.28788375,5.68593672 5.64923074,6.79211621 5.64923077,7.98923077 C5.639492,9.54374213 6.66724993,10.914086 8.16230769,11.34 L8.16230769,15.7153846 L9.83769231,15.7153846 L9.83769231,14.8569231 L10.6753846,14.8569231 L10.6753846,13.1538462 L9.83769231,13.1538462 L9.83769231,11.3538462 C11.3442726,10.9447998 12.3799272,9.56392701 12.3507692,8.00307692 L12.3507692,7.98923077 Z M9,9.69230769 C8.30771365,9.70006109 7.68020053,9.28628607 7.41461538,8.64692308 C7.14365762,8.00750969 7.28283772,7.26794487 7.76769231,6.77076923 C8.24854797,6.27403953 8.98355115,6.12045678 9.62307692,6.38307692 C10.2624803,6.65352385 10.6772531,7.28114063 10.6753846,7.97538462 C10.6809268,8.42524251 10.5075192,8.85887352 10.1933164,9.18086646 C9.87911364,9.50285939 9.44985872,9.68683295 9,9.69230769 L9,9.69230769 Z" id="形状"></path>
            </g>
        </g>
    </g>
</svg>