<?xml version="1.0" standalone="no"?><!DOCTYPE svg PUBLIC "-//W3C//DTD SVG 1.1//EN" "http://www.w3.org/Graphics/SVG/1.1/DTD/svg11.dtd"><svg t="1707914693823" class="icon" viewBox="0 0 1024 1024" version="1.1" xmlns="http://www.w3.org/2000/svg" p-id="6052" xmlns:xlink="http://www.w3.org/1999/xlink" width="128" height="128"><path d="M271.928889 76.8C327.395556 57.571556 446.862222 29.866667 502.328889 12.8A199.111111 199.111111 0 0 1 564.167111 0a211.456 211.456 0 0 1 61.895111 12.8c55.466667 19.171556 174.933333 46.933333 230.4 64 110.933333 36.295111 162.133333 61.895111 162.133334 181.304889v386.104889a179.143111 179.143111 0 0 1-98.133334 183.466666l-290.133333 183.466667a129.877333 129.877333 0 0 1-59.733333 12.8 123.904 123.904 0 0 1-59.733334-12.8l-298.666666-181.304889a179.143111 179.143111 0 0 1-98.133334-183.466666V260.266667C109.795556 138.695111 160.995556 113.095111 271.928889 76.8z m450.104889 373.304889a132.096 132.096 0 0 0 14.961778-40.504889 145.180444 145.180444 0 0 0 4.266666-42.666667 170.666667 170.666667 0 0 0-53.304889-125.895111A179.143111 179.143111 0 0 0 562.062222 187.733333a170.666667 170.666667 0 0 0-125.895111 53.304889A183.125333 183.125333 0 0 0 382.862222 366.933333a170.666667 170.666667 0 0 0 53.304889 125.895111 163.157333 163.157333 0 0 0 83.228445 46.933334v258.104889a42.666667 42.666667 0 0 0 85.333333 0v-108.828445h53.304889a42.666667 42.666667 0 0 0 0-85.333333h-53.304889V503.466667a42.780444 42.780444 0 0 0-42.666667-42.666667 93.525333 93.525333 0 1 1 93.866667-93.866667 87.495111 87.495111 0 0 1-2.104889 23.495111 89.144889 89.144889 0 0 1-8.533333 21.333334 43.918222 43.918222 0 0 0 17.066666 57.628444 48.071111 48.071111 0 0 0 59.733334-19.228444z" fill="#19BCB0" p-id="6053"></path></svg>