<?xml version="1.0" standalone="no"?><!DOCTYPE svg PUBLIC "-//W3C//DTD SVG 1.1//EN" "http://www.w3.org/Graphics/SVG/1.1/DTD/svg11.dtd"><svg t="1647269385455" class="icon" viewBox="0 0 1024 1024" version="1.1" xmlns="http://www.w3.org/2000/svg" p-id="2431" xmlns:xlink="http://www.w3.org/1999/xlink" width="96" height="96"><defs><style type="text/css"></style></defs><path d="M832.696 181.88c-16.518 10.554-307.986 341.916-438.401 587.355-103.115-78.643-239.8-332.709-258.092-432.009-5.905-32.054-103.919-13.609-99.513 26.939 14.565 134.044 173.678 395.42 313.523 497.948-6.311 18.147-12.649 43.938-15.36 59.675 15.36 15.461 153.338 46.881 176.633 31.667 9.491-20.305 148.883-470.727 406.692-685.688 32.027-26.703-54.013-105.994-85.482-85.887z" fill="#96D5FF" p-id="2432"></path><path d="M844.891 178.65c36.845 0 101.774 65.365 73.288 89.117C660.37 482.729 520.978 933.151 511.487 953.456c-4.344 2.837-12.673 4.052-23.453 4.052-47.033 0-140.684-23.141-153.181-35.719 2.711-15.737 9.049-41.529 15.36-59.675C210.369 759.585 51.256 498.209 36.691 364.165c-2.854-26.266 37.263-43.257 67.487-43.255 16.434 0.001 29.946 5.026 32.026 16.316 18.292 99.3 154.978 353.366 258.092 432.009 130.415-245.439 421.883-576.801 438.4-587.355 3.479-2.223 7.617-3.23 12.195-3.23m0-4.098c-5.533 0-10.378 1.303-14.401 3.874-9.587 6.125-89.232 95.404-177.492 206.5-80.574 101.422-190.658 248.844-260.022 378.08-101.921-81.354-235-330.208-252.742-426.522-2.303-12.501-15.445-19.671-36.056-19.672-28.633-0.001-52.775 12.37-63.09 23.866-6.461 7.2-9.39 15.475-8.471 23.93 7.022 64.623 48.284 162.76 110.377 262.516 63.354 101.783 136.961 187.772 202.375 236.505-6.249 18.705-12.087 43.147-14.553 57.465l-0.359 2.084 1.49 1.5c14.059 14.15 110.337 36.929 156.088 36.929 12.427 0 20.832-1.544 25.694-4.719l0.977-0.638 0.494-1.057c1.042-2.229 3.278-8.533 6.983-18.977C660.787 545.48 815.458 358.755 920.804 270.918c8.628-7.194 10.747-18.426 5.966-31.625-5.058-13.965-17.805-30.142-34.098-43.275-16.924-13.643-34.339-21.466-47.781-21.466z" fill="#4D83E7" p-id="2433"></path><path d="M397.368 384.348l-2.892 4.112c-6.357 9.042-61.641 124.752-80.085 168.872-23.53 56.286-29.047 113.801-15.534 161.951 12.919 46.038 41.939 80.682 81.714 97.548 29.035 12.313 74.154 20.584 112.273 20.584 28.915 0 51.65-4.519 65.747-13.069l4.701-2.852-1.687 5.233c-0.622 1.923-1.479 4.07-2.309 6.146-0.224 0.564-0.448 1.125-0.666 1.677 37.856-1.083 64.927-21.967 74.25-41.392 8.803-18.34 7.09-32.084 4.102-40.385-3.21-8.919-9.571-16.121-17.454-19.759l-3.184-1.469 2.842-2.053c21.492-15.523 26.333-52.694 12.333-94.696l-1.255-3.76 3.792 1.151c4.631 1.405 9.209 2.117 13.61 2.117 20.282 0 34.186-14.885 42.28-27.37 15.559-24.01 18.21-46.021 7.502-60.982-0.967 1.875-1.889 3.873-2.63 5.476-0.949 2.057-1.463 3.16-1.871 3.771l-0.538 0.806-0.967 0.095c-10.644 1.063-17.684-5.932-25.134-13.358-7.074-7.048-15.093-15.038-27.82-17.943l-11.663-2.664 11.885-1.371c7.618-0.879 21.91-7.23 32.018-39.902 5.977-19.331 4.775-40.754 3.712-59.654-0.152-2.705-0.302-5.363-0.428-7.968l-0.158-3.251 3 1.264c10.678 4.496 19.685 6.681 27.542 6.681 15.703 0.001 27.286-9.037 36.449-28.442 8.473-17.941 9.157-41.831 1.787-62.349-5.849-16.281-16.021-28.519-28.642-34.459-8.999-4.235-18.146-6.383-27.182-6.383-19.101 0-35.8 9.666-47.023 27.217l-1.503 2.351-1.795-2.138c-14.574-17.373-36.937-30.145-64.671-36.938-15.447-3.783-30.367-5.701-44.347-5.701-28.134 0-50.357 7.605-64.268 21.994l-3.358 3.474-0.163-4.829c-0.703-20.843-24.049-46.279-45.418-49.485a42.424 42.424 0 0 0-6.256-0.45c-33.592 0-77.87 34.393-81.658 74.533-1.808 19.17 3.956 37.155 16.231 50.643 11.043 12.133 26.038 19.092 41.141 19.092 2.93 0 5.858-0.268 8.704-0.797l4.944-0.919z" fill="#FAA475" p-id="2434"></path><path d="M397.368 384.348l-2.892 4.112c-6.357 9.042-61.641 124.752-80.085 168.872-23.53 56.286-29.047 113.801-15.534 161.951 12.919 46.038 41.939 80.682 81.714 97.548 29.035 12.313 74.154 20.584 112.273 20.584 28.915 0 51.65-4.519 65.747-13.069l4.701-2.852-1.687 5.233c-0.622 1.923-1.479 4.07-2.309 6.146-0.224 0.564-0.448 1.125-0.666 1.677 37.856-1.083 64.927-21.967 74.25-41.392 8.803-18.34 7.09-32.084 4.102-40.385-3.21-8.919-9.571-16.121-17.454-19.759l-3.184-1.469 2.842-2.053c21.492-15.523 26.333-52.694 12.333-94.696l-1.255-3.76 3.792 1.151c4.631 1.405 9.209 2.117 13.61 2.117 20.282 0 34.186-14.885 42.28-27.37 15.559-24.01 18.21-46.021 7.502-60.982-0.967 1.875-1.889 3.873-2.63 5.476-0.949 2.057-1.463 3.16-1.871 3.771l-0.538 0.806-0.967 0.095c-10.644 1.063-17.684-5.932-25.134-13.358-7.074-7.048-15.093-15.038-27.82-17.943l-11.663-5.568 11.885 1.534c7.618-0.879 21.91-7.23 32.018-39.902 5.977-19.331 4.775-40.754 3.712-59.654-0.152-2.705-0.302-5.363-0.428-7.968l-0.158-3.251 3 1.264c10.678 4.496 19.685 6.681 27.542 6.681 15.703 0.001 27.286-9.037 36.449-28.442 8.473-17.941 9.157-41.831 1.787-62.349-5.849-16.281-16.021-28.519-28.642-34.459-8.999-4.235-18.146-6.383-27.182-6.383-19.101 0-35.8 9.666-47.023 27.217l-1.503 2.351-1.795-2.138c-14.574-17.373-36.937-30.145-64.671-36.938-15.447-3.783-30.367-5.701-44.347-5.701-28.134 0-50.357 7.605-64.268 21.994l-3.358 3.474-0.163-4.829c-0.703-20.843-24.049-46.279-45.418-49.485a42.424 42.424 0 0 0-6.256-0.45c-33.592 0-77.87 34.393-81.658 74.533-1.808 19.17 3.956 37.155 16.231 50.643 11.043 12.133 26.038 19.092 41.141 19.092 2.93 0 5.858-0.268 8.704-0.797l4.944-0.92z" fill="#96D5FF" p-id="2435"></path><path d="M551.033 402.587c3.781 19.125 2.049 77.868-4.098 55.84-2.396-8.586-13.594 19.479-15.881 16.906-3.851-4.332-1.738-20.789-4.611-13.32-2.561 6.66-14.066 8.681-20.492 11.783-14.857 7.172-13.32-5.635-25.615-5.123-16.023 0.668 5.368-13.363-4.098-16.393-8.419-2.694-19.1-1.526-22.541-4.098-4.71-3.522 9.915-8.763 6.148-13.32-4.272-5.166-15.533-3.012-18.443-9.221-1.893-4.039 7.791-15.841 7.172-20.492s-16.393-5.123-12.295-13.32c5.408-10.816 55.222-15.699 51.742-4.098-4.098 13.661-1.885 43.074 14.344 38.934 16.735-4.269 29.585-3.443 38.934-13.832 4.611-5.123 4.713-35.647 9.734-10.246z" fill="#6AA4FF" p-id="2436"></path><path d="M902.368 378.88c22.62 50.796-12.91 84.051-36.661 114.805-6.399-29.173-30.202-50.568-39.022-79.974-8.82-29.406 12.121-57.807 19.481-74.84 5.337-12.355 41.652 7.335 56.202 40.009z" fill="#4D83E7" p-id="2437"></path><path d="M902.368 378.88c21.995 49.394-12.585 84.292-36.261 114.342-0.802-26.772-2.718-84.546-6.817-99.915-4.687-17.571-8.51-42.957-11.308-56.734 9.089-6.875 40.974 12.189 54.386 42.307z" fill="#96D5FF" p-id="2438"></path><path d="M866.318 490.762l-9.935-110.954s-16.207 24.354-16.484 22.914c-0.323-1.684 13.619-33.517 13.619-33.517s-4.282-25.669-5.827-32.483c4.974-3.83 11.952 41.113 12.514 47.054 1.318 13.957 6.113 106.986 6.113 106.986zM546.934 380.217c1.023 15.692-1.366 28.005-5.464 30.738-6.646 2.449-43.374 10.929-53.278 10.246-2.391-6.489-3.415-19.296-0.683-31.933 4.465-20.648 14.003-31.079 30.738-35.86 14.893-4.257 27.663 11.098 28.687 26.809z" fill="#CFEDFF" p-id="2439"></path><path d="M615.069 489.164c0-9.62-3.711-55.328-19.979-55.328s-43.945 29.835-43.545 39.447c0.512 12.295 4.098 23.053 14.344 27.664-5.123 0.512-17.699 3.664-24.334 4.867 18.955 2.049 87.687 14.133 95.371 15.157s24.591-9.608 30.909-32.319c6.808-6.578 11.783-61.987 6.019-78.661 5.604 2.625 22.488 10.877 39.062 6.94 11.075-2.631 39.447-18.955 34.324-73.258-2.903 27.322-9.896 43.793-21.346 52.595-1.837 1.412-4.298-9.38-5.464-7.514-3.415 5.464-11.624 10.098-15.607 10.819-17.753 3.216-36.842-6.574-49.284-27.725 9.735 108.095-40.47 120.486-40.47 117.316z" fill="#6AA4FF" p-id="2440"></path><path d="M605.965 463.483c-1.589 25.466-10.964 36.865-27.219 35.851-16.255-1.014-29.249-14.778-27.66-40.243 0.95-15.22 1.919-35.23 7.862-44.63 8.235-13.025 26.852-7.771 32.69-0.474 9.167 11.459 15.377 32.657 14.327 49.496z" fill="#4D83E7" p-id="2441"></path><path d="M597.651 433.837c5.315 14.173 0.045 19.502-1.787 19.34-4.361-0.385-3.694-6.574-6.41-14.217-2.716-7.643-3.27-14.241-1.537-14.856s6.661 1.536 9.734 9.733zM697.975 545.687c-0.967 1.875-1.906 3.179-2.647 4.781-0.949 2.057-1.556 3.145-1.964 3.757l-1.922 1.875c-1.903 0.19-3.686 0.113-5.382-0.169 3.547 11.357 0.72 28.216-11.822 42.863-23.907 27.92-79.149 23.565-79.149 23.565s9.563 22.882 17.418 29.03c1.545 1.209 3.433-3.769 5.123 0 2.22 4.952 5.343 8.389 2.049 16.052-3.478 8.091-8.48 14.322-12.637 19.809-34.153 45.082-114.754 87.431-215.846 39.617-51.63-24.42-86.065-69.672-93.237-119.876-11.27 50.205-4.603 92.692 0.898 112.292 12.919 46.038 41.939 80.682 81.714 97.548 29.035 12.313 74.154 20.584 112.273 20.584 28.915 0 51.65-4.519 65.747-13.069l4.701-2.852-1.687 5.233c-0.622 1.923-1.479 4.07-2.309 6.146-0.224 0.564-0.448 1.125-0.666 1.677 2.798-0.08 5.52-0.298 8.195-0.589l-0.001 0.002 0.057-0.008c3.817-0.419 7.523-1.016 11.084-1.81l0.066-0.05c27.633-6.178 47.212-23.024 54.85-38.937 8.803-18.34 7.09-32.084 4.102-40.385-3.21-8.919-9.571-16.121-17.454-19.759l-3.184-1.469 2.842-2.053c21.492-15.523 27.646-54.365 12.333-94.696l-0.824-2.445 5.891 1.537c4.631 1.405 6.68 0.416 11.08 0.416 20.282 0 34.186-14.885 42.28-27.37 15.558-24.01 18.736-46.286 8.028-61.247z" fill="#6AA4FF" p-id="2442"></path><path d="M746.488 325.76c-6.22-17.313-17.142-30.375-30.754-36.782-9.549-4.494-19.283-6.773-28.927-6.773-19.701 0-36.993 9.504-48.964 26.831-15.143-16.992-37.567-29.491-65.051-36.222-15.767-3.861-31.016-5.819-45.324-5.819-27.29 0-49.339 6.987-64.113 20.256-3.437-21.868-26.503-45.759-48.486-49.056a46.41 46.41 0 0 0-6.864-0.496c-35.271 0-81.762 36.107-85.738 78.247-1.918 20.333 4.219 39.434 17.281 53.786 13.061 14.351 31.472 21.939 49.294 20.18-12.798 22.99-61.958 126.908-78.235 165.842-23.884 57.135-29.459 115.604-15.698 164.64 13.264 47.261 43.116 82.849 84.06 100.213 29.494 12.505 75.256 20.908 113.873 20.908 18.95 0 44.51-1.989 62.981-11.002-0.112 0.28-1.035 6.39-1.975 8.549 13.32 0.256 38.2-5.061 53.252-13.89 13.426-7.877 23.892-18.615 29.471-30.239 9.417-19.617 7.516-34.51 4.264-43.547-3.18-8.835-9.169-16.175-16.688-20.576 20.202-17.08 25.008-53.108 12.413-93.714 3.76 0.868 7.48 1.307 11.102 1.307 22.123 0 37.073-15.901 45.718-29.239 17.462-26.941 21.07-51.181 7.75-66.549l-1.878-4.098s-6.703 10.715-9.264 12.252c-6.532 0.768-14.004-4.164-20.792-10.928-6.156-6.135-12.991-12.944-22.983-16.92 8.743-3.774 20.137-14.046 28.426-40.845 6.198-20.035 4.971-41.85 3.89-61.095-0.09-1.591-0.178-3.167-0.262-4.725 9.904 3.886 18.475 5.779 26.125 5.779h0.002c17.474 0 30.233-9.785 40.153-30.791 8.923-18.89 9.666-43.981 1.941-65.484z m-5.643 63.733c-9.163 19.405-20.746 28.443-36.449 28.442-7.857 0-16.864-2.185-27.542-6.681l-3-1.264 0.158 3.251c0.126 2.604 0.276 5.263 0.428 7.968 1.063 18.9 2.265 40.323-3.712 59.654-10.108 32.672-20.824 36.733-26.971 38.014-6.148 1.281-15.881-1.793-22.285-3.074-3.851-0.77-43.801-10.758-79.149-11.27-4.639-0.067-5.379 3.33-1.025 3.33 21.204 0 71.294 10.16 78.125 11.783 4.92 1.169 19.065 5.154 19.065 5.154 12.727 2.906 20.746 10.895 27.82 17.943 7.45 7.425 14.804 13.745 22.445 13.574 1.452-0.032 2.539 0.362 4.696-1.75 1.7-1.664 3.534-5.436 4.781-7.855 9.734 14.173 7.273 36.212-8.285 60.222-8.095 12.485-22.111 27.466-43.115 26.953-15.075-0.368-47.472-9.307-54.132-13.576 4.781 6.489 18.528 11.527 40.044 17.418 11.783 35.86 7.935 76.24-13.558 91.762l-2.842 2.053 3.184 1.469c7.883 3.638 14.244 10.84 17.454 19.759 2.988 8.301 4.701 22.045-4.102 40.385-9.323 19.425-36.395 40.309-74.25 41.392 0.218-0.552 0.442-1.113 0.666-1.677 0.83-2.075 1.687-4.222 2.309-6.146l1.687-5.233-4.701 2.852c-14.096 8.551-36.831 13.069-65.747 13.069-38.119 0-83.239-8.271-112.273-20.584-39.775-16.866-68.794-51.509-81.714-97.548-13.513-48.149-7.997-105.664 15.534-161.951 18.444-44.12 73.728-159.83 80.085-168.872l2.892-4.112-4.942 0.919a47.746 47.746 0 0 1-8.704 0.797c-15.104 0-30.098-6.959-41.141-19.092-12.275-13.488-18.039-31.473-16.231-50.643 3.787-40.14 48.065-74.533 81.658-74.533 2.16 0 4.264 0.152 6.256 0.45 21.369 3.206 44.715 28.642 45.418 49.485l0.163 4.829 3.358-3.474c13.911-14.388 36.134-21.994 64.268-21.994 13.98 0 28.901 1.918 44.347 5.701 27.734 6.793 50.097 19.565 64.671 36.938l1.795 2.138 1.503-2.351c11.222-17.551 27.922-27.217 47.023-27.217 9.035 0 18.182 2.147 27.182 6.383 12.621 5.939 22.793 18.177 28.642 34.459 7.37 20.52 6.686 44.41-1.787 62.351z" fill="#4D83E7" p-id="2443"></path><path d="M640.037 440.026c-18.276 0-33.092 13.848-33.092 30.931 0 3.824-0.349 8.202 0.998 11.973 0.742 2.079-0.795 2.755-1.988 3.181-1.478 0.529-1.814 1.513 1.322 2.14 4.989 0.998 5.466 4.517 8.481 6.818 6.319 4.823 12.05 6.722 23.614 6.818 20.121 0.166 33.758-13.848 33.758-30.931-0.001-17.082-14.817-30.93-33.093-30.93z" fill="#FFFFFF" p-id="2444"></path><path d="M608.922 470.722c15.133 14.966 50.639 18.174 60.451 8.197-4.098 8.197-8.227 19.198-23.848 20.973-29.268 3.325-38.14-22.511-36.603-29.17z" fill="#CFEDFF" p-id="2445"></path><path d="M397.368 384.348l-1.336 1.9c0.859-1.18 1.336-1.9 1.336-1.9zM383.722 386.064c2.93 0 5.858-0.268 8.704-0.797l4.942-0.919s10.223-8.913 14.321-17.11c-8.596 0.781-26.273 10.189-43.033 0.342-2.394-1.407-5.207-17.909-7.514-19.809-2.715-2.236-6.382 11.903-8.88 8.88-16.713-20.232-21.175-49.863-3.801-85.398-11.925 12.654-20.536 28.361-22.113 45.076-1.808 19.17 3.956 37.155 16.231 50.643 11.045 12.133 26.039 19.092 41.143 19.092z" fill="#6AA4FF" p-id="2446"></path><path d="M606.873 383.632c-2.765 9.678-3.586 23.053-2.87 28.696 6.646 2.449 42.316 10.238 52.221 9.555 0.854-4.952 2.442-12.524 2.903-25.444 0.512-14.344-3.983-30.797-14.857-36.373-19.979-10.245-31.25 2.05-37.397 23.566z" fill="#CFEDFF" p-id="2447"></path><path d="M644.27 360.066c-6.961-3.57-12.863-4.397-17.861-3.057 2.536 0.579 5.238 1.575 8.128 3.057 10.874 5.576 15.369 22.029 14.857 36.373-0.443 12.396-1.92 19.861-2.794 24.821 4.059 0.517 7.458 0.773 9.624 0.623 0.854-4.952 2.442-12.524 2.903-25.444 0.512-14.344-3.983-30.796-14.857-36.373z" fill="#96D5FF" p-id="2448"></path><path d="M609.04 420.819c4.18 3.478 25.326 9.944 35.913 9.602 7.62-0.246 19.47-8.832 14.175-8.538-9.58 0.531-50.792-6.139-55.125-9.555-2.114-1.666-0.298 4.053 5.037 8.491z" fill="#4D83E7" p-id="2449"></path><path d="M406.938 269.352l0.355 0.048c-0.12-0.013-0.236-0.036-0.355-0.048zM433.567 285.694c-3.291-5.731-8.201-10.021-13.986-12.81-10.454-0.932-22.237 2.654-36.069 12.9-3.073 2.276 6.17-11.598 9.942-15.546a46.475 46.475 0 0 0-13.116 5.066c-19.628 11.273-27.62 34.201-17.85 51.212 9.77 17.011 37.418 23.817 53.229 10.39 2.297-1.951-3.516-13.212 1.607-11.163 4.064 1.626 9.753 2.17 11.483 0.008 1.66-2.074-14.215-12.474-7.385-11.791 5.48 0.548 15.29-3.016 15.93-7.316 1.071-7.195-0.079-14.498-3.785-20.95z" fill="#6AA4FF" p-id="2450"></path><path d="M735.341 344.203c-1.839-22.56-19.179-39.556-38.731-37.963-8.537 0.696-16.082 4.822-21.723 11.127 3.194 1.033 7.293 0.349 11.391 2.399 4.098 2.049-13.983 11.639-20.43 14.846-0.537 2.082 11.112 7.543 10.867 9.744-0.322 2.897-12.426 2.572-12.178 5.617 1.839 22.56 19.179 39.556 38.731 37.963 19.552-1.593 33.911-21.173 32.073-43.733z" fill="#6AA4FF" p-id="2451"></path><path d="M518.602 353.25c-0.667 0.182-1.304 0.389-1.948 0.59 11.326 2.128 19.522 10.325 20.547 24.157 0.741 10.006-1.519 26.934-8.197 36.373 4.611-0.512 10.02-2.548 12.145-3.303 4.13-2.684 6.664-14.968 5.825-30.671-0.84-15.722-13.429-31.226-28.372-27.146z" fill="#96D5FF" p-id="2452"></path><path d="M537.713 418.126c-4.282 3.479-27.322 10.246-38.251 10.246-7.863 0-18.443-8.538-12.978-8.197 9.885 0.618 51.912-7.172 56.352-10.587 2.166-1.666 0.342 4.098-5.123 8.538z" fill="#4D83E7" p-id="2453"></path><path d="M639.456 647.606c1.569-3.109 3.153-6.226 4.75-9.351a50.87 50.87 0 0 1-7.642-1.16 170.132 170.132 0 0 1 2.892 10.511zM492.844 841.513c-38.617 0-84.379-8.403-113.873-20.908-40.944-17.364-70.796-52.952-84.06-100.213-6.316-22.508-8.547-47.007-6.815-72.448-30.312-43.967-59.389-93.193-83.951-140.555 12.973 43.487 27.11 90.951 39.403 129.516-4.267-2.295-8.954-5.914-12.365-9.493-2.242-2.347-4.214-1.967-5.191-1.531-3.511 1.573-3.085 6.798-2.152 18.248 0.497 6.109 1.512 18.573-0.098 21.322-25.814-7.768-37.506-41.678-37.622-42.02a3.066 3.066 0 0 0-3.892-1.933 3.072 3.072 0 0 0-1.936 3.888c0.512 1.527 12.871 37.479 41.939 46.03a6.446 6.446 0 0 0 1.801 0.268c1.257 0 2.429-0.41 3.411-1.207 4.12-3.354 3.702-12.381 2.523-26.849-0.244-3-0.543-6.68-0.618-9.421 4.541 4.149 10.845 8.61 16.675 10.417 8.959 27.781 16.782 50.143 22.224 61.753l0.082 0.176a46.3 46.3 0 0 1-1.737-1.924c-2.06-2.431-4.01-2.125-4.986-1.723-3.314 1.353-3.179 5.469-2.251 18.278 0.464 6.416 1.304 18.004 0.003 21.226-22.484-8.009-32.733-41.458-32.835-41.798a3.072 3.072 0 0 0-3.824-2.063 3.072 3.072 0 0 0-2.066 3.822c0.455 1.527 11.448 37.495 37.44 46.096 0.61 0.202 1.216 0.302 1.803 0.302 1.11 0 2.156-0.356 3.052-1.053 3.983-3.104 3.624-12.261 2.558-26.977-0.202-2.798-0.447-6.174-0.533-8.855 2.668 2.642 5.935 5.341 9.296 7.366 28.209 60.608 54.581 115.523 129.243 134.667 30.667 7.863 82.825 7.32 103.483 5.123-10.246 38.934-23.741 69.552-28.688 75.819-7.684 9.734-22.292 13.482-35.476 18.315 31.762 6.788 59.706 6.141 68.676 0.283 2.429-5.197 13.371-38.575 32.625-88.959 0.67-1.752 6.989-17.974 9.897-25.436l-0.158-0.001c0.941-2.159 1.863-8.269 1.975-8.549-18.471 9.012-44.032 11.001-62.982 11.001zM918.155 230.706c-7.359 2.681-17.545 10.025-29.718 20.991-7.293 2.023-15.904 3.231-19.699 0.596-0.538-0.373-0.841-0.711-0.919-1.009-0.463-1.92 2.626-6.291 4.871-9.468 2.62-3.708 5.317-7.524 6.509-11.615 0.699-2.395-0.285-4.126-0.933-4.947-2.907-3.673-9.424-3.01-22.765-1.286-6.565 0.848-18.633 2.408-21.459 0.781 0.709-8.727 9.581-25.846 12.931-31.692 0.712-1.242 0.243-3.04-1.048-4.018-1.289-0.977-2.912-0.767-3.627 0.471-0.52 0.902-12.921 22.497-13.707 34.179a6.422 6.422 0 0 0 0.514 3.015 6.378 6.378 0 0 0 1.232 1.847c3.853 4.046 12.666 3.129 26.665 1.303 5.481-0.715 13.381-1.744 16.637-1.242-1.135 2.954-3.329 6.04-5.466 9.045-3.626 5.098-6.776 9.528-5.652 14.23 0.351 1.476 1.313 3.615 3.888 5.407 3.477 2.419 8.459 2.851 13.456 2.398-10.269 9.9-21.662 21.921-33.78 35.573-7.219 4.627-21.265 12.669-27.512 12.027-0.495-0.051-0.716-0.159-0.735-0.144l-0.031-0.07c-0.998-2.395 2.781-11.971 4.597-16.571 1.209-3.062 2.347-5.945 3.149-8.517 0.936-2.994-0.187-4.816-0.941-5.636-2.722-2.967-6.976-1.148-15.487 2.491-5.42 2.318-15.56 6.654-18.262 4.984-0.066-0.041-0.098-0.06-0.157-0.295-4.257-16.83 15.438-37.445 15.635-37.649 1.034-1.069 0.96-2.981-0.16-4.268-1.12-1.287-2.863-1.471-3.898-0.409-0.893 0.917-22.101 22.981-17.007 43.332 0.104 0.419 0.235 0.818 0.39 1.2 0.615 1.514 1.618 2.729 2.946 3.551 4.785 2.965 12.626-0.019 23.116-4.529 2.438-1.048 5.457-2.346 7.647-3.073-0.637 1.743-1.39 3.636-2.175 5.605-3.739 9.388-7.001 17.582-4.019 22.827 0.83 1.465 2.484 3.281 5.651 3.605 3.83 0.392 9.2-1.383 14.513-3.816-17.945 21.012-37.083 45.004-56.258 70.567-1.913 1.046-3.573 1.577-4.829 1.391-1.045-0.155-1.322-0.635-1.471-0.892-2.668-4.622 1.748-20.802 3.84-28.492l0.682-2.521c0.882-3.283-0.287-5.284-1.061-6.182-2.341-2.721-6.079-2.217-12.872-0.079-0.099-0.354-0.195-0.711-0.303-1.056-2.555-8.177-7.551-19.139-13.878-27.702 5.091-6.31 9.814-10.508 9.924-10.605 1.186-1.04 1.296-3.053 0.247-4.505-1.047-1.446-2.855-1.781-4.042-0.747-0.467 0.407-5.133 4.528-10.273 10.838-3.051-3.269-6.318-5.849-9.71-7.267 2.677 3.116 5.116 6.587 7.289 10.369 5.857 12.728 11.035 27.635 11.113 41.046 0.377 13.201-2.027 26.224-7.193 37.166-9.92 21.006-22.679 30.791-40.153 30.791h-0.002c-5.061 0-10.537-0.848-16.523-2.534-1.206-1.167-3.873-2.167-6.191-1.972-1.12-0.399-2.254-0.82-3.41-1.274 0.084 1.558 0.172 3.134 0.262 4.725 0.104 1.853 0.208 3.736 0.308 5.633-1.681 6.824-2.492 14.236-1.836 22.066 0.066 0.772 0.213 1.501 0.437 2.172 0.378 1.133 0.982 2.095 1.768 2.848-0.445 9.553-1.714 19.152-4.567 28.375-8.289 26.799-19.683 37.071-28.426 40.845 9.992 3.975 16.828 10.785 22.983 16.92 6.788 6.764 14.26 11.697 20.792 10.928 1.888-1.133 6.022-7.247 8.067-10.386l-0.052-0.005c59.601-100.632 133.136-200.038 220.172-272.608 10.308-8.59 8.374-22.634-0.024-37.057zM750.827 408.222c8.846-15.923 14.123-40.183 11.883-57.776 2.514-0.813 4.996-1.539 6.633-1.766l-0.321 1.172c-4.043 14.683-7.1 27.574-3.064 34.604 0.871 1.515 2.447 3.364 5.107 4.102-18.235 24.613-36.387 50.503-53.462 76.458-0.628-6.499 1.145-16.631 3.798-23.925 1.258-3.472 0.122-5.543-0.667-6.468-2.838-3.32-7.464-0.764-17.659 4.864-3.024 1.67-7.805 4.307-12.019 6.213a73.62 73.62 0 0 0-0.68-7.766c15.369-2.048 48.344-7.92 60.451-29.712z m-76.595 127.217c-2.503-0.925-4.738-1.999-6.396-3.243-8.197-6.148 4.929-8.488 14.344-37.91 5.372-16.787 8.089-29.601 8.757-40.486 4.094-1.598 9.053-4.253 15.01-7.561 2.683-1.489 5.967-3.311 8.467-4.499-2.733 9.205-4.756 22.414-1.439 30.35-13.895 21.38-26.997 42.724-38.743 63.349zM100.215 404.482c1.308-6.32 3.199-15.453 4.841-18.762 2.328 2.712 4.389 6.633 6.388 10.438 3.375 6.426 6.291 11.975 10.97 13.029 1.464 0.332 3.744 0.325 6.285-1.58 9.162-6.872 9.426-32.362 9.426-35.246a3.074 3.074 0 1 0-6.148 0c0 9.706-1.891 26.521-6.967 30.327-0.531 0.399-0.947 0.562-1.245 0.502-1.91-0.431-4.783-5.899-6.88-9.892-2.457-4.678-4.999-9.514-8.35-12.865-1.968-1.969-3.933-1.763-4.931-1.466-4.478 1.34-6.213 8.823-9.409 24.268-1.567 7.571-4.438 21.44-6.967 23.73-7.937-4.953-21.026-23.051-25.44-29.67a3.071 3.071 0 0 0-4.262-0.852 3.072 3.072 0 0 0-0.852 4.262c0.685 1.028 16.9 25.239 27.615 31.668 0.965 0.578 1.986 0.871 3.001 0.871a5.37 5.37 0 0 0 2.161-0.459c5.135-2.251 7.436-12.222 10.764-28.303zM133.772 478.089c-0.066-3.005-0.148-6.731-0.018-9.344 1.314 1.436 2.717 3.057 4.172 4.741 6.898 7.976 12.862 14.87 18.427 14.034 1.549-0.23 3.685-1.159 5.072-4.278 4.415-9.933-0.258-37.592-0.805-40.714a3.073 3.073 0 1 0-6.055 1.062c1.397 7.971 4.342 30.183 1.244 37.155-0.217 0.489-0.388 0.671-0.382 0.697a1.636 1.636 0 0 1-0.071 0.002c-2.416 0-9.398-8.072-12.778-11.979-2.258-2.612-4.393-5.08-6.377-7.063-2.316-2.319-4.327-1.953-5.322-1.527-3.6 1.538-3.484 6.822-3.252 17.35 0.147 6.673 0.421 19.094-1.999 21.19-0.059 0.051-0.087 0.076-0.316 0.038-16.491-2.749-28.26-32.614-28.377-32.915a3.074 3.074 0 0 0-5.732 2.22c0.528 1.364 13.158 33.434 33.099 36.758 0.406 0.068 0.804 0.101 1.196 0.101a6.22 6.22 0 0 0 4.156-1.556c4.272-3.702 4.401-13.101 4.118-25.972z" fill="#6AA4FF" p-id="2454"></path><path d="M201.803 564.614c1.704-0.324 4.054-1.353 5.575-4.409 5.059-10.164-7.679-38.985-10.284-44.661a3.074 3.074 0 1 0-5.587 2.565c5.968 13 13.13 33.805 10.368 39.355-0.482 0.968-0.964 1.06-1.222 1.109-4.647 0.882-16.332-9.651-21.956-14.711l-1.854-1.664c-2.424-2.166-4.495-1.78-5.51-1.357-3.761 1.564-4.222 7.082-4.834 18.419-0.419 7.758-1.052 19.482-4.023 21.908-0.256 0.21-0.5 0.316-0.996 0.242-18.482-2.752-29.527-38.475-29.636-38.835a3.073 3.073 0 0 0-5.883 1.782c0.491 1.624 12.294 39.811 34.615 43.133 0.401 0.06 0.797 0.09 1.188 0.09 1.694 0 3.266-0.56 4.6-1.649 5.076-4.142 5.685-15.427 6.275-26.339 0.217-4.032 0.498-9.242 1.085-11.934l0.864 0.774c10.718 9.647 20.167 17.517 27.215 16.182z" fill="#6AA4FF" p-id="2455"></path><path d="M479.176 921.787c-3.231 0-4.839-0.64-5.409-0.937-6.264-3.26-6.148-11.727-5.016-18.078-9.88 5.677-28.562 15.377-39.542 14.312-3.365-0.324-6.208-1.877-8.448-4.619-5.057-6.188-5.784-17.194-5.675-24.122-10.769 6.574-34.694 20.35-44.242 19.169-13.32-1.651-16.873-20.726-16.873-31.738 0 0 6.319-4.781 6.148 0-0.171 4.781 3.117 24.602 11.481 25.639 7.207 0.88 40.872-17.324 45.22-21.396s5.852 0.406 4.716 2.906c-1.137 2.499-0.853 19.735 3.989 25.657 1.197 1.461 2.554 2.219 4.274 2.385 10.739 1.057 38.899-13.9 42.157-17.288 3.258-3.388 5.847 1.143 4.553 3.616-1.295 2.473-4.005 15.969 0.096 18.102 4.018 2.089 19.96-9.381 32.933-15.629l-2.818 10.758c-8.197 6.661-22.036 11.263-27.544 11.263z" fill="#6AA4FF" p-id="2456"></path><path d="M540.275 507.094c4.354 0.256 40.167 4.705 54.559 7.172 17.93 3.074 42.52 8.965 47.899 11.783-17.162-2.049-82.906-8.282-92.469-11.014-9.563-2.732-14.344-8.197-9.989-7.941zM595.944 623.556c1.366 3.757 11.953 19.809 14.515 21.858s4.098-4.611 6.148-3.074c2.049 1.537 5.635 13.49 7.172 16.393 1.537 2.903 3.415-8.538 5.464-5.977 2.049 2.561 6.489 21.175 8.88 25.444 1.784 3.185 11.27-11.437 11.27-18.272 0-5.464 3.72 9.306 4.44 8.538 5.123-5.464 6.489-29.371-4.781-30.055-3.415-0.171-15.71-1.708-25.615-3.757-6.522-1.348-23.053-7.683-27.493-11.098z" fill="#CFEDFF" p-id="2457"></path><path d="M652.808 638.754c-3.415-0.171-19.504-1.878-29.371-4.098-6.831-1.537-17.076-5.379-26.042-10.246 1.013 2.242 12.098 17.102 18.955 10.246 1.025-1.025 6.568 13.705 7.087 14.686 1.537 2.903 3.415-13.832 5.464-11.271s9.563 24.59 10.246 28.176c0.683 3.586 11.441-12.978 9.904-19.638-1.265-5.483 3.478 10.673 4.44 10.246 3.074-1.366 2.916-7.58 3.415-9.221-0.474-3.966-1.016-6.742-4.098-8.88z" fill="#96D5FF" p-id="2458"></path><path d="M714.93 537.005c-1.587-3.633-3.073 0.5-7.517 3.395-4.292 2.796-8.281 1.995-11.449 2.32-2.717 0.279-0.193 7.006 9.05 7.389 9.243 0.382 11.26-10.026 9.916-13.104z" fill="#4D83E7" p-id="2459"></path><path d="M704.208 545.687c7.612 0.315 9.764-6.301 9.734-10.502-0.939 0.171-2.923 2.865-6.529 5.215-4.292 2.796-8.281 1.995-11.449 2.32-0.418 0.042 3.978 2.79 8.244 2.967z" fill="#4D83E7" p-id="2460"></path><path d="M715.099 526.049c-2.578-3.628-4.713 1.419-9.609 4.098-4.368 2.391-8.585 4.448-12.808 4.611-3.33 0.128 1.452 9.734 11.934 8.197 10.483-1.537 12.667-13.832 10.483-16.906z" fill="#4D83E7" p-id="2461"></path><path d="M714.454 529.635c0.303 0.478-0.181 5.404-2.561 6.916s-5.069 0.814-5.372 0.336c-0.303-0.478 1.38-2.091 3.761-3.603 2.38-1.512 3.869-4.126 4.172-3.649z" fill="#96D5FF" p-id="2462"></path><path d="M708.563 534.246c7.533-1.139 8.579-7.089 7.75-11.208-1.479-0.562-2.505 2.86-5.598 5.853-3.681 3.562-7.274 2.281-10.092 3.732-0.373 0.192-1.342 1.102-1.446 1.429 1.828 1.298 5.164 0.832 9.386 0.194z" fill="#4D83E7" p-id="2463"></path><path d="M717.66 517.34c-2.578-3.628-4.713 1.419-9.609 4.098-4.368 2.391-9.805 3.94-13.977 4.611-3.185 0.512 1.938 8.197 13.464 6.66 10.502-1.4 12.306-12.295 10.122-15.369z" fill="#4D83E7" p-id="2464"></path><path d="M717.272 519.646c0.303 0.478-0.181 5.404-2.561 6.916-2.381 1.512-5.069 0.814-5.372 0.336-0.303-0.478 1.38-2.091 3.761-3.603s3.868-4.127 4.172-3.649zM714.369 537.405c0 1.622-2.903 5.891-2.135 7.684 0.267 0.623 2.085-1.397 2.476-3.415 0.463-2.389-0.341-5.074-0.341-4.269z" fill="#96D5FF" p-id="2465"></path><path d="M861.839 394.094c34.403 52.9 91.428 38.174 137.922 33.483-24.276-23.918-28.982-60.196-51.828-86.629-22.846-26.432-65.103-23.075-86.882-26.16-15.797-2.238-21.341 45.278 0.788 79.306z" fill="#CFEDFF" p-id="2466"></path><path d="M861.839 394.094c33.454 51.44 91.442 38.637 137.194 33.595-25.754-16.977-81.203-53.796-93.493-67.11-14.051-15.222-36.373-34.324-47.991-45.4-12.985 4.755-16.108 47.549 4.29 78.915z" fill="#6AA4FF" p-id="2467"></path><path d="M996.471 426.408l-102.202-76.844s35.037-1.163 33.811-2.305c-1.433-1.335-42.264-6.916-42.264-6.916s-22.285-19.723-27.92-25.358c-7.172 2.561 32.202 36.584 37.654 40.727 12.807 9.733 100.921 70.696 100.921 70.696z" fill="#FFFFFF" p-id="2468"></path></svg>