<?xml version="1.0" encoding="UTF-8"?>
<svg width="20px" height="20px" viewBox="0 0 20 20" version="1.1" xmlns="http://www.w3.org/2000/svg" xmlns:xlink="http://www.w3.org/1999/xlink">
    <title>tab_2@2x</title>
    <g id="页面-1" stroke="none" stroke-width="1" fill="none" fill-rule="evenodd" opacity="0.200000003">
        <g id="画板" transform="translate(-103.000000, -195.000000)" fill="#000000" fill-rule="nonzero">
            <g id="tab_2" transform="translate(103.000000, 195.000000)">
                <path d="M10,3.33066907e-16 C15.52275,3.33066907e-16 20,4.47724999 20,10 C20,15.52275 15.52275,20 10,20 C4.47725001,20 3.33066907e-16,15.52275 3.33066907e-16,10 C3.33066907e-16,4.47725001 4.47725001,3.33066907e-16 10,3.33066907e-16 Z M15.0295,7.46900001 C14.7362112,7.17662739 14.2614606,7.17729889 13.969,7.47050001 L10.76725,10.68125 L8.85025,8.59274999 C8.71038322,8.4403288 8.51377117,8.35244703 8.3069176,8.34989094 C8.10006403,8.34733486 7.90134043,8.43033148 7.75775001,8.57924999 L4.96025001,11.47925 C4.67264773,11.7773457 4.68115432,12.2521477 4.97925001,12.53975 C5.2773457,12.8273523 5.75214771,12.8188457 6.03975,12.52075 L8.284,10.19425 L10.19225,12.27325 C10.3306383,12.4240815 10.5246635,12.5117951 10.7293179,12.516044 C10.9339722,12.5202928 11.1314708,12.4407078 11.276,12.29575 L15.031,8.52950001 C15.3233726,8.23621117 15.3227011,7.7614606 15.0295,7.46900001 L15.0295,7.46900001 Z" id="形状"></path>
            </g>
        </g>
    </g>
</svg>