<?xml version="1.0" encoding="UTF-8"?>
<svg width="18px" height="18px" viewBox="0 0 18 18" version="1.1" xmlns="http://www.w3.org/2000/svg" xmlns:xlink="http://www.w3.org/1999/xlink">
    <title>t_01@2x</title>
    <g id="页面-1" stroke="none" stroke-width="1" fill="none" fill-rule="evenodd">
        <g id="画板" transform="translate(-15.000000, -139.000000)" fill-rule="nonzero">
            <g id="t_01" transform="translate(15.000000, 139.000000)">
                <path d="M4.5,9 C4.5,11.4852814 6.51471863,13.5 9,13.5 C11.4852814,13.5 13.5,11.4852814 13.5,9 C13.5,6.51471863 11.4852814,4.5 9,4.5 C6.51471863,4.5 4.5,6.51471863 4.5,9 Z" id="路径" fill="#FF934A"></path>
                <path d="M7.65988393,1.13890179 C7.67788393,0.514205357 8.08244196,0.0223392857 8.70709821,0.00409821429 C8.79705804,0.00148660714 8.89469196,0 9,0 C9.10526786,0 9.20294196,0.00148660714 9.29294196,0.00409821429 C9.91755804,0.0223392857 10.3221161,0.514205357 10.3401161,1.13890179 C10.345942,1.33802679 10.35,1.56041518 10.35,1.8 C10.35,2.03958482 10.3459821,2.26197321 10.3401161,2.46109821 C10.3221161,3.08579464 9.91755804,3.57766071 9.29294196,3.59590179 C9.20294196,3.59851339 9.10530804,3.6 9,3.6 C8.89473214,3.6 8.79705804,3.59851339 8.70705804,3.59590179 C8.08244196,3.57766071 7.67788393,3.08579464 7.65988393,2.46109821 C7.65335547,2.24079236 7.65006047,2.02040256 7.65,1.8 C7.65,1.56041518 7.65401786,1.33802679 7.65988393,1.13890179 L7.65988393,1.13890179 Z M7.65988393,16.8610982 C7.67788393,17.4857946 8.08244196,17.9776607 8.70705804,17.9959018 C8.79705804,17.9985134 8.89469196,18 9,18 C9.10526786,18 9.20294196,17.9985134 9.29294196,17.9959018 C9.91755804,17.9776607 10.3221161,17.4857946 10.3401161,16.8610982 C10.345942,16.6619732 10.35,16.4395848 10.35,16.2 C10.35,15.9604152 10.3459821,15.7380268 10.3401161,15.5389018 C10.3221161,14.9142054 9.91755804,14.4223393 9.29294196,14.4040982 C9.20294196,14.4014866 9.10530804,14.4 9,14.4 C8.89473214,14.4 8.79705804,14.4014866 8.70705804,14.4040982 C8.08244196,14.4223393 7.67788393,14.9142054 7.65988393,15.5389018 C7.65335547,15.7592076 7.65006047,15.9795974 7.65,16.2 C7.65,16.4395848 7.65401786,16.6619732 7.65988393,16.8610982 L7.65988393,16.8610982 Z M1.13894196,10.3402768 C0.514366071,10.321875 0.0225,9.91759821 0.00405803571,9.29290179 C0.00136607143,9.20294196 0,9.10546875 0,9 C0,8.89453125 0.00136607143,8.79705804 0.00401785714,8.70709821 C0.0225,8.08240179 0.514366071,7.678125 1.13894196,7.65972321 C1.57955268,7.64680686 2.02044732,7.64680686 2.46105804,7.65972321 C3.08563393,7.678125 3.5775,8.08240179 3.59594196,8.70709821 C3.59863393,8.79705804 3.6,8.89453125 3.6,9 C3.6,9.10546875 3.59863393,9.20294196 3.59598214,9.29290179 C3.5775,9.91759821 3.08563393,10.321875 2.46105804,10.3402768 C2.02044732,10.3531931 1.57955268,10.3531931 1.13894196,10.3402768 L1.13894196,10.3402768 Z M16.861058,10.3402768 C17.4856339,10.321875 17.9775,9.91759821 17.995942,9.29290179 C17.9986339,9.20294196 18,9.10546875 18,9 C18,8.89453125 17.9986339,8.79705804 17.9959821,8.70709821 C17.9775,8.08240179 17.4856339,7.678125 16.861058,7.65972321 C16.4204473,7.64680686 15.9795527,7.64680686 15.538942,7.65972321 C14.9143661,7.678125 14.4225,8.08240179 14.404058,8.70709821 C14.4013661,8.79705804 14.4,8.89453125 14.4,9 C14.4,9.10546875 14.4013661,9.20294196 14.4040179,9.29290179 C14.4225,9.91759821 14.9143661,10.321875 15.538942,10.3402768 C15.9795527,10.3531931 16.4204473,10.3531931 16.861058,10.3402768 L16.861058,10.3402768 Z M2.49348214,4.38910714 C2.06501786,3.93432589 2.00290179,3.30066964 2.43176786,2.84604911 C2.49878356,2.77498215 2.56689438,2.70495592 2.63607589,2.63599554 C2.70509631,2.56687367 2.77514882,2.49879013 2.84620982,2.43176786 C3.30070982,2.00294196 3.93432589,2.06485714 4.38882589,2.49360268 C4.54935529,2.64477142 4.70762286,2.79832419 4.86357589,2.95420982 C5.01925125,3.1101431 5.17270863,3.26827506 5.32390179,3.42855804 C5.75276786,3.88329911 5.81488393,4.51699554 5.38601786,4.97157589 C5.3187686,5.04240556 5.25066089,5.1124152 5.18170982,5.18158929 C5.1126894,5.25071115 5.04263689,5.31879469 4.97157589,5.38581696 C4.51707589,5.81464286 3.88345982,5.75272768 3.42851786,5.32398214 C3.26814125,5.17280548 3.11002109,5.0192528 2.95420982,4.863375 C2.79839292,4.70742512 2.64477507,4.54929344 2.49340179,4.38902679 L2.49348214,4.38910714 Z M13.6111339,15.5063571 C14.0656339,15.9350625 14.69925,15.9970179 15.15375,15.5682321 C15.2248113,15.5011966 15.2948638,15.4330996 15.3638839,15.3639643 C15.4330654,15.2950039 15.5011763,15.2249777 15.568192,15.1539107 C15.997058,14.6993304 15.934942,14.0656339 15.506558,13.610933 C15.3551847,13.4506664 15.2015669,13.2925347 15.04575,13.1365848 C14.8899387,12.980707 14.7318186,12.8271543 14.571442,12.6759777 C14.1165,12.2472723 13.4828839,12.185317 13.0283839,12.6141027 C12.9573226,12.6811382 12.8872701,12.7492352 12.81825,12.8183705 C12.7492989,12.8875446 12.6811912,12.9575543 12.613942,13.0283839 C12.1851161,13.4830045 12.247192,14.1166607 12.676058,14.5714018 C12.8272512,14.7316848 12.9807086,14.8898167 13.1363839,15.04575 C13.292337,15.2016356 13.4506045,15.3551884 13.6111339,15.5063571 L13.6111339,15.5063571 Z M4.38886607,15.5063571 C3.93436607,15.9350625 3.30075,15.9970179 2.84625,15.5682321 C2.7751887,15.5011966 2.70513619,15.4330996 2.63611607,15.3639643 C2.56693456,15.2950039 2.49882373,15.2249777 2.43180804,15.1539107 C2.00294196,14.6993304 2.06505804,14.0656339 2.49344196,13.610933 C2.64481525,13.4506664 2.7984331,13.2925347 2.95425,13.1365848 C3.11006127,12.980707 3.26818142,12.8271543 3.42855804,12.6759777 C3.8835,12.2472723 4.51711607,12.185317 4.97161607,12.6141027 C5.04267737,12.6811382 5.11272988,12.7492352 5.18175,12.8183705 C5.25070107,12.8875446 5.31880878,12.9575543 5.38605804,13.0283839 C5.81488393,13.4830045 5.75280804,14.1166607 5.32394196,14.5714018 C5.17274881,14.7316848 5.01929143,14.8898167 4.86361607,15.04575 C4.70766304,15.2016356 4.54939547,15.3551884 4.38886607,15.5063571 L4.38886607,15.5063571 Z M15.5065179,4.38910714 C15.934942,3.93436607 15.997058,3.30066964 15.568192,2.84608929 C15.5011763,2.77502233 15.4330654,2.7049961 15.3638839,2.63603571 C15.2948635,2.56691385 15.224811,2.49883031 15.15375,2.43180804 C14.69925,2.00298214 14.0656339,2.06489732 13.6111339,2.49364286 C13.4506045,2.6448116 13.292337,2.79836437 13.1363839,2.95425 C12.9807086,3.11018328 12.8272512,3.26831524 12.676058,3.42859821 C12.247192,3.88333929 12.1850759,4.51703571 12.613942,4.97161607 C12.6811912,5.04244574 12.7492989,5.11245537 12.81825,5.18162946 C12.8872704,5.25075133 12.9573229,5.31883487 13.0283839,5.38585714 C13.4828839,5.81468304 14.1165,5.75276786 14.571442,5.32402232 C14.7318186,5.17284566 14.8899387,5.01929298 15.04575,4.86341518 C15.2015669,4.7074653 15.3551847,4.54933362 15.506558,4.38906696 L15.5065179,4.38910714 Z" id="形状" fill="#FCBF28"></path>
            </g>
        </g>
    </g>
</svg>