<?xml version="1.0" standalone="no"?><!DOCTYPE svg PUBLIC "-//W3C//DTD SVG 1.1//EN" "http://www.w3.org/Graphics/SVG/1.1/DTD/svg11.dtd"><svg t="1708601138772" class="icon" viewBox="0 0 1024 1024" version="1.1" xmlns="http://www.w3.org/2000/svg" p-id="6850" xmlns:xlink="http://www.w3.org/1999/xlink" width="128" height="128"><path d="M228.48 131.2A105.984 105.984 0 0 1 333.44 39.488h297.6c52.992 0 97.92 39.168 105.024 91.712h69.952c58.496 0 105.92 47.36 105.984 105.792v356.032a35.968 35.968 0 1 1-72 0V237.056a33.92 33.92 0 0 0-33.984-33.92h-71.488a106.048 106.048 0 0 1-103.552 83.008H333.504a106.048 106.048 0 0 1-103.552-82.944H158.464a33.92 33.92 0 0 0-33.984 33.792V883.2a33.92 33.92 0 0 0 33.984 33.92H484.48a35.968 35.968 0 1 1 0 71.936H158.528C100.032 989.056 52.48 941.632 52.48 883.2V236.992c0-58.496 47.552-105.792 106.048-105.792H228.48z m104.96-19.712a33.92 33.92 0 0 0-33.92 33.856v34.944a33.92 33.92 0 0 0 33.984 33.856H631.04a33.92 33.92 0 0 0 34.048-33.92v-34.88a33.92 33.92 0 0 0-34.048-33.856H333.504z m101.568 324.032c0-19.904 16.128-36.032 35.968-36.032h265.536a35.968 35.968 0 1 1 0 72H470.976a36.032 36.032 0 0 1-35.968-35.968z m0 251.968c0-19.84 16.128-35.968 35.968-35.968h216a35.968 35.968 0 1 1 0 72H471.04a35.968 35.968 0 0 1-35.968-36.032zM205.44 381.504c0-19.84 16.128-36.032 35.968-36.032h108.032c19.84 0 35.968 16.128 35.968 36.032v107.968c0 19.904-16.064 36.032-35.968 36.032H241.472a36.032 36.032 0 0 1-35.968-36.032V381.504z m72 35.968v36.032h35.968v-36.032h-35.968zM205.44 638.08c0-19.84 16.128-36.032 35.968-36.032h108.032c19.84 0 35.968 16.128 35.968 36.032v107.968c0 19.84-16.064 36.032-35.968 36.032H241.472a35.968 35.968 0 0 1-35.968-36.032V638.08z m72 35.968v36.032h35.968v-36.032h-35.968z m668.928 5.376c14.08 14.08 14.08 36.864 0 50.88l-233.344 233.344a72 72 0 0 1-101.76 0l-96-96a36.032 36.032 0 1 1 50.88-50.88l96 96 233.344-233.344c14.08-14.08 36.864-14.08 50.88 0z" fill="#FFA940" p-id="6851"></path></svg>