<?xml version="1.0" encoding="UTF-8"?>
<svg width="14px" height="14px" viewBox="0 0 14 14" version="1.1" xmlns="http://www.w3.org/2000/svg" xmlns:xlink="http://www.w3.org/1999/xlink">
    <title>t_03 2@2x</title>
    <g id="页面-1" stroke="none" stroke-width="1" fill="none" fill-rule="evenodd">
        <g id="画板" transform="translate(-17.000000, -241.000000)" fill-rule="nonzero">
            <g id="t_03" transform="translate(17.000000, 241.000000)">
                <path d="M12.8947368,13.2631579 L1.10526316,13.2631579 C0.495065789,13.2631579 0,12.7680921 0,12.1578947 L0,3.31578947 C0,2.70559211 0.495065789,2.21052632 1.10526316,2.21052632 L12.8947368,2.21052632 C13.5049342,2.21052632 14,2.70559211 14,3.31578947 L14,12.1578947 C14,12.7680921 13.5049342,13.2631579 12.8947368,13.2631579 Z M1.47368421,11.7894737 L12.5263158,11.7894737 L12.5263158,3.68421053 L1.47368421,3.68421053 L1.47368421,11.7894737 Z" id="形状" fill="#FF934A"></path>
                <path d="M4.05263158,3.68421053 C3.64638158,3.68421053 3.31578947,3.35361842 3.31578947,2.94736842 L3.31578947,0.736842105 C3.31578947,0.330592105 3.64638158,0 4.05263158,0 C4.45888158,0 4.78947368,0.330592105 4.78947368,0.736842105 L4.78947368,2.94736842 C4.78947368,3.35361842 4.45888158,3.68421053 4.05263158,3.68421053 Z M9.94736842,3.68421053 C9.54111842,3.68421053 9.21052632,3.35361842 9.21052632,2.94736842 L9.21052632,0.736842105 C9.21052632,0.330592105 9.54111842,0 9.94736842,0 C10.3536184,0 10.6842105,0.330592105 10.6842105,0.736842105 L10.6842105,2.94736842 C10.6842105,3.35361842 10.3536184,3.68421053 9.94736842,3.68421053 Z M3.31578947,5.52631579 L6.31578947,5.52631579 L6.31578947,8.52631579 L3.31578947,8.52631579 L3.31578947,5.52631579 Z" id="形状" fill="#FCBF28"></path>
            </g>
        </g>
    </g>
</svg>