<?xml version="1.0" encoding="UTF-8"?>
<svg width="39px" height="39px" viewBox="0 0 39 39" version="1.1" xmlns="http://www.w3.org/2000/svg" xmlns:xlink="http://www.w3.org/1999/xlink">
    <title>tab_3@2x</title>
    <defs>
        <linearGradient x1="85.7254777%" y1="0%" x2="18.3193864%" y2="100%" id="linearGradient-1">
            <stop stop-color="#FCBF28" offset="0%"></stop>
            <stop stop-color="#FF934A" offset="100%"></stop>
        </linearGradient>
    </defs>
    <g id="页面-1" stroke="none" stroke-width="1" fill="none" fill-rule="evenodd">
        <g id="画板" transform="translate(-168.000000, -177.000000)">
            <g id="tab_3" transform="translate(168.000000, 177.000000)">
                <circle id="椭圆形" fill="url(#linearGradient-1)" cx="19.5" cy="19.5" r="19.5"></circle>
                <g id="编组" transform="translate(10.000000, 10.000000)" fill="#FFFFFF" fill-rule="nonzero">
                    <path d="M6.25,11.25 L2.5,11.25 C1.11875,11.25 0,12.36875 0,13.75 L0,17.5 C0,18.88125 1.11875,20 2.5,20 L6.25,20 C7.63125,20 8.75,18.88125 8.75,17.5 L8.75,13.75 C8.75,12.36875 7.63125,11.25 6.25,11.25 Z M6.25,16.25 C6.25,16.94 5.69,17.5 5,17.5 L3.75,17.5 C3.06,17.5 2.5,16.94 2.5,16.25 L2.5,15 C2.5,14.31 3.06,13.75 3.75,13.75 L5,13.75 C5.69,13.75 6.25,14.31 6.25,15 L6.25,16.25 Z M17.5,0 L13.75,0 C12.36875,0 11.25,1.11875 11.25,2.5 L11.25,6.25 C11.25,7.63125 12.36875,8.75 13.75,8.75 L17.5,8.75 C18.88125,8.75 20,7.63125 20,6.25 L20,2.5 C20,1.11875 18.88125,0 17.5,0 Z M17.5,5 C17.5,5.69 16.94,6.25 16.25,6.25 L15,6.25 C14.31,6.25 13.75,5.69 13.75,5 L13.75,3.75 C13.75,3.06 14.31,2.5 15,2.5 L16.25,2.5 C16.94,2.5 17.5,3.06 17.5,3.75 L17.5,5 Z M17.5,11.25 L13.75,11.25 C12.36875,11.25 11.25,12.36875 11.25,13.75 L11.25,17.5 C11.25,18.88125 12.36875,20 13.75,20 L17.5,20 C18.88125,20 20,18.88125 20,17.5 L20,13.75 C20,12.36875 18.88125,11.25 17.5,11.25 Z M17.5,16.25 C17.5,16.94 16.94,17.5 16.25,17.5 L15,17.5 C14.31,17.5 13.75,16.94 13.75,16.25 L13.75,15 C13.75,14.31 14.31,13.75 15,13.75 L16.25,13.75 C16.94,13.75 17.5,14.31 17.5,15 L17.5,16.25 Z M6.25,0 L2.5,0 C1.11875,0 0,1.11875 0,2.5 L0,6.25 C0,7.63125 1.11875,8.75 2.5,8.75 L6.25,8.75 C7.63125,8.75 8.75,7.63125 8.75,6.25 L8.75,2.5 C8.75,1.11875 7.63125,0 6.25,0 Z M6.25,5 C6.25,5.69 5.69,6.25 5,6.25 L3.75,6.25 C3.06,6.25 2.5,5.69 2.5,5 L2.5,3.75 C2.5,3.06 3.06,2.5 3.75,2.5 L5,2.5 C5.69,2.5 6.25,3.06 6.25,3.75 L6.25,5 Z" id="形状"></path>
                </g>
            </g>
        </g>
    </g>
</svg>