<?xml version="1.0" encoding="UTF-8"?>
<svg width="20px" height="20px" viewBox="0 0 20 20" version="1.1" xmlns="http://www.w3.org/2000/svg" xmlns:xlink="http://www.w3.org/1999/xlink">
    <title>tab_1备份@2x</title>
    <g id="页面-1" stroke="none" stroke-width="1" fill="none" fill-rule="evenodd" opacity="0.200000003">
        <g id="画板" transform="translate(-33.000000, -251.000000)" fill-rule="nonzero">
            <g id="tab_1备份" transform="translate(33.000000, 251.000000)">
                <path d="M9.99992612,19.0499856 C1.86241676,19.0499856 -1.88632351,11.9982395 0.927517509,6.17854877 C2.26243478,3.41728155 4.90941114,1.86521165 7.97240623,2.11665154 C9.33475331,2.22865659 10.676528,2.2560864 12.0388751,2.1509388 C14.8847176,1.93150035 17.442547,3.3304205 18.8391814,5.81967547 C22.2039043,11.8108024 17.9499985,19.0499856 9.99992612,19.0499856 Z" id="路径" fill="#000000"></path>
                <path d="M3.41220085,5.72595696 C3.00761119,6.23798002 2.72188404,6.88943793 2.72415624,7.55461075 C2.72645567,7.96377204 3.08304316,8.3569326 3.50820517,8.33864606 C3.93108136,8.32035952 4.2945263,7.99348766 4.29224048,7.55461075 C4.29224048,7.52032349 4.29681212,7.4814646 4.2945263,7.44717734 C4.29909793,7.50889441 4.26938231,7.57061147 4.29224048,7.47003551 C4.31509865,7.36488792 4.34024264,7.26202614 4.3745299,7.15916437 C4.37910154,7.14544946 4.4271037,7.00830043 4.40195971,7.07687495 C4.3745299,7.14316365 4.43396115,7.01287206 4.43853278,6.99915716 C4.46139096,6.95572663 4.48424913,6.91229611 4.5071073,6.8711514 C4.52539384,6.84143577 4.61911235,6.71114419 4.51853639,6.83457832 C4.78140537,6.50313482 4.84312244,6.05054301 4.51853639,5.72595696 C4.24880995,5.45165889 3.67506983,5.38994183 3.41220085,5.72595696 L3.41220085,5.72595696 Z" id="路径" fill="#FFFFFF"></path>
                <path d="M10.3542278,5.72367114 L11.6731443,4.18531614 C11.7531479,4.09159764 11.8674388,4.03445221 11.9885871,4.02302312 L14.2995483,3.83101447 C14.7589976,3.79215558 14.891575,3.18412819 14.4892712,2.95783229 L13.2366433,2.2560864 C13.0469205,2.14865299 12.9554878,1.9246429 13.0172049,1.71434771 L13.3486484,0.601154716 C13.4560818,0.244567227 13.1223525,-0.0868762719 12.765765,0.0205571382 L10.1325035,0.816021537 C10.0433566,0.843451343 9.94963814,0.843451343 9.86277709,0.816021537 L7.23180145,0.0228429555 C6.87521396,-0.0845904547 6.54377046,0.246853045 6.64891805,0.603440534 L6.98036155,1.71663353 C7.04207862,1.92692871 6.95064593,2.1509388 6.7609231,2.25837221 L5.50829525,2.9601181 C5.10599142,3.18412819 5.23856882,3.7944414 5.69801808,3.83330029 L8.00897931,4.02530894 C8.13012762,4.03445221 8.24441848,4.09388345 8.32442209,4.18760196 L9.64333863,5.72595696 C9.83077565,5.94082378 10.1667908,5.94082378 10.3542278,5.72367114 Z" id="路径" fill="#7D7D7D"></path>
                <path d="M12.0388751,2.14865299 C10.676528,2.25380058 9.33475331,2.22637077 7.97240623,2.11436573 C7.61810456,2.0846501 7.27066034,2.08236429 6.92778775,2.10065082 C6.88664304,2.16465371 6.83178343,2.2172275 6.76320891,2.2560864 L5.50829525,2.9601181 C5.10599142,3.18412819 5.23856882,3.7944414 5.69801808,3.83330029 L8.00897931,4.02530894 C8.13012762,4.03445221 8.24441848,4.09388345 8.32442209,4.18760196 L9.64333863,5.72595696 C9.83077565,5.9431096 10.164505,5.9431096 10.351942,5.72595696 L11.6708585,4.18760196 C11.7508621,4.09388345 11.865153,4.03673802 11.9863013,4.02530894 L14.2972625,3.83330029 C14.7567118,3.7944414 14.8892892,3.18641401 14.4869854,2.9601181 L13.2366433,2.2560864 C13.1840695,2.22637077 13.1383532,2.18751188 13.1017801,2.14179553 C12.7520501,2.11893736 12.3977484,2.12122318 12.0388751,2.14865299 Z" id="路径" fill="#7D7D7D"></path>
                <path d="M10.0822155,3.42185319 C9.65019608,3.42185319 9.29818023,3.07212315 9.29818023,2.63781787 L9.29818023,1.64805901 C9.29818023,1.21603955 9.64791027,0.864023698 10.0822155,0.864023698 C10.514235,0.864023698 10.8662509,1.21375374 10.8662509,1.64805901 L10.8662509,2.63781787 C10.8662509,3.07212315 10.514235,3.42185319 10.0822155,3.42185319 Z" id="路径" fill="#000000"></path>
            </g>
        </g>
    </g>
</svg>