<?xml version="1.0" standalone="no"?><!DOCTYPE svg PUBLIC "-//W3C//DTD SVG 1.1//EN" "http://www.w3.org/Graphics/SVG/1.1/DTD/svg11.dtd"><svg t="1707916262946" class="icon" viewBox="0 0 1024 1024" version="1.1" xmlns="http://www.w3.org/2000/svg" p-id="36651" xmlns:xlink="http://www.w3.org/1999/xlink" width="128" height="128"><path d="M512 0c282.76736 0 512 229.23264 512 512s-229.23264 512-512 512S0 794.76736 0 512 229.23264 0 512 0z" fill="#E2574C" p-id="36652"></path><path d="M20.48 583.68a20.48 20.48 0 0 0 20.48-20.48v51.2a20.48 20.48 0 0 0 40.96 0v51.2a20.48 20.48 0 0 0 40.96 0v-51.2a20.48 20.48 0 0 0 40.96 0v102.4a20.48 20.48 0 0 0 40.96 0v-30.72a20.48 20.48 0 0 0 40.96 0v-51.2a20.48 20.48 0 0 0 40.96 0v40.96a20.48 20.48 0 0 0 40.96 0v-61.44a20.48 20.48 0 0 0 40.96 0v51.2a20.48 20.48 0 0 0 40.96 0v-51.2a20.48 20.48 0 0 0 40.96 0v102.4a20.48 20.48 0 0 0 40.96 0v-30.72a20.48 20.48 0 0 0 40.96 0v-51.2a20.48 20.48 0 0 0 40.96 0v-71.68a20.48 20.48 0 0 0 40.96 0v51.2a20.48 20.48 0 0 0 40.96 0v61.44a20.48 20.48 0 0 0 40.96 0v-61.44a20.48 20.48 0 0 0 40.96 0v102.4a20.48 20.48 0 0 0 40.96 0v-30.72a20.48 20.48 0 0 0 40.96 0v-51.2a20.48 20.48 0 0 0 40.96 0v-71.68a20.48 20.48 0 0 0 40.96 0v51.2a20.48 20.48 0 0 0 40.96 0v51.2a20.48 20.48 0 0 0 40.96 0v-51.2a20.48 20.48 0 0 0 20.48 20.48c2.00704 0 3.91168-0.37888 5.74464-0.9216A513.1264 513.1264 0 0 0 1024 512H0c0 21.4528 1.47456 42.53696 4.03456 63.30368A20.3776 20.3776 0 0 0 20.48 583.68z" fill="#E67067" p-id="36653"></path><path d="M1003.52 389.12a20.48 20.48 0 0 0-20.48 20.48v-51.2a20.48 20.48 0 0 0-40.96 0v51.2a20.48 20.48 0 0 0-40.96 0v51.2a20.48 20.48 0 0 0-40.96 0v-71.68a20.48 20.48 0 0 0-40.96 0v-51.2a20.48 20.48 0 0 0-40.96 0v-30.72a20.48 20.48 0 0 0-40.96 0v102.4a20.48 20.48 0 0 0-40.96 0v-51.2a20.48 20.48 0 0 0-40.96 0 20.48 20.48 0 0 0-40.96 0 20.48 20.48 0 0 0-40.96 0v-30.72a20.48 20.48 0 0 0-40.96 0v30.72a20.48 20.48 0 0 0-40.96 0v-30.72a20.48 20.48 0 0 0-40.96 0v81.92a20.48 20.48 0 0 0-40.96 0v-51.2a20.48 20.48 0 0 0-40.96 0v51.2a20.48 20.48 0 0 0-40.96 0v51.2a20.48 20.48 0 0 0-40.96 0v-71.68a20.48 20.48 0 0 0-40.96 0v-51.2a20.48 20.48 0 0 0-40.96 0v-30.72a20.48 20.48 0 0 0-40.96 0v102.4a20.48 20.48 0 0 0-40.96 0v-51.2a20.48 20.48 0 0 0-40.96 0v51.2a20.48 20.48 0 0 0-40.96 0v51.2a20.48 20.48 0 0 0-20.48-20.48 20.3776 20.3776 0 0 0-16.44544 8.37632A516.49536 516.49536 0 0 0 0 512h1024c0-42.04544-5.18144-82.86208-14.73536-121.9584A20.13184 20.13184 0 0 0 1003.52 389.12z" fill="#E98179" p-id="36654"></path><path d="M337.95072 396.92288v208.01536c0 7.36256-6.88128 12.94336-14.10048 11.2128a70.79936 70.79936 0 0 0-18.6368-1.93536c-38.0416 1.06496-69.62176 33.85344-69.65248 71.53664-0.04096 39.24992 32.07168 72.3456 71.66976 72.3456 36.096 0 66.67264-27.38176 71.64928-61.77792l0.03072-210.1248c0-13.19936 9.0624-24.70912 21.99552-27.91424l187.50464-46.4384c18.41152-4.5568 36.23936 9.22624 36.23936 28.01664v93.4912c0 7.38304-6.90176 12.96384-14.14144 11.23328a71.44448 71.44448 0 0 0-18.59584-1.92512c-38.0416 1.06496-69.62176 34.80576-69.66272 72.4992-0.04096 39.24992 32.07168 71.0656 71.68 71.0656 36.096 0 66.69312-27.19744 71.66976-61.60384V344.4736c0-37.35552-35.44064-64.768-72.01792-55.7056l-211.70176 52.41856c-25.82528 6.38976-43.9296 29.37856-43.9296 55.73632z" fill="#CB4E44" p-id="36655"></path><path d="M665.6 624.64V512h-40.94976v21.36064c0 7.38304-6.90176 12.96384-14.14144 11.23328a71.44448 71.44448 0 0 0-18.59584-1.92512c-38.0416 1.06496-69.62176 34.80576-69.66272 72.4992A70.13376 70.13376 0 0 0 532.48 651.66336V634.88a20.48 20.48 0 0 0 40.96 0v-71.68a20.48 20.48 0 0 0 40.96 0v51.2a20.48 20.48 0 0 0 40.96 0v37.64224A70.10304 70.10304 0 0 0 665.6 624.64zM378.90048 512h-40.94976v92.93824c0 5.95968-4.52608 10.68032-10.07616 11.3664A20.40832 20.40832 0 0 0 368.64 614.4v51.2c0 7.55712 4.1472 14.09024 10.24 17.64352L378.90048 512zM327.68 675.84v-59.51488a11.03872 11.03872 0 0 1-3.82976-0.18432 70.79936 70.79936 0 0 0-18.6368-1.93536c-23.11168 0.64512-43.78624 13.04576-56.50432 31.09888A20.3776 20.3776 0 0 0 266.24 655.36a20.48 20.48 0 0 0 20.48-20.48v40.96a20.48 20.48 0 0 0 40.96 0z m-81.92 10.24v-36.21888a69.87776 69.87776 0 0 0-10.19904 35.8912 71.3216 71.3216 0 0 0 2.00704 16.60928c4.95616-3.7376 8.192-9.61536 8.192-16.2816z" fill="#CF655C" p-id="36656"></path><path d="M665.6 512V344.4736l-0.21504-3.59424A20.40832 20.40832 0 0 0 655.36 358.4a20.48 20.48 0 0 0-40.96 0 20.48 20.48 0 0 0-40.96 0v-30.72a20.48 20.48 0 0 0-40.96 0v30.72a20.48 20.48 0 0 0-40.96 0v-30.72c0-4.7616-1.6896-9.08288-4.41344-12.55424l-36.18816 8.96L450.56 327.68v81.92a20.48 20.48 0 0 0-40.96 0v-51.2c0-9.87136-6.99392-18.11456-16.30208-20.04992l-11.4176 2.82624c-2.31424 0.57344-4.47488 1.42336-6.64576 2.2528A20.36736 20.36736 0 0 0 368.64 358.4v51.2a20.48 20.48 0 0 0-20.48-20.48 20.3776 20.3776 0 0 0-9.76896 2.58048c-0.16384 1.73056-0.44032 3.44064-0.44032 5.21216V512h40.94976l0.01024-25.8048c0-13.19936 9.0624-24.70912 21.99552-27.91424l187.50464-46.4384c18.41152-4.5568 36.23936 9.22624 36.23936 28.01664V512H665.6z" fill="#D1746D" p-id="36657"></path><path d="M358.43072 386.68288v208.01536c0 7.36256-6.88128 12.94336-14.10048 11.2128a70.79936 70.79936 0 0 0-18.6368-1.93536c-38.0416 1.06496-69.62176 33.85344-69.65248 71.53664-0.04096 39.24992 32.07168 72.3456 71.66976 72.3456 36.096 0 66.67264-27.38176 71.64928-61.77792l0.03072-210.1248c0-13.19936 9.0624-24.70912 21.99552-27.91424l187.50464-46.4384c18.41152-4.5568 36.23936 9.22624 36.23936 28.01664v93.4912c0 7.38304-6.90176 12.96384-14.14144 11.23328a71.44448 71.44448 0 0 0-18.59584-1.92512c-38.0416 1.06496-69.62176 34.80576-69.66272 72.4992-0.04096 39.24992 32.07168 71.0656 71.68 71.0656 36.096 0 66.69312-27.19744 71.66976-61.60384V334.2336c0-37.35552-35.44064-64.768-72.01792-55.7056l-211.70176 52.41856c-25.82528 6.38976-43.9296 29.37856-43.9296 55.73632z" fill="#F4F0D3" p-id="36658"></path></svg>