<?xml version="1.0" standalone="no"?><!DOCTYPE svg PUBLIC "-//W3C//DTD SVG 1.1//EN" "http://www.w3.org/Graphics/SVG/1.1/DTD/svg11.dtd"><svg t="1705998912655" class="icon" viewBox="0 0 1024 1024" version="1.1" xmlns="http://www.w3.org/2000/svg" p-id="6068" xmlns:xlink="http://www.w3.org/1999/xlink" width="128" height="128"><path d="M807.532859 896.078128H216.675483c-32.501322 0-59.169074-26.45941-59.169074-59.169074V187.090946c0-32.501322 26.45941-59.169074 59.169074-59.169074h590.857376c32.501322 0 58.960732 26.45941 58.960732 59.169074v649.818108c0 32.501322-26.667752 59.169074-58.960732 59.169074z" fill="#00796B" p-id="6069"></path><path d="M216.675483 187.090946v649.818108h590.649034l0.208342-649.818108z" fill="#E0F2F1" p-id="6070"></path><path d="M305.220753 258.552187h59.169074v58.960733h-59.169074v-58.960733z m118.129807 0H718.779247v58.960733H423.35056v-58.960733zM423.35056 407.933266H718.779247v58.960732H423.35056v-58.960732z m-118.129807 0h59.169074v58.960732h-59.169074v-58.960732zM305.220753 557.106002h59.169074v58.960732h-59.169074v-58.960732z m118.129807 0H718.779247v58.960732H423.35056v-58.960732zM305.220753 706.48708h59.169074v58.960733h-59.169074v-58.960733z m118.129807 0H718.779247v58.960733H423.35056v-58.960733z" fill="#F57F17" p-id="6071"></path></svg>