<?xml version="1.0" standalone="no"?><!DOCTYPE svg PUBLIC "-//W3C//DTD SVG 1.1//EN" "http://www.w3.org/Graphics/SVG/1.1/DTD/svg11.dtd"><svg t="1698047487390" class="icon" viewBox="0 0 1024 1024" version="1.1" xmlns="http://www.w3.org/2000/svg" p-id="5072" xmlns:xlink="http://www.w3.org/1999/xlink" width="128" height="128"><path d="M850.79 62.454L600.558 38.236a21.829 21.829 0 0 0-17.018 5.673 21.79 21.79 0 0 0-6.979 16.797l12.212 325.934a21.824 21.824 0 0 0 13.963 19.636l157.299 60.433a24.881 24.881 0 0 0 7.853 1.311 20.59 20.59 0 0 0 8.07-1.529l92.721-36.434a21.81 21.81 0 0 0 13.744-18.107l27.048-278.379c3.299-35.802-22.907-67.553-58.681-71.117zM576.562 874.129L857.465 593.24l82.222 82.229-280.922 280.906-82.203-82.246z m363.172-198.86l-82.249-82.222 26.701-26.683a50.395 50.395 0 0 1 71.275 0l10.957 10.952a50.417 50.417 0 0 1 14.759 35.636 50.423 50.423 0 0 1-14.759 35.64l-26.684 26.677z m0 0" fill="#FCE0D2" p-id="5073"></path><path d="M658.805 956.479l-123.476 41.017 41.014-123.261h0.219l82.243 82.244z m0 0" fill="#FFDEAD" p-id="5074"></path><path d="M738.876 190.295h-130.9a7.192 7.192 0 0 1-7.196-7.196v-130.9a50.826 50.826 0 0 0-14.968-36.021 50.847 50.847 0 0 0-36.083-14.812H157.031c-36.146 0-65.45 29.306-65.45 65.451v887.049a65.416 65.416 0 0 0 19.175 46.275 65.428 65.428 0 0 0 46.275 19.175h214.24c9.293-0.068 17.526-6.029 20.504-14.84l37.088-110.605 354.513-354.733a21.784 21.784 0 0 0 6.323-15.492V241.347a50.81 50.81 0 0 0-14.802-36.083 50.838 50.838 0 0 0-36.021-14.969z m0 0" fill="#FCE0D2" p-id="5075"></path><path d="M757.417 218.876a28.174 28.174 0 0 0-18.541-6.765h-130.9c-16.025 0-29.018-12.989-29.018-29.011V52.2a28.824 28.824 0 0 0-8.511-20.51l186.97 187.186z m0 0" fill="#FCE0D2" p-id="5076"></path><path d="M215.279 552.88h116.282v116.283H215.279z" fill="#79DEB4" p-id="5077"></path><path d="M40.748 145.574h290.813V436.38H40.748z" fill="#FFEFB0" p-id="5078"></path><path d="M371.271 975.681h-214.24c-12.046 0-21.813-9.768-21.813-21.814V458.203h167.325a50.812 50.812 0 0 0 35.946-14.894 50.822 50.822 0 0 0 14.887-35.939V174.585c0-28.068-22.756-50.831-50.833-50.831H135.218V66.817c0-12.053 9.767-21.815 21.813-21.815h392.697c4.01-0.006 7.293 3.183 7.412 7.197v130.9a50.833 50.833 0 0 0 50.835 50.825h130.9c1.944 0 3.805 0.793 5.169 2.191a7.218 7.218 0 0 1 2.028 5.231v283.61c0 12.053 9.768 21.814 21.814 21.814 12.053 0 21.812-9.762 21.812-21.814v-283.61a50.564 50.564 0 0 0-17.233-36.433L656.62 89.069l189.588 18.326a21.809 21.809 0 0 1 14.681 7.977 21.794 21.794 0 0 1 4.737 16.021l-26.614 276.632a21.803 21.803 0 0 0 4.809 16.091 21.828 21.828 0 0 0 14.821 7.903c11.99 1.142 22.633-7.646 23.781-19.63l27.048-278.379c3.555-35.964-22.72-67.998-58.681-71.555L608.409 38.893l-21.812-21.816a50.595 50.595 0 0 0-35.995-14.835H157.906c-36.145 0-65.45 29.305-65.45 65.45v56.937H70.64c-28.025 0.119-50.714 22.807-50.832 50.832V407.37a50.825 50.825 0 0 0 14.886 35.939 50.83 50.83 0 0 0 35.946 14.894h21.815v495.664a65.453 65.453 0 0 0 65.45 65.45h214.233c12.046-0.006 21.814-9.777 21.814-21.821 0-12.046-9.768-21.808-21.814-21.814h-0.867zM600.78 92.775l97.292 97.52h-90.096a7.192 7.192 0 0 1-7.196-7.196V92.775zM62.571 407.37V174.585c0-1.909 0.753-3.737 2.109-5.086a7.164 7.164 0 0 1 5.087-2.109h232.776c1.912 0 3.746 0.753 5.094 2.109a7.192 7.192 0 0 1 2.109 5.086V407.37a7.197 7.197 0 0 1-2.109 5.087 7.187 7.187 0 0 1-5.094 2.11H69.767a7.17 7.17 0 0 1-5.087-2.11 7.165 7.165 0 0 1-2.109-5.087z m0 0" fill="#F57324" p-id="5079"></path><path d="M227.063 532.159a33.368 33.368 0 0 0-33.598 33.373v93.158c0.705 18.045 15.541 32.301 33.598 32.289h92.939c18.431 0 33.374-14.943 33.374-33.381v-93.151c-0.474-18.057-15.311-32.412-33.374-32.288h-92.939z m82.684 116.277H237.1V575.79h72.647v72.646z m320.04 6.766a21.824 21.824 0 0 0-6.385-15.43 21.825 21.825 0 0 0-15.427-6.386h-174.53c-12.046 0-21.809 9.769-21.809 21.815 0 12.046 9.762 21.814 21.809 21.814h174.531c12.047 0.002 21.811-9.767 21.811-21.813zM433.445 545.03c-12.046 0-21.809 9.768-21.809 21.814s9.762 21.814 21.809 21.814h72.647c12.045 0 21.813-9.769 21.813-21.814 0-12.047-9.768-21.814-21.813-21.814h-72.647zM600.78 363.733c0-12.047-9.769-21.814-21.821-21.814H433.445c-12.046 0-21.814 9.767-21.814 21.814 0 12.053 9.768 21.815 21.814 21.815h145.514c12.052 0.001 21.821-9.762 21.821-21.815z m-167.335-66.754h72.647c12.045-0.007 21.813-9.768 21.813-21.814 0-12.053-9.768-21.815-21.813-21.822h-72.647c-12.046 0.006-21.809 9.769-21.809 21.822 0 12.046 9.762 21.807 21.809 21.814z m-206.382-61.525l-65.45 65.451-18.762-18.763c-8.507-8.458-22.252-8.458-30.759 0a21.81 21.81 0 0 0 0 30.977l34.037 34.035a21.77 21.77 0 0 0 15.485 6.541 21.79 21.79 0 0 0 15.491-6.541l80.282-80.067c8.737-8.37 9.031-22.239 0.655-30.979-8.372-8.735-22.246-9.023-30.979-0.654zM981.25 562.7l-11.129-11.129c-28.19-28.183-73.901-28.183-102.098 0L561.067 859.398a19.2 19.2 0 0 0-5.233 8.514l-41.235 122.384a21.819 21.819 0 0 0 27.488 27.491l123.481-40.577a21.9 21.9 0 0 0 8.514-5.455L981.25 664.8c28.185-28.198 28.185-73.902 0-102.1zM569.792 963.029l16.15-48.436 32.288 32.069-48.438 16.367z m89.013-38.183l-51.484-51.267 196.342-196.345 51.487 51.271-196.345 196.341z m227.332-226.67l-51.491-51.263 21.814-21.821 51.27 51.486-21.593 21.598z m64.136-65.445l-10.47 10.686-51.491-50.177 10.692-10.686c11.156-11.123 29.208-11.123 40.358 0l10.91 10.904c11.123 11.152 11.123 29.205 0 40.358v-1.085z m0 0" fill="#F57324" p-id="5080"></path></svg>