<?xml version="1.0" standalone="no"?><!DOCTYPE svg PUBLIC "-//W3C//DTD SVG 1.1//EN" "http://www.w3.org/Graphics/SVG/1.1/DTD/svg11.dtd"><svg t="1701840956854" class="icon" viewBox="0 0 1024 1024" version="1.1" xmlns="http://www.w3.org/2000/svg" p-id="3048" xmlns:xlink="http://www.w3.org/1999/xlink" width="128" height="128"><path d="M391.168 310.84544c64.9216 0 116.40832 21.0944 154.05056 63.488 35.79904 39.97696 53.69856 92.9792 53.69856 158.02368 0 64.9216-17.8176 117.3504-53.69856 157.45024-37.76512 41.94304-89.2928 62.91456-154.05056 62.91456-65.00352 0-116.736-21.34016-154.09152-63.56992-35.59424-40.30464-53.08416-92.5696-53.08416-156.79488 0-64.75776 17.44896-117.02272 53.00224-157.2864 37.02784-43.008 88.4736-64.22528 154.17344-64.22528z m407.1424 0c50.13504 0 89.4976 10.32192 117.84192 31.41632 30.72 22.77376 48.41472 58.20416 52.59264 105.0624v0.36864c0.04096 4.9152-3.64544 8.56064-8.15104 8.56064h-66.51904a8.192 8.192 0 0 1-7.9872-6.38976c-5.24288-23.1424-15.03232-39.936-28.54912-49.80736-12.9024-9.91232-33.75104-14.90944-62.6688-14.90944-24.90368 0-42.96704 3.2768-55.41888 10.0352-14.09024 7.04512-20.6848 18.30912-20.6848 35.10272 0 14.336 7.74144 25.84576 24.33024 34.6112 0.69632 0.4096 1.47456 0.8192 2.41664 1.2288l6.67648 2.8672 14.70464 5.57056 19.90656 6.88128 16.01536 5.28384 20.0704 6.3488 20.97152 6.79936 18.96448 6.47168 16.7936 6.10304 14.58176 5.69344 12.32896 5.28384 9.99424 4.83328 4.096 2.21184c38.05184 22.69184 57.344 54.59968 57.344 95.35488 0 39.3216-15.5648 71.02464-46.40768 93.7984-30.47424 21.95456-73.07264 33.09568-126.3616 33.09568-52.06016 0-93.184-10.15808-122.83904-30.72-36.74112-25.76384-56.68864-66.06848-59.67872-120.4224v-0.2048c0-4.75136 3.6864-8.3968 8.192-8.3968h66.51904a8.192 8.192 0 0 1 8.11008 6.9632c4.34176 29.32736 14.37696 49.5616 29.9008 61.07136 14.82752 10.56768 38.17472 16.26112 69.79584 16.26112 28.30336 0 51.11808-4.83328 66.88768-13.76256 15.27808-9.17504 22.40512-19.94752 22.40512-33.66912 0-18.18624-10.97728-32.84992-33.87392-44.27776l-4.66944-2.048-7.04512-2.70336-27.19744-9.29792-39.64928-12.45184-36.98688-12.0832-22.24128-7.74144-12.16512-4.5056-10.15808-4.096-8.11008-3.60448a91.29984 91.29984 0 0 1-6.10304-3.15392c-33.87392-20.31616-50.9952-50.46272-50.9952-89.57952 0-39.19872 16.54784-70.28736 49.3568-92.16 30.02368-21.01248 67.74784-31.29344 113.664-31.29344zM118.784 440.03328a12.288 12.288 0 0 1 12.288 12.288v271.89248a12.288 12.288 0 0 1-12.288 12.288H61.44a12.288 12.288 0 0 1-12.288-12.288v-271.89248a12.288 12.288 0 0 1 12.288-12.288h57.344zM391.168 386.2528c-39.97696 0-70.36928 13.27104-92.28288 39.97696-21.01248 25.88672-31.41632 60.70272-31.41632 106.0864 0 44.8512 10.4448 79.6672 31.41632 105.472 21.2992 26.13248 52.224 39.44448 92.28288 39.44448 39.97696 0 70.4512-12.6976 91.7504-37.76512 21.17632-25.51808 31.9488-61.07136 31.9488-107.15136 0-46.16192-10.81344-82.3296-31.9488-108.29824-21.0944-25.31328-51.28192-37.76512-91.7504-37.76512zM90.112 318.38208a49.152 49.152 0 1 1 0 98.304 49.152 49.152 0 0 1 0-98.304z" fill="#2c2c2c" p-id="3049"></path></svg>